G04*
G04 #@! TF.GenerationSoftware,Altium Limited,Altium Designer,20.0.11 (256)*
G04*
G04 Layer_Color=32896*
%FSLAX25Y25*%
%MOIN*%
G70*
G01*
G75*
%ADD11C,0.01181*%
%ADD23C,0.00787*%
G36*
X141301Y40626D02*
X141414D01*
Y40513D01*
X141527D01*
Y40626D01*
X141640D01*
Y40513D01*
X141753D01*
Y40626D01*
X141866D01*
Y40513D01*
X142204D01*
Y40400D01*
X142317D01*
Y40288D01*
X142430D01*
Y40400D01*
X142317D01*
Y40513D01*
X142430D01*
Y40400D01*
X142543D01*
Y40288D01*
X142881D01*
Y40175D01*
X142994D01*
Y40062D01*
X143333D01*
Y39949D01*
X143446D01*
Y39836D01*
X143784D01*
Y39723D01*
X143897D01*
Y39610D01*
X144010D01*
Y39498D01*
X144123D01*
Y39385D01*
X144236D01*
Y39272D01*
X144349D01*
Y39159D01*
X144462D01*
Y39046D01*
X144574D01*
Y38933D01*
X144687D01*
Y38820D01*
X144800D01*
Y38707D01*
X144913D01*
Y38594D01*
X144800D01*
Y38482D01*
X145026D01*
Y38369D01*
Y38256D01*
X145139D01*
Y38143D01*
X145252D01*
Y38030D01*
X145364D01*
Y37917D01*
X145252D01*
Y37804D01*
X145364D01*
Y37692D01*
X145477D01*
Y37579D01*
X145590D01*
Y37466D01*
X145477D01*
Y37353D01*
X145590D01*
Y37240D01*
X145703D01*
Y37127D01*
X145816D01*
Y37014D01*
X145703D01*
Y36902D01*
X145816D01*
Y36789D01*
X145703D01*
Y36676D01*
X145816D01*
Y36563D01*
X145929D01*
Y36450D01*
X146042D01*
Y36337D01*
X145929D01*
Y36224D01*
X146042D01*
Y36111D01*
X145929D01*
Y35999D01*
X146042D01*
Y35886D01*
Y35773D01*
X146267D01*
Y35660D01*
X146154D01*
Y35547D01*
X146267D01*
Y35434D01*
X146154D01*
Y35321D01*
X146267D01*
Y35208D01*
X146154D01*
Y35096D01*
X146267D01*
Y34983D01*
X146154D01*
Y34870D01*
X146267D01*
Y34757D01*
Y34644D01*
Y34531D01*
Y34418D01*
Y34306D01*
Y34193D01*
Y34080D01*
Y33967D01*
Y33854D01*
Y33741D01*
Y33628D01*
X146154D01*
Y33516D01*
X146267D01*
Y33403D01*
X146154D01*
Y33290D01*
Y33177D01*
Y33064D01*
X146042D01*
Y32951D01*
Y32838D01*
Y32725D01*
X145929D01*
Y32613D01*
X145816D01*
Y32500D01*
Y32387D01*
Y32274D01*
X145703D01*
Y32161D01*
X145590D01*
Y32048D01*
X145477D01*
Y31935D01*
X145364D01*
Y31822D01*
X145252D01*
Y31710D01*
X145139D01*
Y31597D01*
X144800D01*
Y31484D01*
X144687D01*
Y31371D01*
X144123D01*
Y31258D01*
X144010D01*
Y31145D01*
X143897D01*
Y31258D01*
X143784D01*
Y31145D01*
X143671D01*
Y31258D01*
X143559D01*
Y31145D01*
X143220D01*
Y31258D01*
X143107D01*
Y31145D01*
X142769D01*
Y31258D01*
X142656D01*
Y31145D01*
X142543D01*
Y31258D01*
X142204D01*
Y31371D01*
X141640D01*
Y31484D01*
X141527D01*
Y31597D01*
X141188D01*
Y31710D01*
X141076D01*
Y31822D01*
X140963D01*
Y31710D01*
X141076D01*
Y31597D01*
X140963D01*
Y31710D01*
X140850D01*
Y31822D01*
X140737D01*
Y31935D01*
X140624D01*
Y32048D01*
X140285D01*
Y32161D01*
X140398D01*
Y32274D01*
X140060D01*
Y32387D01*
X139947D01*
Y32500D01*
X139834D01*
Y32613D01*
X139721D01*
Y32725D01*
X139608D01*
Y32838D01*
X139495D01*
Y32951D01*
X139382D01*
Y33064D01*
X139495D01*
Y33177D01*
X139608D01*
Y33064D01*
X139721D01*
Y33177D01*
X139834D01*
Y33064D01*
X139947D01*
Y33177D01*
X139834D01*
Y33290D01*
X140173D01*
Y33403D01*
X140285D01*
Y33516D01*
X140398D01*
Y33403D01*
X140511D01*
Y33516D01*
X140624D01*
Y33628D01*
X140737D01*
Y33516D01*
X140850D01*
Y33628D01*
X140737D01*
Y33741D01*
X140850D01*
Y33628D01*
X140963D01*
Y33741D01*
X141076D01*
Y33854D01*
X141188D01*
Y33741D01*
X141301D01*
Y33854D01*
X141188D01*
Y33967D01*
X141301D01*
Y33854D01*
X141414D01*
Y33741D01*
X141753D01*
Y33628D01*
X141640D01*
Y33516D01*
X141978D01*
Y33403D01*
X142091D01*
Y33290D01*
X142430D01*
Y33177D01*
X142543D01*
Y33064D01*
X142656D01*
Y33177D01*
X142769D01*
Y33064D01*
X142881D01*
Y33177D01*
X142769D01*
Y33290D01*
X142881D01*
Y33177D01*
X142994D01*
Y33064D01*
X143107D01*
Y33177D01*
X142994D01*
Y33290D01*
X143333D01*
Y33403D01*
X143446D01*
Y33516D01*
X143559D01*
Y33628D01*
X143671D01*
Y33741D01*
X143784D01*
Y33854D01*
X143671D01*
Y33967D01*
X143784D01*
Y34080D01*
X143671D01*
Y34193D01*
X143784D01*
Y34306D01*
X143671D01*
Y34418D01*
X143784D01*
Y34531D01*
X143671D01*
Y34644D01*
X143784D01*
Y34757D01*
X143671D01*
Y34870D01*
X143784D01*
Y34983D01*
X143671D01*
Y35096D01*
X143784D01*
Y35208D01*
X143671D01*
Y35321D01*
X143784D01*
Y35434D01*
X143671D01*
Y35547D01*
X143784D01*
Y35660D01*
X143671D01*
Y35773D01*
X143559D01*
Y35886D01*
X143671D01*
Y35999D01*
X143559D01*
Y36111D01*
X143446D01*
Y36224D01*
X143559D01*
Y36337D01*
X143446D01*
Y36450D01*
Y36563D01*
Y36676D01*
X143333D01*
Y36789D01*
X143220D01*
Y36902D01*
X143333D01*
Y37014D01*
X143220D01*
Y37127D01*
X143107D01*
Y37240D01*
Y37353D01*
Y37466D01*
X142994D01*
Y37579D01*
X142881D01*
Y37692D01*
X142769D01*
Y37804D01*
Y37917D01*
X142543D01*
Y38030D01*
X142656D01*
Y38143D01*
X142317D01*
Y38256D01*
X142430D01*
Y38369D01*
X142091D01*
Y38482D01*
X141978D01*
Y38594D01*
X141640D01*
Y38707D01*
X141527D01*
Y38594D01*
X141414D01*
Y38707D01*
X141301D01*
Y38594D01*
X141188D01*
Y38707D01*
X141076D01*
Y38594D01*
X140963D01*
Y38482D01*
X140850D01*
Y38594D01*
X140737D01*
Y38482D01*
X140850D01*
Y38369D01*
X140511D01*
Y38256D01*
X140624D01*
Y38143D01*
X140511D01*
Y38030D01*
X140398D01*
Y37917D01*
Y37804D01*
Y37692D01*
X140060D01*
Y37804D01*
X139721D01*
Y37917D01*
X139157D01*
Y38030D01*
X139044D01*
Y38143D01*
X138931D01*
Y38030D01*
X138818D01*
Y38143D01*
X138479D01*
Y38256D01*
X138367D01*
Y38143D01*
X138254D01*
Y38256D01*
X138141D01*
Y38369D01*
X138028D01*
Y38256D01*
X137915D01*
Y38369D01*
Y38482D01*
Y38594D01*
X138028D01*
Y38707D01*
Y38820D01*
Y38933D01*
X138141D01*
Y39046D01*
Y39159D01*
Y39272D01*
X138254D01*
Y39385D01*
X138367D01*
Y39498D01*
X138479D01*
Y39610D01*
X138592D01*
Y39723D01*
X138479D01*
Y39836D01*
X138818D01*
Y39949D01*
X138931D01*
Y40062D01*
X139044D01*
Y40175D01*
X139157D01*
Y40288D01*
X139495D01*
Y40400D01*
X139608D01*
Y40513D01*
X139721D01*
Y40400D01*
X139834D01*
Y40513D01*
X139947D01*
Y40626D01*
X140060D01*
Y40513D01*
X140173D01*
Y40626D01*
X140285D01*
Y40513D01*
X140398D01*
Y40626D01*
X140285D01*
Y40739D01*
X140398D01*
Y40626D01*
X140511D01*
Y40513D01*
X140624D01*
Y40626D01*
X140511D01*
Y40739D01*
X140624D01*
Y40626D01*
X140737D01*
Y40739D01*
X140850D01*
Y40626D01*
X140963D01*
Y40513D01*
X141076D01*
Y40626D01*
X140963D01*
Y40739D01*
X141076D01*
Y40626D01*
X141188D01*
Y40739D01*
X141301D01*
Y40626D01*
D02*
G37*
G36*
X164100Y40400D02*
X163988D01*
Y40513D01*
X164100D01*
Y40400D01*
D02*
G37*
G36*
X169744D02*
X169857D01*
Y40288D01*
Y40175D01*
Y40062D01*
X169969D01*
Y39949D01*
X169857D01*
Y39836D01*
X169969D01*
Y39723D01*
Y39610D01*
Y39498D01*
X170082D01*
Y39385D01*
Y39272D01*
Y39159D01*
X170195D01*
Y39046D01*
X170082D01*
Y38933D01*
X170195D01*
Y38820D01*
Y38707D01*
Y38594D01*
X170308D01*
Y38482D01*
Y38369D01*
Y38256D01*
X170421D01*
Y38143D01*
X170308D01*
Y38030D01*
X170421D01*
Y37917D01*
Y37804D01*
Y37692D01*
X170534D01*
Y37579D01*
X170647D01*
Y37466D01*
X170534D01*
Y37353D01*
X170647D01*
Y37240D01*
X170534D01*
Y37127D01*
X170647D01*
Y37014D01*
Y36902D01*
Y36789D01*
X170760D01*
Y36676D01*
Y36563D01*
Y36450D01*
X170872D01*
Y36337D01*
X170760D01*
Y36224D01*
X170872D01*
Y36111D01*
X170760D01*
Y35999D01*
X170872D01*
Y35886D01*
X170985D01*
Y35773D01*
X171098D01*
Y35660D01*
X170985D01*
Y35547D01*
X171098D01*
Y35434D01*
X170985D01*
Y35321D01*
X171098D01*
Y35208D01*
X170985D01*
Y35096D01*
X171098D01*
Y34983D01*
X170985D01*
Y34870D01*
X171098D01*
Y34757D01*
X171211D01*
Y34644D01*
X171098D01*
Y34531D01*
X171211D01*
Y34418D01*
X171098D01*
Y34306D01*
X171211D01*
Y34193D01*
X171098D01*
Y34080D01*
X171211D01*
Y33967D01*
X171098D01*
Y33854D01*
X171211D01*
Y33741D01*
X171098D01*
Y33628D01*
X170985D01*
Y33516D01*
X171098D01*
Y33403D01*
X170985D01*
Y33290D01*
X171098D01*
Y33177D01*
X170985D01*
Y33064D01*
X171098D01*
Y32951D01*
X170985D01*
Y32838D01*
X170872D01*
Y32725D01*
X170760D01*
Y32613D01*
X170872D01*
Y32500D01*
X170760D01*
Y32387D01*
X170647D01*
Y32274D01*
X170534D01*
Y32161D01*
X170421D01*
Y32048D01*
X170308D01*
Y31935D01*
X170195D01*
Y31822D01*
X170082D01*
Y31710D01*
X169969D01*
Y31597D01*
X169631D01*
Y31484D01*
X169518D01*
Y31371D01*
X168954D01*
Y31258D01*
X168841D01*
Y31371D01*
X168728D01*
Y31258D01*
X168841D01*
Y31145D01*
X168728D01*
Y31258D01*
X168615D01*
Y31145D01*
X168502D01*
Y31258D01*
X168389D01*
Y31145D01*
X168051D01*
Y31258D01*
X167938D01*
Y31145D01*
X167599D01*
Y31258D01*
X167486D01*
Y31145D01*
X167374D01*
Y31258D01*
X167261D01*
Y31145D01*
X167148D01*
Y31258D01*
X167035D01*
Y31371D01*
X166922D01*
Y31258D01*
X167035D01*
Y31145D01*
X166922D01*
Y31258D01*
X166809D01*
Y31371D01*
X166471D01*
Y31484D01*
X166358D01*
Y31371D01*
X166245D01*
Y31484D01*
X166132D01*
Y31597D01*
X166019D01*
Y31484D01*
X165906D01*
Y31597D01*
X165793D01*
Y31710D01*
X165681D01*
Y31822D01*
X165568D01*
Y31710D01*
X165681D01*
Y31597D01*
X165568D01*
Y31710D01*
X165455D01*
Y31822D01*
X165342D01*
Y31935D01*
X165229D01*
Y32048D01*
X164891D01*
Y32161D01*
X164778D01*
Y32274D01*
X164665D01*
Y32387D01*
X164552D01*
Y32500D01*
X164439D01*
Y32613D01*
X164326D01*
Y32725D01*
X164213D01*
Y32838D01*
X164100D01*
Y32951D01*
X163988D01*
Y33064D01*
X163875D01*
Y33177D01*
X163762D01*
Y33290D01*
Y33403D01*
X163536D01*
Y33516D01*
X163649D01*
Y33628D01*
X163536D01*
Y33741D01*
X163423D01*
Y33854D01*
X163310D01*
Y33967D01*
X163423D01*
Y34080D01*
X163310D01*
Y34193D01*
X163198D01*
Y34306D01*
X163085D01*
Y34418D01*
X163198D01*
Y34531D01*
X163085D01*
Y34644D01*
X162972D01*
Y34757D01*
Y34870D01*
Y34983D01*
X162859D01*
Y35096D01*
Y35208D01*
Y35321D01*
Y35434D01*
Y35547D01*
X162746D01*
Y35660D01*
X162633D01*
Y35773D01*
X162746D01*
Y35886D01*
X162633D01*
Y35999D01*
X162746D01*
Y36111D01*
X162633D01*
Y36224D01*
X162520D01*
Y36337D01*
Y36450D01*
Y36563D01*
X162407D01*
Y36676D01*
X162520D01*
Y36789D01*
X162407D01*
Y36902D01*
X162520D01*
Y37014D01*
X162407D01*
Y37127D01*
X162294D01*
Y37240D01*
X162407D01*
Y37127D01*
X162520D01*
Y37240D01*
X162407D01*
Y37353D01*
X162294D01*
Y37466D01*
X162182D01*
Y37579D01*
X162294D01*
Y37692D01*
X162182D01*
Y37804D01*
X162294D01*
Y37917D01*
X162182D01*
Y38030D01*
X162069D01*
Y38143D01*
X162182D01*
Y38256D01*
X162069D01*
Y38369D01*
X161956D01*
Y38482D01*
X162069D01*
Y38594D01*
X161956D01*
Y38707D01*
X162069D01*
Y38820D01*
X161956D01*
Y38933D01*
X162069D01*
Y39046D01*
X161956D01*
Y39159D01*
X161843D01*
Y39272D01*
X161730D01*
Y39385D01*
X161843D01*
Y39498D01*
X161730D01*
Y39610D01*
X161843D01*
Y39723D01*
X161730D01*
Y39836D01*
Y39949D01*
Y40062D01*
X161617D01*
Y40175D01*
X161504D01*
Y40288D01*
X161617D01*
Y40400D01*
X161730D01*
Y40513D01*
X161843D01*
Y40400D01*
X161956D01*
Y40288D01*
X162069D01*
Y40400D01*
X161956D01*
Y40513D01*
X162069D01*
Y40400D01*
X162182D01*
Y40288D01*
X162294D01*
Y40400D01*
X162182D01*
Y40513D01*
X162294D01*
Y40400D01*
X162407D01*
Y40288D01*
X162520D01*
Y40400D01*
X162407D01*
Y40513D01*
X162520D01*
Y40400D01*
X162633D01*
Y40513D01*
X162746D01*
Y40400D01*
X162859D01*
Y40288D01*
X162972D01*
Y40400D01*
X162859D01*
Y40513D01*
X162972D01*
Y40400D01*
X163085D01*
Y40288D01*
X163198D01*
Y40400D01*
X163085D01*
Y40513D01*
X163198D01*
Y40400D01*
X163310D01*
Y40288D01*
X163423D01*
Y40400D01*
X163310D01*
Y40513D01*
X163423D01*
Y40400D01*
X163536D01*
Y40513D01*
X163649D01*
Y40400D01*
X163762D01*
Y40288D01*
X163875D01*
Y40400D01*
X163762D01*
Y40513D01*
X163875D01*
Y40400D01*
X163988D01*
Y40288D01*
X164100D01*
Y40175D01*
X164213D01*
Y40062D01*
X164100D01*
Y39949D01*
X164213D01*
Y39836D01*
X164326D01*
Y39723D01*
X164213D01*
Y39610D01*
X164326D01*
Y39498D01*
X164213D01*
Y39385D01*
X164326D01*
Y39272D01*
Y39159D01*
Y39046D01*
X164439D01*
Y38933D01*
Y38820D01*
Y38707D01*
X164552D01*
Y38594D01*
X164439D01*
Y38482D01*
X164552D01*
Y38369D01*
Y38256D01*
Y38143D01*
X164665D01*
Y38030D01*
X164778D01*
Y37917D01*
X164665D01*
Y37804D01*
X164778D01*
Y37692D01*
X164665D01*
Y37579D01*
X164778D01*
Y37466D01*
Y37353D01*
Y37240D01*
X164891D01*
Y37127D01*
Y37014D01*
Y36902D01*
X165003D01*
Y36789D01*
X164891D01*
Y36676D01*
X165003D01*
Y36563D01*
Y36450D01*
Y36337D01*
X165116D01*
Y36224D01*
X165229D01*
Y36111D01*
X165116D01*
Y35999D01*
X165229D01*
Y35886D01*
X165116D01*
Y35773D01*
X165229D01*
Y35660D01*
Y35547D01*
Y35434D01*
X165342D01*
Y35321D01*
Y35208D01*
Y35096D01*
X165455D01*
Y34983D01*
X165342D01*
Y34870D01*
X165455D01*
Y34757D01*
X165568D01*
Y34644D01*
X165681D01*
Y34531D01*
X165568D01*
Y34418D01*
X165681D01*
Y34306D01*
X165793D01*
Y34193D01*
X165906D01*
Y34080D01*
X165793D01*
Y33967D01*
X165906D01*
Y33854D01*
X166019D01*
Y33741D01*
X166132D01*
Y33628D01*
X166245D01*
Y33516D01*
X166358D01*
Y33403D01*
X166471D01*
Y33290D01*
X166809D01*
Y33177D01*
X166922D01*
Y33064D01*
X167035D01*
Y33177D01*
X166922D01*
Y33290D01*
X167035D01*
Y33177D01*
X167148D01*
Y33290D01*
X167261D01*
Y33177D01*
X167374D01*
Y33064D01*
X167486D01*
Y33177D01*
X167599D01*
Y33064D01*
X167712D01*
Y33177D01*
X167599D01*
Y33290D01*
X167712D01*
Y33177D01*
X167825D01*
Y33064D01*
X167938D01*
Y33177D01*
X167825D01*
Y33290D01*
X167938D01*
Y33177D01*
X168051D01*
Y33290D01*
X168164D01*
Y33403D01*
X168277D01*
Y33290D01*
X168389D01*
Y33403D01*
X168277D01*
Y33516D01*
X168389D01*
Y33403D01*
X168502D01*
Y33516D01*
X168615D01*
Y33628D01*
X168502D01*
Y33741D01*
X168615D01*
Y33854D01*
Y33967D01*
Y34080D01*
X168728D01*
Y34193D01*
X168615D01*
Y34306D01*
X168728D01*
Y34418D01*
Y34531D01*
Y34644D01*
X168615D01*
Y34757D01*
Y34870D01*
Y34983D01*
Y35096D01*
Y35208D01*
X168502D01*
Y35321D01*
X168615D01*
Y35434D01*
X168502D01*
Y35547D01*
X168615D01*
Y35660D01*
X168502D01*
Y35773D01*
X168389D01*
Y35886D01*
Y35999D01*
Y36111D01*
X168277D01*
Y36224D01*
X168389D01*
Y36337D01*
X168277D01*
Y36450D01*
Y36563D01*
Y36676D01*
Y36789D01*
Y36902D01*
X168164D01*
Y37014D01*
X168051D01*
Y37127D01*
X168164D01*
Y37240D01*
X168051D01*
Y37353D01*
X168164D01*
Y37466D01*
X168051D01*
Y37579D01*
X167938D01*
Y37692D01*
Y37804D01*
Y37917D01*
X167825D01*
Y38030D01*
X167938D01*
Y38143D01*
X167825D01*
Y38256D01*
X167938D01*
Y38369D01*
X167825D01*
Y38482D01*
X167938D01*
Y38594D01*
X167825D01*
Y38707D01*
X167712D01*
Y38820D01*
X167599D01*
Y38933D01*
X167712D01*
Y39046D01*
X167599D01*
Y39159D01*
X167712D01*
Y39272D01*
X167599D01*
Y39385D01*
X167486D01*
Y39498D01*
X167599D01*
Y39610D01*
X167486D01*
Y39723D01*
X167374D01*
Y39836D01*
X167486D01*
Y39949D01*
X167374D01*
Y40062D01*
X167486D01*
Y40175D01*
X167374D01*
Y40288D01*
X167486D01*
Y40400D01*
X167599D01*
Y40288D01*
X167712D01*
Y40400D01*
X167599D01*
Y40513D01*
X167712D01*
Y40400D01*
X167825D01*
Y40288D01*
X167938D01*
Y40400D01*
X167825D01*
Y40513D01*
X167938D01*
Y40400D01*
X168051D01*
Y40513D01*
X168164D01*
Y40400D01*
X168277D01*
Y40288D01*
X168389D01*
Y40400D01*
X168277D01*
Y40513D01*
X168389D01*
Y40400D01*
X168502D01*
Y40288D01*
X168615D01*
Y40400D01*
X168502D01*
Y40513D01*
X168615D01*
Y40400D01*
X168728D01*
Y40288D01*
X168841D01*
Y40400D01*
X168728D01*
Y40513D01*
X168841D01*
Y40400D01*
X168954D01*
Y40513D01*
X169067D01*
Y40400D01*
X169179D01*
Y40288D01*
X169292D01*
Y40400D01*
X169179D01*
Y40513D01*
X169292D01*
Y40400D01*
X169405D01*
Y40288D01*
X169518D01*
Y40400D01*
X169405D01*
Y40513D01*
X169518D01*
Y40400D01*
X169631D01*
Y40288D01*
X169744D01*
Y40400D01*
X169631D01*
Y40513D01*
X169744D01*
Y40400D01*
D02*
G37*
G36*
X156200D02*
X156313D01*
Y40288D01*
Y40175D01*
Y40062D01*
X156425D01*
Y39949D01*
X156313D01*
Y39836D01*
X156425D01*
Y39723D01*
X156313D01*
Y39610D01*
X156425D01*
Y39498D01*
X156538D01*
Y39385D01*
X156651D01*
Y39272D01*
X156538D01*
Y39159D01*
X156651D01*
Y39046D01*
X156538D01*
Y38933D01*
X156651D01*
Y38820D01*
X156538D01*
Y38707D01*
X156651D01*
Y38594D01*
X156764D01*
Y38482D01*
X156651D01*
Y38369D01*
X156764D01*
Y38256D01*
X156877D01*
Y38143D01*
X156764D01*
Y38030D01*
X156877D01*
Y37917D01*
X156764D01*
Y37804D01*
X156877D01*
Y37692D01*
Y37579D01*
Y37466D01*
X156990D01*
Y37353D01*
Y37240D01*
Y37127D01*
X157103D01*
Y37014D01*
X156990D01*
Y36902D01*
X157103D01*
Y36789D01*
X156990D01*
Y36676D01*
X157103D01*
Y36563D01*
X157215D01*
Y36450D01*
Y36337D01*
Y36224D01*
X157328D01*
Y36111D01*
X157215D01*
Y35999D01*
X157328D01*
Y35886D01*
Y35773D01*
Y35660D01*
X157441D01*
Y35547D01*
Y35434D01*
Y35321D01*
X157554D01*
Y35208D01*
X157441D01*
Y35096D01*
X157554D01*
Y34983D01*
Y34870D01*
Y34757D01*
X157667D01*
Y34644D01*
Y34531D01*
Y34418D01*
X157780D01*
Y34306D01*
X157667D01*
Y34193D01*
X157780D01*
Y34080D01*
Y33967D01*
Y33854D01*
X157893D01*
Y33741D01*
Y33628D01*
Y33516D01*
X158006D01*
Y33403D01*
X157893D01*
Y33290D01*
X158006D01*
Y33177D01*
X157893D01*
Y33064D01*
X158006D01*
Y32951D01*
X158118D01*
Y32838D01*
Y32725D01*
Y32613D01*
X158231D01*
Y32500D01*
X158118D01*
Y32387D01*
X158231D01*
Y32274D01*
X158118D01*
Y32161D01*
X158231D01*
Y32048D01*
X158344D01*
Y31935D01*
X158231D01*
Y31822D01*
X158344D01*
Y31710D01*
X158457D01*
Y31597D01*
X158344D01*
Y31484D01*
X158231D01*
Y31371D01*
X157893D01*
Y31484D01*
X157780D01*
Y31371D01*
X157441D01*
Y31484D01*
X157328D01*
Y31371D01*
X156990D01*
Y31484D01*
X156877D01*
Y31371D01*
X156764D01*
Y31484D01*
X156651D01*
Y31371D01*
X156538D01*
Y31484D01*
X156425D01*
Y31371D01*
X156087D01*
Y31484D01*
X155974D01*
Y31371D01*
X155635D01*
Y31484D01*
X155523D01*
Y31371D01*
X155184D01*
Y31484D01*
X155071D01*
Y31371D01*
X154958D01*
Y31484D01*
X154845D01*
Y31371D01*
X154732D01*
Y31484D01*
X154620D01*
Y31371D01*
X154507D01*
Y31484D01*
X154394D01*
Y31371D01*
X154281D01*
Y31484D01*
X154168D01*
Y31597D01*
X154055D01*
Y31484D01*
X154168D01*
Y31371D01*
X154055D01*
Y31484D01*
X153942D01*
Y31597D01*
X153830D01*
Y31484D01*
X153717D01*
Y31597D01*
X153378D01*
Y31710D01*
X153265D01*
Y31822D01*
X153152D01*
Y31710D01*
X153265D01*
Y31597D01*
X153152D01*
Y31710D01*
X153039D01*
Y31822D01*
X152927D01*
Y31935D01*
X152814D01*
Y32048D01*
X152701D01*
Y31935D01*
X152814D01*
Y31822D01*
X152701D01*
Y31935D01*
X152588D01*
Y32048D01*
X152475D01*
Y32161D01*
X152362D01*
Y32274D01*
X152024D01*
Y32387D01*
X151911D01*
Y32500D01*
X151798D01*
Y32613D01*
X151685D01*
Y32725D01*
X151572D01*
Y32838D01*
X151459D01*
Y32951D01*
X151346D01*
Y33064D01*
X151459D01*
Y33177D01*
X151346D01*
Y33290D01*
X151233D01*
Y33403D01*
X151121D01*
Y33516D01*
X151233D01*
Y33628D01*
X151121D01*
Y33741D01*
X151008D01*
Y33854D01*
X150895D01*
Y33967D01*
X151008D01*
Y34080D01*
X150895D01*
Y34193D01*
X151008D01*
Y34306D01*
X150895D01*
Y34418D01*
X150782D01*
Y34531D01*
X150895D01*
Y34644D01*
X150782D01*
Y34757D01*
X150669D01*
Y34870D01*
X150782D01*
Y34757D01*
X150895D01*
Y34870D01*
X150782D01*
Y34983D01*
X150895D01*
Y35096D01*
X151008D01*
Y35208D01*
X150895D01*
Y35321D01*
X151008D01*
Y35434D01*
X151121D01*
Y35547D01*
X151233D01*
Y35660D01*
X151346D01*
Y35773D01*
X151459D01*
Y35886D01*
X151572D01*
Y35773D01*
X151685D01*
Y35886D01*
X151572D01*
Y35999D01*
X151911D01*
Y36111D01*
X151798D01*
Y36224D01*
X151685D01*
Y36337D01*
X151346D01*
Y36450D01*
X151233D01*
Y36563D01*
X150895D01*
Y36676D01*
X150782D01*
Y36789D01*
X150669D01*
Y36902D01*
X150556D01*
Y37014D01*
X150443D01*
Y37127D01*
X150556D01*
Y37240D01*
X150443D01*
Y37353D01*
X150331D01*
Y37466D01*
X150218D01*
Y37579D01*
X150331D01*
Y37692D01*
X150218D01*
Y37804D01*
X150105D01*
Y37917D01*
Y38030D01*
Y38143D01*
Y38256D01*
Y38369D01*
Y38482D01*
Y38594D01*
Y38707D01*
Y38820D01*
Y38933D01*
X150331D01*
Y39046D01*
X150218D01*
Y39159D01*
X150331D01*
Y39272D01*
X150218D01*
Y39385D01*
X150443D01*
Y39498D01*
Y39610D01*
X150556D01*
Y39723D01*
X150669D01*
Y39836D01*
X150782D01*
Y39949D01*
X150895D01*
Y40062D01*
X151233D01*
Y40175D01*
X151346D01*
Y40288D01*
X151911D01*
Y40400D01*
X152024D01*
Y40288D01*
X152137D01*
Y40400D01*
X152249D01*
Y40288D01*
X152362D01*
Y40400D01*
X152249D01*
Y40513D01*
X152362D01*
Y40400D01*
X152475D01*
Y40288D01*
X152588D01*
Y40400D01*
X152475D01*
Y40513D01*
X152588D01*
Y40400D01*
X152701D01*
Y40513D01*
X152814D01*
Y40400D01*
X152927D01*
Y40288D01*
X153039D01*
Y40400D01*
X152927D01*
Y40513D01*
X153039D01*
Y40400D01*
X153152D01*
Y40288D01*
X153265D01*
Y40400D01*
X153152D01*
Y40513D01*
X153265D01*
Y40400D01*
X153378D01*
Y40288D01*
X153491D01*
Y40400D01*
X153378D01*
Y40513D01*
X153491D01*
Y40400D01*
X153604D01*
Y40513D01*
X153717D01*
Y40400D01*
X153830D01*
Y40288D01*
X153942D01*
Y40400D01*
X153830D01*
Y40513D01*
X153942D01*
Y40400D01*
X154055D01*
Y40288D01*
X154168D01*
Y40400D01*
X154055D01*
Y40513D01*
X154168D01*
Y40400D01*
X154281D01*
Y40288D01*
X154394D01*
Y40400D01*
X154281D01*
Y40513D01*
X154394D01*
Y40400D01*
X154507D01*
Y40513D01*
X154620D01*
Y40400D01*
X154732D01*
Y40288D01*
X154845D01*
Y40400D01*
X154732D01*
Y40513D01*
X154845D01*
Y40400D01*
X154958D01*
Y40288D01*
X155071D01*
Y40400D01*
X154958D01*
Y40513D01*
X155071D01*
Y40400D01*
X155184D01*
Y40288D01*
X155297D01*
Y40400D01*
X155184D01*
Y40513D01*
X155297D01*
Y40400D01*
X155410D01*
Y40513D01*
X155523D01*
Y40400D01*
X155635D01*
Y40288D01*
X155748D01*
Y40400D01*
X155635D01*
Y40513D01*
X155748D01*
Y40400D01*
X155861D01*
Y40288D01*
X155974D01*
Y40400D01*
X155861D01*
Y40513D01*
X155974D01*
Y40400D01*
X156087D01*
Y40288D01*
X156200D01*
Y40400D01*
X156087D01*
Y40513D01*
X156200D01*
Y40400D01*
D02*
G37*
G36*
X157103Y37466D02*
X156990D01*
Y37579D01*
X157103D01*
Y37466D01*
D02*
G37*
G36*
X131595Y36337D02*
X131482D01*
Y36450D01*
X131595D01*
Y36337D01*
D02*
G37*
G36*
X166132Y33854D02*
X166019D01*
Y33967D01*
X166132D01*
Y33854D01*
D02*
G37*
G36*
X141527D02*
X141414D01*
Y33967D01*
X141527D01*
Y33854D01*
D02*
G37*
G36*
X110150Y33628D02*
X110263D01*
Y33516D01*
X110375D01*
Y33628D01*
X110488D01*
Y33516D01*
X110827D01*
Y33403D01*
X110940D01*
Y33516D01*
X111053D01*
Y33403D01*
X111166D01*
Y33290D01*
X111504D01*
Y33177D01*
X111617D01*
Y33064D01*
X111956D01*
Y32951D01*
X112069D01*
Y32838D01*
X112294D01*
Y32725D01*
Y32613D01*
X112407D01*
Y32725D01*
X112520D01*
Y32613D01*
X112633D01*
Y32500D01*
X112746D01*
Y32387D01*
X112859D01*
Y32274D01*
X112971D01*
Y32161D01*
X113084D01*
Y32048D01*
X113197D01*
Y31935D01*
X113310D01*
Y31822D01*
X113423D01*
Y31710D01*
X113536D01*
Y31597D01*
X113649D01*
Y31484D01*
X113761D01*
Y31371D01*
X113874D01*
Y31258D01*
Y31145D01*
Y31032D01*
X113987D01*
Y30920D01*
X114100D01*
Y30807D01*
X114213D01*
Y30694D01*
Y30581D01*
Y30468D01*
X114326D01*
Y30355D01*
X114439D01*
Y30242D01*
X114326D01*
Y30130D01*
X114439D01*
Y30017D01*
X114552D01*
Y29904D01*
X114664D01*
Y29791D01*
X114552D01*
Y29678D01*
X114664D01*
Y29565D01*
X114777D01*
Y29452D01*
X114664D01*
Y29565D01*
X114552D01*
Y29452D01*
X114664D01*
Y29339D01*
X114777D01*
Y29226D01*
X114890D01*
Y29114D01*
X114777D01*
Y29001D01*
X114890D01*
Y28888D01*
X114777D01*
Y28775D01*
X114890D01*
Y28662D01*
X115003D01*
Y28549D01*
X115116D01*
Y28436D01*
X115003D01*
Y28324D01*
Y28211D01*
Y28098D01*
X115116D01*
Y27985D01*
X115003D01*
Y27872D01*
X115116D01*
Y27759D01*
X115003D01*
Y27646D01*
X115116D01*
Y27534D01*
X115003D01*
Y27421D01*
X115116D01*
Y27308D01*
X115003D01*
Y27195D01*
X115116D01*
Y27082D01*
X115003D01*
Y26969D01*
X115116D01*
Y26856D01*
X115003D01*
Y26743D01*
X115116D01*
Y26631D01*
X115003D01*
Y26518D01*
X115116D01*
Y26405D01*
X115003D01*
Y26292D01*
X115116D01*
Y26179D01*
X115003D01*
Y26066D01*
X114890D01*
Y25953D01*
X114777D01*
Y25840D01*
X114890D01*
Y25728D01*
X114777D01*
Y25615D01*
X114664D01*
Y25502D01*
X114552D01*
Y25389D01*
X114664D01*
Y25276D01*
X114552D01*
Y25163D01*
X114439D01*
Y25276D01*
X114326D01*
Y25163D01*
X114439D01*
Y25050D01*
X114326D01*
Y24938D01*
X114213D01*
Y24825D01*
X114100D01*
Y24712D01*
X113987D01*
Y24825D01*
X113874D01*
Y24712D01*
X113987D01*
Y24599D01*
X113649D01*
Y24486D01*
X113536D01*
Y24373D01*
X113197D01*
Y24260D01*
X113084D01*
Y24148D01*
X112520D01*
Y24035D01*
X112407D01*
Y24148D01*
X112294D01*
Y24035D01*
X112407D01*
Y23922D01*
X112294D01*
Y24035D01*
X111956D01*
Y23922D01*
X111843D01*
Y24035D01*
X111730D01*
Y23922D01*
X111617D01*
Y24035D01*
X111504D01*
Y23922D01*
X111391D01*
Y24035D01*
X111278D01*
Y23922D01*
X111166D01*
Y24035D01*
X111053D01*
Y23922D01*
X110940D01*
Y24035D01*
X110601D01*
Y24148D01*
X110488D01*
Y24035D01*
X110601D01*
Y23922D01*
X110488D01*
Y24035D01*
X110375D01*
Y24148D01*
X110037D01*
Y24260D01*
X109924D01*
Y24148D01*
X109811D01*
Y24260D01*
X109698D01*
Y24373D01*
X109585D01*
Y24260D01*
X109473D01*
Y24373D01*
X109134D01*
Y24486D01*
X109021D01*
Y24599D01*
X108683D01*
Y24712D01*
X108570D01*
Y24825D01*
X108231D01*
Y24938D01*
X108118D01*
Y25050D01*
X108005D01*
Y25163D01*
X107893D01*
Y25276D01*
X107780D01*
Y25389D01*
X107667D01*
Y25502D01*
X107554D01*
Y25615D01*
X107441D01*
Y25728D01*
X107328D01*
Y25840D01*
X107215D01*
Y25953D01*
X107102D01*
Y26066D01*
X106990D01*
Y26179D01*
X106877D01*
Y26292D01*
X106764D01*
Y26405D01*
X106651D01*
Y26518D01*
X106764D01*
Y26631D01*
X106651D01*
Y26743D01*
X106538D01*
Y26856D01*
X106425D01*
Y26969D01*
X106312D01*
Y27082D01*
Y27195D01*
Y27308D01*
X106199D01*
Y27421D01*
X106087D01*
Y27534D01*
X105974D01*
Y27646D01*
X106087D01*
Y27759D01*
X105974D01*
Y27872D01*
Y27985D01*
Y28098D01*
X105861D01*
Y28211D01*
X105748D01*
Y28324D01*
X105861D01*
Y28436D01*
X105748D01*
Y28549D01*
X105861D01*
Y28662D01*
X105748D01*
Y28775D01*
X105635D01*
Y28888D01*
X105522D01*
Y29001D01*
X105635D01*
Y28888D01*
X105748D01*
Y29001D01*
X105635D01*
Y29114D01*
X105522D01*
Y29226D01*
X105635D01*
Y29339D01*
X105522D01*
Y29452D01*
X105635D01*
Y29565D01*
X105522D01*
Y29678D01*
Y29791D01*
Y29904D01*
X105635D01*
Y30017D01*
X105522D01*
Y30130D01*
X105409D01*
Y30242D01*
X105522D01*
Y30355D01*
Y30468D01*
Y30581D01*
X105409D01*
Y30694D01*
X105522D01*
Y30807D01*
Y30920D01*
Y31032D01*
Y31145D01*
Y31258D01*
X105635D01*
Y31371D01*
X105522D01*
Y31484D01*
X105635D01*
Y31597D01*
X105522D01*
Y31710D01*
X105635D01*
Y31822D01*
X105748D01*
Y31935D01*
X105861D01*
Y32048D01*
X105748D01*
Y32161D01*
X105861D01*
Y32274D01*
X105974D01*
Y32387D01*
X106087D01*
Y32500D01*
X106199D01*
Y32613D01*
X106312D01*
Y32725D01*
X106425D01*
Y32838D01*
X106538D01*
Y32951D01*
X106651D01*
Y33064D01*
X106764D01*
Y33177D01*
X106877D01*
Y33064D01*
X106990D01*
Y33177D01*
X106877D01*
Y33290D01*
X107215D01*
Y33403D01*
X107328D01*
Y33516D01*
X107441D01*
Y33403D01*
X107554D01*
Y33516D01*
X107893D01*
Y33628D01*
X108005D01*
Y33516D01*
X108118D01*
Y33628D01*
X108005D01*
Y33741D01*
X108118D01*
Y33628D01*
X108231D01*
Y33516D01*
X108344D01*
Y33628D01*
X108231D01*
Y33741D01*
X108344D01*
Y33628D01*
X108457D01*
Y33741D01*
X108570D01*
Y33628D01*
X108683D01*
Y33741D01*
X109021D01*
Y33628D01*
X109134D01*
Y33741D01*
X109247D01*
Y33628D01*
X109360D01*
Y33741D01*
X109473D01*
Y33628D01*
X109585D01*
Y33516D01*
X109698D01*
Y33628D01*
X109585D01*
Y33741D01*
X109698D01*
Y33628D01*
X109811D01*
Y33741D01*
X109924D01*
Y33628D01*
X110037D01*
Y33516D01*
X110150D01*
Y33628D01*
X110037D01*
Y33741D01*
X110150D01*
Y33628D01*
D02*
G37*
G36*
X96606D02*
X96719D01*
Y33516D01*
X97283D01*
Y33403D01*
X97396D01*
Y33290D01*
X97509D01*
Y33403D01*
X97396D01*
Y33516D01*
X97509D01*
Y33403D01*
X97622D01*
Y33290D01*
X97734D01*
Y33177D01*
X97847D01*
Y33064D01*
X97960D01*
Y33177D01*
X98073D01*
Y33064D01*
X98186D01*
Y32951D01*
X98299D01*
Y32838D01*
X98637D01*
Y32725D01*
Y32613D01*
X98863D01*
Y32500D01*
X98976D01*
Y32387D01*
X99089D01*
Y32274D01*
X99202D01*
Y32161D01*
X99314D01*
Y32048D01*
X99427D01*
Y31935D01*
X99540D01*
Y31822D01*
X99653D01*
Y31710D01*
X99766D01*
Y31597D01*
Y31484D01*
X99992D01*
Y31371D01*
X99879D01*
Y31258D01*
X99992D01*
Y31145D01*
X100105D01*
Y31032D01*
X100217D01*
Y30920D01*
X100105D01*
Y30807D01*
X100217D01*
Y30694D01*
X100330D01*
Y30581D01*
X100443D01*
Y30468D01*
X100330D01*
Y30355D01*
X100443D01*
Y30242D01*
X100556D01*
Y30130D01*
X100669D01*
Y30017D01*
X100556D01*
Y29904D01*
X100669D01*
Y29791D01*
X100782D01*
Y29678D01*
X100895D01*
Y29565D01*
X100782D01*
Y29452D01*
X100895D01*
Y29339D01*
X100782D01*
Y29226D01*
X100895D01*
Y29114D01*
Y29001D01*
Y28888D01*
X101008D01*
Y28775D01*
Y28662D01*
Y28549D01*
X101120D01*
Y28436D01*
X101008D01*
Y28324D01*
X101120D01*
Y28211D01*
Y28098D01*
Y27985D01*
Y27872D01*
Y27759D01*
X101233D01*
Y27646D01*
X101120D01*
Y27534D01*
X101233D01*
Y27421D01*
Y27308D01*
Y27195D01*
Y27082D01*
Y26969D01*
Y26856D01*
Y26743D01*
X101120D01*
Y26631D01*
X101233D01*
Y26518D01*
X101120D01*
Y26405D01*
Y26292D01*
Y26179D01*
X101008D01*
Y26066D01*
X101120D01*
Y25953D01*
X101008D01*
Y25840D01*
X101120D01*
Y25728D01*
X101008D01*
Y25615D01*
X100895D01*
Y25502D01*
X100782D01*
Y25389D01*
X100669D01*
Y25276D01*
Y25163D01*
Y25050D01*
X100556D01*
Y24938D01*
X100443D01*
Y24825D01*
X100330D01*
Y24712D01*
X100217D01*
Y24599D01*
X99879D01*
Y24486D01*
X99766D01*
Y24373D01*
X99653D01*
Y24260D01*
X99540D01*
Y24373D01*
X99427D01*
Y24260D01*
X99540D01*
Y24148D01*
X99427D01*
Y24260D01*
X99314D01*
Y24148D01*
X98976D01*
Y24035D01*
X98863D01*
Y24148D01*
X98750D01*
Y24035D01*
X98863D01*
Y23922D01*
X98750D01*
Y24035D01*
X98412D01*
Y23922D01*
X98299D01*
Y24035D01*
X98186D01*
Y23922D01*
X98073D01*
Y24035D01*
X97960D01*
Y23922D01*
X97847D01*
Y24035D01*
X97734D01*
Y23922D01*
X97622D01*
Y24035D01*
X97509D01*
Y24148D01*
X97396D01*
Y24035D01*
X97509D01*
Y23922D01*
X97396D01*
Y24035D01*
X97283D01*
Y24148D01*
X97170D01*
Y24035D01*
X97057D01*
Y24148D01*
X96493D01*
Y24260D01*
X96380D01*
Y24373D01*
X96267D01*
Y24260D01*
X96380D01*
Y24148D01*
X96267D01*
Y24260D01*
X96154D01*
Y24373D01*
X95816D01*
Y24486D01*
X95703D01*
Y24599D01*
X95590D01*
Y24712D01*
X95477D01*
Y24825D01*
X95364D01*
Y24712D01*
X95477D01*
Y24599D01*
X95364D01*
Y24712D01*
X95251D01*
Y24825D01*
X95139D01*
Y24938D01*
X95026D01*
Y25050D01*
X94800D01*
Y25163D01*
Y25276D01*
X94461D01*
Y25389D01*
Y25502D01*
X94348D01*
Y25615D01*
X94235D01*
Y25728D01*
X94123D01*
Y25840D01*
Y25953D01*
X94235D01*
Y26066D01*
X94574D01*
Y26179D01*
X94687D01*
Y26292D01*
X95026D01*
Y26405D01*
X95139D01*
Y26292D01*
X95251D01*
Y26405D01*
X95364D01*
Y26518D01*
X95477D01*
Y26631D01*
X95590D01*
Y26518D01*
X95703D01*
Y26631D01*
X95590D01*
Y26743D01*
X95703D01*
Y26631D01*
X95816D01*
Y26743D01*
X96154D01*
Y26631D01*
X96267D01*
Y26518D01*
X96380D01*
Y26405D01*
X96493D01*
Y26292D01*
X96832D01*
Y26179D01*
X96944D01*
Y26066D01*
X97734D01*
Y26179D01*
X97847D01*
Y26066D01*
X97960D01*
Y26179D01*
X97847D01*
Y26292D01*
X97960D01*
Y26179D01*
X98073D01*
Y26292D01*
X98186D01*
Y26405D01*
X98299D01*
Y26292D01*
X98412D01*
Y26405D01*
X98299D01*
Y26518D01*
X98412D01*
Y26631D01*
X98299D01*
Y26743D01*
X98412D01*
Y26631D01*
X98524D01*
Y26743D01*
X98412D01*
Y26856D01*
X98524D01*
Y26969D01*
X98637D01*
Y27082D01*
X98524D01*
Y27195D01*
X98637D01*
Y27308D01*
X98524D01*
Y27421D01*
X98637D01*
Y27534D01*
X98524D01*
Y27646D01*
X98637D01*
Y27759D01*
X98524D01*
Y27872D01*
X98637D01*
Y27985D01*
X98524D01*
Y28098D01*
X98637D01*
Y28211D01*
X98524D01*
Y28324D01*
X98637D01*
Y28436D01*
X98524D01*
Y28549D01*
X98412D01*
Y28662D01*
Y28775D01*
Y28888D01*
X98299D01*
Y29001D01*
X98412D01*
Y29114D01*
X98299D01*
Y29226D01*
X98186D01*
Y29339D01*
X98299D01*
Y29452D01*
X98186D01*
Y29565D01*
X98073D01*
Y29678D01*
X98186D01*
Y29791D01*
X98073D01*
Y29904D01*
X97960D01*
Y30017D01*
Y30130D01*
Y30242D01*
X97847D01*
Y30355D01*
Y30468D01*
X97622D01*
Y30581D01*
X97734D01*
Y30694D01*
X97622D01*
Y30807D01*
X97509D01*
Y30920D01*
X97396D01*
Y31032D01*
X97283D01*
Y31145D01*
X97170D01*
Y31258D01*
X97057D01*
Y31371D01*
X96944D01*
Y31484D01*
X96832D01*
Y31597D01*
X96493D01*
Y31710D01*
X96380D01*
Y31597D01*
X96267D01*
Y31710D01*
X96154D01*
Y31822D01*
X96041D01*
Y31710D01*
X96154D01*
Y31597D01*
X96041D01*
Y31710D01*
X95929D01*
Y31597D01*
X95816D01*
Y31710D01*
X95703D01*
Y31597D01*
X95590D01*
Y31484D01*
X95477D01*
Y31597D01*
X95364D01*
Y31484D01*
X95477D01*
Y31371D01*
X95139D01*
Y31258D01*
X95251D01*
Y31145D01*
X95139D01*
Y31032D01*
X95026D01*
Y30920D01*
Y30807D01*
Y30694D01*
X94687D01*
Y30807D01*
X94348D01*
Y30920D01*
X93784D01*
Y31032D01*
X93445D01*
Y31145D01*
X93107D01*
Y31258D01*
X92994D01*
Y31145D01*
X92881D01*
Y31258D01*
X92768D01*
Y31371D01*
X92655D01*
Y31258D01*
X92542D01*
Y31371D01*
X92430D01*
Y31484D01*
X92542D01*
Y31597D01*
X92430D01*
Y31710D01*
X92542D01*
Y31822D01*
Y31935D01*
X92655D01*
Y32048D01*
Y32161D01*
X92768D01*
Y32274D01*
X92655D01*
Y32387D01*
X92768D01*
Y32500D01*
X92881D01*
Y32613D01*
X92994D01*
Y32725D01*
X93107D01*
Y32838D01*
X93220D01*
Y32951D01*
X93332D01*
Y33064D01*
X93445D01*
Y33177D01*
X93558D01*
Y33290D01*
X93897D01*
Y33403D01*
X94010D01*
Y33516D01*
X94348D01*
Y33628D01*
X94461D01*
Y33516D01*
X94574D01*
Y33628D01*
X94461D01*
Y33741D01*
X94574D01*
Y33628D01*
X94687D01*
Y33516D01*
X94800D01*
Y33628D01*
X94687D01*
Y33741D01*
X94800D01*
Y33628D01*
X94913D01*
Y33741D01*
X95026D01*
Y33628D01*
X95139D01*
Y33741D01*
X95477D01*
Y33628D01*
X95590D01*
Y33741D01*
X95929D01*
Y33628D01*
X96041D01*
Y33741D01*
X96154D01*
Y33628D01*
X96267D01*
Y33741D01*
X96380D01*
Y33628D01*
X96493D01*
Y33516D01*
X96606D01*
Y33628D01*
X96493D01*
Y33741D01*
X96606D01*
Y33628D01*
D02*
G37*
G36*
X166584Y33403D02*
X166471D01*
Y33516D01*
X166584D01*
Y33403D01*
D02*
G37*
G36*
X125951D02*
X125838D01*
Y33516D01*
X125951D01*
Y33403D01*
D02*
G37*
G36*
X125725D02*
X125838D01*
Y33290D01*
X125951D01*
Y33177D01*
X125838D01*
Y33064D01*
X125951D01*
Y32951D01*
X125838D01*
Y32838D01*
X125951D01*
Y32725D01*
X126064D01*
Y32613D01*
X125951D01*
Y32725D01*
X125838D01*
Y32613D01*
X125951D01*
Y32500D01*
X126064D01*
Y32387D01*
X126177D01*
Y32274D01*
X126064D01*
Y32161D01*
X126177D01*
Y32048D01*
X126064D01*
Y31935D01*
X126177D01*
Y31822D01*
Y31710D01*
Y31597D01*
X126290D01*
Y31484D01*
Y31371D01*
Y31258D01*
X126403D01*
Y31145D01*
X126290D01*
Y31032D01*
X126403D01*
Y30920D01*
Y30807D01*
Y30694D01*
X126516D01*
Y30581D01*
X126628D01*
Y30468D01*
X126516D01*
Y30355D01*
X126628D01*
Y30242D01*
X126516D01*
Y30130D01*
X126628D01*
Y30017D01*
Y29904D01*
X126741D01*
Y29791D01*
Y29678D01*
Y29565D01*
Y29452D01*
X126854D01*
Y29339D01*
X126741D01*
Y29226D01*
X126854D01*
Y29114D01*
X126741D01*
Y29001D01*
X126854D01*
Y28888D01*
X126967D01*
Y28775D01*
X127080D01*
Y28662D01*
X126967D01*
Y28549D01*
X127080D01*
Y28436D01*
X126967D01*
Y28324D01*
X127080D01*
Y28211D01*
Y28098D01*
X127193D01*
Y27985D01*
Y27872D01*
Y27759D01*
Y27646D01*
X127306D01*
Y27534D01*
X127193D01*
Y27421D01*
X127306D01*
Y27308D01*
X127193D01*
Y27195D01*
X127306D01*
Y27082D01*
X127418D01*
Y26969D01*
X127531D01*
Y26856D01*
X127418D01*
Y26743D01*
X127531D01*
Y26631D01*
X127418D01*
Y26518D01*
X127531D01*
Y26405D01*
X127418D01*
Y26292D01*
X127531D01*
Y26179D01*
X127644D01*
Y26066D01*
Y25953D01*
Y25840D01*
X127757D01*
Y25728D01*
X127644D01*
Y25615D01*
X127757D01*
Y25502D01*
X127644D01*
Y25389D01*
X127757D01*
Y25276D01*
X127870D01*
Y25163D01*
X127983D01*
Y25050D01*
X127870D01*
Y24938D01*
X127983D01*
Y24825D01*
X127870D01*
Y24712D01*
X127983D01*
Y24599D01*
Y24486D01*
Y24373D01*
X128096D01*
Y24260D01*
X127983D01*
Y24148D01*
X127870D01*
Y24260D01*
X127757D01*
Y24148D01*
X127644D01*
Y24260D01*
X127531D01*
Y24148D01*
X127418D01*
Y24260D01*
X127306D01*
Y24148D01*
X127193D01*
Y24260D01*
X127080D01*
Y24148D01*
X126967D01*
Y24260D01*
X126854D01*
Y24148D01*
X126741D01*
Y24260D01*
X126628D01*
Y24148D01*
X126516D01*
Y24260D01*
X126403D01*
Y24148D01*
X126290D01*
Y24260D01*
X126177D01*
Y24148D01*
X126064D01*
Y24260D01*
X125951D01*
Y24148D01*
X125838D01*
Y24260D01*
X125725D01*
Y24148D01*
X125613D01*
Y24260D01*
X125500D01*
Y24373D01*
X125387D01*
Y24486D01*
X125500D01*
Y24599D01*
X125387D01*
Y24712D01*
X125274D01*
Y24825D01*
X125387D01*
Y24938D01*
X125274D01*
Y25050D01*
X125161D01*
Y25163D01*
X125274D01*
Y25276D01*
X125161D01*
Y25389D01*
X125274D01*
Y25502D01*
X125161D01*
Y25615D01*
Y25728D01*
Y25840D01*
X125048D01*
Y25953D01*
Y26066D01*
Y26179D01*
X124935D01*
Y26292D01*
X125048D01*
Y26405D01*
X124935D01*
Y26518D01*
Y26631D01*
Y26743D01*
X124822D01*
Y26856D01*
X124484D01*
Y26743D01*
X124597D01*
Y26631D01*
X124484D01*
Y26518D01*
X124371D01*
Y26405D01*
Y26292D01*
Y26179D01*
X124258D01*
Y26066D01*
X124371D01*
Y25953D01*
X124258D01*
Y25840D01*
X124145D01*
Y25728D01*
X124032D01*
Y25615D01*
X124145D01*
Y25502D01*
X124032D01*
Y25389D01*
X123920D01*
Y25276D01*
X123807D01*
Y25163D01*
X123920D01*
Y25050D01*
X123807D01*
Y24938D01*
X123694D01*
Y24825D01*
Y24712D01*
Y24599D01*
X123581D01*
Y24486D01*
X123694D01*
Y24373D01*
X123581D01*
Y24260D01*
X123468D01*
Y24373D01*
X123355D01*
Y24260D01*
X123468D01*
Y24148D01*
X123355D01*
Y24260D01*
X123242D01*
Y24148D01*
X123129D01*
Y24260D01*
X123017D01*
Y24148D01*
X122904D01*
Y24260D01*
X122791D01*
Y24148D01*
X122678D01*
Y24260D01*
X122565D01*
Y24148D01*
X122452D01*
Y24260D01*
X122339D01*
Y24148D01*
X122227D01*
Y24260D01*
X122114D01*
Y24148D01*
X122001D01*
Y24260D01*
X121888D01*
Y24148D01*
X121775D01*
Y24260D01*
X121662D01*
Y24148D01*
X121549D01*
Y24260D01*
X121437D01*
Y24148D01*
X121324D01*
Y24260D01*
X121211D01*
Y24148D01*
X121098D01*
Y24260D01*
X120985D01*
Y24148D01*
X120872D01*
Y24260D01*
X120759D01*
Y24373D01*
X120872D01*
Y24486D01*
X120985D01*
Y24599D01*
X120872D01*
Y24712D01*
X120985D01*
Y24825D01*
X121098D01*
Y24938D01*
Y25050D01*
Y25163D01*
X121211D01*
Y25276D01*
Y25389D01*
X121437D01*
Y25502D01*
X121324D01*
Y25615D01*
X121437D01*
Y25728D01*
Y25840D01*
X121549D01*
Y25953D01*
Y26066D01*
X121662D01*
Y26179D01*
Y26292D01*
X121888D01*
Y26405D01*
X121775D01*
Y26518D01*
X121888D01*
Y26631D01*
X121775D01*
Y26743D01*
X121888D01*
Y26856D01*
X122001D01*
Y26969D01*
X122114D01*
Y27082D01*
X122001D01*
Y27195D01*
X122114D01*
Y27308D01*
X122001D01*
Y27421D01*
X121662D01*
Y27534D01*
X121324D01*
Y27646D01*
X121211D01*
Y27759D01*
X120872D01*
Y27872D01*
X120759D01*
Y27985D01*
X120647D01*
Y28098D01*
X120534D01*
Y28211D01*
X120421D01*
Y28324D01*
X120308D01*
Y28436D01*
X120195D01*
Y28549D01*
X120082D01*
Y28662D01*
X119969D01*
Y28775D01*
X119856D01*
Y28888D01*
X119744D01*
Y29001D01*
Y29114D01*
X119631D01*
Y29226D01*
Y29339D01*
X119518D01*
Y29452D01*
Y29565D01*
X119405D01*
Y29678D01*
Y29791D01*
X119292D01*
Y29904D01*
Y30017D01*
Y30130D01*
X119179D01*
Y30242D01*
Y30355D01*
Y30468D01*
Y30581D01*
Y30694D01*
X119066D01*
Y30807D01*
X119179D01*
Y30920D01*
X119066D01*
Y31032D01*
X119179D01*
Y31145D01*
X119066D01*
Y31258D01*
X119179D01*
Y31371D01*
Y31484D01*
Y31597D01*
Y31710D01*
Y31822D01*
X119292D01*
Y31935D01*
X119405D01*
Y32048D01*
Y32161D01*
X119518D01*
Y32274D01*
Y32387D01*
X119631D01*
Y32500D01*
X119744D01*
Y32613D01*
X119856D01*
Y32725D01*
X119969D01*
Y32838D01*
X120082D01*
Y32951D01*
X120195D01*
Y33064D01*
X120534D01*
Y33177D01*
X120647D01*
Y33290D01*
X120985D01*
Y33403D01*
X121098D01*
Y33290D01*
X121211D01*
Y33403D01*
X121324D01*
Y33516D01*
X121437D01*
Y33403D01*
X121549D01*
Y33516D01*
X121888D01*
Y33403D01*
X122001D01*
Y33516D01*
X122339D01*
Y33403D01*
X122452D01*
Y33516D01*
X123242D01*
Y33403D01*
X123355D01*
Y33516D01*
X124145D01*
Y33403D01*
X124258D01*
Y33516D01*
X125048D01*
Y33403D01*
X125161D01*
Y33516D01*
X125725D01*
Y33403D01*
D02*
G37*
G36*
X86899D02*
X87012D01*
Y33290D01*
X87125D01*
Y33177D01*
X87012D01*
Y33064D01*
X87125D01*
Y32951D01*
Y32838D01*
Y32725D01*
X87238D01*
Y32613D01*
X87125D01*
Y32725D01*
X87012D01*
Y32613D01*
X87125D01*
Y32500D01*
X87238D01*
Y32387D01*
X87351D01*
Y32274D01*
X87238D01*
Y32161D01*
X87351D01*
Y32048D01*
X87238D01*
Y31935D01*
X87351D01*
Y31822D01*
Y31710D01*
X87463D01*
Y31597D01*
Y31484D01*
X87576D01*
Y31371D01*
X87463D01*
Y31258D01*
X87576D01*
Y31145D01*
X87463D01*
Y31032D01*
X87576D01*
Y30920D01*
X87689D01*
Y30807D01*
X87576D01*
Y30920D01*
X87463D01*
Y30807D01*
X87576D01*
Y30694D01*
X87689D01*
Y30581D01*
X87802D01*
Y30468D01*
X87689D01*
Y30355D01*
X87802D01*
Y30242D01*
X87689D01*
Y30130D01*
X87802D01*
Y30017D01*
Y29904D01*
Y29791D01*
X87915D01*
Y29678D01*
X88028D01*
Y29565D01*
X87915D01*
Y29452D01*
X88028D01*
Y29339D01*
X87915D01*
Y29226D01*
X88028D01*
Y29114D01*
X87915D01*
Y29001D01*
X88028D01*
Y28888D01*
X88141D01*
Y28775D01*
X88253D01*
Y28662D01*
X88141D01*
Y28549D01*
X88253D01*
Y28436D01*
X88141D01*
Y28324D01*
X88253D01*
Y28211D01*
Y28098D01*
Y27985D01*
X88366D01*
Y27872D01*
Y27759D01*
Y27646D01*
X88479D01*
Y27534D01*
X88366D01*
Y27421D01*
X88479D01*
Y27308D01*
Y27195D01*
Y27082D01*
X88592D01*
Y26969D01*
Y26856D01*
Y26743D01*
X88705D01*
Y26631D01*
X88592D01*
Y26518D01*
X88705D01*
Y26405D01*
Y26292D01*
Y26179D01*
X88818D01*
Y26066D01*
Y25953D01*
Y25840D01*
X88931D01*
Y25728D01*
X88818D01*
Y25615D01*
X88931D01*
Y25502D01*
X88818D01*
Y25389D01*
X88931D01*
Y25276D01*
X89044D01*
Y25163D01*
X89157D01*
Y25050D01*
X89044D01*
Y24938D01*
X89157D01*
Y24825D01*
X89044D01*
Y24712D01*
X89157D01*
Y24599D01*
Y24486D01*
Y24373D01*
X89269D01*
Y24260D01*
X89157D01*
Y24148D01*
X89044D01*
Y24260D01*
X88931D01*
Y24148D01*
X88818D01*
Y24260D01*
X88705D01*
Y24148D01*
X88592D01*
Y24260D01*
X88479D01*
Y24148D01*
X88366D01*
Y24260D01*
X88253D01*
Y24148D01*
X88141D01*
Y24260D01*
X88028D01*
Y24148D01*
X87915D01*
Y24260D01*
X87802D01*
Y24148D01*
X87689D01*
Y24260D01*
X87576D01*
Y24148D01*
X87463D01*
Y24260D01*
X87351D01*
Y24148D01*
X87238D01*
Y24260D01*
X87125D01*
Y24148D01*
X87012D01*
Y24260D01*
X86899D01*
Y24148D01*
X86786D01*
Y24260D01*
X86673D01*
Y24373D01*
X86560D01*
Y24486D01*
X86673D01*
Y24599D01*
X86560D01*
Y24712D01*
X86448D01*
Y24825D01*
Y24938D01*
Y25050D01*
X86335D01*
Y25163D01*
X86448D01*
Y25276D01*
X86335D01*
Y25389D01*
X86448D01*
Y25502D01*
X86335D01*
Y25615D01*
X86222D01*
Y25728D01*
X86335D01*
Y25615D01*
X86448D01*
Y25728D01*
X86335D01*
Y25840D01*
X86222D01*
Y25953D01*
X86109D01*
Y26066D01*
X86222D01*
Y26179D01*
X86109D01*
Y26292D01*
X86222D01*
Y26405D01*
X86109D01*
Y26518D01*
X85996D01*
Y26631D01*
X86109D01*
Y26743D01*
X85996D01*
Y26856D01*
X85883D01*
Y26969D01*
X85996D01*
Y27082D01*
X85883D01*
Y27195D01*
X85996D01*
Y27308D01*
X85883D01*
Y27421D01*
X85996D01*
Y27534D01*
X85883D01*
Y27646D01*
X85770D01*
Y27759D01*
X85658D01*
Y27872D01*
X85545D01*
Y27759D01*
X85432D01*
Y27646D01*
X85545D01*
Y27534D01*
X85432D01*
Y27421D01*
X85319D01*
Y27308D01*
X85206D01*
Y27195D01*
X85319D01*
Y27082D01*
X85093D01*
Y26969D01*
Y26856D01*
X84980D01*
Y26743D01*
X84868D01*
Y26631D01*
X84755D01*
Y26518D01*
X84642D01*
Y26405D01*
X84529D01*
Y26292D01*
X84642D01*
Y26179D01*
X84529D01*
Y26066D01*
X84416D01*
Y25953D01*
X84303D01*
Y25840D01*
X84190D01*
Y25728D01*
X84077D01*
Y25615D01*
X84190D01*
Y25502D01*
X84077D01*
Y25389D01*
X83965D01*
Y25502D01*
X83852D01*
Y25389D01*
X83965D01*
Y25276D01*
X83852D01*
Y25163D01*
X83739D01*
Y25050D01*
X83626D01*
Y24938D01*
X83739D01*
Y24825D01*
X83626D01*
Y24712D01*
X83513D01*
Y24599D01*
X83400D01*
Y24486D01*
X83287D01*
Y24373D01*
X83175D01*
Y24260D01*
X83062D01*
Y24148D01*
X82949D01*
Y24260D01*
X82836D01*
Y24148D01*
X82723D01*
Y24260D01*
X82610D01*
Y24148D01*
X82497D01*
Y24260D01*
X82384D01*
Y24148D01*
X82271D01*
Y24260D01*
X82159D01*
Y24148D01*
X82046D01*
Y24260D01*
X81933D01*
Y24148D01*
X81820D01*
Y24260D01*
X81707D01*
Y24148D01*
X81594D01*
Y24260D01*
X81481D01*
Y24148D01*
X81369D01*
Y24260D01*
X81256D01*
Y24148D01*
X81143D01*
Y24260D01*
X81030D01*
Y24148D01*
X80917D01*
Y24260D01*
X80804D01*
Y24148D01*
X80691D01*
Y24260D01*
X80579D01*
Y24148D01*
X80466D01*
Y24260D01*
X80353D01*
Y24148D01*
X80240D01*
Y24260D01*
X80127D01*
Y24373D01*
X80240D01*
Y24486D01*
X80353D01*
Y24599D01*
Y24712D01*
X80579D01*
Y24825D01*
X80466D01*
Y24938D01*
X80579D01*
Y25050D01*
X80691D01*
Y25163D01*
X80804D01*
Y25276D01*
X80691D01*
Y25389D01*
X80917D01*
Y25502D01*
Y25615D01*
X81030D01*
Y25728D01*
X81143D01*
Y25840D01*
X81256D01*
Y25953D01*
Y26066D01*
X81481D01*
Y26179D01*
X81369D01*
Y26292D01*
X81481D01*
Y26405D01*
X81594D01*
Y26518D01*
X81707D01*
Y26631D01*
X81820D01*
Y26743D01*
X81933D01*
Y26856D01*
X81820D01*
Y26969D01*
X81933D01*
Y27082D01*
X82046D01*
Y27195D01*
X82159D01*
Y27308D01*
X82271D01*
Y27421D01*
X82384D01*
Y27534D01*
X82271D01*
Y27646D01*
X82384D01*
Y27759D01*
X82497D01*
Y27646D01*
X82610D01*
Y27759D01*
X82497D01*
Y27872D01*
X82610D01*
Y27985D01*
X82723D01*
Y28098D01*
X82836D01*
Y28211D01*
X82723D01*
Y28324D01*
X82836D01*
Y28436D01*
X82949D01*
Y28549D01*
X83062D01*
Y28662D01*
X83175D01*
Y28775D01*
X83287D01*
Y28888D01*
X83175D01*
Y29001D01*
X83062D01*
Y29114D01*
X82723D01*
Y29226D01*
X82836D01*
Y29339D01*
X82497D01*
Y29452D01*
X82384D01*
Y29565D01*
X82271D01*
Y29678D01*
X82159D01*
Y29791D01*
X82046D01*
Y29904D01*
X81933D01*
Y30017D01*
X81820D01*
Y30130D01*
X81707D01*
Y30242D01*
X81481D01*
Y30355D01*
Y30468D01*
X81143D01*
Y30581D01*
X81030D01*
Y30694D01*
X80917D01*
Y30807D01*
X80804D01*
Y30920D01*
X80691D01*
Y31032D01*
X80579D01*
Y31145D01*
X80466D01*
Y31258D01*
X80353D01*
Y31371D01*
X80240D01*
Y31484D01*
X80127D01*
Y31597D01*
X80014D01*
Y31710D01*
X79901D01*
Y31822D01*
X79563D01*
Y31935D01*
X79450D01*
Y32048D01*
X79337D01*
Y32161D01*
X79224D01*
Y32274D01*
X79111D01*
Y32387D01*
X78998D01*
Y32500D01*
X78886D01*
Y32613D01*
X78773D01*
Y32725D01*
X78660D01*
Y32838D01*
X78547D01*
Y32951D01*
X78208D01*
Y33064D01*
X78321D01*
Y33177D01*
X77983D01*
Y33290D01*
X77870D01*
Y33403D01*
X77757D01*
Y33516D01*
X78096D01*
Y33403D01*
X78208D01*
Y33516D01*
X78998D01*
Y33403D01*
X79111D01*
Y33516D01*
X79901D01*
Y33403D01*
X80014D01*
Y33516D01*
X80804D01*
Y33403D01*
X80917D01*
Y33290D01*
X81030D01*
Y33403D01*
X80917D01*
Y33516D01*
X81030D01*
Y33403D01*
X81143D01*
Y33290D01*
X81256D01*
Y33177D01*
X81369D01*
Y33064D01*
X81481D01*
Y32951D01*
X81594D01*
Y32838D01*
X81707D01*
Y32725D01*
X81820D01*
Y32613D01*
X81933D01*
Y32500D01*
X82046D01*
Y32387D01*
X82384D01*
Y32274D01*
X82271D01*
Y32161D01*
X82610D01*
Y32048D01*
X82723D01*
Y31935D01*
X82836D01*
Y31822D01*
X82949D01*
Y31710D01*
X83062D01*
Y31597D01*
X83175D01*
Y31484D01*
X83287D01*
Y31371D01*
X83400D01*
Y31258D01*
X83513D01*
Y31145D01*
X83626D01*
Y31032D01*
X83965D01*
Y30920D01*
X83852D01*
Y30807D01*
X84190D01*
Y30694D01*
X84303D01*
Y30581D01*
X84416D01*
Y30468D01*
X84529D01*
Y30355D01*
X84642D01*
Y30242D01*
X84755D01*
Y30130D01*
X84868D01*
Y30017D01*
X84980D01*
Y29904D01*
X85319D01*
Y30017D01*
X85206D01*
Y30130D01*
Y30242D01*
Y30355D01*
X85093D01*
Y30468D01*
Y30581D01*
Y30694D01*
X84980D01*
Y30807D01*
X85093D01*
Y30920D01*
X84980D01*
Y31032D01*
Y31145D01*
Y31258D01*
X84868D01*
Y31371D01*
Y31484D01*
Y31597D01*
X84755D01*
Y31710D01*
X84868D01*
Y31822D01*
X84755D01*
Y31935D01*
Y32048D01*
Y32161D01*
X84642D01*
Y32274D01*
Y32387D01*
Y32500D01*
X84529D01*
Y32613D01*
X84642D01*
Y32725D01*
X84529D01*
Y32838D01*
X84642D01*
Y32951D01*
X84529D01*
Y33064D01*
X84416D01*
Y33177D01*
Y33290D01*
Y33403D01*
X84529D01*
Y33516D01*
X85319D01*
Y33403D01*
X85432D01*
Y33516D01*
X86222D01*
Y33403D01*
X86335D01*
Y33516D01*
X86899D01*
Y33403D01*
D02*
G37*
G36*
X73129D02*
X73242D01*
Y33290D01*
X73355D01*
Y33177D01*
X73242D01*
Y33064D01*
X73355D01*
Y32951D01*
X73242D01*
Y32838D01*
X73355D01*
Y32725D01*
Y32613D01*
Y32500D01*
X73468D01*
Y32387D01*
Y32274D01*
Y32161D01*
X73581D01*
Y32048D01*
X73468D01*
Y31935D01*
X73581D01*
Y31822D01*
X73468D01*
Y31710D01*
X73581D01*
Y31597D01*
X73694D01*
Y31484D01*
X73807D01*
Y31371D01*
X73694D01*
Y31258D01*
X73807D01*
Y31145D01*
X73694D01*
Y31032D01*
X73807D01*
Y30920D01*
Y30807D01*
Y30694D01*
X73919D01*
Y30581D01*
Y30468D01*
Y30355D01*
X74032D01*
Y30242D01*
X73919D01*
Y30130D01*
X74032D01*
Y30017D01*
Y29904D01*
Y29791D01*
X74145D01*
Y29678D01*
Y29565D01*
Y29452D01*
X74258D01*
Y29339D01*
X74145D01*
Y29226D01*
X74258D01*
Y29114D01*
Y29001D01*
Y28888D01*
X74371D01*
Y28775D01*
Y28662D01*
Y28549D01*
X74484D01*
Y28436D01*
X74371D01*
Y28324D01*
X74484D01*
Y28211D01*
X74371D01*
Y28098D01*
X74484D01*
Y27985D01*
X74597D01*
Y27872D01*
Y27759D01*
Y27646D01*
X74709D01*
Y27534D01*
X74597D01*
Y27421D01*
X74709D01*
Y27308D01*
X74597D01*
Y27195D01*
X74709D01*
Y27082D01*
X74822D01*
Y26969D01*
X74709D01*
Y26856D01*
X74822D01*
Y26743D01*
X74935D01*
Y26631D01*
X74822D01*
Y26518D01*
X74935D01*
Y26405D01*
X74822D01*
Y26292D01*
X74935D01*
Y26179D01*
X75048D01*
Y26066D01*
X75161D01*
Y25953D01*
X75048D01*
Y25840D01*
X75161D01*
Y25728D01*
X75048D01*
Y25615D01*
X75161D01*
Y25502D01*
X75048D01*
Y25389D01*
X75161D01*
Y25276D01*
X75274D01*
Y25163D01*
X75161D01*
Y25050D01*
X75274D01*
Y24938D01*
X75387D01*
Y24825D01*
X75274D01*
Y24712D01*
X75387D01*
Y24599D01*
X75274D01*
Y24486D01*
X75387D01*
Y24373D01*
Y24260D01*
Y24148D01*
X75274D01*
Y24260D01*
X75161D01*
Y24148D01*
X75048D01*
Y24260D01*
X74935D01*
Y24148D01*
X74822D01*
Y24260D01*
X74709D01*
Y24148D01*
X74597D01*
Y24260D01*
X74484D01*
Y24148D01*
X74371D01*
Y24260D01*
X74258D01*
Y24148D01*
X74145D01*
Y24260D01*
X74032D01*
Y24148D01*
X73919D01*
Y24260D01*
X73807D01*
Y24148D01*
X73694D01*
Y24260D01*
X73581D01*
Y24148D01*
X73468D01*
Y24260D01*
X73355D01*
Y24148D01*
X73242D01*
Y24260D01*
X73129D01*
Y24148D01*
X73016D01*
Y24260D01*
X72904D01*
Y24148D01*
X72791D01*
Y24260D01*
X72678D01*
Y24148D01*
X72565D01*
Y24260D01*
X72452D01*
Y24148D01*
X72339D01*
Y24260D01*
X72226D01*
Y24148D01*
X72114D01*
Y24260D01*
X72001D01*
Y24148D01*
X71888D01*
Y24260D01*
X71775D01*
Y24148D01*
X71662D01*
Y24260D01*
X71549D01*
Y24148D01*
X71436D01*
Y24260D01*
X71323D01*
Y24148D01*
X71211D01*
Y24260D01*
X71098D01*
Y24148D01*
X70985D01*
Y24260D01*
X70872D01*
Y24148D01*
X70759D01*
Y24260D01*
X70646D01*
Y24148D01*
X70533D01*
Y24260D01*
X70420D01*
Y24148D01*
X70308D01*
Y24260D01*
X70195D01*
Y24148D01*
X70082D01*
Y24260D01*
X69969D01*
Y24373D01*
X69856D01*
Y24486D01*
X69969D01*
Y24599D01*
X69856D01*
Y24712D01*
X69743D01*
Y24825D01*
Y24938D01*
Y25050D01*
X69630D01*
Y25163D01*
X69743D01*
Y25276D01*
X69630D01*
Y25389D01*
X69743D01*
Y25502D01*
X69630D01*
Y25615D01*
Y25728D01*
Y25840D01*
X69518D01*
Y25953D01*
X69405D01*
Y26066D01*
X69518D01*
Y26179D01*
X69630D01*
Y26292D01*
X69969D01*
Y26179D01*
X70082D01*
Y26292D01*
X70420D01*
Y26179D01*
X70533D01*
Y26292D01*
X70872D01*
Y26179D01*
X70985D01*
Y26292D01*
X71323D01*
Y26179D01*
X71436D01*
Y26292D01*
X71775D01*
Y26179D01*
X71888D01*
Y26292D01*
X72226D01*
Y26179D01*
X72339D01*
Y26292D01*
Y26405D01*
Y26518D01*
X72226D01*
Y26631D01*
Y26743D01*
Y26856D01*
X72114D01*
Y26969D01*
X72226D01*
Y27082D01*
X72114D01*
Y27195D01*
X72226D01*
Y27308D01*
X72114D01*
Y27421D01*
X72001D01*
Y27534D01*
Y27646D01*
Y27759D01*
X71888D01*
Y27872D01*
X71775D01*
Y27985D01*
X71662D01*
Y27872D01*
X71549D01*
Y27985D01*
X71436D01*
Y27872D01*
X71549D01*
Y27759D01*
X71436D01*
Y27872D01*
X71323D01*
Y27985D01*
X71211D01*
Y27872D01*
X71098D01*
Y27985D01*
X70985D01*
Y27872D01*
X71098D01*
Y27759D01*
X70985D01*
Y27872D01*
X70872D01*
Y27985D01*
X70759D01*
Y27872D01*
X70646D01*
Y27985D01*
X70533D01*
Y27872D01*
X70646D01*
Y27759D01*
X70533D01*
Y27872D01*
X70420D01*
Y27985D01*
X70308D01*
Y27872D01*
X70195D01*
Y27985D01*
X70082D01*
Y27872D01*
X69969D01*
Y27985D01*
X69856D01*
Y27872D01*
X69743D01*
Y27985D01*
X69630D01*
Y27872D01*
X69743D01*
Y27759D01*
X69630D01*
Y27872D01*
X69518D01*
Y27985D01*
X69405D01*
Y27872D01*
X69292D01*
Y27985D01*
X68953D01*
Y28098D01*
X69066D01*
Y28211D01*
X68953D01*
Y28324D01*
X69066D01*
Y28436D01*
X68953D01*
Y28549D01*
X69066D01*
Y28662D01*
X68953D01*
Y28775D01*
X68840D01*
Y28888D01*
Y29001D01*
Y29114D01*
X68727D01*
Y29226D01*
X68840D01*
Y29339D01*
X68727D01*
Y29452D01*
Y29565D01*
Y29678D01*
X68615D01*
Y29791D01*
X68727D01*
Y29678D01*
X68840D01*
Y29791D01*
X68727D01*
Y29904D01*
X68840D01*
Y29791D01*
X68953D01*
Y29904D01*
X69066D01*
Y29791D01*
X69179D01*
Y29678D01*
X69292D01*
Y29791D01*
X69179D01*
Y29904D01*
X69292D01*
Y29791D01*
X69405D01*
Y29904D01*
X69518D01*
Y29791D01*
X69630D01*
Y29678D01*
X69743D01*
Y29791D01*
X69630D01*
Y29904D01*
X69743D01*
Y29791D01*
X69856D01*
Y29904D01*
X69969D01*
Y29791D01*
X70082D01*
Y29678D01*
X70195D01*
Y29791D01*
X70082D01*
Y29904D01*
X70195D01*
Y29791D01*
X70308D01*
Y29904D01*
X70420D01*
Y29791D01*
X70533D01*
Y29678D01*
X70646D01*
Y29791D01*
X70533D01*
Y29904D01*
X70646D01*
Y29791D01*
X70759D01*
Y29904D01*
X70872D01*
Y29791D01*
X70985D01*
Y29678D01*
X71098D01*
Y29791D01*
X70985D01*
Y29904D01*
X71098D01*
Y29791D01*
X71211D01*
Y29904D01*
X71323D01*
Y29791D01*
X71436D01*
Y29904D01*
X71549D01*
Y30017D01*
X71436D01*
Y30130D01*
X71323D01*
Y30242D01*
X71211D01*
Y30355D01*
X71323D01*
Y30242D01*
X71436D01*
Y30355D01*
X71323D01*
Y30468D01*
X71211D01*
Y30581D01*
X71323D01*
Y30694D01*
X71211D01*
Y30807D01*
X71323D01*
Y30920D01*
X71211D01*
Y31032D01*
X71098D01*
Y31145D01*
X71211D01*
Y31258D01*
X71098D01*
Y31371D01*
X70985D01*
Y31484D01*
X70872D01*
Y31371D01*
X70759D01*
Y31484D01*
X70646D01*
Y31371D01*
X70533D01*
Y31484D01*
X70420D01*
Y31371D01*
X70308D01*
Y31484D01*
X70195D01*
Y31371D01*
X70082D01*
Y31484D01*
X69969D01*
Y31371D01*
X69856D01*
Y31484D01*
X69743D01*
Y31371D01*
X69630D01*
Y31484D01*
X69518D01*
Y31371D01*
X69405D01*
Y31484D01*
X69292D01*
Y31371D01*
X69179D01*
Y31484D01*
X69066D01*
Y31371D01*
X68953D01*
Y31484D01*
X68840D01*
Y31371D01*
X68727D01*
Y31484D01*
X68615D01*
Y31371D01*
X68502D01*
Y31484D01*
X68389D01*
Y31371D01*
X68276D01*
Y31484D01*
X68163D01*
Y31597D01*
X68050D01*
Y31710D01*
X68163D01*
Y31822D01*
X68050D01*
Y31935D01*
X67937D01*
Y32048D01*
X68050D01*
Y32161D01*
X67937D01*
Y32274D01*
X67825D01*
Y32387D01*
X67937D01*
Y32500D01*
X67825D01*
Y32613D01*
X67937D01*
Y32725D01*
X67825D01*
Y32838D01*
X67937D01*
Y32951D01*
X67825D01*
Y33064D01*
X67712D01*
Y33177D01*
Y33290D01*
Y33403D01*
X67825D01*
Y33516D01*
X68163D01*
Y33403D01*
X68276D01*
Y33516D01*
X69066D01*
Y33403D01*
X69179D01*
Y33516D01*
X69969D01*
Y33403D01*
X70082D01*
Y33516D01*
X70872D01*
Y33403D01*
X70985D01*
Y33516D01*
X71775D01*
Y33403D01*
X71888D01*
Y33516D01*
X72678D01*
Y33403D01*
X72791D01*
Y33516D01*
X73129D01*
Y33403D01*
D02*
G37*
G36*
X62971D02*
X62858D01*
Y33516D01*
X62971D01*
Y33403D01*
D02*
G37*
G36*
X62745D02*
X62858D01*
Y33290D01*
X62971D01*
Y33177D01*
Y33064D01*
X63197D01*
Y32951D01*
X63084D01*
Y32838D01*
Y32725D01*
Y32613D01*
X63197D01*
Y32500D01*
Y32387D01*
Y32274D01*
X63310D01*
Y32161D01*
X63197D01*
Y32048D01*
X63310D01*
Y31935D01*
X63423D01*
Y31822D01*
X63310D01*
Y31710D01*
X63423D01*
Y31597D01*
X63310D01*
Y31484D01*
X63197D01*
Y31371D01*
X63084D01*
Y31484D01*
X62971D01*
Y31371D01*
X62858D01*
Y31484D01*
X62745D01*
Y31371D01*
X62633D01*
Y31484D01*
X62520D01*
Y31371D01*
X62407D01*
Y31484D01*
X62294D01*
Y31371D01*
X62181D01*
Y31484D01*
X62068D01*
Y31371D01*
X61955D01*
Y31484D01*
X61843D01*
Y31371D01*
X61730D01*
Y31484D01*
X61617D01*
Y31371D01*
X61504D01*
Y31484D01*
X61391D01*
Y31371D01*
X61278D01*
Y31484D01*
X61165D01*
Y31371D01*
X61053D01*
Y31484D01*
X60940D01*
Y31371D01*
X60827D01*
Y31484D01*
X60714D01*
Y31371D01*
X60827D01*
Y31258D01*
X60940D01*
Y31145D01*
X60827D01*
Y31032D01*
X60940D01*
Y30920D01*
X60827D01*
Y30807D01*
X60940D01*
Y30694D01*
Y30581D01*
Y30468D01*
X61053D01*
Y30355D01*
Y30242D01*
Y30130D01*
X61165D01*
Y30017D01*
X61053D01*
Y29904D01*
X61165D01*
Y29791D01*
Y29678D01*
Y29565D01*
X61278D01*
Y29452D01*
X61391D01*
Y29339D01*
X61278D01*
Y29226D01*
X61391D01*
Y29114D01*
X61278D01*
Y29001D01*
X61391D01*
Y28888D01*
Y28775D01*
Y28662D01*
X61504D01*
Y28549D01*
Y28436D01*
Y28324D01*
X61617D01*
Y28211D01*
X61504D01*
Y28098D01*
X61617D01*
Y27985D01*
Y27872D01*
Y27759D01*
X61730D01*
Y27646D01*
X61843D01*
Y27534D01*
X61730D01*
Y27421D01*
X61843D01*
Y27308D01*
X61730D01*
Y27195D01*
X61843D01*
Y27082D01*
Y26969D01*
Y26856D01*
X61955D01*
Y26743D01*
Y26631D01*
Y26518D01*
X62068D01*
Y26405D01*
X61955D01*
Y26292D01*
X62068D01*
Y26179D01*
X62181D01*
Y26066D01*
X62068D01*
Y26179D01*
X61955D01*
Y26066D01*
X62068D01*
Y25953D01*
X62181D01*
Y25840D01*
X62294D01*
Y25728D01*
X62181D01*
Y25615D01*
X62294D01*
Y25502D01*
X62181D01*
Y25389D01*
X62294D01*
Y25276D01*
Y25163D01*
Y25050D01*
X62407D01*
Y24938D01*
X62294D01*
Y24825D01*
X62407D01*
Y24712D01*
X62520D01*
Y24599D01*
X62407D01*
Y24486D01*
X62520D01*
Y24373D01*
X62407D01*
Y24260D01*
X62294D01*
Y24148D01*
X62181D01*
Y24260D01*
X62068D01*
Y24148D01*
X61955D01*
Y24260D01*
X61843D01*
Y24148D01*
X61730D01*
Y24260D01*
X61617D01*
Y24148D01*
X61504D01*
Y24260D01*
X61391D01*
Y24148D01*
X61278D01*
Y24260D01*
X61165D01*
Y24148D01*
X61053D01*
Y24260D01*
X60940D01*
Y24148D01*
X60827D01*
Y24260D01*
X60714D01*
Y24148D01*
X60601D01*
Y24260D01*
X60488D01*
Y24148D01*
X60375D01*
Y24260D01*
X60262D01*
Y24148D01*
X60150D01*
Y24260D01*
X60037D01*
Y24148D01*
X59924D01*
Y24260D01*
Y24373D01*
Y24486D01*
Y24599D01*
Y24712D01*
X59811D01*
Y24825D01*
X59698D01*
Y24938D01*
X59811D01*
Y25050D01*
X59698D01*
Y25163D01*
Y25276D01*
Y25389D01*
X59585D01*
Y25502D01*
Y25615D01*
Y25728D01*
X59472D01*
Y25840D01*
X59585D01*
Y25953D01*
X59472D01*
Y26066D01*
Y26179D01*
Y26292D01*
X59360D01*
Y26405D01*
X59472D01*
Y26518D01*
X59360D01*
Y26631D01*
X59247D01*
Y26743D01*
X59360D01*
Y26856D01*
X59247D01*
Y26969D01*
X59360D01*
Y27082D01*
X59247D01*
Y27195D01*
X59134D01*
Y27308D01*
Y27421D01*
Y27534D01*
X59021D01*
Y27646D01*
X59134D01*
Y27759D01*
X59021D01*
Y27872D01*
X59134D01*
Y27985D01*
X59021D01*
Y28098D01*
X59134D01*
Y28211D01*
X59021D01*
Y28324D01*
X58908D01*
Y28436D01*
X58795D01*
Y28549D01*
X58908D01*
Y28662D01*
X58795D01*
Y28775D01*
X58908D01*
Y28888D01*
X58795D01*
Y29001D01*
X58682D01*
Y29114D01*
X58795D01*
Y29226D01*
X58682D01*
Y29339D01*
X58569D01*
Y29452D01*
X58682D01*
Y29565D01*
X58569D01*
Y29678D01*
X58682D01*
Y29791D01*
X58569D01*
Y29904D01*
X58682D01*
Y30017D01*
X58569D01*
Y30130D01*
X58456D01*
Y30242D01*
X58344D01*
Y30355D01*
X58456D01*
Y30468D01*
X58344D01*
Y30581D01*
X58456D01*
Y30694D01*
X58344D01*
Y30807D01*
Y30920D01*
Y31032D01*
X58231D01*
Y31145D01*
X58118D01*
Y31258D01*
X58231D01*
Y31371D01*
X58118D01*
Y31484D01*
X58005D01*
Y31371D01*
X57892D01*
Y31484D01*
X57779D01*
Y31371D01*
X57666D01*
Y31484D01*
X57554D01*
Y31371D01*
X57441D01*
Y31484D01*
X57328D01*
Y31371D01*
X57215D01*
Y31484D01*
X57102D01*
Y31371D01*
X56989D01*
Y31484D01*
X56876D01*
Y31371D01*
X56763D01*
Y31484D01*
X56651D01*
Y31371D01*
X56538D01*
Y31484D01*
X56425D01*
Y31371D01*
X56312D01*
Y31484D01*
X56199D01*
Y31371D01*
X56086D01*
Y31484D01*
X55974D01*
Y31371D01*
X55861D01*
Y31484D01*
X55748D01*
Y31371D01*
X55635D01*
Y31484D01*
X55522D01*
Y31597D01*
X55409D01*
Y31710D01*
X55522D01*
Y31822D01*
X55409D01*
Y31935D01*
X55296D01*
Y32048D01*
Y32161D01*
Y32274D01*
X55183D01*
Y32387D01*
X55296D01*
Y32500D01*
X55183D01*
Y32613D01*
X55296D01*
Y32725D01*
X55183D01*
Y32838D01*
X55296D01*
Y32951D01*
X55183D01*
Y33064D01*
X55071D01*
Y33177D01*
X54958D01*
Y33290D01*
X55071D01*
Y33403D01*
X54958D01*
Y33516D01*
X55522D01*
Y33403D01*
X55635D01*
Y33516D01*
X56425D01*
Y33403D01*
X56538D01*
Y33516D01*
X57328D01*
Y33403D01*
X57441D01*
Y33516D01*
X58231D01*
Y33403D01*
X58344D01*
Y33516D01*
X59134D01*
Y33403D01*
X59247D01*
Y33516D01*
X60037D01*
Y33403D01*
X60150D01*
Y33516D01*
X60940D01*
Y33403D01*
X61053D01*
Y33516D01*
X61843D01*
Y33403D01*
X61955D01*
Y33516D01*
X62745D01*
Y33403D01*
D02*
G37*
G36*
X55071Y32951D02*
X54958D01*
Y33064D01*
X55071D01*
Y32951D01*
D02*
G37*
G36*
X82159Y32500D02*
X82046D01*
Y32613D01*
X82159D01*
Y32500D01*
D02*
G37*
G36*
X73581D02*
X73468D01*
Y32613D01*
X73581D01*
Y32500D01*
D02*
G37*
G36*
X132723Y32048D02*
X132610D01*
Y32161D01*
X132723D01*
Y32048D01*
D02*
G37*
G36*
X113310D02*
X113197D01*
Y32161D01*
X113310D01*
Y32048D01*
D02*
G37*
G36*
X126403Y31597D02*
X126290D01*
Y31710D01*
X126403D01*
Y31597D01*
D02*
G37*
G36*
X79901D02*
X79789D01*
Y31710D01*
X79901D01*
Y31597D01*
D02*
G37*
G36*
X141527Y31371D02*
X141414D01*
Y31484D01*
X141527D01*
Y31371D01*
D02*
G37*
G36*
X96832D02*
X96719D01*
Y31484D01*
X96832D01*
Y31371D01*
D02*
G37*
G36*
X142204Y31145D02*
X142091D01*
Y31258D01*
X142204D01*
Y31145D01*
D02*
G37*
G36*
X80353D02*
X80240D01*
Y31258D01*
X80353D01*
Y31145D01*
D02*
G37*
G36*
X84868Y30242D02*
X84755D01*
Y30355D01*
X84868D01*
Y30242D01*
D02*
G37*
G36*
X88028Y29791D02*
X87915D01*
Y29904D01*
X88028D01*
Y29791D01*
D02*
G37*
G36*
X128096Y40513D02*
X128209D01*
Y40400D01*
X128321D01*
Y40288D01*
X128434D01*
Y40175D01*
X128321D01*
Y40062D01*
X128547D01*
Y39949D01*
Y39836D01*
X128660D01*
Y39723D01*
X128773D01*
Y39610D01*
X128886D01*
Y39498D01*
X128999D01*
Y39385D01*
X129112D01*
Y39272D01*
X129224D01*
Y39159D01*
X129337D01*
Y39046D01*
X129450D01*
Y38933D01*
X129563D01*
Y38820D01*
Y38707D01*
X129789D01*
Y38594D01*
X129676D01*
Y38482D01*
X130015D01*
Y38369D01*
X129902D01*
Y38256D01*
X130015D01*
Y38143D01*
X130127D01*
Y38030D01*
X130240D01*
Y37917D01*
X130353D01*
Y37804D01*
X130466D01*
Y37692D01*
X130353D01*
Y37579D01*
X130692D01*
Y37466D01*
X130579D01*
Y37353D01*
X130692D01*
Y37240D01*
X130805D01*
Y37127D01*
X130917D01*
Y37014D01*
X131030D01*
Y36902D01*
X131143D01*
Y36789D01*
Y36676D01*
X131369D01*
Y36563D01*
X131256D01*
Y36450D01*
X131369D01*
Y36337D01*
X131482D01*
Y36224D01*
X131595D01*
Y36111D01*
X131708D01*
Y35999D01*
X131820D01*
Y35886D01*
X131933D01*
Y35773D01*
X132046D01*
Y35660D01*
X131933D01*
Y35547D01*
X132046D01*
Y35434D01*
X132159D01*
Y35321D01*
X132272D01*
Y35208D01*
X132385D01*
Y35096D01*
X132498D01*
Y34983D01*
Y34870D01*
X132723D01*
Y34757D01*
X132610D01*
Y34644D01*
X132723D01*
Y34531D01*
X132836D01*
Y34418D01*
X132949D01*
Y34306D01*
X133062D01*
Y34193D01*
X133175D01*
Y34080D01*
X133062D01*
Y33967D01*
X133400D01*
Y33854D01*
X133288D01*
Y33741D01*
X133400D01*
Y33628D01*
X133513D01*
Y33516D01*
X133626D01*
Y33403D01*
Y33290D01*
X133852D01*
Y33177D01*
X133739D01*
Y33064D01*
X133852D01*
Y32951D01*
X133965D01*
Y32838D01*
X134078D01*
Y32725D01*
X134191D01*
Y32613D01*
X134303D01*
Y32500D01*
X134191D01*
Y32387D01*
X134303D01*
Y32274D01*
X134416D01*
Y32161D01*
X134529D01*
Y32048D01*
X134642D01*
Y31935D01*
X134755D01*
Y31822D01*
X134642D01*
Y31710D01*
X134981D01*
Y31597D01*
X134868D01*
Y31484D01*
X134981D01*
Y31371D01*
X135093D01*
Y31258D01*
X135206D01*
Y31145D01*
X135093D01*
Y31032D01*
X135206D01*
Y30920D01*
X135319D01*
Y30807D01*
X135432D01*
Y30694D01*
X135545D01*
Y30581D01*
X135658D01*
Y30468D01*
X135545D01*
Y30355D01*
X135658D01*
Y30242D01*
X135771D01*
Y30130D01*
X135884D01*
Y30017D01*
X135996D01*
Y29904D01*
X136109D01*
Y30017D01*
X135996D01*
Y30130D01*
X136109D01*
Y30017D01*
X136222D01*
Y29904D01*
X136561D01*
Y29791D01*
X136674D01*
Y29678D01*
X136786D01*
Y29791D01*
X136674D01*
Y29904D01*
X136786D01*
Y29791D01*
X136899D01*
Y29678D01*
X137012D01*
Y29565D01*
X137125D01*
Y29452D01*
X137238D01*
Y29339D01*
X137351D01*
Y29226D01*
X137464D01*
Y29114D01*
X137577D01*
Y29001D01*
X137689D01*
Y28888D01*
X137802D01*
Y28775D01*
X137915D01*
Y28662D01*
X137802D01*
Y28549D01*
X138141D01*
Y28436D01*
X138028D01*
Y28324D01*
X137915D01*
Y28436D01*
X137802D01*
Y28549D01*
X137689D01*
Y28662D01*
X137577D01*
Y28549D01*
X137689D01*
Y28436D01*
X137577D01*
Y28549D01*
X137464D01*
Y28436D01*
X137351D01*
Y28549D01*
X137238D01*
Y28436D01*
X137125D01*
Y28324D01*
X137012D01*
Y28436D01*
X136899D01*
Y28324D01*
X137012D01*
Y28211D01*
X136899D01*
Y28098D01*
X137012D01*
Y27985D01*
X137125D01*
Y27872D01*
X137012D01*
Y27759D01*
X137125D01*
Y27646D01*
X137464D01*
Y27534D01*
X137577D01*
Y27421D01*
X137689D01*
Y27308D01*
X137802D01*
Y27195D01*
X137915D01*
Y27082D01*
X138028D01*
Y26969D01*
X138367D01*
Y26856D01*
X138479D01*
Y26969D01*
X138818D01*
Y27082D01*
X138931D01*
Y27195D01*
X139495D01*
Y27308D01*
X139608D01*
Y27421D01*
X139947D01*
Y27534D01*
X140060D01*
Y27421D01*
X140173D01*
Y27534D01*
X140285D01*
Y27646D01*
X140624D01*
Y27759D01*
X140737D01*
Y27646D01*
X140850D01*
Y27759D01*
X140963D01*
Y27872D01*
X141301D01*
Y27985D01*
X141414D01*
Y27872D01*
X141527D01*
Y27985D01*
X141640D01*
Y28098D01*
X142204D01*
Y28211D01*
X142317D01*
Y28324D01*
X142430D01*
Y28211D01*
X142543D01*
Y28324D01*
X142881D01*
Y28436D01*
X142994D01*
Y28324D01*
X143107D01*
Y28436D01*
X142994D01*
Y28549D01*
X143107D01*
Y28436D01*
X143220D01*
Y28549D01*
X143784D01*
Y28662D01*
X143671D01*
Y28775D01*
X143333D01*
Y28888D01*
X143446D01*
Y29001D01*
X143559D01*
Y28888D01*
X143671D01*
Y28775D01*
X143784D01*
Y28662D01*
X143897D01*
Y28549D01*
X144010D01*
Y28662D01*
X143897D01*
Y28775D01*
X143784D01*
Y28888D01*
X143897D01*
Y28775D01*
X144010D01*
Y28662D01*
X144123D01*
Y28775D01*
X144010D01*
Y28888D01*
X143897D01*
Y29001D01*
X144010D01*
Y28888D01*
X144123D01*
Y28775D01*
X144236D01*
Y28888D01*
X144349D01*
Y28775D01*
X144462D01*
Y28888D01*
X144349D01*
Y29001D01*
X144462D01*
Y28888D01*
X144574D01*
Y28775D01*
X144687D01*
Y28888D01*
X144800D01*
Y28775D01*
X144913D01*
Y28888D01*
X144800D01*
Y29001D01*
X144913D01*
Y28888D01*
X145252D01*
Y29001D01*
X145816D01*
Y29114D01*
X145929D01*
Y29001D01*
X146042D01*
Y29114D01*
X146380D01*
Y29226D01*
X146493D01*
Y29114D01*
X146606D01*
Y29226D01*
X147170D01*
Y29339D01*
X147283D01*
Y29226D01*
X147396D01*
Y29339D01*
X147509D01*
Y29452D01*
X147622D01*
Y29339D01*
X147735D01*
Y29452D01*
X147847D01*
Y29339D01*
X147960D01*
Y29452D01*
X148073D01*
Y29339D01*
X148186D01*
Y29452D01*
X148976D01*
Y29565D01*
X149089D01*
Y29452D01*
X149202D01*
Y29565D01*
X149315D01*
Y29452D01*
X149428D01*
Y29565D01*
X149540D01*
Y29452D01*
X149653D01*
Y29565D01*
X149540D01*
Y29678D01*
X149653D01*
Y29565D01*
X149766D01*
Y29452D01*
X149879D01*
Y29565D01*
X149766D01*
Y29678D01*
X149879D01*
Y29565D01*
X149992D01*
Y29678D01*
X150105D01*
Y29565D01*
X150218D01*
Y29452D01*
X150331D01*
Y29565D01*
X150218D01*
Y29678D01*
X150331D01*
Y29565D01*
X150443D01*
Y29678D01*
X150556D01*
Y29565D01*
X150669D01*
Y29678D01*
X153265D01*
Y29565D01*
X152249D01*
Y29452D01*
X152137D01*
Y29565D01*
X152024D01*
Y29452D01*
X151911D01*
Y29565D01*
X151798D01*
Y29452D01*
X151685D01*
Y29565D01*
X151572D01*
Y29452D01*
X151685D01*
Y29339D01*
X151572D01*
Y29452D01*
X151459D01*
Y29565D01*
X151346D01*
Y29452D01*
X151233D01*
Y29339D01*
X151121D01*
Y29452D01*
X151008D01*
Y29339D01*
X150895D01*
Y29452D01*
X150782D01*
Y29339D01*
X150669D01*
Y29452D01*
X150556D01*
Y29339D01*
X149766D01*
Y29226D01*
X149653D01*
Y29339D01*
X149540D01*
Y29226D01*
X149428D01*
Y29339D01*
X149315D01*
Y29226D01*
X148976D01*
Y29114D01*
X148863D01*
Y29226D01*
X148750D01*
Y29114D01*
X147960D01*
Y29001D01*
X147622D01*
Y29114D01*
X147509D01*
Y29001D01*
X147622D01*
Y28888D01*
X147509D01*
Y29001D01*
X147396D01*
Y28888D01*
X146832D01*
Y28775D01*
X146945D01*
Y28662D01*
X147057D01*
Y28549D01*
X147170D01*
Y28662D01*
X147057D01*
Y28775D01*
X147170D01*
Y28662D01*
X147283D01*
Y28775D01*
X147396D01*
Y28662D01*
X147509D01*
Y28775D01*
X147622D01*
Y28662D01*
X147735D01*
Y28775D01*
X147847D01*
Y28662D01*
X147960D01*
Y28775D01*
X148073D01*
Y28662D01*
X148186D01*
Y28775D01*
X148299D01*
Y28662D01*
X148412D01*
Y28549D01*
X148525D01*
Y28662D01*
X148412D01*
Y28775D01*
X148525D01*
Y28662D01*
X148638D01*
Y28775D01*
X148750D01*
Y28662D01*
X148863D01*
Y28549D01*
X148976D01*
Y28662D01*
X149089D01*
Y28549D01*
X149202D01*
Y28662D01*
X149089D01*
Y28775D01*
X149202D01*
Y28662D01*
X149315D01*
Y28549D01*
X149428D01*
Y28662D01*
X149540D01*
Y28549D01*
X149653D01*
Y28662D01*
X149540D01*
Y28775D01*
X149653D01*
Y28662D01*
X149766D01*
Y28549D01*
X149879D01*
Y28662D01*
X149992D01*
Y28549D01*
X150331D01*
Y28662D01*
X150443D01*
Y28549D01*
X150782D01*
Y28436D01*
X150218D01*
Y28324D01*
X150105D01*
Y28436D01*
X149766D01*
Y28324D01*
X149653D01*
Y28436D01*
X149540D01*
Y28324D01*
X149428D01*
Y28436D01*
X149315D01*
Y28324D01*
X149202D01*
Y28436D01*
X149089D01*
Y28324D01*
X148976D01*
Y28436D01*
X148863D01*
Y28324D01*
X148750D01*
Y28436D01*
X148638D01*
Y28324D01*
X148750D01*
Y28211D01*
X148638D01*
Y28324D01*
X148525D01*
Y28436D01*
X148412D01*
Y28324D01*
X148525D01*
Y28211D01*
X148412D01*
Y28324D01*
X148299D01*
Y28436D01*
X148186D01*
Y28324D01*
X148299D01*
Y28211D01*
X148186D01*
Y28324D01*
X148073D01*
Y28211D01*
X147960D01*
Y28324D01*
X147847D01*
Y28211D01*
X147735D01*
Y28324D01*
X147622D01*
Y28211D01*
X147509D01*
Y28324D01*
X147396D01*
Y28211D01*
X147283D01*
Y28324D01*
X147170D01*
Y28211D01*
X147057D01*
Y28324D01*
X146945D01*
Y28211D01*
X145929D01*
Y28098D01*
X145816D01*
Y28211D01*
X145703D01*
Y28098D01*
X145590D01*
Y28211D01*
X145477D01*
Y28098D01*
X145364D01*
Y28211D01*
X145252D01*
Y28324D01*
X146042D01*
Y28436D01*
X146154D01*
Y28324D01*
X146267D01*
Y28436D01*
X146154D01*
Y28549D01*
X146042D01*
Y28662D01*
X145929D01*
Y28549D01*
X145816D01*
Y28662D01*
X145703D01*
Y28549D01*
X145590D01*
Y28662D01*
X145477D01*
Y28549D01*
X145364D01*
Y28662D01*
X145252D01*
Y28549D01*
X145364D01*
Y28436D01*
X145252D01*
Y28549D01*
X145139D01*
Y28436D01*
X144800D01*
Y28324D01*
X144913D01*
Y28211D01*
X145026D01*
Y28098D01*
X144913D01*
Y28211D01*
X144800D01*
Y28324D01*
X144687D01*
Y28436D01*
X144574D01*
Y28324D01*
X144687D01*
Y28211D01*
X144800D01*
Y28098D01*
X144913D01*
Y27985D01*
X144800D01*
Y28098D01*
X144687D01*
Y28211D01*
X144574D01*
Y28324D01*
X144462D01*
Y28211D01*
X144574D01*
Y28098D01*
X144687D01*
Y27985D01*
X144574D01*
Y28098D01*
X144462D01*
Y28211D01*
X144349D01*
Y28324D01*
X144236D01*
Y28211D01*
X144349D01*
Y28098D01*
X144462D01*
Y27985D01*
X144349D01*
Y28098D01*
X144236D01*
Y28211D01*
X144123D01*
Y28098D01*
X144236D01*
Y27985D01*
X144123D01*
Y28098D01*
X144010D01*
Y28211D01*
X143897D01*
Y28098D01*
X144010D01*
Y27985D01*
X143897D01*
Y28098D01*
X143784D01*
Y28211D01*
X143671D01*
Y28098D01*
X143784D01*
Y27985D01*
X143671D01*
Y28098D01*
X143559D01*
Y27985D01*
X142994D01*
Y27872D01*
X142881D01*
Y27985D01*
X142769D01*
Y27872D01*
X142881D01*
Y27759D01*
X142769D01*
Y27872D01*
X142656D01*
Y27759D01*
X142543D01*
Y27872D01*
X142430D01*
Y27759D01*
X142091D01*
Y27646D01*
X141978D01*
Y27534D01*
X141866D01*
Y27646D01*
X141753D01*
Y27534D01*
X141414D01*
Y27421D01*
X141076D01*
Y27308D01*
X140737D01*
Y27195D01*
X140624D01*
Y27082D01*
X140511D01*
Y27195D01*
X140398D01*
Y27082D01*
X140285D01*
Y26969D01*
X140173D01*
Y27082D01*
X140060D01*
Y26969D01*
X139947D01*
Y26856D01*
X139834D01*
Y26969D01*
X139721D01*
Y26856D01*
X139608D01*
Y26743D01*
X139495D01*
Y26856D01*
X139382D01*
Y26743D01*
X139495D01*
Y26631D01*
X139382D01*
Y26743D01*
X139270D01*
Y26631D01*
X138931D01*
Y26518D01*
X138818D01*
Y26405D01*
X138931D01*
Y26292D01*
X139270D01*
Y26179D01*
X139382D01*
Y26066D01*
X139495D01*
Y25953D01*
X139608D01*
Y25840D01*
X139947D01*
Y25728D01*
X139834D01*
Y25615D01*
X140173D01*
Y25502D01*
X140285D01*
Y25389D01*
X140398D01*
Y25276D01*
X140511D01*
Y25163D01*
X140624D01*
Y25050D01*
X140737D01*
Y24938D01*
X141076D01*
Y24825D01*
X141188D01*
Y24712D01*
X141301D01*
Y24599D01*
X141414D01*
Y24486D01*
X141753D01*
Y24373D01*
X141640D01*
Y24260D01*
X141527D01*
Y24373D01*
X141414D01*
Y24486D01*
X141301D01*
Y24599D01*
X140963D01*
Y24712D01*
X140850D01*
Y24825D01*
X140511D01*
Y24938D01*
X140398D01*
Y25050D01*
X140285D01*
Y25163D01*
X140173D01*
Y25276D01*
X139834D01*
Y25389D01*
X139721D01*
Y25502D01*
X139608D01*
Y25615D01*
X139495D01*
Y25728D01*
X139157D01*
Y25840D01*
X139044D01*
Y25953D01*
X138931D01*
Y26066D01*
X138818D01*
Y26179D01*
X138479D01*
Y26292D01*
X138367D01*
Y26405D01*
X138254D01*
Y26292D01*
X138367D01*
Y26179D01*
X138254D01*
Y26292D01*
X138141D01*
Y26179D01*
X137802D01*
Y26066D01*
X137689D01*
Y25953D01*
X137577D01*
Y26066D01*
X137464D01*
Y25953D01*
X137351D01*
Y25840D01*
X137464D01*
Y25728D01*
X137577D01*
Y25615D01*
Y25502D01*
Y25389D01*
X137689D01*
Y25276D01*
Y25163D01*
Y25050D01*
X137802D01*
Y24938D01*
X137915D01*
Y24825D01*
X137802D01*
Y24712D01*
X137915D01*
Y24599D01*
Y24486D01*
X138028D01*
Y24373D01*
Y24260D01*
X138141D01*
Y24148D01*
X138028D01*
Y24035D01*
X137915D01*
Y24148D01*
X137802D01*
Y24260D01*
X137915D01*
Y24373D01*
X137802D01*
Y24486D01*
X137689D01*
Y24599D01*
Y24712D01*
Y24825D01*
X137577D01*
Y24938D01*
X137464D01*
Y25050D01*
X137351D01*
Y25163D01*
X137464D01*
Y25276D01*
X137351D01*
Y25389D01*
X137238D01*
Y25502D01*
X137125D01*
Y25615D01*
X137238D01*
Y25728D01*
X136674D01*
Y25615D01*
X136561D01*
Y25502D01*
X136222D01*
Y25389D01*
X136109D01*
Y25276D01*
X135771D01*
Y25163D01*
X135658D01*
Y25050D01*
X135319D01*
Y24938D01*
X135206D01*
Y24825D01*
X135093D01*
Y24938D01*
X134981D01*
Y24825D01*
X134868D01*
Y24712D01*
X134755D01*
Y24825D01*
X134642D01*
Y24712D01*
X134755D01*
Y24599D01*
X134642D01*
Y24712D01*
X134529D01*
Y24599D01*
X134416D01*
Y24486D01*
X134303D01*
Y24373D01*
X134191D01*
Y24486D01*
X134078D01*
Y24373D01*
X133965D01*
Y24260D01*
X133852D01*
Y24148D01*
X133513D01*
Y24035D01*
X133626D01*
Y23922D01*
X133513D01*
Y23809D01*
X133400D01*
Y23922D01*
X133062D01*
Y23809D01*
X132949D01*
Y23696D01*
X132610D01*
Y23583D01*
X132498D01*
Y23470D01*
X132385D01*
Y23357D01*
X132272D01*
Y23245D01*
X131933D01*
Y23132D01*
X131820D01*
Y23245D01*
X131708D01*
Y23132D01*
X131820D01*
Y23019D01*
X131708D01*
Y22906D01*
X131595D01*
Y23019D01*
X131482D01*
Y22906D01*
X131595D01*
Y22793D01*
X131482D01*
Y22906D01*
X131369D01*
Y22793D01*
X131256D01*
Y22680D01*
X131143D01*
Y22567D01*
X130805D01*
Y22455D01*
X130692D01*
Y22342D01*
X130579D01*
Y22229D01*
X130466D01*
Y22342D01*
X130353D01*
Y22229D01*
X130466D01*
Y22116D01*
X130127D01*
Y22003D01*
X130015D01*
Y21890D01*
X129902D01*
Y21777D01*
X129789D01*
Y21664D01*
X129450D01*
Y21552D01*
X129337D01*
Y21439D01*
X129224D01*
Y21326D01*
X129112D01*
Y21439D01*
X128999D01*
Y21326D01*
X129112D01*
Y21213D01*
X128999D01*
Y21100D01*
X128886D01*
Y21213D01*
X128773D01*
Y21100D01*
X128886D01*
Y20987D01*
X128773D01*
Y21100D01*
X128660D01*
Y20987D01*
X128547D01*
Y20874D01*
X128434D01*
Y20762D01*
X128321D01*
Y20649D01*
X128209D01*
Y20536D01*
X127870D01*
Y20423D01*
X127757D01*
Y20310D01*
X127644D01*
Y20197D01*
X127531D01*
Y20084D01*
X127418D01*
Y19971D01*
X127306D01*
Y19859D01*
X127193D01*
Y19746D01*
X127080D01*
Y19859D01*
X126967D01*
Y19746D01*
X127080D01*
Y19633D01*
X126741D01*
Y19520D01*
X126854D01*
Y19407D01*
X126516D01*
Y19294D01*
X126403D01*
Y19181D01*
X126290D01*
Y19069D01*
X126177D01*
Y18956D01*
X126064D01*
Y18843D01*
X125951D01*
Y18730D01*
X125838D01*
Y18617D01*
X125725D01*
Y18504D01*
X125613D01*
Y18391D01*
X125500D01*
Y18278D01*
X125274D01*
Y18166D01*
Y18053D01*
X125048D01*
Y17940D01*
Y17827D01*
X124710D01*
Y17940D01*
X124822D01*
Y18053D01*
X124935D01*
Y18166D01*
X125048D01*
Y18278D01*
X125161D01*
Y18391D01*
X125274D01*
Y18504D01*
X125387D01*
Y18617D01*
X125500D01*
Y18730D01*
X125613D01*
Y18843D01*
X125725D01*
Y18956D01*
X125838D01*
Y19069D01*
X125951D01*
Y19181D01*
X126064D01*
Y19294D01*
X126177D01*
Y19407D01*
X126290D01*
Y19520D01*
X126403D01*
Y19633D01*
X126516D01*
Y19746D01*
X126628D01*
Y19859D01*
X126741D01*
Y19971D01*
X126854D01*
Y20084D01*
X126967D01*
Y20197D01*
X127080D01*
Y20310D01*
X127193D01*
Y20423D01*
X127531D01*
Y20536D01*
X127644D01*
Y20649D01*
X127757D01*
Y20762D01*
X127870D01*
Y20874D01*
X127983D01*
Y20987D01*
X128096D01*
Y20874D01*
X128209D01*
Y20987D01*
X128096D01*
Y21100D01*
X128209D01*
Y21213D01*
X128321D01*
Y21100D01*
X128434D01*
Y21213D01*
X128321D01*
Y21326D01*
X128660D01*
Y21439D01*
X128773D01*
Y21552D01*
X128886D01*
Y21664D01*
X128999D01*
Y21777D01*
X129112D01*
Y21890D01*
X129224D01*
Y22003D01*
X129563D01*
Y22116D01*
X129676D01*
Y22229D01*
X129789D01*
Y22342D01*
X129902D01*
Y22229D01*
X130015D01*
Y22342D01*
X129902D01*
Y22455D01*
X130015D01*
Y22567D01*
X130127D01*
Y22455D01*
X130240D01*
Y22567D01*
X130127D01*
Y22680D01*
X130466D01*
Y22793D01*
X130579D01*
Y22906D01*
X130692D01*
Y23019D01*
X130805D01*
Y22906D01*
X130917D01*
Y23019D01*
X130805D01*
Y23132D01*
X130917D01*
Y23019D01*
X131030D01*
Y23132D01*
X131143D01*
Y23245D01*
X131256D01*
Y23357D01*
X131595D01*
Y23470D01*
X131708D01*
Y23583D01*
X131820D01*
Y23696D01*
X131933D01*
Y23809D01*
X132272D01*
Y23922D01*
X132385D01*
Y24035D01*
X132723D01*
Y24148D01*
X132836D01*
Y24260D01*
X132949D01*
Y24373D01*
X133062D01*
Y24486D01*
X133175D01*
Y24373D01*
X133288D01*
Y24486D01*
X133400D01*
Y24599D01*
X133513D01*
Y24486D01*
X133626D01*
Y24599D01*
X133513D01*
Y24712D01*
X133852D01*
Y24825D01*
Y24938D01*
X134303D01*
Y25050D01*
X134416D01*
Y25163D01*
X134755D01*
Y25276D01*
X134868D01*
Y25389D01*
X135206D01*
Y25502D01*
X135319D01*
Y25615D01*
X135658D01*
Y25728D01*
X135771D01*
Y25840D01*
X136109D01*
Y25953D01*
X136222D01*
Y25840D01*
X136335D01*
Y25953D01*
X136222D01*
Y26066D01*
X136561D01*
Y26179D01*
X136674D01*
Y26292D01*
X136786D01*
Y26405D01*
X136674D01*
Y26518D01*
X136786D01*
Y26631D01*
X136674D01*
Y26743D01*
X136561D01*
Y26856D01*
X136448D01*
Y26969D01*
X136561D01*
Y27082D01*
X136448D01*
Y27195D01*
X136335D01*
Y27308D01*
X135996D01*
Y27421D01*
X136109D01*
Y27534D01*
X135771D01*
Y27421D01*
X135658D01*
Y27308D01*
X135545D01*
Y27195D01*
X135658D01*
Y27082D01*
X135545D01*
Y26969D01*
X135432D01*
Y26856D01*
X135319D01*
Y26743D01*
X135206D01*
Y26856D01*
X135093D01*
Y26969D01*
X135206D01*
Y27082D01*
X135093D01*
Y27195D01*
X134981D01*
Y27308D01*
X134868D01*
Y27421D01*
X134981D01*
Y27534D01*
X134868D01*
Y27646D01*
X134755D01*
Y27759D01*
X134642D01*
Y27872D01*
X134755D01*
Y27759D01*
X134868D01*
Y27872D01*
X134755D01*
Y27985D01*
X134642D01*
Y28098D01*
X134755D01*
Y28211D01*
X134642D01*
Y28324D01*
X134755D01*
Y28436D01*
X134642D01*
Y28549D01*
X134755D01*
Y28662D01*
X134642D01*
Y28775D01*
X134755D01*
Y28888D01*
X134642D01*
Y29001D01*
X134755D01*
Y29114D01*
X134642D01*
Y29226D01*
X134755D01*
Y29339D01*
X134642D01*
Y29452D01*
X134529D01*
Y29565D01*
X134416D01*
Y29678D01*
X134303D01*
Y29791D01*
X134191D01*
Y29904D01*
X134303D01*
Y30017D01*
X134191D01*
Y30130D01*
X134078D01*
Y30242D01*
X133965D01*
Y30355D01*
X133852D01*
Y30468D01*
X133739D01*
Y30581D01*
X133852D01*
Y30694D01*
X133626D01*
Y30807D01*
Y30920D01*
X133513D01*
Y31032D01*
X133400D01*
Y31145D01*
X133288D01*
Y31258D01*
X133400D01*
Y31371D01*
X133288D01*
Y31484D01*
X133175D01*
Y31597D01*
X133062D01*
Y31710D01*
X132949D01*
Y31822D01*
X132836D01*
Y31935D01*
X132949D01*
Y32048D01*
X132836D01*
Y32161D01*
X132723D01*
Y32274D01*
X132610D01*
Y32387D01*
X132498D01*
Y32500D01*
X132385D01*
Y32613D01*
X132498D01*
Y32725D01*
X132385D01*
Y32838D01*
X132272D01*
Y32951D01*
X132159D01*
Y33064D01*
Y33177D01*
X131933D01*
Y33290D01*
X132046D01*
Y33403D01*
X131933D01*
Y33516D01*
X131820D01*
Y33628D01*
X131708D01*
Y33741D01*
Y33854D01*
X131595D01*
Y33967D01*
Y34080D01*
X131482D01*
Y34193D01*
X131369D01*
Y34306D01*
X131256D01*
Y34418D01*
X131369D01*
Y34531D01*
X131256D01*
Y34644D01*
X131143D01*
Y34757D01*
X131030D01*
Y34870D01*
Y34983D01*
X130917D01*
Y35096D01*
Y35208D01*
X130805D01*
Y35321D01*
X130692D01*
Y35434D01*
X130579D01*
Y35547D01*
X130692D01*
Y35660D01*
X130579D01*
Y35773D01*
X130466D01*
Y35886D01*
X130353D01*
Y35999D01*
Y36111D01*
X130240D01*
Y36224D01*
Y36337D01*
X130127D01*
Y36450D01*
Y36563D01*
X129902D01*
Y36676D01*
X130015D01*
Y36789D01*
X129902D01*
Y36902D01*
X129789D01*
Y37014D01*
X129676D01*
Y37127D01*
X129789D01*
Y37240D01*
X129676D01*
Y37353D01*
X129563D01*
Y37466D01*
X129450D01*
Y37579D01*
X129563D01*
Y37692D01*
X129450D01*
Y37804D01*
X129337D01*
Y37917D01*
X129224D01*
Y38030D01*
Y38143D01*
Y38256D01*
X129112D01*
Y38369D01*
X128999D01*
Y38482D01*
X129112D01*
Y38594D01*
X128773D01*
Y38707D01*
X128886D01*
Y38820D01*
X128773D01*
Y38933D01*
X128660D01*
Y39046D01*
Y39159D01*
Y39272D01*
X128547D01*
Y39385D01*
X128434D01*
Y39498D01*
X128321D01*
Y39610D01*
X128434D01*
Y39723D01*
X128321D01*
Y39836D01*
X128209D01*
Y39949D01*
X128096D01*
Y40062D01*
X128209D01*
Y40175D01*
X128096D01*
Y40288D01*
X127983D01*
Y40400D01*
X127870D01*
Y40513D01*
X127983D01*
Y40626D01*
X128096D01*
Y40513D01*
D02*
G37*
G36*
X134529Y29339D02*
X134416D01*
Y29452D01*
X134529D01*
Y29339D01*
D02*
G37*
G36*
X143107Y28888D02*
X142994D01*
Y29001D01*
X143107D01*
Y28888D01*
D02*
G37*
G36*
X101120D02*
X101008D01*
Y29001D01*
X101120D01*
Y28888D01*
D02*
G37*
G36*
X83062D02*
X82949D01*
Y29001D01*
X83062D01*
Y28888D01*
D02*
G37*
G36*
X142881D02*
X142994D01*
Y28775D01*
X142881D01*
Y28888D01*
X142769D01*
Y29001D01*
X142881D01*
Y28888D01*
D02*
G37*
G36*
X142656D02*
X142769D01*
Y28775D01*
X142656D01*
Y28888D01*
X142543D01*
Y29001D01*
X142656D01*
Y28888D01*
D02*
G37*
G36*
X142543Y28775D02*
X142430D01*
Y28888D01*
X142543D01*
Y28775D01*
D02*
G37*
G36*
X120082Y28436D02*
X119969D01*
Y28549D01*
X120082D01*
Y28436D01*
D02*
G37*
G36*
X145139Y28211D02*
X145252D01*
Y28098D01*
X145364D01*
Y27985D01*
X145252D01*
Y28098D01*
X145139D01*
Y28211D01*
X145026D01*
Y28324D01*
X145139D01*
Y28211D01*
D02*
G37*
G36*
X137238Y27985D02*
X137125D01*
Y28098D01*
X137238D01*
Y27985D01*
D02*
G37*
G36*
X120534D02*
X120421D01*
Y28098D01*
X120534D01*
Y27985D01*
D02*
G37*
G36*
X69292Y27759D02*
X69179D01*
Y27872D01*
X69292D01*
Y27759D01*
D02*
G37*
G36*
X85770Y27534D02*
X85658D01*
Y27646D01*
X85770D01*
Y27534D01*
D02*
G37*
G36*
X138141Y27082D02*
X138028D01*
Y27195D01*
X138141D01*
Y27082D01*
D02*
G37*
G36*
X106538Y26631D02*
X106425D01*
Y26743D01*
X106538D01*
Y26631D01*
D02*
G37*
G36*
X127757Y26179D02*
X127644D01*
Y26292D01*
X127757D01*
Y26179D01*
D02*
G37*
G36*
X97057D02*
X96944D01*
Y26292D01*
X97057D01*
Y26179D01*
D02*
G37*
G36*
X138818Y25953D02*
X138705D01*
Y26066D01*
X138818D01*
Y25953D01*
D02*
G37*
G36*
X69518Y25728D02*
X69405D01*
Y25840D01*
X69518D01*
Y25728D01*
D02*
G37*
G36*
X141301Y24373D02*
X141188D01*
Y24486D01*
X141301D01*
Y24373D01*
D02*
G37*
G36*
X138254Y23809D02*
X138141D01*
Y23922D01*
X138254D01*
Y23809D01*
D02*
G37*
G36*
X138141Y23696D02*
X138028D01*
Y23809D01*
X138141D01*
Y23696D01*
D02*
G37*
G36*
X133400D02*
X133288D01*
Y23809D01*
X133400D01*
Y23696D01*
D02*
G37*
G36*
X133288Y23583D02*
X133175D01*
Y23696D01*
X133288D01*
Y23583D01*
D02*
G37*
G36*
X133175Y23470D02*
X133062D01*
Y23583D01*
X133175D01*
Y23470D01*
D02*
G37*
G36*
Y23245D02*
X133062D01*
Y23357D01*
X133175D01*
Y23245D01*
D02*
G37*
G36*
X133062Y23132D02*
X133175D01*
Y23019D01*
X133062D01*
Y22906D01*
X132949D01*
Y23019D01*
X132836D01*
Y23132D01*
X132949D01*
Y23245D01*
X133062D01*
Y23132D01*
D02*
G37*
G36*
X132949Y22793D02*
X132836D01*
Y22906D01*
X132949D01*
Y22793D01*
D02*
G37*
G36*
X132836Y22680D02*
X132949D01*
Y22567D01*
X132836D01*
Y22455D01*
X132723D01*
Y22567D01*
X132610D01*
Y22680D01*
X132723D01*
Y22793D01*
X132836D01*
Y22680D01*
D02*
G37*
G36*
X132723Y22342D02*
X132610D01*
Y22455D01*
X132723D01*
Y22342D01*
D02*
G37*
G36*
X133400Y22116D02*
X133288D01*
Y22229D01*
X133400D01*
Y22116D01*
D02*
G37*
G36*
X133288Y22003D02*
X133175D01*
Y22116D01*
X133288D01*
Y22003D01*
D02*
G37*
G36*
X132610Y22229D02*
X132723D01*
Y22116D01*
X132610D01*
Y22003D01*
X132498D01*
Y22116D01*
X132385D01*
Y22229D01*
X132498D01*
Y22342D01*
X132610D01*
Y22229D01*
D02*
G37*
G36*
X133175Y21890D02*
X133062D01*
Y22003D01*
X133175D01*
Y21890D01*
D02*
G37*
G36*
X132498D02*
X132385D01*
Y22003D01*
X132498D01*
Y21890D01*
D02*
G37*
G36*
X133175Y21664D02*
X133062D01*
Y21552D01*
X132949D01*
Y21664D01*
X132836D01*
Y21777D01*
X133175D01*
Y21664D01*
D02*
G37*
G36*
X132949Y21439D02*
X132836D01*
Y21552D01*
X132949D01*
Y21439D01*
D02*
G37*
G36*
X132385Y21777D02*
X132498D01*
Y21664D01*
X132385D01*
Y21552D01*
X132272D01*
Y21439D01*
X132159D01*
Y21552D01*
Y21664D01*
Y21777D01*
X132272D01*
Y21890D01*
X132385D01*
Y21777D01*
D02*
G37*
G36*
X132836Y21326D02*
X132723D01*
Y21439D01*
X132836D01*
Y21326D01*
D02*
G37*
G36*
X132723Y21213D02*
X132610D01*
Y21326D01*
X132723D01*
Y21213D01*
D02*
G37*
G36*
X132159Y21326D02*
X132272D01*
Y21213D01*
X132159D01*
Y21100D01*
X132046D01*
Y21213D01*
X131933D01*
Y21326D01*
X132046D01*
Y21439D01*
X132159D01*
Y21326D01*
D02*
G37*
G36*
X132046Y20987D02*
X131933D01*
Y21100D01*
X132046D01*
Y20987D01*
D02*
G37*
G36*
X132610Y21100D02*
X132723D01*
Y20987D01*
X132610D01*
Y20874D01*
X132498D01*
Y20762D01*
X132385D01*
Y20649D01*
Y20536D01*
X132159D01*
Y20649D01*
X132272D01*
Y20762D01*
X132159D01*
Y20874D01*
X132272D01*
Y20987D01*
X132385D01*
Y21100D01*
X132498D01*
Y21213D01*
X132610D01*
Y21100D01*
D02*
G37*
G36*
X131933Y20874D02*
X132046D01*
Y20762D01*
X131933D01*
Y20649D01*
X131820D01*
Y20536D01*
X131708D01*
Y20649D01*
Y20762D01*
Y20874D01*
X131820D01*
Y20987D01*
X131933D01*
Y20874D01*
D02*
G37*
G36*
X132159Y20423D02*
X132272D01*
Y20310D01*
X132159D01*
Y20197D01*
X132046D01*
Y20084D01*
X131933D01*
Y19971D01*
X131820D01*
Y20084D01*
X131708D01*
Y20197D01*
X131595D01*
Y20310D01*
X131482D01*
Y20423D01*
X131595D01*
Y20536D01*
X131708D01*
Y20423D01*
X131820D01*
Y20310D01*
X131933D01*
Y20423D01*
X132046D01*
Y20536D01*
X132159D01*
Y20423D01*
D02*
G37*
G36*
X131595Y20084D02*
X131708D01*
Y19971D01*
X131820D01*
Y19859D01*
Y19746D01*
Y19633D01*
X131708D01*
Y19520D01*
X131595D01*
Y19407D01*
X131482D01*
Y19294D01*
X131595D01*
Y19181D01*
X131256D01*
Y19069D01*
X131369D01*
Y18956D01*
X131256D01*
Y18843D01*
X131143D01*
Y18730D01*
X131030D01*
Y18617D01*
X130917D01*
Y18504D01*
Y18391D01*
Y18278D01*
X130805D01*
Y18166D01*
X130692D01*
Y18053D01*
X130579D01*
Y17940D01*
Y17827D01*
X130353D01*
Y17714D01*
X130466D01*
Y17601D01*
X130353D01*
Y17488D01*
X130240D01*
Y17376D01*
X130127D01*
Y17263D01*
Y17150D01*
X130015D01*
Y17037D01*
Y16924D01*
X129902D01*
Y16811D01*
X129789D01*
Y16924D01*
X129676D01*
Y17037D01*
X129789D01*
Y17150D01*
X129902D01*
Y17263D01*
X130015D01*
Y17376D01*
X129902D01*
Y17488D01*
X130015D01*
Y17601D01*
X130127D01*
Y17714D01*
X130240D01*
Y17827D01*
X130127D01*
Y17940D01*
X130240D01*
Y18053D01*
X130353D01*
Y18166D01*
X130466D01*
Y18278D01*
Y18391D01*
X130579D01*
Y18504D01*
Y18617D01*
X130692D01*
Y18730D01*
X130579D01*
Y18843D01*
X130692D01*
Y18730D01*
X130805D01*
Y18843D01*
X130692D01*
Y18956D01*
X130805D01*
Y19069D01*
X130917D01*
Y19181D01*
Y19294D01*
X131143D01*
Y19407D01*
X131030D01*
Y19520D01*
X131143D01*
Y19633D01*
X131030D01*
Y19746D01*
X131143D01*
Y19633D01*
X131256D01*
Y19746D01*
X131143D01*
Y19859D01*
X131256D01*
Y19971D01*
X131369D01*
Y20084D01*
Y20197D01*
X131595D01*
Y20084D01*
D02*
G37*
G36*
X124710Y17714D02*
X124822D01*
Y17601D01*
X124484D01*
Y17714D01*
X124597D01*
Y17827D01*
X124710D01*
Y17714D01*
D02*
G37*
G36*
X124484Y17488D02*
X124371D01*
Y17601D01*
X124484D01*
Y17488D01*
D02*
G37*
G36*
X124371Y17376D02*
X124258D01*
Y17488D01*
X124371D01*
Y17376D01*
D02*
G37*
G36*
X124258Y17263D02*
X124145D01*
Y17376D01*
X124258D01*
Y17263D01*
D02*
G37*
G36*
X124145Y17150D02*
X124032D01*
Y17263D01*
X124145D01*
Y17150D01*
D02*
G37*
G36*
X124032Y17037D02*
X123920D01*
Y17150D01*
X124032D01*
Y17037D01*
D02*
G37*
G36*
X123920Y16924D02*
X123807D01*
Y17037D01*
X123920D01*
Y16924D01*
D02*
G37*
G36*
X129789Y16698D02*
X129676D01*
Y16811D01*
X129789D01*
Y16698D01*
D02*
G37*
G36*
X129676Y16585D02*
X129563D01*
Y16698D01*
X129676D01*
Y16585D01*
D02*
G37*
G36*
X129563Y16473D02*
X129450D01*
Y16585D01*
X129563D01*
Y16473D01*
D02*
G37*
G36*
Y16247D02*
X129450D01*
Y16360D01*
X129563D01*
Y16247D01*
D02*
G37*
G36*
X129450Y16134D02*
X129337D01*
Y16247D01*
X129450D01*
Y16134D01*
D02*
G37*
G36*
X129337Y16021D02*
X129224D01*
Y16134D01*
X129337D01*
Y16021D01*
D02*
G37*
G36*
X18721Y-17639D02*
X18418D01*
X18396Y-17591D01*
X18367Y-17546D01*
X18304Y-17454D01*
X18237Y-17369D01*
X18171Y-17292D01*
X18138Y-17258D01*
X18108Y-17225D01*
X18079Y-17199D01*
X18057Y-17174D01*
X18038Y-17155D01*
X18020Y-17140D01*
X18012Y-17133D01*
X18009Y-17129D01*
X17894Y-17037D01*
X17780Y-16952D01*
X17665Y-16875D01*
X17559Y-16812D01*
X17511Y-16782D01*
X17466Y-16760D01*
X17429Y-16738D01*
X17396Y-16720D01*
X17367Y-16705D01*
X17348Y-16694D01*
X17333Y-16690D01*
X17330Y-16687D01*
Y-16240D01*
X17411Y-16273D01*
X17496Y-16310D01*
X17577Y-16351D01*
X17651Y-16388D01*
X17717Y-16421D01*
X17743Y-16436D01*
X17769Y-16450D01*
X17787Y-16461D01*
X17802Y-16469D01*
X17809Y-16476D01*
X17813D01*
X17909Y-16535D01*
X17998Y-16594D01*
X18075Y-16650D01*
X18138Y-16698D01*
X18190Y-16738D01*
X18226Y-16771D01*
X18237Y-16782D01*
X18249Y-16790D01*
X18252Y-16797D01*
X18256D01*
Y-13841D01*
X18721D01*
Y-17639D01*
D02*
G37*
G36*
X15400Y-13786D02*
X15511Y-13801D01*
X15610Y-13823D01*
X15654Y-13834D01*
X15695Y-13849D01*
X15732Y-13860D01*
X15765Y-13871D01*
X15795Y-13882D01*
X15817Y-13893D01*
X15835Y-13904D01*
X15850Y-13908D01*
X15857Y-13915D01*
X15861D01*
X15950Y-13971D01*
X16024Y-14033D01*
X16086Y-14100D01*
X16138Y-14163D01*
X16179Y-14222D01*
X16193Y-14247D01*
X16204Y-14270D01*
X16215Y-14284D01*
X16223Y-14299D01*
X16226Y-14307D01*
Y-14310D01*
X16249Y-14362D01*
X16267Y-14417D01*
X16296Y-14535D01*
X16315Y-14657D01*
X16330Y-14775D01*
X16333Y-14830D01*
X16337Y-14882D01*
X16341Y-14926D01*
X16344Y-14967D01*
Y-15000D01*
Y-15022D01*
Y-15041D01*
Y-15044D01*
Y-17624D01*
X15843D01*
Y-15019D01*
Y-14960D01*
X15839Y-14904D01*
Y-14853D01*
X15835Y-14808D01*
X15832Y-14764D01*
X15824Y-14727D01*
X15821Y-14690D01*
X15817Y-14661D01*
X15810Y-14631D01*
X15806Y-14609D01*
X15802Y-14587D01*
X15795Y-14572D01*
X15791Y-14550D01*
X15787Y-14543D01*
X15765Y-14491D01*
X15736Y-14443D01*
X15706Y-14406D01*
X15673Y-14373D01*
X15643Y-14343D01*
X15621Y-14325D01*
X15607Y-14314D01*
X15599Y-14310D01*
X15548Y-14281D01*
X15492Y-14262D01*
X15437Y-14247D01*
X15385Y-14236D01*
X15341Y-14229D01*
X15308Y-14225D01*
X15274D01*
X15226Y-14229D01*
X15186Y-14233D01*
X15105Y-14251D01*
X15035Y-14277D01*
X14979Y-14307D01*
X14931Y-14332D01*
X14898Y-14358D01*
X14880Y-14377D01*
X14872Y-14384D01*
X14846Y-14417D01*
X14824Y-14454D01*
X14806Y-14498D01*
X14787Y-14543D01*
X14758Y-14642D01*
X14739Y-14738D01*
X14732Y-14786D01*
X14725Y-14830D01*
X14721Y-14871D01*
X14717Y-14904D01*
Y-14934D01*
X14714Y-14956D01*
Y-14971D01*
Y-14974D01*
X14263Y-14912D01*
Y-14808D01*
X14271Y-14712D01*
X14282Y-14624D01*
X14297Y-14543D01*
X14315Y-14465D01*
X14337Y-14395D01*
X14359Y-14332D01*
X14385Y-14277D01*
X14407Y-14225D01*
X14433Y-14181D01*
X14455Y-14148D01*
X14474Y-14115D01*
X14489Y-14092D01*
X14503Y-14078D01*
X14511Y-14067D01*
X14514Y-14063D01*
X14566Y-14011D01*
X14625Y-13971D01*
X14684Y-13930D01*
X14747Y-13901D01*
X14809Y-13871D01*
X14872Y-13849D01*
X14935Y-13830D01*
X14998Y-13816D01*
X15053Y-13801D01*
X15108Y-13793D01*
X15156Y-13786D01*
X15197Y-13782D01*
X15230D01*
X15256Y-13779D01*
X15278D01*
X15400Y-13786D01*
D02*
G37*
%LPC*%
G36*
X143784Y39723D02*
X143671D01*
Y39610D01*
X143784D01*
Y39723D01*
D02*
G37*
G36*
X144010Y39498D02*
X143897D01*
Y39385D01*
X144010D01*
Y39498D01*
D02*
G37*
G36*
X141978Y33403D02*
X141866D01*
Y33290D01*
X141978D01*
Y33403D01*
D02*
G37*
G36*
X170647Y36789D02*
X170534D01*
Y36676D01*
X170647D01*
Y36789D01*
D02*
G37*
G36*
X165229Y35434D02*
X165116D01*
Y35321D01*
X165229D01*
Y35434D01*
D02*
G37*
G36*
X153830Y38707D02*
X153717D01*
Y38594D01*
X153378D01*
Y38707D01*
X153265D01*
Y38594D01*
X152927D01*
Y38482D01*
X152814D01*
Y38369D01*
X152701D01*
Y38256D01*
X152814D01*
Y38143D01*
X152701D01*
Y38030D01*
X152814D01*
Y37917D01*
X152701D01*
Y37804D01*
X152814D01*
Y37692D01*
X152701D01*
Y37579D01*
X152814D01*
Y37466D01*
X152927D01*
Y37353D01*
X153039D01*
Y37240D01*
X153152D01*
Y37127D01*
X153265D01*
Y37014D01*
X153378D01*
Y36902D01*
X153491D01*
Y37014D01*
X153378D01*
Y37127D01*
X153491D01*
Y37014D01*
X153604D01*
Y36902D01*
X153717D01*
Y37014D01*
X153830D01*
Y36902D01*
X154168D01*
Y37014D01*
X154281D01*
Y36902D01*
X154394D01*
Y37014D01*
X154507D01*
Y36902D01*
X154620D01*
Y37014D01*
X154507D01*
Y37127D01*
X154620D01*
Y37240D01*
X154507D01*
Y37353D01*
X154620D01*
Y37466D01*
X154507D01*
Y37579D01*
X154620D01*
Y37692D01*
X154507D01*
Y37804D01*
X154394D01*
Y37917D01*
X154281D01*
Y38030D01*
X154394D01*
Y38143D01*
X154281D01*
Y38256D01*
X154394D01*
Y38369D01*
X154281D01*
Y38482D01*
X154394D01*
Y38594D01*
X153830D01*
Y38707D01*
D02*
G37*
G36*
X153039Y37240D02*
X152927D01*
Y37127D01*
X153039D01*
Y37240D01*
D02*
G37*
G36*
X154845Y35434D02*
X154732D01*
Y35321D01*
X154845D01*
Y35208D01*
X154732D01*
Y35321D01*
X154620D01*
Y35434D01*
X154507D01*
Y35321D01*
X154620D01*
Y35208D01*
X154507D01*
Y35321D01*
X154394D01*
Y35434D01*
X154281D01*
Y35321D01*
X154394D01*
Y35208D01*
X154281D01*
Y35321D01*
X154168D01*
Y35434D01*
X154055D01*
Y35321D01*
X154168D01*
Y35208D01*
X154055D01*
Y35321D01*
X153942D01*
Y35434D01*
X153830D01*
Y35321D01*
X153942D01*
Y35208D01*
X153830D01*
Y35321D01*
X153717D01*
Y35208D01*
X153604D01*
Y35096D01*
X153491D01*
Y34983D01*
X153378D01*
Y34870D01*
X153491D01*
Y34757D01*
X153378D01*
Y34644D01*
Y34531D01*
Y34418D01*
X153491D01*
Y34306D01*
X153378D01*
Y34193D01*
X153491D01*
Y34080D01*
X153378D01*
Y33967D01*
X153491D01*
Y33854D01*
X153604D01*
Y33741D01*
X153717D01*
Y33628D01*
Y33516D01*
X153942D01*
Y33403D01*
X154055D01*
Y33290D01*
X154168D01*
Y33177D01*
X154281D01*
Y33064D01*
X154394D01*
Y33177D01*
X154281D01*
Y33290D01*
X154394D01*
Y33177D01*
X154507D01*
Y33290D01*
X154620D01*
Y33177D01*
X154732D01*
Y33064D01*
X154845D01*
Y33177D01*
X154732D01*
Y33290D01*
X154845D01*
Y33177D01*
X154958D01*
Y33290D01*
X155071D01*
Y33177D01*
X155184D01*
Y33064D01*
X155297D01*
Y33177D01*
X155184D01*
Y33290D01*
X155297D01*
Y33177D01*
X155410D01*
Y33290D01*
X155523D01*
Y33403D01*
Y33516D01*
Y33628D01*
X155410D01*
Y33741D01*
X155523D01*
Y33854D01*
X155410D01*
Y33967D01*
X155297D01*
Y34080D01*
Y34193D01*
Y34306D01*
X155184D01*
Y34418D01*
X155297D01*
Y34531D01*
X155184D01*
Y34644D01*
X155297D01*
Y34757D01*
X155184D01*
Y34870D01*
X155297D01*
Y34983D01*
X155184D01*
Y35096D01*
X155071D01*
Y35208D01*
X154958D01*
Y35321D01*
X154845D01*
Y35434D01*
D02*
G37*
G36*
X109698Y31822D02*
X109585D01*
Y31710D01*
X109698D01*
Y31597D01*
X109585D01*
Y31710D01*
X109473D01*
Y31597D01*
X109360D01*
Y31710D01*
X109247D01*
Y31597D01*
X108908D01*
Y31484D01*
X108570D01*
Y31371D01*
X108457D01*
Y31258D01*
X108344D01*
Y31145D01*
Y31032D01*
Y30920D01*
X108231D01*
Y30807D01*
X108344D01*
Y30694D01*
X108231D01*
Y30581D01*
X108118D01*
Y30468D01*
Y30355D01*
Y30242D01*
X108005D01*
Y30130D01*
X108118D01*
Y30017D01*
X108005D01*
Y29904D01*
X108118D01*
Y29791D01*
X108005D01*
Y29678D01*
X108118D01*
Y29565D01*
Y29452D01*
Y29339D01*
X108231D01*
Y29226D01*
Y29114D01*
Y29001D01*
X108344D01*
Y28888D01*
X108231D01*
Y28775D01*
X108344D01*
Y28662D01*
X108231D01*
Y28549D01*
X108344D01*
Y28436D01*
X108457D01*
Y28324D01*
Y28211D01*
Y28098D01*
X108570D01*
Y27985D01*
Y27872D01*
Y27759D01*
X108683D01*
Y27646D01*
X108795D01*
Y27534D01*
Y27421D01*
X108908D01*
Y27308D01*
Y27195D01*
X109021D01*
Y27082D01*
X109134D01*
Y26969D01*
X109247D01*
Y26856D01*
X109360D01*
Y26743D01*
X109473D01*
Y26631D01*
X109585D01*
Y26518D01*
X109698D01*
Y26405D01*
X109811D01*
Y26292D01*
X110150D01*
Y26179D01*
X110263D01*
Y26066D01*
X110375D01*
Y26179D01*
X110488D01*
Y26066D01*
X111504D01*
Y26179D01*
X111617D01*
Y26066D01*
X111730D01*
Y26179D01*
X111843D01*
Y26292D01*
X111956D01*
Y26405D01*
X112069D01*
Y26518D01*
X112181D01*
Y26631D01*
X112294D01*
Y26743D01*
X112407D01*
Y26856D01*
X112294D01*
Y26969D01*
X112407D01*
Y27082D01*
X112294D01*
Y27195D01*
X112407D01*
Y27308D01*
X112520D01*
Y27421D01*
X112407D01*
Y27534D01*
X112520D01*
Y27646D01*
X112407D01*
Y27759D01*
X112520D01*
Y27872D01*
X112407D01*
Y27985D01*
X112294D01*
Y28098D01*
X112407D01*
Y27985D01*
X112520D01*
Y28098D01*
X112407D01*
Y28211D01*
Y28324D01*
Y28436D01*
X112294D01*
Y28549D01*
X112407D01*
Y28662D01*
X112294D01*
Y28775D01*
Y28888D01*
Y29001D01*
X112181D01*
Y29114D01*
Y29226D01*
Y29339D01*
X112069D01*
Y29452D01*
X112181D01*
Y29565D01*
X112069D01*
Y29678D01*
X111956D01*
Y29791D01*
X111843D01*
Y29904D01*
X111956D01*
Y30017D01*
X111843D01*
Y30130D01*
X111730D01*
Y30242D01*
X111617D01*
Y30355D01*
X111730D01*
Y30468D01*
X111617D01*
Y30581D01*
X111504D01*
Y30694D01*
X111391D01*
Y30807D01*
X111504D01*
Y30920D01*
X111166D01*
Y31032D01*
X111278D01*
Y31145D01*
X110940D01*
Y31258D01*
X110827D01*
Y31371D01*
X110714D01*
Y31484D01*
X110601D01*
Y31371D01*
X110488D01*
Y31484D01*
X110375D01*
Y31597D01*
X110037D01*
Y31710D01*
X109924D01*
Y31597D01*
X109811D01*
Y31710D01*
X109698D01*
Y31822D01*
D02*
G37*
G36*
X113761Y31371D02*
X113649D01*
Y31258D01*
X113761D01*
Y31371D01*
D02*
G37*
G36*
X111053D02*
X110940D01*
Y31258D01*
X111053D01*
Y31371D01*
D02*
G37*
G36*
X106087Y28211D02*
X105974D01*
Y28098D01*
X106087D01*
Y28211D01*
D02*
G37*
G36*
X109247Y26856D02*
X109134D01*
Y26743D01*
X109247D01*
Y26856D01*
D02*
G37*
G36*
X109473Y26631D02*
X109360D01*
Y26518D01*
X109473D01*
Y26631D01*
D02*
G37*
G36*
X109698Y26405D02*
X109585D01*
Y26292D01*
X109698D01*
Y26405D01*
D02*
G37*
G36*
X108344Y25050D02*
X108231D01*
Y24938D01*
X108344D01*
Y25050D01*
D02*
G37*
G36*
X109247Y24599D02*
X109134D01*
Y24486D01*
X109247D01*
Y24599D01*
D02*
G37*
%LPD*%
G36*
X108344Y29339D02*
X108231D01*
Y29452D01*
X108344D01*
Y29339D01*
D02*
G37*
%LPC*%
G36*
X123694Y31597D02*
X123581D01*
Y31484D01*
X123468D01*
Y31597D01*
X123129D01*
Y31484D01*
X123017D01*
Y31597D01*
X122227D01*
Y31484D01*
X122114D01*
Y31371D01*
X121775D01*
Y31258D01*
X121888D01*
Y31145D01*
X121775D01*
Y31032D01*
X121662D01*
Y30920D01*
Y30807D01*
Y30694D01*
X121775D01*
Y30581D01*
X121662D01*
Y30694D01*
X121549D01*
Y30581D01*
X121662D01*
Y30468D01*
X121775D01*
Y30355D01*
Y30242D01*
Y30130D01*
X121888D01*
Y30017D01*
X121775D01*
Y29904D01*
X121888D01*
Y29791D01*
Y29678D01*
X122114D01*
Y29565D01*
X122001D01*
Y29452D01*
X122114D01*
Y29339D01*
X122227D01*
Y29226D01*
X122339D01*
Y29114D01*
X122452D01*
Y29001D01*
X122791D01*
Y28888D01*
X122904D01*
Y29001D01*
X123017D01*
Y28888D01*
X123129D01*
Y29001D01*
X123242D01*
Y28888D01*
X123581D01*
Y29001D01*
X123694D01*
Y28888D01*
X123807D01*
Y29001D01*
X123920D01*
Y28888D01*
X124032D01*
Y29001D01*
X124145D01*
Y28888D01*
X124258D01*
Y29001D01*
X124371D01*
Y29114D01*
X124258D01*
Y29226D01*
X124371D01*
Y29339D01*
X124258D01*
Y29452D01*
X124145D01*
Y29565D01*
X124032D01*
Y29678D01*
X124145D01*
Y29791D01*
X124032D01*
Y29904D01*
X124145D01*
Y30017D01*
X124032D01*
Y30130D01*
X123920D01*
Y30242D01*
X124032D01*
Y30355D01*
X123920D01*
Y30468D01*
X123807D01*
Y30581D01*
X123920D01*
Y30694D01*
X123807D01*
Y30807D01*
X123920D01*
Y30920D01*
X123807D01*
Y31032D01*
X123920D01*
Y31145D01*
X123807D01*
Y31258D01*
X123694D01*
Y31371D01*
Y31484D01*
Y31597D01*
D02*
G37*
G36*
X122339Y27308D02*
X122227D01*
Y27195D01*
X122339D01*
Y27308D01*
D02*
G37*
G36*
X124822Y27082D02*
X124710D01*
Y26969D01*
X124822D01*
Y27082D01*
D02*
G37*
%LPD*%
G36*
X123694Y31145D02*
X123581D01*
Y31258D01*
X123694D01*
Y31145D01*
D02*
G37*
%LPC*%
G36*
X81256Y33177D02*
X81143D01*
Y33064D01*
X81256D01*
Y33177D01*
D02*
G37*
G36*
X79450Y32274D02*
X79337D01*
Y32161D01*
X79450D01*
Y32274D01*
D02*
G37*
G36*
X79676Y32048D02*
X79563D01*
Y31935D01*
X79676D01*
Y32048D01*
D02*
G37*
G36*
X82610Y29565D02*
X82497D01*
Y29452D01*
X82610D01*
Y29565D01*
D02*
G37*
G36*
X72001Y27985D02*
X71888D01*
Y27872D01*
X72001D01*
Y27985D01*
D02*
G37*
G36*
X128209Y40400D02*
X128096D01*
Y40288D01*
X128209D01*
Y40400D01*
D02*
G37*
G36*
X131820Y35886D02*
X131708D01*
Y35773D01*
X131820D01*
Y35886D01*
D02*
G37*
G36*
X134078Y32725D02*
X133965D01*
Y32613D01*
X134078D01*
Y32725D01*
D02*
G37*
G36*
X133175Y31822D02*
X133062D01*
Y31710D01*
X133175D01*
Y31822D01*
D02*
G37*
G36*
X135884Y30017D02*
X135771D01*
Y29904D01*
X135884D01*
Y30017D01*
D02*
G37*
G36*
X146493Y28662D02*
X146380D01*
Y28549D01*
X146267D01*
Y28662D01*
X146154D01*
Y28549D01*
X146267D01*
Y28436D01*
X146380D01*
Y28324D01*
X146493D01*
Y28436D01*
X146606D01*
Y28324D01*
X146719D01*
Y28436D01*
X146606D01*
Y28549D01*
X146493D01*
Y28662D01*
D02*
G37*
G36*
X146945D02*
X146832D01*
Y28549D01*
X146945D01*
Y28436D01*
X147057D01*
Y28549D01*
X146945D01*
Y28662D01*
D02*
G37*
G36*
X146719D02*
X146606D01*
Y28549D01*
X146719D01*
Y28436D01*
X146832D01*
Y28549D01*
X146719D01*
Y28662D01*
D02*
G37*
G36*
X137464Y27534D02*
X137351D01*
Y27421D01*
X137464D01*
Y27534D01*
D02*
G37*
G36*
X137689Y27308D02*
X137577D01*
Y27195D01*
X137689D01*
Y27308D01*
D02*
G37*
G36*
X137238Y27082D02*
X136899D01*
Y26969D01*
X137012D01*
Y26856D01*
X137125D01*
Y26743D01*
X137238D01*
Y26631D01*
X137125D01*
Y26518D01*
X137238D01*
Y26405D01*
X137351D01*
Y26518D01*
X137464D01*
Y26631D01*
X137577D01*
Y26518D01*
X137689D01*
Y26631D01*
X137577D01*
Y26743D01*
X137689D01*
Y26856D01*
X137351D01*
Y26969D01*
X137238D01*
Y27082D01*
D02*
G37*
G36*
X138592Y26405D02*
X138479D01*
Y26292D01*
X138592D01*
Y26405D01*
D02*
G37*
G36*
X139270Y26179D02*
X139157D01*
Y26066D01*
X139270D01*
Y26179D01*
D02*
G37*
G36*
X140624Y25050D02*
X140511D01*
Y24938D01*
X140624D01*
Y25050D01*
D02*
G37*
G36*
X141076Y24825D02*
X140963D01*
Y24712D01*
X141076D01*
Y24825D01*
D02*
G37*
G36*
X131820Y20310D02*
X131708D01*
Y20197D01*
X131820D01*
Y20310D01*
D02*
G37*
G36*
X131595Y20084D02*
X131482D01*
Y19971D01*
X131595D01*
Y20084D01*
D02*
G37*
G36*
Y19859D02*
X131482D01*
Y19746D01*
X131595D01*
Y19859D01*
D02*
G37*
%LPD*%
D11*
X294430Y39224D02*
Y45127D01*
X297382Y42175D01*
X293446D01*
X287543Y45127D02*
X291478D01*
Y42175D01*
X289510Y43159D01*
X288527D01*
X287543Y42175D01*
Y40208D01*
X288527Y39224D01*
X290494D01*
X291478Y40208D01*
X285575Y44143D02*
X284591Y45127D01*
X282623D01*
X281639Y44143D01*
Y40208D01*
X282623Y39224D01*
X284591D01*
X285575Y40208D01*
Y44143D01*
X279671Y45127D02*
X275735D01*
Y44143D01*
X279671Y40208D01*
Y39224D01*
X273767Y42175D02*
X269832D01*
X267864Y45127D02*
Y39224D01*
X265896Y41192D01*
X263928Y39224D01*
Y45127D01*
X261960D02*
Y39224D01*
X259009D01*
X258025Y40208D01*
Y41192D01*
X259009Y42175D01*
X261960D01*
X259009D01*
X258025Y43159D01*
Y44143D01*
X259009Y45127D01*
X261960D01*
X256057Y42175D02*
X252121D01*
X250153Y39224D02*
Y43159D01*
X248185Y45127D01*
X246217Y43159D01*
Y39224D01*
Y42175D01*
X250153D01*
X244250Y45127D02*
Y41192D01*
X242282Y39224D01*
X240314Y41192D01*
Y45127D01*
X238346Y42175D02*
X234410D01*
X232442Y45127D02*
Y39224D01*
X229490D01*
X228507Y40208D01*
Y44143D01*
X229490Y45127D01*
X232442D01*
X226539Y39224D02*
Y43159D01*
X224571Y45127D01*
X222603Y43159D01*
Y39224D01*
Y42175D01*
X226539D01*
X216699Y40208D02*
Y44143D01*
X217683Y45127D01*
X219651D01*
X220635Y44143D01*
Y40208D01*
X219651Y39224D01*
X217683D01*
X218667Y41192D02*
X216699Y39224D01*
X217683D02*
X216699Y40208D01*
X214732Y45127D02*
Y39224D01*
X211780D01*
X210796Y40208D01*
Y41192D01*
X211780Y42175D01*
X214732D01*
X211780D01*
X210796Y43159D01*
Y44143D01*
X211780Y45127D01*
X214732D01*
X208828Y39224D02*
Y45127D01*
X205876D01*
X204892Y44143D01*
Y42175D01*
X205876Y41192D01*
X208828D01*
X206860D02*
X204892Y39224D01*
X202924D02*
X200956D01*
X201940D01*
Y45127D01*
X202924Y44143D01*
X297382Y29305D02*
Y35208D01*
X294430D01*
X293446Y34225D01*
Y32257D01*
X294430Y31273D01*
X297382D01*
X295414D02*
X293446Y29305D01*
X288527D02*
X290494D01*
X291478Y30289D01*
Y32257D01*
X290494Y33241D01*
X288527D01*
X287543Y32257D01*
Y31273D01*
X291478D01*
X285575Y33241D02*
X283607Y29305D01*
X281639Y33241D01*
X279671Y29305D02*
Y30289D01*
X278687D01*
Y29305D01*
X279671D01*
X268848D02*
Y33241D01*
X266880Y35208D01*
X264912Y33241D01*
Y29305D01*
Y32257D01*
X268848D01*
X293446Y25289D02*
X295414D01*
X294430D01*
Y20370D01*
X295414Y19386D01*
X296398D01*
X297382Y20370D01*
X291478Y23322D02*
Y20370D01*
X290494Y19386D01*
X287543D01*
Y23322D01*
X285575Y19386D02*
Y23322D01*
X282623D01*
X281639Y22338D01*
Y19386D01*
X276719D02*
X278687D01*
X279671Y20370D01*
Y22338D01*
X278687Y23322D01*
X276719D01*
X275735Y22338D01*
Y21354D01*
X279671D01*
X263928Y19386D02*
X267864D01*
X263928Y23322D01*
Y24306D01*
X264912Y25289D01*
X266880D01*
X267864Y24306D01*
X261960D02*
X260976Y25289D01*
X259009D01*
X258025Y24306D01*
Y20370D01*
X259009Y19386D01*
X260976D01*
X261960Y20370D01*
Y24306D01*
X252121Y19386D02*
X256057D01*
X252121Y23322D01*
Y24306D01*
X253105Y25289D01*
X255073D01*
X256057Y24306D01*
X250153D02*
X249169Y25289D01*
X247201D01*
X246217Y24306D01*
Y20370D01*
X247201Y19386D01*
X249169D01*
X250153Y20370D01*
Y24306D01*
D23*
X13661Y-9382D02*
Y12618D01*
X365161D01*
Y-9382D02*
Y12618D01*
X13661Y-9382D02*
X365161D01*
M02*
