G04*
G04 #@! TF.GenerationSoftware,Altium Limited,Altium Designer,20.0.11 (256)*
G04*
G04 Layer_Color=65535*
%FSLAX25Y25*%
%MOIN*%
G70*
G01*
G75*
%ADD10C,0.01000*%
%ADD11C,0.01181*%
%ADD12C,0.00787*%
G36*
X87975Y42261D02*
X88088D01*
Y42148D01*
X88201D01*
Y42261D01*
X88314D01*
Y42148D01*
X88427D01*
Y42035D01*
X88540D01*
Y42148D01*
X88652D01*
Y42035D01*
X88765D01*
Y41922D01*
X89104D01*
Y41809D01*
X89217D01*
Y41696D01*
X89330D01*
Y41583D01*
X89442D01*
Y41471D01*
X89781D01*
Y41358D01*
X89668D01*
Y41245D01*
X89781D01*
Y41132D01*
X89894D01*
Y41019D01*
X90007D01*
Y40906D01*
X90120D01*
Y40793D01*
Y40680D01*
Y40567D01*
X90233D01*
Y40455D01*
Y40342D01*
Y40229D01*
X90345D01*
Y40116D01*
Y40003D01*
Y39890D01*
X90233D01*
Y40003D01*
X90120D01*
Y39890D01*
X90007D01*
Y39777D01*
X89894D01*
Y39890D01*
X89781D01*
Y39777D01*
X89442D01*
Y39665D01*
X89330D01*
Y39777D01*
X89217D01*
Y39665D01*
X89104D01*
Y39552D01*
X88540D01*
Y39439D01*
X88201D01*
Y39326D01*
X87862D01*
Y39439D01*
Y39552D01*
Y39665D01*
X87749D01*
Y39777D01*
X87637D01*
Y39890D01*
X87749D01*
Y40003D01*
X87411D01*
Y40116D01*
X87298D01*
Y40229D01*
X87185D01*
Y40342D01*
X87072D01*
Y40229D01*
X86959D01*
Y40342D01*
X86847D01*
Y40229D01*
X86734D01*
Y40342D01*
X86621D01*
Y40229D01*
X86282D01*
Y40116D01*
X86169D01*
Y40003D01*
X85831D01*
Y39890D01*
X85944D01*
Y39777D01*
X85605D01*
Y39665D01*
X85718D01*
Y39552D01*
X85492D01*
Y39439D01*
Y39326D01*
X85379D01*
Y39213D01*
X85266D01*
Y39100D01*
X85154D01*
Y38987D01*
Y38875D01*
Y38762D01*
X85041D01*
Y38649D01*
X84928D01*
Y38536D01*
X85041D01*
Y38423D01*
X84928D01*
Y38310D01*
X84815D01*
Y38197D01*
Y38084D01*
Y37972D01*
X84702D01*
Y37859D01*
X84815D01*
Y37746D01*
X84702D01*
Y37633D01*
X84589D01*
Y37520D01*
X84702D01*
Y37407D01*
X84589D01*
Y37294D01*
X84476D01*
Y37181D01*
X84589D01*
Y37069D01*
X84476D01*
Y36956D01*
X84589D01*
Y36843D01*
X84476D01*
Y36730D01*
X84589D01*
Y36617D01*
X84476D01*
Y36504D01*
X84589D01*
Y36391D01*
X84476D01*
Y36279D01*
X84589D01*
Y36166D01*
X84476D01*
Y36053D01*
X84589D01*
Y35940D01*
X84476D01*
Y35827D01*
X84589D01*
Y35714D01*
X84476D01*
Y35601D01*
X84589D01*
Y35489D01*
X84476D01*
Y35376D01*
X84589D01*
Y35263D01*
X84702D01*
Y35150D01*
X84815D01*
Y35037D01*
X84928D01*
Y34924D01*
X85266D01*
Y34811D01*
X85379D01*
Y34698D01*
X85492D01*
Y34811D01*
X85379D01*
Y34924D01*
X85492D01*
Y34811D01*
X85605D01*
Y34698D01*
X85718D01*
Y34811D01*
X85831D01*
Y34924D01*
X86169D01*
Y35037D01*
X86282D01*
Y34924D01*
X86395D01*
Y35037D01*
X86282D01*
Y35150D01*
X86621D01*
Y35263D01*
X86508D01*
Y35376D01*
X86847D01*
Y35489D01*
X86734D01*
Y35601D01*
X86847D01*
Y35489D01*
X86959D01*
Y35376D01*
X87072D01*
Y35489D01*
X86959D01*
Y35601D01*
X87072D01*
Y35489D01*
X87185D01*
Y35376D01*
X87298D01*
Y35263D01*
X87411D01*
Y35150D01*
X87524D01*
Y35263D01*
X87411D01*
Y35376D01*
X87524D01*
Y35263D01*
X87637D01*
Y35150D01*
X87749D01*
Y35037D01*
X87862D01*
Y35150D01*
X87975D01*
Y35037D01*
X88088D01*
Y34924D01*
X88427D01*
Y34811D01*
X88540D01*
Y34698D01*
X88652D01*
Y34811D01*
X88765D01*
Y34698D01*
X88878D01*
Y34586D01*
X88765D01*
Y34473D01*
X88652D01*
Y34360D01*
X88540D01*
Y34247D01*
X88427D01*
Y34134D01*
X88314D01*
Y34021D01*
X88201D01*
Y33908D01*
X87862D01*
Y33795D01*
X87975D01*
Y33683D01*
X87637D01*
Y33570D01*
X87524D01*
Y33457D01*
X87411D01*
Y33344D01*
X87298D01*
Y33457D01*
X87185D01*
Y33344D01*
X87298D01*
Y33231D01*
X87185D01*
Y33344D01*
X87072D01*
Y33231D01*
X86734D01*
Y33118D01*
X86847D01*
Y33005D01*
X86734D01*
Y33118D01*
X86621D01*
Y33005D01*
X86057D01*
Y32893D01*
X86169D01*
Y32780D01*
X86057D01*
Y32893D01*
X85718D01*
Y32780D01*
X85605D01*
Y32893D01*
X85492D01*
Y32780D01*
X85154D01*
Y32893D01*
X85041D01*
Y32780D01*
X84702D01*
Y32893D01*
X84589D01*
Y32780D01*
X84476D01*
Y32893D01*
X84364D01*
Y32780D01*
X84251D01*
Y32893D01*
X84138D01*
Y33005D01*
X83573D01*
Y33118D01*
X83460D01*
Y33231D01*
X83122D01*
Y33344D01*
X83009D01*
Y33457D01*
X82896D01*
Y33570D01*
X82783D01*
Y33683D01*
X82670D01*
Y33795D01*
X82558D01*
Y33908D01*
X82445D01*
Y34021D01*
Y34134D01*
Y34247D01*
X82332D01*
Y34360D01*
X82219D01*
Y34473D01*
Y34586D01*
Y34698D01*
X82106D01*
Y34811D01*
Y34924D01*
Y35037D01*
X81993D01*
Y35150D01*
X82106D01*
Y35263D01*
X81993D01*
Y35376D01*
Y35489D01*
Y35601D01*
Y35714D01*
Y35827D01*
Y35940D01*
Y36053D01*
Y36166D01*
Y36279D01*
Y36391D01*
Y36504D01*
X82106D01*
Y36617D01*
X81993D01*
Y36730D01*
X82106D01*
Y36843D01*
X81993D01*
Y36956D01*
X82106D01*
Y37069D01*
X81993D01*
Y37181D01*
X82106D01*
Y37294D01*
X81993D01*
Y37407D01*
X82219D01*
Y37520D01*
Y37633D01*
X82332D01*
Y37746D01*
X82219D01*
Y37859D01*
X82332D01*
Y37972D01*
X82219D01*
Y38084D01*
X82332D01*
Y38197D01*
X82445D01*
Y38310D01*
X82558D01*
Y38423D01*
X82445D01*
Y38536D01*
X82558D01*
Y38649D01*
X82445D01*
Y38762D01*
X82558D01*
Y38875D01*
X82670D01*
Y38987D01*
X82783D01*
Y39100D01*
X82670D01*
Y39213D01*
X82783D01*
Y39326D01*
X82896D01*
Y39439D01*
X83009D01*
Y39552D01*
X82896D01*
Y39665D01*
X83009D01*
Y39777D01*
X83122D01*
Y39890D01*
X83235D01*
Y40003D01*
Y40116D01*
X83460D01*
Y40229D01*
X83348D01*
Y40342D01*
X83460D01*
Y40455D01*
X83573D01*
Y40567D01*
X83686D01*
Y40680D01*
X83799D01*
Y40793D01*
X83912D01*
Y40906D01*
X84025D01*
Y41019D01*
X84138D01*
Y41132D01*
X84251D01*
Y41019D01*
X84364D01*
Y41132D01*
X84251D01*
Y41245D01*
X84364D01*
Y41358D01*
X84476D01*
Y41245D01*
X84589D01*
Y41358D01*
X84476D01*
Y41471D01*
X84815D01*
Y41583D01*
X84928D01*
Y41696D01*
X85266D01*
Y41809D01*
X85379D01*
Y41922D01*
X85718D01*
Y42035D01*
X85831D01*
Y41922D01*
X85944D01*
Y42035D01*
X85831D01*
Y42148D01*
X85944D01*
Y42035D01*
X86057D01*
Y42148D01*
X86395D01*
Y42261D01*
X86508D01*
Y42148D01*
X86621D01*
Y42261D01*
X86734D01*
Y42148D01*
X86847D01*
Y42261D01*
X86959D01*
Y42373D01*
X87072D01*
Y42261D01*
X87185D01*
Y42148D01*
X87298D01*
Y42261D01*
X87185D01*
Y42373D01*
X87298D01*
Y42261D01*
X87411D01*
Y42373D01*
X87524D01*
Y42261D01*
X87637D01*
Y42148D01*
X87749D01*
Y42261D01*
X87637D01*
Y42373D01*
X87749D01*
Y42261D01*
X87862D01*
Y42148D01*
X87975D01*
Y42261D01*
X87862D01*
Y42373D01*
X87975D01*
Y42261D01*
D02*
G37*
G36*
X66530Y42035D02*
X66643D01*
Y41922D01*
X66756D01*
Y41809D01*
X66643D01*
Y41696D01*
X66530D01*
Y41583D01*
Y41471D01*
Y41358D01*
X66418D01*
Y41245D01*
X66530D01*
Y41132D01*
X66418D01*
Y41019D01*
X66530D01*
Y40906D01*
X66418D01*
Y40793D01*
X66305D01*
Y40680D01*
X66192D01*
Y40567D01*
X66305D01*
Y40455D01*
X66192D01*
Y40342D01*
X66305D01*
Y40229D01*
X66192D01*
Y40116D01*
X66305D01*
Y40003D01*
X66192D01*
Y39890D01*
X66079D01*
Y39777D01*
X66192D01*
Y39665D01*
X66079D01*
Y39552D01*
X65966D01*
Y39439D01*
X66079D01*
Y39326D01*
X65966D01*
Y39213D01*
X66079D01*
Y39100D01*
X65966D01*
Y38987D01*
X65853D01*
Y38875D01*
X65966D01*
Y38762D01*
X65853D01*
Y38875D01*
X65740D01*
Y38762D01*
X65853D01*
Y38649D01*
X65740D01*
Y38536D01*
X65853D01*
Y38423D01*
X65740D01*
Y38310D01*
X65853D01*
Y38197D01*
X65740D01*
Y38084D01*
Y37972D01*
Y37859D01*
X65627D01*
Y37746D01*
X65515D01*
Y37633D01*
X65627D01*
Y37520D01*
X65515D01*
Y37407D01*
X65627D01*
Y37294D01*
X65515D01*
Y37181D01*
X65402D01*
Y37069D01*
Y36956D01*
Y36843D01*
Y36730D01*
Y36617D01*
X65289D01*
Y36504D01*
Y36391D01*
Y36279D01*
X65176D01*
Y36166D01*
X65063D01*
Y36053D01*
X65176D01*
Y35940D01*
X65063D01*
Y35827D01*
X64950D01*
Y35714D01*
X64837D01*
Y35601D01*
X64950D01*
Y35489D01*
X64837D01*
Y35376D01*
X64724D01*
Y35263D01*
X64612D01*
Y35150D01*
X64724D01*
Y35037D01*
X64499D01*
Y34924D01*
Y34811D01*
X64386D01*
Y34698D01*
X64273D01*
Y34586D01*
X64160D01*
Y34473D01*
X64047D01*
Y34360D01*
X63934D01*
Y34247D01*
X63822D01*
Y34134D01*
X63709D01*
Y34021D01*
X63596D01*
Y33908D01*
X63483D01*
Y33795D01*
X63370D01*
Y33683D01*
X63032D01*
Y33570D01*
X62919D01*
Y33457D01*
X62806D01*
Y33344D01*
X62693D01*
Y33457D01*
X62580D01*
Y33344D01*
X62693D01*
Y33231D01*
X62580D01*
Y33344D01*
X62467D01*
Y33231D01*
X62354D01*
Y33118D01*
X62242D01*
Y33231D01*
X62129D01*
Y33118D01*
X62016D01*
Y33005D01*
X61903D01*
Y33118D01*
X61790D01*
Y33005D01*
X61451D01*
Y32893D01*
X61339D01*
Y33005D01*
X61226D01*
Y32893D01*
X61339D01*
Y32780D01*
X61226D01*
Y32893D01*
X61113D01*
Y32780D01*
X61000D01*
Y32893D01*
X60887D01*
Y32780D01*
X60774D01*
Y32893D01*
X60661D01*
Y32780D01*
X60323D01*
Y32893D01*
X60210D01*
Y32780D01*
X59871D01*
Y32893D01*
X59758D01*
Y32780D01*
X59645D01*
Y32893D01*
X59533D01*
Y33005D01*
X59420D01*
Y32893D01*
X59533D01*
Y32780D01*
X59420D01*
Y32893D01*
X59307D01*
Y33005D01*
X58743D01*
Y33118D01*
X58630D01*
Y33231D01*
X58291D01*
Y33344D01*
X58178D01*
Y33457D01*
X58065D01*
Y33570D01*
X57952D01*
Y33683D01*
X57840D01*
Y33795D01*
X57727D01*
Y33908D01*
X57614D01*
Y34021D01*
X57501D01*
Y34134D01*
X57388D01*
Y34247D01*
X57501D01*
Y34360D01*
X57388D01*
Y34473D01*
X57275D01*
Y34586D01*
X57162D01*
Y34698D01*
X57275D01*
Y34811D01*
X57162D01*
Y34924D01*
X57275D01*
Y35037D01*
X57162D01*
Y35150D01*
X57275D01*
Y35263D01*
X57162D01*
Y35376D01*
X57050D01*
Y35489D01*
X57162D01*
Y35601D01*
X57050D01*
Y35714D01*
X57162D01*
Y35827D01*
X57050D01*
Y35940D01*
X57162D01*
Y36053D01*
X57050D01*
Y36166D01*
X57162D01*
Y36279D01*
X57050D01*
Y36391D01*
X57162D01*
Y36504D01*
X57275D01*
Y36617D01*
X57162D01*
Y36730D01*
X57275D01*
Y36843D01*
X57162D01*
Y36956D01*
X57275D01*
Y37069D01*
X57162D01*
Y37181D01*
X57275D01*
Y37294D01*
X57162D01*
Y37407D01*
X57275D01*
Y37520D01*
X57388D01*
Y37633D01*
X57501D01*
Y37746D01*
X57388D01*
Y37859D01*
X57501D01*
Y37972D01*
X57388D01*
Y38084D01*
X57501D01*
Y38197D01*
Y38310D01*
Y38423D01*
X57614D01*
Y38310D01*
X57727D01*
Y38423D01*
X57614D01*
Y38536D01*
Y38649D01*
Y38762D01*
X57727D01*
Y38875D01*
X57614D01*
Y38987D01*
X57727D01*
Y39100D01*
X57614D01*
Y39213D01*
X57727D01*
Y39326D01*
X57840D01*
Y39439D01*
Y39552D01*
Y39665D01*
X57952D01*
Y39777D01*
X57840D01*
Y39890D01*
X57952D01*
Y40003D01*
Y40116D01*
Y40229D01*
X58065D01*
Y40342D01*
Y40455D01*
Y40567D01*
X58178D01*
Y40680D01*
X58065D01*
Y40793D01*
X58178D01*
Y40906D01*
Y41019D01*
Y41132D01*
X58291D01*
Y41245D01*
Y41358D01*
Y41471D01*
X58404D01*
Y41583D01*
X58291D01*
Y41696D01*
X58404D01*
Y41809D01*
Y41922D01*
Y42035D01*
X58517D01*
Y41922D01*
X58630D01*
Y42035D01*
X58517D01*
Y42148D01*
X58630D01*
Y42035D01*
X58743D01*
Y41922D01*
X58855D01*
Y42035D01*
X58743D01*
Y42148D01*
X58855D01*
Y42035D01*
X58968D01*
Y41922D01*
X59081D01*
Y42035D01*
X58968D01*
Y42148D01*
X59081D01*
Y42035D01*
X59194D01*
Y42148D01*
X59307D01*
Y42035D01*
X59420D01*
Y41922D01*
X59533D01*
Y42035D01*
X59420D01*
Y42148D01*
X59533D01*
Y42035D01*
X59645D01*
Y41922D01*
X59758D01*
Y42035D01*
X59645D01*
Y42148D01*
X59758D01*
Y42035D01*
X59871D01*
Y41922D01*
X59984D01*
Y42035D01*
X59871D01*
Y42148D01*
X59984D01*
Y42035D01*
X60097D01*
Y42148D01*
X60210D01*
Y42035D01*
X60323D01*
Y41922D01*
X60436D01*
Y42035D01*
X60323D01*
Y42148D01*
X60436D01*
Y42035D01*
X60549D01*
Y41922D01*
X60661D01*
Y42035D01*
X60549D01*
Y42148D01*
X60661D01*
Y42035D01*
X60774D01*
Y41922D01*
X60887D01*
Y41809D01*
X60774D01*
Y41696D01*
X60887D01*
Y41583D01*
X60774D01*
Y41471D01*
X60887D01*
Y41358D01*
X60774D01*
Y41245D01*
X60661D01*
Y41132D01*
X60774D01*
Y41019D01*
X60661D01*
Y40906D01*
X60549D01*
Y40793D01*
X60661D01*
Y40680D01*
X60549D01*
Y40567D01*
X60661D01*
Y40455D01*
X60549D01*
Y40342D01*
X60436D01*
Y40229D01*
X60323D01*
Y40116D01*
X60436D01*
Y40003D01*
X60323D01*
Y39890D01*
X60436D01*
Y39777D01*
X60323D01*
Y39665D01*
X60436D01*
Y39552D01*
X60323D01*
Y39439D01*
Y39326D01*
Y39213D01*
X60210D01*
Y39100D01*
X60097D01*
Y38987D01*
X60210D01*
Y38875D01*
X60097D01*
Y38762D01*
X60210D01*
Y38649D01*
X60097D01*
Y38536D01*
X59984D01*
Y38423D01*
Y38310D01*
Y38197D01*
Y38084D01*
Y37972D01*
X59871D01*
Y37859D01*
X59984D01*
Y37746D01*
X59871D01*
Y37633D01*
Y37520D01*
Y37407D01*
X59758D01*
Y37294D01*
X59645D01*
Y37181D01*
X59758D01*
Y37069D01*
X59645D01*
Y36956D01*
X59758D01*
Y36843D01*
X59645D01*
Y36730D01*
Y36617D01*
Y36504D01*
Y36391D01*
Y36279D01*
X59533D01*
Y36166D01*
Y36053D01*
Y35940D01*
X59645D01*
Y35827D01*
X59533D01*
Y35714D01*
X59645D01*
Y35601D01*
Y35489D01*
Y35376D01*
X59758D01*
Y35263D01*
X59645D01*
Y35150D01*
X59758D01*
Y35037D01*
X59871D01*
Y34924D01*
X59984D01*
Y35037D01*
X59871D01*
Y35150D01*
X59984D01*
Y35037D01*
X60097D01*
Y34924D01*
X60210D01*
Y34811D01*
X60323D01*
Y34698D01*
X60436D01*
Y34811D01*
X60323D01*
Y34924D01*
X60436D01*
Y34811D01*
X60549D01*
Y34698D01*
X60661D01*
Y34811D01*
X60549D01*
Y34924D01*
X60661D01*
Y34811D01*
X60774D01*
Y34698D01*
X60887D01*
Y34811D01*
X61000D01*
Y34924D01*
X61113D01*
Y34811D01*
X61226D01*
Y34698D01*
X61339D01*
Y34811D01*
X61226D01*
Y34924D01*
X61339D01*
Y34811D01*
X61451D01*
Y34924D01*
X61790D01*
Y35037D01*
X61677D01*
Y35150D01*
X61790D01*
Y35037D01*
X61903D01*
Y35150D01*
X62016D01*
Y35263D01*
X62129D01*
Y35376D01*
X62242D01*
Y35489D01*
X62129D01*
Y35601D01*
X62242D01*
Y35489D01*
X62354D01*
Y35601D01*
X62467D01*
Y35714D01*
X62354D01*
Y35827D01*
X62467D01*
Y35940D01*
X62580D01*
Y36053D01*
X62693D01*
Y36166D01*
X62580D01*
Y36279D01*
X62693D01*
Y36391D01*
X62806D01*
Y36504D01*
X62919D01*
Y36617D01*
X62806D01*
Y36730D01*
X62919D01*
Y36843D01*
Y36956D01*
Y37069D01*
X63032D01*
Y36956D01*
X63144D01*
Y37069D01*
X63032D01*
Y37181D01*
Y37294D01*
Y37407D01*
X63144D01*
Y37520D01*
X63032D01*
Y37633D01*
X63144D01*
Y37746D01*
X63032D01*
Y37859D01*
X63144D01*
Y37972D01*
X63257D01*
Y38084D01*
Y38197D01*
Y38310D01*
X63370D01*
Y38423D01*
X63257D01*
Y38536D01*
X63370D01*
Y38649D01*
Y38762D01*
Y38875D01*
X63483D01*
Y38987D01*
Y39100D01*
Y39213D01*
X63596D01*
Y39326D01*
X63483D01*
Y39439D01*
X63596D01*
Y39552D01*
X63483D01*
Y39665D01*
X63596D01*
Y39777D01*
X63709D01*
Y39890D01*
Y40003D01*
Y40116D01*
X63822D01*
Y40229D01*
X63709D01*
Y40342D01*
X63822D01*
Y40455D01*
Y40567D01*
Y40680D01*
X63934D01*
Y40793D01*
Y40906D01*
Y41019D01*
X64047D01*
Y41132D01*
X63934D01*
Y41245D01*
X64047D01*
Y41358D01*
X63934D01*
Y41471D01*
X64047D01*
Y41583D01*
X64160D01*
Y41696D01*
X64047D01*
Y41809D01*
X64160D01*
Y41922D01*
X64273D01*
Y42035D01*
X64160D01*
Y42148D01*
X64273D01*
Y42035D01*
X64386D01*
Y41922D01*
X64499D01*
Y42035D01*
X64386D01*
Y42148D01*
X64499D01*
Y42035D01*
X64612D01*
Y42148D01*
X64724D01*
Y42035D01*
X64837D01*
Y41922D01*
X64950D01*
Y42035D01*
X64837D01*
Y42148D01*
X64950D01*
Y42035D01*
X65063D01*
Y41922D01*
X65176D01*
Y42035D01*
X65063D01*
Y42148D01*
X65176D01*
Y42035D01*
X65289D01*
Y41922D01*
X65402D01*
Y42035D01*
X65289D01*
Y42148D01*
X65402D01*
Y42035D01*
X65515D01*
Y42148D01*
X65627D01*
Y42035D01*
X65740D01*
Y41922D01*
X65853D01*
Y42035D01*
X65740D01*
Y42148D01*
X65853D01*
Y42035D01*
X65966D01*
Y41922D01*
X66079D01*
Y42035D01*
X65966D01*
Y42148D01*
X66079D01*
Y42035D01*
X66192D01*
Y41922D01*
X66305D01*
Y42035D01*
X66192D01*
Y42148D01*
X66305D01*
Y42035D01*
X66418D01*
Y42148D01*
X66530D01*
Y42035D01*
D02*
G37*
G36*
X100278Y42148D02*
X100391D01*
Y42035D01*
X100278D01*
Y41922D01*
X100165D01*
Y42035D01*
X100052D01*
Y42148D01*
X100165D01*
Y42261D01*
X100278D01*
Y42148D01*
D02*
G37*
G36*
X76011Y42035D02*
X76124D01*
Y41922D01*
X76237D01*
Y42035D01*
X76350D01*
Y41922D01*
X76914D01*
Y41809D01*
X77027D01*
Y41696D01*
X77366D01*
Y41583D01*
X77479D01*
Y41471D01*
X77591D01*
Y41358D01*
X77704D01*
Y41245D01*
X77817D01*
Y41132D01*
Y41019D01*
X78043D01*
Y40906D01*
X77930D01*
Y40793D01*
X78043D01*
Y40680D01*
X77930D01*
Y40567D01*
X78156D01*
Y40455D01*
Y40342D01*
Y40229D01*
Y40116D01*
Y40003D01*
Y39890D01*
Y39777D01*
Y39665D01*
Y39552D01*
Y39439D01*
X78043D01*
Y39326D01*
X77930D01*
Y39213D01*
X78043D01*
Y39100D01*
X77930D01*
Y38987D01*
X77817D01*
Y38875D01*
X77704D01*
Y38762D01*
X77817D01*
Y38649D01*
X77704D01*
Y38536D01*
X77591D01*
Y38423D01*
X77479D01*
Y38310D01*
X77366D01*
Y38197D01*
X77027D01*
Y38084D01*
X76914D01*
Y37972D01*
X76576D01*
Y37859D01*
X76463D01*
Y37746D01*
X76350D01*
Y37633D01*
X76688D01*
Y37520D01*
X76801D01*
Y37407D01*
X76914D01*
Y37294D01*
X77027D01*
Y37181D01*
X77140D01*
Y37069D01*
X77253D01*
Y36956D01*
X77366D01*
Y36843D01*
X77253D01*
Y36730D01*
X77366D01*
Y36617D01*
X77479D01*
Y36504D01*
X77591D01*
Y36391D01*
X77479D01*
Y36504D01*
X77366D01*
Y36391D01*
X77479D01*
Y36279D01*
X77366D01*
Y36166D01*
X77479D01*
Y36053D01*
X77366D01*
Y35940D01*
X77253D01*
Y35827D01*
X77366D01*
Y35714D01*
X77253D01*
Y35601D01*
X77366D01*
Y35489D01*
X77253D01*
Y35376D01*
X77140D01*
Y35263D01*
X77027D01*
Y35150D01*
X77140D01*
Y35037D01*
X77027D01*
Y34924D01*
X76914D01*
Y34811D01*
X76801D01*
Y34698D01*
X76914D01*
Y34586D01*
X76801D01*
Y34473D01*
X76688D01*
Y34360D01*
X76576D01*
Y34247D01*
X76463D01*
Y34134D01*
X76350D01*
Y34021D01*
X76237D01*
Y33908D01*
X75898D01*
Y33795D01*
X75785D01*
Y33683D01*
X75673D01*
Y33570D01*
X75560D01*
Y33683D01*
X75447D01*
Y33570D01*
X75560D01*
Y33457D01*
X75447D01*
Y33570D01*
X75334D01*
Y33457D01*
X75221D01*
Y33344D01*
X75108D01*
Y33457D01*
X74995D01*
Y33344D01*
X75108D01*
Y33231D01*
X74995D01*
Y33344D01*
X74883D01*
Y33231D01*
X74544D01*
Y33118D01*
X74431D01*
Y33231D01*
X74318D01*
Y33118D01*
X74205D01*
Y33231D01*
X74093D01*
Y33118D01*
X74205D01*
Y33005D01*
X74093D01*
Y33118D01*
X73980D01*
Y33005D01*
X73867D01*
Y33118D01*
X73754D01*
Y33005D01*
X73641D01*
Y33118D01*
X73528D01*
Y33005D01*
X73415D01*
Y33118D01*
X73303D01*
Y33005D01*
X73190D01*
Y33118D01*
X73077D01*
Y33005D01*
X72738D01*
Y33118D01*
X72625D01*
Y33005D01*
X72287D01*
Y33118D01*
X72174D01*
Y33005D01*
X71835D01*
Y33118D01*
X71722D01*
Y33005D01*
X71609D01*
Y33118D01*
X71497D01*
Y33005D01*
X71384D01*
Y33118D01*
X71271D01*
Y33005D01*
X70932D01*
Y33118D01*
X70819D01*
Y33005D01*
X70481D01*
Y33118D01*
X70368D01*
Y33005D01*
X70029D01*
Y33118D01*
X69916D01*
Y33231D01*
X69804D01*
Y33344D01*
X69916D01*
Y33457D01*
X70029D01*
Y33570D01*
X69916D01*
Y33683D01*
X70029D01*
Y33795D01*
X70142D01*
Y33908D01*
X70029D01*
Y34021D01*
X70142D01*
Y34134D01*
X70029D01*
Y34247D01*
X70142D01*
Y34360D01*
Y34473D01*
Y34586D01*
X70255D01*
Y34698D01*
X70368D01*
Y34811D01*
X70255D01*
Y34924D01*
X70368D01*
Y35037D01*
X70255D01*
Y35150D01*
X70368D01*
Y35263D01*
Y35376D01*
Y35489D01*
X70481D01*
Y35601D01*
Y35714D01*
Y35827D01*
X70594D01*
Y35940D01*
X70481D01*
Y36053D01*
X70594D01*
Y36166D01*
Y36279D01*
Y36391D01*
X70706D01*
Y36504D01*
Y36617D01*
Y36730D01*
X70819D01*
Y36843D01*
X70706D01*
Y36956D01*
X70819D01*
Y37069D01*
Y37181D01*
Y37294D01*
X70932D01*
Y37407D01*
Y37520D01*
Y37633D01*
X71045D01*
Y37746D01*
X70932D01*
Y37859D01*
X71045D01*
Y37972D01*
Y38084D01*
Y38197D01*
X71158D01*
Y38310D01*
X71271D01*
Y38423D01*
X71158D01*
Y38536D01*
X71271D01*
Y38649D01*
X71158D01*
Y38762D01*
X71271D01*
Y38875D01*
Y38987D01*
Y39100D01*
X71158D01*
Y39213D01*
X71271D01*
Y39100D01*
X71384D01*
Y39213D01*
Y39326D01*
Y39439D01*
X71497D01*
Y39552D01*
X71384D01*
Y39665D01*
X71497D01*
Y39777D01*
X71384D01*
Y39890D01*
X71497D01*
Y40003D01*
X71609D01*
Y40116D01*
X71497D01*
Y40229D01*
X71609D01*
Y40342D01*
X71722D01*
Y40455D01*
X71609D01*
Y40567D01*
X71722D01*
Y40680D01*
X71609D01*
Y40793D01*
X71722D01*
Y40906D01*
X71609D01*
Y41019D01*
X71722D01*
Y41132D01*
X71835D01*
Y41245D01*
X71948D01*
Y41358D01*
X71835D01*
Y41471D01*
X71948D01*
Y41583D01*
X71835D01*
Y41696D01*
X71948D01*
Y41809D01*
Y41922D01*
Y42035D01*
X72061D01*
Y41922D01*
X72174D01*
Y42035D01*
X72061D01*
Y42148D01*
X72174D01*
Y42035D01*
X72287D01*
Y41922D01*
X72399D01*
Y42035D01*
X72287D01*
Y42148D01*
X72399D01*
Y42035D01*
X72512D01*
Y41922D01*
X72625D01*
Y42035D01*
X72512D01*
Y42148D01*
X72625D01*
Y42035D01*
X72738D01*
Y42148D01*
X72851D01*
Y42035D01*
X72964D01*
Y41922D01*
X73077D01*
Y42035D01*
X72964D01*
Y42148D01*
X73077D01*
Y42035D01*
X73190D01*
Y41922D01*
X73303D01*
Y42035D01*
X73190D01*
Y42148D01*
X73303D01*
Y42035D01*
X73415D01*
Y41922D01*
X73528D01*
Y42035D01*
X73415D01*
Y42148D01*
X73528D01*
Y42035D01*
X73641D01*
Y42148D01*
X73754D01*
Y42035D01*
X73867D01*
Y41922D01*
X73980D01*
Y42035D01*
X73867D01*
Y42148D01*
X73980D01*
Y42035D01*
X74093D01*
Y41922D01*
X74205D01*
Y42035D01*
X74093D01*
Y42148D01*
X74205D01*
Y42035D01*
X74318D01*
Y41922D01*
X74431D01*
Y42035D01*
X74318D01*
Y42148D01*
X74431D01*
Y42035D01*
X74544D01*
Y42148D01*
X74657D01*
Y42035D01*
X74770D01*
Y41922D01*
X74883D01*
Y42035D01*
X74770D01*
Y42148D01*
X74883D01*
Y42035D01*
X74995D01*
Y41922D01*
X75108D01*
Y42035D01*
X74995D01*
Y42148D01*
X75108D01*
Y42035D01*
X75221D01*
Y41922D01*
X75334D01*
Y42035D01*
X75221D01*
Y42148D01*
X75334D01*
Y42035D01*
X75447D01*
Y42148D01*
X75560D01*
Y42035D01*
X75673D01*
Y41922D01*
X75785D01*
Y42035D01*
X75673D01*
Y42148D01*
X75785D01*
Y42035D01*
X75898D01*
Y41922D01*
X76011D01*
Y42035D01*
X75898D01*
Y42148D01*
X76011D01*
Y42035D01*
D02*
G37*
G36*
X100052Y41922D02*
X100165D01*
Y41809D01*
X100052D01*
Y41696D01*
X100165D01*
Y41583D01*
X100052D01*
Y41471D01*
X99939D01*
Y41358D01*
X99826D01*
Y41245D01*
X99939D01*
Y41132D01*
X99826D01*
Y41019D01*
X99713D01*
Y40906D01*
X99601D01*
Y40793D01*
Y40680D01*
Y40567D01*
X99488D01*
Y40455D01*
X99375D01*
Y40342D01*
X99488D01*
Y40229D01*
X99149D01*
Y40116D01*
X99262D01*
Y40003D01*
X99149D01*
Y39890D01*
X99036D01*
Y39777D01*
Y39665D01*
Y39552D01*
X98923D01*
Y39439D01*
X98810D01*
Y39326D01*
X98698D01*
Y39213D01*
X98810D01*
Y39100D01*
X98698D01*
Y38987D01*
X98585D01*
Y38875D01*
X98472D01*
Y38762D01*
X98585D01*
Y38649D01*
X98472D01*
Y38536D01*
X98359D01*
Y38423D01*
X98246D01*
Y38310D01*
X98359D01*
Y38197D01*
X98133D01*
Y38084D01*
Y37972D01*
X98020D01*
Y37859D01*
Y37746D01*
X97908D01*
Y37633D01*
Y37520D01*
X97795D01*
Y37407D01*
X97682D01*
Y37294D01*
X97569D01*
Y37181D01*
X97682D01*
Y37069D01*
X97569D01*
Y36956D01*
X97456D01*
Y36843D01*
X97343D01*
Y36730D01*
Y36617D01*
X97230D01*
Y36504D01*
Y36391D01*
X97118D01*
Y36279D01*
X97005D01*
Y36166D01*
X96892D01*
Y36053D01*
X97005D01*
Y35940D01*
X96892D01*
Y35827D01*
X96779D01*
Y35714D01*
X96666D01*
Y35601D01*
Y35489D01*
X96553D01*
Y35376D01*
Y35263D01*
X96440D01*
Y35150D01*
X96327D01*
Y35037D01*
X96214D01*
Y34924D01*
X96327D01*
Y34811D01*
X96102D01*
Y34698D01*
Y34586D01*
X95989D01*
Y34473D01*
X95876D01*
Y34360D01*
X95763D01*
Y34247D01*
X95876D01*
Y34134D01*
X95763D01*
Y34021D01*
X95650D01*
Y33908D01*
X95537D01*
Y33795D01*
X95650D01*
Y33683D01*
X95537D01*
Y33795D01*
X95424D01*
Y33683D01*
X95312D01*
Y33570D01*
X95424D01*
Y33457D01*
X95312D01*
Y33344D01*
X95199D01*
Y33457D01*
X95086D01*
Y33344D01*
X95199D01*
Y33231D01*
X95086D01*
Y33118D01*
X94973D01*
Y33005D01*
X94860D01*
Y32893D01*
X94973D01*
Y32780D01*
X94860D01*
Y32667D01*
X94747D01*
Y32554D01*
X94634D01*
Y32441D01*
Y32328D01*
X94409D01*
Y32215D01*
X94521D01*
Y32103D01*
X94409D01*
Y31990D01*
X94296D01*
Y31877D01*
X94183D01*
Y31764D01*
X94070D01*
Y31651D01*
X93957D01*
Y31538D01*
X94070D01*
Y31425D01*
X93957D01*
Y31312D01*
X93844D01*
Y31199D01*
X93731D01*
Y31087D01*
X93844D01*
Y30974D01*
X93731D01*
Y31087D01*
X93619D01*
Y30974D01*
X93506D01*
Y30861D01*
X93619D01*
Y30748D01*
X93506D01*
Y30635D01*
X93619D01*
Y30522D01*
X93506D01*
Y30409D01*
X93619D01*
Y30297D01*
X93506D01*
Y30184D01*
X93619D01*
Y30071D01*
X93506D01*
Y29958D01*
X93619D01*
Y29845D01*
X93506D01*
Y29732D01*
X93619D01*
Y29619D01*
X93506D01*
Y29506D01*
X93619D01*
Y29394D01*
X93506D01*
Y29506D01*
X93393D01*
Y29394D01*
X93506D01*
Y29281D01*
X93393D01*
Y29168D01*
X93280D01*
Y29055D01*
X93393D01*
Y28942D01*
X93280D01*
Y28829D01*
X93167D01*
Y28716D01*
X93054D01*
Y28604D01*
X93167D01*
Y28491D01*
X93054D01*
Y28378D01*
X92941D01*
Y28491D01*
X92829D01*
Y28604D01*
X92716D01*
Y28716D01*
X92603D01*
Y28829D01*
X92716D01*
Y28942D01*
X92603D01*
Y29055D01*
X92490D01*
Y29168D01*
X92151D01*
Y29055D01*
X92264D01*
Y28942D01*
X91926D01*
Y28829D01*
X91813D01*
Y28716D01*
X91700D01*
Y28604D01*
X91813D01*
Y28491D01*
X91700D01*
Y28378D01*
X91587D01*
Y28265D01*
X91474D01*
Y28152D01*
X91587D01*
Y28039D01*
X91474D01*
Y27926D01*
X91587D01*
Y27814D01*
X91700D01*
Y27701D01*
X92039D01*
Y27588D01*
X92151D01*
Y27475D01*
X92490D01*
Y27362D01*
X92603D01*
Y27249D01*
X92941D01*
Y27136D01*
X93054D01*
Y27023D01*
X93393D01*
Y26911D01*
X93506D01*
Y26798D01*
X93844D01*
Y26685D01*
X93957D01*
Y26572D01*
X94409D01*
Y26459D01*
Y26346D01*
X94747D01*
Y26233D01*
X94860D01*
Y26120D01*
X94973D01*
Y26008D01*
X95086D01*
Y26120D01*
X95199D01*
Y26008D01*
X95312D01*
Y25895D01*
X95424D01*
Y25782D01*
X95537D01*
Y25669D01*
X95876D01*
Y25556D01*
X95989D01*
Y25443D01*
X96327D01*
Y25330D01*
X96440D01*
Y25218D01*
X96553D01*
Y25105D01*
X96666D01*
Y24992D01*
X97005D01*
Y24879D01*
X97118D01*
Y24766D01*
X97230D01*
Y24653D01*
X97343D01*
Y24540D01*
X97456D01*
Y24653D01*
X97343D01*
Y24766D01*
X97456D01*
Y24653D01*
X97569D01*
Y24540D01*
X97682D01*
Y24428D01*
X97795D01*
Y24315D01*
X98133D01*
Y24202D01*
X98246D01*
Y24089D01*
X98359D01*
Y23976D01*
X98472D01*
Y23863D01*
X98585D01*
Y23750D01*
X98698D01*
Y23637D01*
X99036D01*
Y23525D01*
X99149D01*
Y23412D01*
X99262D01*
Y23299D01*
X99375D01*
Y23186D01*
X99488D01*
Y23073D01*
X99601D01*
Y22960D01*
X99939D01*
Y22847D01*
X100052D01*
Y22735D01*
X100165D01*
Y22622D01*
X100278D01*
Y22509D01*
X100391D01*
Y22396D01*
X100504D01*
Y22283D01*
X100616D01*
Y22170D01*
X100729D01*
Y22057D01*
X101068D01*
Y21944D01*
X101181D01*
Y21832D01*
X101294D01*
Y21719D01*
X101406D01*
Y21606D01*
X101519D01*
Y21493D01*
X101632D01*
Y21380D01*
X101745D01*
Y21267D01*
X101858D01*
Y21154D01*
X101971D01*
Y21042D01*
X102084D01*
Y20929D01*
X102197D01*
Y20816D01*
X102309D01*
Y20703D01*
X102422D01*
Y20590D01*
X102535D01*
Y20477D01*
X102648D01*
Y20364D01*
X102761D01*
Y20251D01*
X102874D01*
Y20139D01*
X102987D01*
Y20026D01*
X103100D01*
Y19913D01*
X103212D01*
Y19800D01*
X103325D01*
Y19687D01*
X103438D01*
Y19574D01*
X103551D01*
Y19461D01*
X103664D01*
Y19349D01*
X103777D01*
Y19236D01*
X103890D01*
Y19123D01*
X104002D01*
Y19010D01*
X104115D01*
Y18897D01*
X104228D01*
Y18784D01*
X104341D01*
Y18671D01*
X104454D01*
Y18558D01*
X104341D01*
Y18671D01*
X104228D01*
Y18784D01*
X104115D01*
Y18897D01*
X104002D01*
Y19010D01*
X103890D01*
Y19123D01*
X103777D01*
Y19236D01*
X103438D01*
Y19349D01*
X103551D01*
Y19461D01*
X103212D01*
Y19574D01*
Y19687D01*
X102987D01*
Y19800D01*
Y19913D01*
X102761D01*
Y20026D01*
X102648D01*
Y20139D01*
X102535D01*
Y20251D01*
X102422D01*
Y20364D01*
X102309D01*
Y20477D01*
X102197D01*
Y20590D01*
X102084D01*
Y20703D01*
X101971D01*
Y20816D01*
X101858D01*
Y20929D01*
X101745D01*
Y21042D01*
X101406D01*
Y21154D01*
X101519D01*
Y21267D01*
X101181D01*
Y21380D01*
X101068D01*
Y21493D01*
X100955D01*
Y21606D01*
X100842D01*
Y21719D01*
X100729D01*
Y21832D01*
X100616D01*
Y21944D01*
X100504D01*
Y22057D01*
X100391D01*
Y22170D01*
X100052D01*
Y22283D01*
X99939D01*
Y22396D01*
X99826D01*
Y22509D01*
X99713D01*
Y22622D01*
X99601D01*
Y22735D01*
X99488D01*
Y22847D01*
X99375D01*
Y22735D01*
X99488D01*
Y22622D01*
X99375D01*
Y22735D01*
X99262D01*
Y22847D01*
X99149D01*
Y22960D01*
X99036D01*
Y23073D01*
X98923D01*
Y23186D01*
X98810D01*
Y23299D01*
X98472D01*
Y23412D01*
X98359D01*
Y23525D01*
X98246D01*
Y23637D01*
X98133D01*
Y23750D01*
X97795D01*
Y23863D01*
X97682D01*
Y23976D01*
X97569D01*
Y24089D01*
X97456D01*
Y24202D01*
X97118D01*
Y24315D01*
X97005D01*
Y24428D01*
X96892D01*
Y24540D01*
X96779D01*
Y24653D01*
X96666D01*
Y24540D01*
X96779D01*
Y24428D01*
X96666D01*
Y24540D01*
X96553D01*
Y24653D01*
X96440D01*
Y24766D01*
X96327D01*
Y24879D01*
X95989D01*
Y24992D01*
X95876D01*
Y25105D01*
X95763D01*
Y25218D01*
X95650D01*
Y25330D01*
X95312D01*
Y25443D01*
X95199D01*
Y25556D01*
X94860D01*
Y25443D01*
X94973D01*
Y25330D01*
X95086D01*
Y25218D01*
X95199D01*
Y25105D01*
X95086D01*
Y25218D01*
X94973D01*
Y25330D01*
X94860D01*
Y25443D01*
X94747D01*
Y25556D01*
X94634D01*
Y25669D01*
X94747D01*
Y25782D01*
X94409D01*
Y25895D01*
X94296D01*
Y26008D01*
X94183D01*
Y26120D01*
X94070D01*
Y26008D01*
X93957D01*
Y26120D01*
X93844D01*
Y26233D01*
X93731D01*
Y26346D01*
X93619D01*
Y26459D01*
X93506D01*
Y26346D01*
X93619D01*
Y26233D01*
X93506D01*
Y26346D01*
X93393D01*
Y26459D01*
X93280D01*
Y26572D01*
X93167D01*
Y26459D01*
X93054D01*
Y26572D01*
X92941D01*
Y26685D01*
X92603D01*
Y26798D01*
X92490D01*
Y26911D01*
X92151D01*
Y27023D01*
X92039D01*
Y27136D01*
X91700D01*
Y27249D01*
X91587D01*
Y27362D01*
X91023D01*
Y27249D01*
X91136D01*
Y27136D01*
X91023D01*
Y27023D01*
X90910D01*
Y26911D01*
X90797D01*
Y26798D01*
X90910D01*
Y26685D01*
X90797D01*
Y26572D01*
X90684D01*
Y26459D01*
X90571D01*
Y26346D01*
Y26233D01*
Y26120D01*
X90458D01*
Y26008D01*
X90345D01*
Y25895D01*
X90458D01*
Y25782D01*
X90345D01*
Y25669D01*
X90233D01*
Y25782D01*
X90120D01*
Y25895D01*
X90233D01*
Y26008D01*
Y26120D01*
X90345D01*
Y26233D01*
Y26346D01*
X90458D01*
Y26459D01*
X90345D01*
Y26572D01*
X90458D01*
Y26685D01*
X90571D01*
Y26798D01*
Y26911D01*
Y27023D01*
X90684D01*
Y27136D01*
Y27249D01*
Y27362D01*
X90797D01*
Y27475D01*
X90910D01*
Y27588D01*
X90797D01*
Y27701D01*
X90684D01*
Y27588D01*
X90571D01*
Y27701D01*
X90458D01*
Y27814D01*
X90120D01*
Y27926D01*
X90007D01*
Y28039D01*
X89894D01*
Y27926D01*
X90007D01*
Y27814D01*
X89894D01*
Y27926D01*
X89781D01*
Y28039D01*
X89668D01*
Y27926D01*
X89781D01*
Y27814D01*
X89442D01*
Y27701D01*
X89555D01*
Y27588D01*
X89442D01*
Y27701D01*
X89330D01*
Y27588D01*
X89217D01*
Y27475D01*
X89104D01*
Y27362D01*
X88765D01*
Y27249D01*
X88652D01*
Y27136D01*
X88540D01*
Y27023D01*
X88427D01*
Y26911D01*
X88088D01*
Y26798D01*
X87975D01*
Y26685D01*
X87862D01*
Y26572D01*
X87749D01*
Y26685D01*
X87637D01*
Y26798D01*
X87749D01*
Y26911D01*
X87862D01*
Y27023D01*
X87975D01*
Y27136D01*
X88088D01*
Y27249D01*
X88427D01*
Y27362D01*
X88314D01*
Y27475D01*
X88652D01*
Y27588D01*
X88765D01*
Y27701D01*
X88878D01*
Y27814D01*
X88991D01*
Y27701D01*
X89104D01*
Y27814D01*
X88991D01*
Y27926D01*
X89330D01*
Y28039D01*
X89442D01*
Y28152D01*
X89330D01*
Y28265D01*
X88991D01*
Y28378D01*
X88878D01*
Y28491D01*
X88765D01*
Y28378D01*
X88878D01*
Y28265D01*
X88765D01*
Y28378D01*
X88652D01*
Y28491D01*
X88540D01*
Y28604D01*
X88427D01*
Y28491D01*
X88314D01*
Y28604D01*
X88201D01*
Y28716D01*
X88088D01*
Y28604D01*
X87975D01*
Y28716D01*
X87862D01*
Y28829D01*
X87749D01*
Y28716D01*
X87637D01*
Y28829D01*
X87524D01*
Y28942D01*
X87185D01*
Y29055D01*
X86847D01*
Y29168D01*
X86508D01*
Y29281D01*
X86395D01*
Y29168D01*
X86282D01*
Y29281D01*
X86169D01*
Y29394D01*
X85831D01*
Y29506D01*
X85718D01*
Y29394D01*
X85605D01*
Y29506D01*
X85492D01*
Y29619D01*
X85379D01*
Y29506D01*
X85492D01*
Y29394D01*
X85379D01*
Y29506D01*
X85266D01*
Y29619D01*
X84702D01*
Y29732D01*
X84589D01*
Y29845D01*
X84476D01*
Y29732D01*
X84589D01*
Y29619D01*
X84476D01*
Y29732D01*
X84364D01*
Y29845D01*
X84251D01*
Y29732D01*
X84364D01*
Y29619D01*
X84251D01*
Y29732D01*
X84138D01*
Y29845D01*
X84025D01*
Y29958D01*
X83912D01*
Y29845D01*
X84025D01*
Y29732D01*
X84138D01*
Y29619D01*
X84025D01*
Y29732D01*
X83912D01*
Y29845D01*
X83799D01*
Y29958D01*
X83686D01*
Y30071D01*
X83573D01*
Y29958D01*
X83686D01*
Y29845D01*
X83799D01*
Y29732D01*
X83912D01*
Y29619D01*
X83799D01*
Y29732D01*
X83686D01*
Y29845D01*
X83573D01*
Y29958D01*
X83460D01*
Y30071D01*
X83122D01*
Y30184D01*
X83009D01*
Y30297D01*
X82896D01*
Y30184D01*
X83009D01*
Y30071D01*
X82896D01*
Y30184D01*
X82783D01*
Y30297D01*
X82670D01*
Y30184D01*
X82558D01*
Y30297D01*
X82445D01*
Y30184D01*
X82332D01*
Y30297D01*
X82219D01*
Y30184D01*
X82106D01*
Y30297D01*
X81993D01*
Y30184D01*
X82106D01*
Y30071D01*
X82219D01*
Y29958D01*
X83009D01*
Y29845D01*
X83122D01*
Y29732D01*
X83009D01*
Y29845D01*
X82896D01*
Y29732D01*
X83009D01*
Y29619D01*
X82896D01*
Y29732D01*
X82783D01*
Y29845D01*
X82670D01*
Y29732D01*
X82558D01*
Y29845D01*
X82445D01*
Y29732D01*
X82332D01*
Y29845D01*
X81316D01*
Y29958D01*
X81203D01*
Y29845D01*
X81090D01*
Y29958D01*
X80977D01*
Y29845D01*
X80865D01*
Y29958D01*
X80752D01*
Y29845D01*
X80639D01*
Y29958D01*
X80526D01*
Y29845D01*
X80413D01*
Y29958D01*
X80300D01*
Y29845D01*
X80187D01*
Y29958D01*
X80075D01*
Y30071D01*
X79962D01*
Y29958D01*
X80075D01*
Y29845D01*
X79962D01*
Y29958D01*
X79849D01*
Y30071D01*
X79736D01*
Y29958D01*
X79849D01*
Y29845D01*
X79736D01*
Y29958D01*
X79623D01*
Y30071D01*
X79510D01*
Y29958D01*
X79623D01*
Y29845D01*
X79510D01*
Y29958D01*
X79397D01*
Y30071D01*
X79284D01*
Y29958D01*
X79172D01*
Y30071D01*
X79059D01*
Y29958D01*
X78946D01*
Y30071D01*
X78833D01*
Y29958D01*
X78720D01*
Y30071D01*
X78607D01*
Y29958D01*
X78494D01*
Y30071D01*
X78156D01*
Y29958D01*
X78043D01*
Y30071D01*
X77479D01*
Y30184D01*
X77817D01*
Y30297D01*
X77930D01*
Y30184D01*
X78269D01*
Y30297D01*
X78382D01*
Y30184D01*
X78494D01*
Y30297D01*
X78607D01*
Y30184D01*
X78720D01*
Y30297D01*
X78607D01*
Y30409D01*
X78720D01*
Y30297D01*
X78833D01*
Y30184D01*
X78946D01*
Y30297D01*
X79059D01*
Y30184D01*
X79172D01*
Y30297D01*
X79059D01*
Y30409D01*
X79172D01*
Y30297D01*
X79284D01*
Y30184D01*
X79397D01*
Y30297D01*
X79510D01*
Y30409D01*
X79623D01*
Y30297D01*
X79736D01*
Y30184D01*
X79849D01*
Y30297D01*
X79736D01*
Y30409D01*
X79849D01*
Y30297D01*
X79962D01*
Y30409D01*
X80075D01*
Y30297D01*
X80187D01*
Y30409D01*
X80300D01*
Y30297D01*
X80413D01*
Y30409D01*
X80526D01*
Y30297D01*
X80639D01*
Y30409D01*
X80752D01*
Y30297D01*
X80865D01*
Y30409D01*
X80977D01*
Y30297D01*
X81090D01*
Y30184D01*
X81203D01*
Y30071D01*
X81316D01*
Y30184D01*
X81203D01*
Y30297D01*
X81090D01*
Y30409D01*
X81203D01*
Y30297D01*
X81316D01*
Y30184D01*
X81429D01*
Y30071D01*
X81542D01*
Y29958D01*
X81655D01*
Y30071D01*
X81542D01*
Y30184D01*
X81429D01*
Y30297D01*
X81316D01*
Y30409D01*
X81429D01*
Y30522D01*
X80865D01*
Y30635D01*
X80752D01*
Y30748D01*
X80639D01*
Y30635D01*
X80752D01*
Y30522D01*
X80639D01*
Y30635D01*
X80300D01*
Y30748D01*
X79510D01*
Y30861D01*
X79397D01*
Y30748D01*
X79284D01*
Y30861D01*
X78946D01*
Y30974D01*
X78833D01*
Y30861D01*
X78720D01*
Y30974D01*
X78607D01*
Y30861D01*
X78494D01*
Y30974D01*
X77704D01*
Y31087D01*
X77591D01*
Y30974D01*
X77479D01*
Y31087D01*
X77366D01*
Y30974D01*
X77253D01*
Y31087D01*
X77140D01*
Y30974D01*
X77027D01*
Y31087D01*
X76914D01*
Y31199D01*
X76801D01*
Y31087D01*
X76688D01*
Y31199D01*
X76576D01*
Y31087D01*
X76688D01*
Y30974D01*
X76576D01*
Y31087D01*
X76463D01*
Y31199D01*
X76350D01*
Y31087D01*
X76237D01*
Y31199D01*
X76124D01*
Y31087D01*
X76011D01*
Y31199D01*
X74995D01*
Y31312D01*
X77591D01*
Y31199D01*
X77704D01*
Y31312D01*
X77817D01*
Y31199D01*
X77930D01*
Y31087D01*
X78043D01*
Y31199D01*
X77930D01*
Y31312D01*
X78043D01*
Y31199D01*
X78156D01*
Y31312D01*
X78269D01*
Y31199D01*
X78382D01*
Y31087D01*
X78494D01*
Y31199D01*
X78382D01*
Y31312D01*
X78494D01*
Y31199D01*
X78607D01*
Y31087D01*
X78720D01*
Y31199D01*
X78607D01*
Y31312D01*
X78720D01*
Y31199D01*
X78833D01*
Y31087D01*
X78946D01*
Y31199D01*
X79059D01*
Y31087D01*
X79172D01*
Y31199D01*
X79284D01*
Y31087D01*
X80075D01*
Y30974D01*
X80187D01*
Y31087D01*
X80300D01*
Y30974D01*
X80413D01*
Y31087D01*
X80526D01*
Y30974D01*
X80639D01*
Y31087D01*
X80752D01*
Y30974D01*
X80865D01*
Y30861D01*
X80977D01*
Y30974D01*
X81090D01*
Y30861D01*
X81655D01*
Y30748D01*
X81767D01*
Y30861D01*
X81880D01*
Y30748D01*
X82219D01*
Y30635D01*
X82332D01*
Y30748D01*
X82445D01*
Y30635D01*
X83009D01*
Y30522D01*
X83348D01*
Y30409D01*
X83460D01*
Y30522D01*
X83348D01*
Y30635D01*
X83460D01*
Y30522D01*
X83573D01*
Y30409D01*
X83686D01*
Y30522D01*
X83799D01*
Y30409D01*
X83912D01*
Y30522D01*
X83799D01*
Y30635D01*
X83912D01*
Y30522D01*
X84025D01*
Y30409D01*
X84138D01*
Y30297D01*
X84251D01*
Y30184D01*
X84364D01*
Y30297D01*
X84251D01*
Y30409D01*
X84138D01*
Y30522D01*
X84251D01*
Y30409D01*
X84364D01*
Y30297D01*
X84476D01*
Y30184D01*
X85041D01*
Y30071D01*
X85154D01*
Y29958D01*
X85266D01*
Y30071D01*
X85154D01*
Y30184D01*
X85266D01*
Y30071D01*
X85379D01*
Y29958D01*
X85718D01*
Y29845D01*
X85831D01*
Y29958D01*
X85944D01*
Y29845D01*
X86057D01*
Y29732D01*
X86621D01*
Y29619D01*
X86734D01*
Y29506D01*
X86847D01*
Y29619D01*
X86959D01*
Y29506D01*
X87298D01*
Y29394D01*
X87411D01*
Y29281D01*
X87524D01*
Y29394D01*
X87637D01*
Y29281D01*
X87975D01*
Y29168D01*
X88088D01*
Y29055D01*
X88201D01*
Y29168D01*
X88314D01*
Y29055D01*
X88652D01*
Y28942D01*
X88765D01*
Y28829D01*
X89330D01*
Y28716D01*
X89442D01*
Y28604D01*
X89781D01*
Y28491D01*
X89894D01*
Y28604D01*
X90233D01*
Y28716D01*
X90120D01*
Y28829D01*
X90233D01*
Y28716D01*
X90345D01*
Y28829D01*
X90458D01*
Y28942D01*
X90571D01*
Y28829D01*
X90684D01*
Y28942D01*
X90571D01*
Y29055D01*
X90684D01*
Y29168D01*
X90797D01*
Y29055D01*
X90910D01*
Y29168D01*
X90797D01*
Y29281D01*
X91136D01*
Y29394D01*
X91248D01*
Y29506D01*
X91136D01*
Y29619D01*
X91023D01*
Y29732D01*
X91136D01*
Y29619D01*
X91248D01*
Y29732D01*
X91361D01*
Y29845D01*
X91248D01*
Y29958D01*
X91136D01*
Y30071D01*
X91023D01*
Y30184D01*
X90910D01*
Y30071D01*
X90797D01*
Y30184D01*
X90684D01*
Y30297D01*
X90571D01*
Y30184D01*
X90684D01*
Y30071D01*
X90571D01*
Y30184D01*
X90458D01*
Y30297D01*
X90345D01*
Y30409D01*
X90458D01*
Y30522D01*
X90571D01*
Y30635D01*
X90684D01*
Y30748D01*
X90797D01*
Y30861D01*
X90910D01*
Y30974D01*
X91023D01*
Y31087D01*
X91136D01*
Y31199D01*
X91248D01*
Y31312D01*
X91361D01*
Y31425D01*
X91474D01*
Y31312D01*
X91587D01*
Y31425D01*
X91474D01*
Y31538D01*
X91587D01*
Y31425D01*
X91700D01*
Y31538D01*
X92039D01*
Y31651D01*
X92151D01*
Y31538D01*
X92264D01*
Y31651D01*
X92151D01*
Y31764D01*
X92264D01*
Y31651D01*
X92377D01*
Y31538D01*
X92490D01*
Y31651D01*
X92377D01*
Y31764D01*
X92490D01*
Y31877D01*
X92603D01*
Y31990D01*
X92716D01*
Y32103D01*
X92603D01*
Y32215D01*
X92716D01*
Y32328D01*
X92829D01*
Y32441D01*
X92941D01*
Y32554D01*
X93054D01*
Y32667D01*
X93167D01*
Y32780D01*
X93054D01*
Y32893D01*
X93167D01*
Y33005D01*
X93280D01*
Y33118D01*
X93393D01*
Y33231D01*
X93280D01*
Y33344D01*
X93619D01*
Y33457D01*
X93506D01*
Y33570D01*
X93619D01*
Y33683D01*
X93731D01*
Y33795D01*
X93844D01*
Y33908D01*
X93957D01*
Y34021D01*
X94070D01*
Y34134D01*
X93957D01*
Y34247D01*
X94070D01*
Y34360D01*
X94183D01*
Y34247D01*
X94296D01*
Y34360D01*
X94183D01*
Y34473D01*
X94296D01*
Y34586D01*
X94409D01*
Y34698D01*
X94521D01*
Y34811D01*
X94409D01*
Y34924D01*
X94634D01*
Y35037D01*
Y35150D01*
X94747D01*
Y35263D01*
X94860D01*
Y35376D01*
X94973D01*
Y35489D01*
X94860D01*
Y35601D01*
X95199D01*
Y35714D01*
X95086D01*
Y35827D01*
X95199D01*
Y35940D01*
X95312D01*
Y36053D01*
X95424D01*
Y36166D01*
X95537D01*
Y36279D01*
X95650D01*
Y36391D01*
X95537D01*
Y36504D01*
X95763D01*
Y36617D01*
Y36730D01*
X95876D01*
Y36843D01*
X95989D01*
Y36956D01*
X96102D01*
Y37069D01*
X96214D01*
Y37181D01*
X96327D01*
Y37294D01*
X96214D01*
Y37407D01*
X96327D01*
Y37520D01*
X96440D01*
Y37407D01*
X96553D01*
Y37520D01*
X96440D01*
Y37633D01*
X96553D01*
Y37746D01*
X96666D01*
Y37859D01*
X96779D01*
Y37972D01*
X96666D01*
Y38084D01*
X96779D01*
Y37972D01*
X96892D01*
Y38084D01*
X97005D01*
Y38197D01*
X96892D01*
Y38310D01*
X97118D01*
Y38423D01*
Y38536D01*
X97230D01*
Y38649D01*
X97343D01*
Y38762D01*
X97456D01*
Y38875D01*
X97569D01*
Y38987D01*
X97682D01*
Y39100D01*
X97569D01*
Y39213D01*
X97908D01*
Y39326D01*
X97795D01*
Y39439D01*
X97908D01*
Y39552D01*
X98020D01*
Y39665D01*
X98133D01*
Y39777D01*
X98246D01*
Y39890D01*
X98359D01*
Y40003D01*
X98246D01*
Y40116D01*
X98585D01*
Y40229D01*
X98472D01*
Y40342D01*
X98698D01*
Y40455D01*
Y40567D01*
X98810D01*
Y40680D01*
X98923D01*
Y40793D01*
X99036D01*
Y40906D01*
X99149D01*
Y41019D01*
X99262D01*
Y41132D01*
X99375D01*
Y41245D01*
X99488D01*
Y41358D01*
X99601D01*
Y41471D01*
X99713D01*
Y41583D01*
Y41696D01*
X99939D01*
Y41809D01*
X99826D01*
Y41922D01*
X99939D01*
Y42035D01*
X100052D01*
Y41922D01*
D02*
G37*
G36*
X133799Y35263D02*
X133912D01*
Y35150D01*
X134251D01*
Y35037D01*
X134364D01*
Y34924D01*
X134702D01*
Y34811D01*
X134815D01*
Y34698D01*
X134928D01*
Y34586D01*
X135041D01*
Y34473D01*
X135154D01*
Y34360D01*
X135267D01*
Y34247D01*
X135380D01*
Y34134D01*
X135492D01*
Y34021D01*
X135605D01*
Y33908D01*
X135492D01*
Y33795D01*
X135605D01*
Y33683D01*
Y33570D01*
X135718D01*
Y33457D01*
Y33344D01*
X135831D01*
Y33231D01*
X135718D01*
Y33118D01*
X135831D01*
Y33005D01*
X135718D01*
Y32893D01*
X135605D01*
Y33005D01*
X135492D01*
Y32893D01*
X135380D01*
Y32780D01*
X135267D01*
Y32893D01*
X135154D01*
Y32780D01*
X134815D01*
Y32667D01*
X134477D01*
Y32554D01*
X133912D01*
Y32441D01*
X133574D01*
Y32328D01*
X133235D01*
Y32441D01*
Y32554D01*
Y32667D01*
X133122D01*
Y32780D01*
X133009D01*
Y32893D01*
X133122D01*
Y33005D01*
X132784D01*
Y33118D01*
X132671D01*
Y33231D01*
X132558D01*
Y33344D01*
X132445D01*
Y33231D01*
X132332D01*
Y33344D01*
X132219D01*
Y33457D01*
X132106D01*
Y33344D01*
X132219D01*
Y33231D01*
X132106D01*
Y33344D01*
X131993D01*
Y33231D01*
X131881D01*
Y33344D01*
X131768D01*
Y33231D01*
X131429D01*
Y33118D01*
X131542D01*
Y33005D01*
X131429D01*
Y33118D01*
X131316D01*
Y33005D01*
X131203D01*
Y32893D01*
X131091D01*
Y32780D01*
X130978D01*
Y32667D01*
X130865D01*
Y32554D01*
X130752D01*
Y32441D01*
X130639D01*
Y32328D01*
X130526D01*
Y32215D01*
X130639D01*
Y32103D01*
X130413D01*
Y31990D01*
Y31877D01*
X130300D01*
Y31764D01*
Y31651D01*
Y31538D01*
X130188D01*
Y31425D01*
X130075D01*
Y31312D01*
X130188D01*
Y31199D01*
X130075D01*
Y31087D01*
X129962D01*
Y30974D01*
X130075D01*
Y30861D01*
X129962D01*
Y30748D01*
X129849D01*
Y30635D01*
X129962D01*
Y30522D01*
X129849D01*
Y30409D01*
Y30297D01*
Y30184D01*
X129736D01*
Y30071D01*
X129623D01*
Y29958D01*
X129736D01*
Y29845D01*
X129623D01*
Y29732D01*
X129736D01*
Y29619D01*
X129623D01*
Y29506D01*
X129736D01*
Y29394D01*
X129623D01*
Y29281D01*
X129736D01*
Y29168D01*
X129623D01*
Y29055D01*
X129736D01*
Y28942D01*
X129623D01*
Y28829D01*
X129736D01*
Y28716D01*
X129623D01*
Y28604D01*
X129736D01*
Y28491D01*
X129849D01*
Y28378D01*
X129962D01*
Y28265D01*
X129849D01*
Y28378D01*
X129736D01*
Y28265D01*
X129849D01*
Y28152D01*
X129962D01*
Y28039D01*
X130075D01*
Y27926D01*
X130188D01*
Y27814D01*
X130300D01*
Y27701D01*
X130413D01*
Y27814D01*
X130300D01*
Y27926D01*
X130413D01*
Y27814D01*
X130526D01*
Y27701D01*
X131316D01*
Y27814D01*
X131203D01*
Y27926D01*
X131316D01*
Y27814D01*
X131429D01*
Y27926D01*
X131768D01*
Y28039D01*
X131881D01*
Y28152D01*
X131993D01*
Y28265D01*
X132106D01*
Y28378D01*
X132445D01*
Y28265D01*
X132558D01*
Y28152D01*
X132671D01*
Y28265D01*
X132558D01*
Y28378D01*
X132671D01*
Y28265D01*
X132784D01*
Y28152D01*
X132896D01*
Y28039D01*
X133009D01*
Y27926D01*
X133122D01*
Y28039D01*
X133235D01*
Y27926D01*
X133574D01*
Y27814D01*
X133686D01*
Y27701D01*
X134025D01*
Y27588D01*
X134138D01*
Y27475D01*
Y27362D01*
X134025D01*
Y27249D01*
X133912D01*
Y27136D01*
X133799D01*
Y27023D01*
Y26911D01*
X133461D01*
Y26798D01*
Y26685D01*
X133235D01*
Y26572D01*
X133122D01*
Y26459D01*
X133009D01*
Y26346D01*
X132896D01*
Y26459D01*
X132784D01*
Y26346D01*
X132896D01*
Y26233D01*
X132784D01*
Y26346D01*
X132671D01*
Y26233D01*
X132558D01*
Y26120D01*
X132445D01*
Y26008D01*
X132106D01*
Y25895D01*
X131993D01*
Y26008D01*
X131881D01*
Y25895D01*
X131993D01*
Y25782D01*
X131881D01*
Y25895D01*
X131768D01*
Y25782D01*
X131203D01*
Y25669D01*
X131091D01*
Y25782D01*
X130978D01*
Y25669D01*
X130865D01*
Y25782D01*
X130752D01*
Y25669D01*
X130865D01*
Y25556D01*
X130752D01*
Y25669D01*
X130639D01*
Y25556D01*
X130526D01*
Y25669D01*
X130413D01*
Y25556D01*
X130300D01*
Y25669D01*
X130188D01*
Y25556D01*
X130075D01*
Y25669D01*
X129962D01*
Y25556D01*
X129849D01*
Y25669D01*
X129510D01*
Y25782D01*
X129398D01*
Y25669D01*
X129510D01*
Y25556D01*
X129398D01*
Y25669D01*
X129285D01*
Y25782D01*
X128946D01*
Y25895D01*
X128833D01*
Y26008D01*
X128720D01*
Y25895D01*
X128833D01*
Y25782D01*
X128720D01*
Y25895D01*
X128607D01*
Y26008D01*
X128495D01*
Y26120D01*
X128382D01*
Y26233D01*
X128043D01*
Y26346D01*
X127930D01*
Y26459D01*
X127817D01*
Y26572D01*
X127705D01*
Y26685D01*
X127592D01*
Y26798D01*
Y26911D01*
Y27023D01*
X127479D01*
Y27136D01*
X127366D01*
Y27249D01*
X127253D01*
Y27362D01*
X127140D01*
Y27475D01*
X127253D01*
Y27588D01*
X127140D01*
Y27701D01*
X127253D01*
Y27814D01*
X127140D01*
Y27926D01*
Y28039D01*
Y28152D01*
X127027D01*
Y28265D01*
X127140D01*
Y28378D01*
X127027D01*
Y28491D01*
Y28604D01*
Y28716D01*
Y28829D01*
Y28942D01*
Y29055D01*
Y29168D01*
X127140D01*
Y29281D01*
X127027D01*
Y29394D01*
X127140D01*
Y29506D01*
Y29619D01*
Y29732D01*
Y29845D01*
Y29958D01*
X127253D01*
Y30071D01*
X127140D01*
Y30184D01*
X127253D01*
Y30297D01*
Y30409D01*
Y30522D01*
X127140D01*
Y30635D01*
X127253D01*
Y30522D01*
X127366D01*
Y30635D01*
Y30748D01*
Y30861D01*
X127479D01*
Y30974D01*
X127366D01*
Y31087D01*
X127479D01*
Y31199D01*
X127366D01*
Y31312D01*
X127479D01*
Y31425D01*
X127592D01*
Y31538D01*
X127705D01*
Y31651D01*
X127592D01*
Y31764D01*
X127705D01*
Y31877D01*
X127817D01*
Y31990D01*
X127930D01*
Y32103D01*
X127817D01*
Y32215D01*
X127930D01*
Y32328D01*
X128043D01*
Y32441D01*
X128156D01*
Y32554D01*
X128043D01*
Y32667D01*
X128156D01*
Y32780D01*
X128269D01*
Y32893D01*
X128382D01*
Y33005D01*
X128269D01*
Y33118D01*
X128495D01*
Y33231D01*
Y33344D01*
X128607D01*
Y33457D01*
X128720D01*
Y33570D01*
X128833D01*
Y33683D01*
X128946D01*
Y33795D01*
X129059D01*
Y33908D01*
X129172D01*
Y34021D01*
X129285D01*
Y34134D01*
X129398D01*
Y34247D01*
X129623D01*
Y34360D01*
Y34473D01*
X129962D01*
Y34586D01*
X130075D01*
Y34698D01*
X130188D01*
Y34811D01*
X130300D01*
Y34698D01*
X130413D01*
Y34811D01*
X130526D01*
Y34924D01*
X130639D01*
Y35037D01*
X130752D01*
Y34924D01*
X130865D01*
Y35037D01*
X130752D01*
Y35150D01*
X130865D01*
Y35037D01*
X130978D01*
Y35150D01*
X131542D01*
Y35263D01*
X131655D01*
Y35150D01*
X131768D01*
Y35263D01*
X131655D01*
Y35376D01*
X131768D01*
Y35263D01*
X131881D01*
Y35376D01*
X131993D01*
Y35263D01*
X132106D01*
Y35376D01*
X132219D01*
Y35263D01*
X132332D01*
Y35376D01*
X132671D01*
Y35263D01*
X132784D01*
Y35376D01*
X133122D01*
Y35263D01*
X133235D01*
Y35376D01*
X133348D01*
Y35263D01*
X133461D01*
Y35150D01*
X133574D01*
Y35263D01*
X133461D01*
Y35376D01*
X133574D01*
Y35263D01*
X133686D01*
Y35150D01*
X133799D01*
Y35263D01*
X133686D01*
Y35376D01*
X133799D01*
Y35263D01*
D02*
G37*
G36*
X120255D02*
X120368D01*
Y35150D01*
X120707D01*
Y35037D01*
X120820D01*
Y35150D01*
X120932D01*
Y35037D01*
X121045D01*
Y34924D01*
X121384D01*
Y34811D01*
X121497D01*
Y34698D01*
X121610D01*
Y34586D01*
X121723D01*
Y34473D01*
X121835D01*
Y34360D01*
X121948D01*
Y34247D01*
X122061D01*
Y34134D01*
X122174D01*
Y34021D01*
X122287D01*
Y33908D01*
X122400D01*
Y33795D01*
X122513D01*
Y33683D01*
X122400D01*
Y33570D01*
X122513D01*
Y33457D01*
X122626D01*
Y33344D01*
X122738D01*
Y33231D01*
X122626D01*
Y33118D01*
X122738D01*
Y33005D01*
X122626D01*
Y32893D01*
X122738D01*
Y32780D01*
Y32667D01*
Y32554D01*
Y32441D01*
Y32328D01*
X122851D01*
Y32215D01*
X122738D01*
Y32103D01*
Y31990D01*
Y31877D01*
X122851D01*
Y31764D01*
X122738D01*
Y31651D01*
X122626D01*
Y31538D01*
X122738D01*
Y31425D01*
Y31312D01*
Y31199D01*
X122626D01*
Y31087D01*
X122738D01*
Y30974D01*
X122626D01*
Y30861D01*
X122738D01*
Y30748D01*
X122626D01*
Y30635D01*
X122738D01*
Y30522D01*
X122626D01*
Y30635D01*
X122513D01*
Y30522D01*
X122626D01*
Y30409D01*
X122513D01*
Y30297D01*
X122400D01*
Y30184D01*
X122513D01*
Y30071D01*
X122400D01*
Y29958D01*
X122513D01*
Y29845D01*
X122400D01*
Y29732D01*
X122287D01*
Y29845D01*
X122174D01*
Y29732D01*
X122287D01*
Y29619D01*
Y29506D01*
Y29394D01*
X122174D01*
Y29281D01*
X122287D01*
Y29168D01*
X122174D01*
Y29055D01*
X122061D01*
Y28942D01*
X121948D01*
Y28829D01*
Y28716D01*
Y28604D01*
X121835D01*
Y28491D01*
X121723D01*
Y28378D01*
X121835D01*
Y28265D01*
X121723D01*
Y28378D01*
X121610D01*
Y28265D01*
X121497D01*
Y28152D01*
X121610D01*
Y28039D01*
X121497D01*
Y27926D01*
X121384D01*
Y27814D01*
X121271D01*
Y27701D01*
X121158D01*
Y27588D01*
X121045D01*
Y27475D01*
X120932D01*
Y27362D01*
X120820D01*
Y27249D01*
X120707D01*
Y27136D01*
X120594D01*
Y27023D01*
X120481D01*
Y26911D01*
X120368D01*
Y26798D01*
X120255D01*
Y26685D01*
X120142D01*
Y26572D01*
X120030D01*
Y26685D01*
X119917D01*
Y26572D01*
X120030D01*
Y26459D01*
X119691D01*
Y26346D01*
X119578D01*
Y26233D01*
X119239D01*
Y26120D01*
X119127D01*
Y26233D01*
X119014D01*
Y26120D01*
X119127D01*
Y26008D01*
X118788D01*
Y25895D01*
X118675D01*
Y26008D01*
X118562D01*
Y25895D01*
X118449D01*
Y25782D01*
X118336D01*
Y25895D01*
X118224D01*
Y25782D01*
X117885D01*
Y25669D01*
X117772D01*
Y25782D01*
X117659D01*
Y25669D01*
X117772D01*
Y25556D01*
X117659D01*
Y25669D01*
X117321D01*
Y25556D01*
X117208D01*
Y25669D01*
X117095D01*
Y25556D01*
X116982D01*
Y25669D01*
X116869D01*
Y25556D01*
X116756D01*
Y25669D01*
X116644D01*
Y25556D01*
X116531D01*
Y25669D01*
X116418D01*
Y25556D01*
X116305D01*
Y25669D01*
X115966D01*
Y25782D01*
X115854D01*
Y25669D01*
X115966D01*
Y25556D01*
X115854D01*
Y25669D01*
X115741D01*
Y25782D01*
X115176D01*
Y25895D01*
X115063D01*
Y26008D01*
X114725D01*
Y26120D01*
X114612D01*
Y26233D01*
X114273D01*
Y26346D01*
X114160D01*
Y26459D01*
X114048D01*
Y26572D01*
X113935D01*
Y26685D01*
X113822D01*
Y26798D01*
X113709D01*
Y26911D01*
X113596D01*
Y27023D01*
X113709D01*
Y27136D01*
X113596D01*
Y27249D01*
X113483D01*
Y27362D01*
X113370D01*
Y27475D01*
X113483D01*
Y27588D01*
X113370D01*
Y27701D01*
X113258D01*
Y27814D01*
X113145D01*
Y27926D01*
X113258D01*
Y28039D01*
X113145D01*
Y28152D01*
X113258D01*
Y28265D01*
X113145D01*
Y28378D01*
X113258D01*
Y28491D01*
X113145D01*
Y28604D01*
X113258D01*
Y28716D01*
X113145D01*
Y28829D01*
X113258D01*
Y28942D01*
X113145D01*
Y29055D01*
X113258D01*
Y29168D01*
X113145D01*
Y29281D01*
X113258D01*
Y29394D01*
X113145D01*
Y29506D01*
X113258D01*
Y29619D01*
X113145D01*
Y29732D01*
X113258D01*
Y29845D01*
Y29958D01*
Y30071D01*
X113145D01*
Y30184D01*
X113258D01*
Y30297D01*
X113370D01*
Y30409D01*
X113483D01*
Y30522D01*
X113370D01*
Y30635D01*
X113483D01*
Y30748D01*
X113370D01*
Y30861D01*
X113483D01*
Y30974D01*
X113596D01*
Y31087D01*
X113483D01*
Y31199D01*
X113596D01*
Y31087D01*
X113709D01*
Y31199D01*
X113596D01*
Y31312D01*
X113709D01*
Y31425D01*
X113596D01*
Y31538D01*
X113709D01*
Y31651D01*
X113822D01*
Y31764D01*
X113935D01*
Y31877D01*
X113822D01*
Y31990D01*
X113935D01*
Y32103D01*
X114048D01*
Y32215D01*
Y32328D01*
Y32441D01*
X114160D01*
Y32554D01*
X114273D01*
Y32667D01*
X114386D01*
Y32780D01*
Y32893D01*
Y33005D01*
X114499D01*
Y32893D01*
X114612D01*
Y33005D01*
X114499D01*
Y33118D01*
X114612D01*
Y33231D01*
X114725D01*
Y33344D01*
X114838D01*
Y33457D01*
X114951D01*
Y33570D01*
X115063D01*
Y33683D01*
X114951D01*
Y33795D01*
X115063D01*
Y33683D01*
X115176D01*
Y33795D01*
X115289D01*
Y33908D01*
X115402D01*
Y34021D01*
X115515D01*
Y34134D01*
X115628D01*
Y34247D01*
X115741D01*
Y34360D01*
X115854D01*
Y34247D01*
X115966D01*
Y34360D01*
Y34473D01*
X116192D01*
Y34586D01*
X116305D01*
Y34698D01*
X116644D01*
Y34811D01*
X116756D01*
Y34924D01*
X117095D01*
Y35037D01*
X117208D01*
Y35150D01*
X117321D01*
Y35037D01*
X117434D01*
Y35150D01*
X117772D01*
Y35263D01*
X117885D01*
Y35150D01*
X117998D01*
Y35263D01*
X118111D01*
Y35150D01*
X118224D01*
Y35263D01*
X118111D01*
Y35376D01*
X118224D01*
Y35263D01*
X118336D01*
Y35376D01*
X118449D01*
Y35263D01*
X118562D01*
Y35150D01*
X118675D01*
Y35263D01*
X118562D01*
Y35376D01*
X118675D01*
Y35263D01*
X118788D01*
Y35376D01*
X118901D01*
Y35263D01*
X119014D01*
Y35376D01*
X119127D01*
Y35263D01*
X119239D01*
Y35376D01*
X119578D01*
Y35263D01*
X119691D01*
Y35376D01*
X119804D01*
Y35263D01*
X119917D01*
Y35150D01*
X120030D01*
Y35263D01*
X119917D01*
Y35376D01*
X120030D01*
Y35263D01*
X120142D01*
Y35150D01*
X120255D01*
Y35263D01*
X120142D01*
Y35376D01*
X120255D01*
Y35263D01*
D02*
G37*
G36*
X173303Y35037D02*
X173190D01*
Y34924D01*
X173303D01*
Y34811D01*
X173190D01*
Y34698D01*
X173303D01*
Y34586D01*
X173190D01*
Y34698D01*
X173077D01*
Y34586D01*
X172964D01*
Y34473D01*
X173077D01*
Y34360D01*
X172964D01*
Y34247D01*
X173077D01*
Y34134D01*
X172964D01*
Y34021D01*
X173077D01*
Y33908D01*
X172964D01*
Y33795D01*
Y33683D01*
Y33570D01*
X172852D01*
Y33457D01*
X172739D01*
Y33344D01*
X172852D01*
Y33231D01*
X172739D01*
Y33118D01*
X172626D01*
Y33005D01*
X172513D01*
Y33118D01*
X172400D01*
Y33005D01*
X172287D01*
Y33118D01*
X172174D01*
Y33005D01*
X172061D01*
Y33118D01*
X171949D01*
Y33005D01*
X171836D01*
Y33118D01*
X171723D01*
Y33005D01*
X171610D01*
Y33118D01*
X171497D01*
Y33005D01*
X171384D01*
Y33118D01*
X171271D01*
Y33005D01*
X171159D01*
Y33118D01*
X171046D01*
Y33005D01*
X170933D01*
Y33118D01*
X170820D01*
Y33005D01*
X170707D01*
Y33118D01*
X170594D01*
Y33005D01*
X170481D01*
Y33118D01*
X170368D01*
Y33005D01*
X170255D01*
Y33118D01*
X170143D01*
Y33005D01*
X170030D01*
Y32893D01*
X170143D01*
Y32780D01*
X170030D01*
Y32667D01*
X169917D01*
Y32554D01*
Y32441D01*
Y32328D01*
X169804D01*
Y32215D01*
X169917D01*
Y32103D01*
X169804D01*
Y31990D01*
X169917D01*
Y31877D01*
X169804D01*
Y31764D01*
X169691D01*
Y31651D01*
X169578D01*
Y31538D01*
X169691D01*
Y31425D01*
X169578D01*
Y31312D01*
X169691D01*
Y31199D01*
X169578D01*
Y31087D01*
X169691D01*
Y30974D01*
X169578D01*
Y30861D01*
X169465D01*
Y30748D01*
X169578D01*
Y30635D01*
X169465D01*
Y30522D01*
X169353D01*
Y30409D01*
X169465D01*
Y30297D01*
X169353D01*
Y30184D01*
X169465D01*
Y30071D01*
X169353D01*
Y29958D01*
X169240D01*
Y29845D01*
X169127D01*
Y29732D01*
X169240D01*
Y29619D01*
X169127D01*
Y29506D01*
X169240D01*
Y29394D01*
X169127D01*
Y29281D01*
X169240D01*
Y29168D01*
X169127D01*
Y29055D01*
Y28942D01*
Y28829D01*
X169014D01*
Y28716D01*
X168901D01*
Y28604D01*
X169014D01*
Y28491D01*
X168901D01*
Y28378D01*
X169014D01*
Y28265D01*
X168901D01*
Y28152D01*
X168788D01*
Y28039D01*
X168901D01*
Y27926D01*
X168788D01*
Y27814D01*
Y27701D01*
Y27588D01*
X168675D01*
Y27475D01*
X168788D01*
Y27362D01*
X168675D01*
Y27249D01*
Y27136D01*
Y27023D01*
X168562D01*
Y26911D01*
Y26798D01*
Y26685D01*
X168450D01*
Y26572D01*
X168562D01*
Y26459D01*
X168450D01*
Y26346D01*
X168337D01*
Y26233D01*
Y26120D01*
Y26008D01*
Y25895D01*
Y25782D01*
X168224D01*
Y25895D01*
X168111D01*
Y25782D01*
X167998D01*
Y25895D01*
X167885D01*
Y25782D01*
X167772D01*
Y25895D01*
X167660D01*
Y25782D01*
X167547D01*
Y25895D01*
X167434D01*
Y25782D01*
X167321D01*
Y25895D01*
X167208D01*
Y25782D01*
X167095D01*
Y25895D01*
X166982D01*
Y25782D01*
X166869D01*
Y25895D01*
X166757D01*
Y25782D01*
X166644D01*
Y25895D01*
X166531D01*
Y25782D01*
X166418D01*
Y25895D01*
X166305D01*
Y25782D01*
X166192D01*
Y25895D01*
X166079D01*
Y25782D01*
X165967D01*
Y25895D01*
X165854D01*
Y26008D01*
X165741D01*
Y26120D01*
X165854D01*
Y26233D01*
X165741D01*
Y26346D01*
X165854D01*
Y26459D01*
X165967D01*
Y26572D01*
X165854D01*
Y26685D01*
X165967D01*
Y26798D01*
Y26911D01*
Y27023D01*
X166079D01*
Y27136D01*
X165967D01*
Y27249D01*
X166079D01*
Y27362D01*
X165967D01*
Y27475D01*
X166079D01*
Y27588D01*
X166192D01*
Y27701D01*
X166079D01*
Y27814D01*
X166192D01*
Y27701D01*
X166305D01*
Y27814D01*
X166192D01*
Y27926D01*
X166305D01*
Y28039D01*
X166192D01*
Y28152D01*
X166305D01*
Y28265D01*
Y28378D01*
Y28491D01*
X166418D01*
Y28604D01*
Y28716D01*
Y28829D01*
X166531D01*
Y28942D01*
X166418D01*
Y29055D01*
X166531D01*
Y29168D01*
X166418D01*
Y29281D01*
X166531D01*
Y29394D01*
X166644D01*
Y29506D01*
Y29619D01*
Y29732D01*
X166757D01*
Y29845D01*
X166644D01*
Y29958D01*
X166757D01*
Y30071D01*
Y30184D01*
Y30297D01*
X166869D01*
Y30409D01*
Y30522D01*
Y30635D01*
X166982D01*
Y30748D01*
X166869D01*
Y30861D01*
X166982D01*
Y30974D01*
X166869D01*
Y31087D01*
X166982D01*
Y31199D01*
X167095D01*
Y31312D01*
Y31425D01*
Y31538D01*
X167208D01*
Y31651D01*
X167095D01*
Y31764D01*
X167208D01*
Y31877D01*
Y31990D01*
Y32103D01*
X167321D01*
Y32215D01*
Y32328D01*
Y32441D01*
X167434D01*
Y32554D01*
X167321D01*
Y32667D01*
X167434D01*
Y32780D01*
X167321D01*
Y32893D01*
X167434D01*
Y33005D01*
X167321D01*
Y33118D01*
X167208D01*
Y33005D01*
X167095D01*
Y33118D01*
X166982D01*
Y33005D01*
X166869D01*
Y33118D01*
X166757D01*
Y33005D01*
X166644D01*
Y33118D01*
X166531D01*
Y33005D01*
X166418D01*
Y33118D01*
X166305D01*
Y33005D01*
X166192D01*
Y33118D01*
X166079D01*
Y33005D01*
X165967D01*
Y33118D01*
X165854D01*
Y33005D01*
X165741D01*
Y33118D01*
X165628D01*
Y33005D01*
X165515D01*
Y33118D01*
X165402D01*
Y33005D01*
X165289D01*
Y33118D01*
X165176D01*
Y33005D01*
X165064D01*
Y33118D01*
X164951D01*
Y33231D01*
X164838D01*
Y33344D01*
X164951D01*
Y33457D01*
X164838D01*
Y33570D01*
X164951D01*
Y33683D01*
X165064D01*
Y33795D01*
X164951D01*
Y33908D01*
X165064D01*
Y34021D01*
Y34134D01*
Y34247D01*
X165176D01*
Y34360D01*
Y34473D01*
Y34586D01*
X165064D01*
Y34698D01*
X165289D01*
Y34811D01*
Y34924D01*
X165402D01*
Y35037D01*
X165289D01*
Y35150D01*
X165402D01*
Y35037D01*
X165515D01*
Y35150D01*
X166305D01*
Y35037D01*
X166418D01*
Y35150D01*
X167208D01*
Y35037D01*
X167321D01*
Y35150D01*
X168111D01*
Y35037D01*
X168224D01*
Y35150D01*
X169014D01*
Y35037D01*
X169127D01*
Y35150D01*
X169917D01*
Y35037D01*
X170030D01*
Y35150D01*
X170820D01*
Y35037D01*
X170933D01*
Y35150D01*
X171723D01*
Y35037D01*
X171836D01*
Y35150D01*
X172626D01*
Y35037D01*
X172739D01*
Y35150D01*
X173303D01*
Y35037D01*
D02*
G37*
G36*
X160436D02*
X160549D01*
Y34924D01*
Y34811D01*
Y34698D01*
X160436D01*
Y34586D01*
X160323D01*
Y34473D01*
X160436D01*
Y34360D01*
X160323D01*
Y34247D01*
X160436D01*
Y34134D01*
X160323D01*
Y34021D01*
X160436D01*
Y33908D01*
X160323D01*
Y33795D01*
X160210D01*
Y33683D01*
X160323D01*
Y33570D01*
X160210D01*
Y33457D01*
X160098D01*
Y33344D01*
X160210D01*
Y33231D01*
X160098D01*
Y33118D01*
X159985D01*
Y33005D01*
X159872D01*
Y33118D01*
X159759D01*
Y33005D01*
X159646D01*
Y33118D01*
X159533D01*
Y33005D01*
X159420D01*
Y33118D01*
X159307D01*
Y33005D01*
X159195D01*
Y33118D01*
X159082D01*
Y33005D01*
X158969D01*
Y33118D01*
X158856D01*
Y33005D01*
X158743D01*
Y33118D01*
X158630D01*
Y33005D01*
X158517D01*
Y33118D01*
X158404D01*
Y33005D01*
X158292D01*
Y33118D01*
X158179D01*
Y33005D01*
X158066D01*
Y33118D01*
X157953D01*
Y33005D01*
X157840D01*
Y33118D01*
X157727D01*
Y33005D01*
X157614D01*
Y33118D01*
X157501D01*
Y33005D01*
X157389D01*
Y33118D01*
X157276D01*
Y33005D01*
X157163D01*
Y32893D01*
X157050D01*
Y32780D01*
X157163D01*
Y32667D01*
X157050D01*
Y32554D01*
X156937D01*
Y32441D01*
X157050D01*
Y32328D01*
X156937D01*
Y32215D01*
X157050D01*
Y32103D01*
X156937D01*
Y31990D01*
X157050D01*
Y31877D01*
X156937D01*
Y31990D01*
X156824D01*
Y31877D01*
X156937D01*
Y31764D01*
X156824D01*
Y31651D01*
X156711D01*
Y31538D01*
X156824D01*
Y31425D01*
X156937D01*
Y31538D01*
X157050D01*
Y31425D01*
X157163D01*
Y31312D01*
X157276D01*
Y31425D01*
X157163D01*
Y31538D01*
X157276D01*
Y31425D01*
X157389D01*
Y31538D01*
X157501D01*
Y31425D01*
X157614D01*
Y31312D01*
X157727D01*
Y31425D01*
X157614D01*
Y31538D01*
X157727D01*
Y31425D01*
X157840D01*
Y31538D01*
X157953D01*
Y31425D01*
X158066D01*
Y31312D01*
X158179D01*
Y31425D01*
X158066D01*
Y31538D01*
X158179D01*
Y31425D01*
X158292D01*
Y31538D01*
X158404D01*
Y31425D01*
X158517D01*
Y31312D01*
X158630D01*
Y31425D01*
X158517D01*
Y31538D01*
X158630D01*
Y31425D01*
X158743D01*
Y31538D01*
X158856D01*
Y31425D01*
X158969D01*
Y31312D01*
X159082D01*
Y31425D01*
X158969D01*
Y31538D01*
X159082D01*
Y31425D01*
X159195D01*
Y31538D01*
X159307D01*
Y31425D01*
X159420D01*
Y31312D01*
X159533D01*
Y31199D01*
Y31087D01*
Y30974D01*
X159420D01*
Y30861D01*
X159533D01*
Y30748D01*
X159420D01*
Y30635D01*
Y30522D01*
Y30409D01*
X159307D01*
Y30297D01*
X159195D01*
Y30184D01*
X159307D01*
Y30071D01*
X159195D01*
Y29958D01*
X159307D01*
Y29845D01*
X159195D01*
Y29732D01*
X159307D01*
Y29619D01*
X158969D01*
Y29506D01*
X159082D01*
Y29394D01*
X158969D01*
Y29506D01*
X158856D01*
Y29619D01*
X158743D01*
Y29506D01*
X158630D01*
Y29619D01*
X158517D01*
Y29506D01*
X158630D01*
Y29394D01*
X158517D01*
Y29506D01*
X158404D01*
Y29619D01*
X158292D01*
Y29506D01*
X158179D01*
Y29619D01*
X158066D01*
Y29506D01*
X157953D01*
Y29619D01*
X157840D01*
Y29506D01*
X157727D01*
Y29619D01*
X157614D01*
Y29506D01*
X157727D01*
Y29394D01*
X157614D01*
Y29506D01*
X157501D01*
Y29619D01*
X157389D01*
Y29506D01*
X157276D01*
Y29619D01*
X157163D01*
Y29506D01*
X157276D01*
Y29394D01*
X157163D01*
Y29506D01*
X157050D01*
Y29619D01*
X156937D01*
Y29506D01*
X156824D01*
Y29619D01*
X156711D01*
Y29506D01*
X156824D01*
Y29394D01*
X156711D01*
Y29506D01*
X156599D01*
Y29619D01*
X156486D01*
Y29506D01*
X156373D01*
Y29619D01*
X156260D01*
Y29506D01*
X156373D01*
Y29394D01*
X156260D01*
Y29281D01*
Y29168D01*
Y29055D01*
X156147D01*
Y28942D01*
X156034D01*
Y28829D01*
X156147D01*
Y28716D01*
X156034D01*
Y28604D01*
X156147D01*
Y28491D01*
X156034D01*
Y28378D01*
Y28265D01*
Y28152D01*
X155921D01*
Y28039D01*
Y27926D01*
Y27814D01*
X156034D01*
Y27926D01*
X156373D01*
Y27814D01*
X156486D01*
Y27926D01*
X156824D01*
Y27814D01*
X156937D01*
Y27926D01*
X157276D01*
Y27814D01*
X157389D01*
Y27926D01*
X157727D01*
Y27814D01*
X157840D01*
Y27926D01*
X158179D01*
Y27814D01*
X158292D01*
Y27926D01*
X158630D01*
Y27814D01*
X158743D01*
Y27701D01*
X158856D01*
Y27588D01*
X158743D01*
Y27475D01*
X158856D01*
Y27362D01*
X158743D01*
Y27475D01*
X158630D01*
Y27362D01*
Y27249D01*
Y27136D01*
X158517D01*
Y27023D01*
X158630D01*
Y26911D01*
X158517D01*
Y26798D01*
X158630D01*
Y26685D01*
X158517D01*
Y26572D01*
Y26459D01*
Y26346D01*
X158404D01*
Y26233D01*
X158292D01*
Y26120D01*
X158404D01*
Y26008D01*
X158292D01*
Y25895D01*
X158179D01*
Y25782D01*
X158066D01*
Y25895D01*
X157953D01*
Y25782D01*
X157840D01*
Y25895D01*
X157727D01*
Y25782D01*
X157614D01*
Y25895D01*
X157501D01*
Y25782D01*
X157389D01*
Y25895D01*
X157276D01*
Y25782D01*
X157163D01*
Y25895D01*
X157050D01*
Y25782D01*
X156937D01*
Y25895D01*
X156824D01*
Y25782D01*
X156711D01*
Y25895D01*
X156599D01*
Y25782D01*
X156486D01*
Y25895D01*
X156373D01*
Y25782D01*
X156260D01*
Y25895D01*
X156147D01*
Y25782D01*
X156034D01*
Y25895D01*
X155921D01*
Y25782D01*
X155808D01*
Y25895D01*
X155696D01*
Y25782D01*
X155583D01*
Y25895D01*
X155470D01*
Y25782D01*
X155357D01*
Y25895D01*
X155244D01*
Y25782D01*
X155131D01*
Y25895D01*
X155018D01*
Y25782D01*
X154906D01*
Y25895D01*
X154793D01*
Y25782D01*
X154680D01*
Y25895D01*
X154567D01*
Y25782D01*
X154454D01*
Y25895D01*
X154341D01*
Y25782D01*
X154228D01*
Y25895D01*
X154115D01*
Y25782D01*
X154003D01*
Y25895D01*
X153890D01*
Y25782D01*
X153777D01*
Y25895D01*
X153664D01*
Y25782D01*
X153551D01*
Y25895D01*
X153438D01*
Y25782D01*
X153325D01*
Y25895D01*
X153213D01*
Y25782D01*
X153100D01*
Y25895D01*
X152987D01*
Y25782D01*
X152874D01*
Y25895D01*
Y26008D01*
Y26120D01*
X152987D01*
Y26233D01*
X152874D01*
Y26346D01*
X152987D01*
Y26459D01*
X152874D01*
Y26572D01*
X152987D01*
Y26685D01*
X153100D01*
Y26798D01*
X152987D01*
Y26911D01*
X153100D01*
Y27023D01*
X153213D01*
Y27136D01*
X153100D01*
Y27249D01*
X153213D01*
Y27362D01*
X153100D01*
Y27475D01*
X153213D01*
Y27588D01*
X153100D01*
Y27701D01*
X153213D01*
Y27814D01*
X153325D01*
Y27926D01*
X153438D01*
Y28039D01*
X153325D01*
Y28152D01*
X153438D01*
Y28265D01*
X153325D01*
Y28378D01*
X153438D01*
Y28491D01*
X153551D01*
Y28604D01*
X153438D01*
Y28716D01*
X153551D01*
Y28829D01*
X153664D01*
Y28942D01*
X153551D01*
Y29055D01*
X153664D01*
Y29168D01*
X153551D01*
Y29281D01*
X153664D01*
Y29394D01*
Y29506D01*
Y29619D01*
X153777D01*
Y29732D01*
X153890D01*
Y29845D01*
X153777D01*
Y29958D01*
X153890D01*
Y30071D01*
X153777D01*
Y30184D01*
X153890D01*
Y30297D01*
Y30409D01*
Y30522D01*
X154003D01*
Y30635D01*
Y30748D01*
Y30861D01*
X154115D01*
Y30974D01*
X154003D01*
Y31087D01*
X154115D01*
Y31199D01*
Y31312D01*
Y31425D01*
X154228D01*
Y31538D01*
Y31651D01*
Y31764D01*
X154341D01*
Y31877D01*
X154228D01*
Y31990D01*
X154341D01*
Y32103D01*
Y32215D01*
Y32328D01*
X154454D01*
Y32441D01*
Y32554D01*
Y32667D01*
X154567D01*
Y32780D01*
X154454D01*
Y32893D01*
X154567D01*
Y33005D01*
X154454D01*
Y33118D01*
X154567D01*
Y33231D01*
X154680D01*
Y33344D01*
X154793D01*
Y33457D01*
X154680D01*
Y33570D01*
X154793D01*
Y33683D01*
X154680D01*
Y33795D01*
X154793D01*
Y33908D01*
Y34021D01*
Y34134D01*
X154680D01*
Y34247D01*
X154793D01*
Y34134D01*
X154906D01*
Y34247D01*
Y34360D01*
Y34473D01*
X155018D01*
Y34586D01*
X154906D01*
Y34698D01*
X155018D01*
Y34811D01*
X154906D01*
Y34924D01*
X155018D01*
Y35037D01*
X155131D01*
Y35150D01*
X155470D01*
Y35037D01*
X155583D01*
Y35150D01*
X156373D01*
Y35037D01*
X156486D01*
Y35150D01*
X157276D01*
Y35037D01*
X157389D01*
Y35150D01*
X158179D01*
Y35037D01*
X158292D01*
Y35150D01*
X159082D01*
Y35037D01*
X159195D01*
Y35150D01*
X159985D01*
Y35037D01*
X160098D01*
Y35150D01*
X160436D01*
Y35037D01*
D02*
G37*
G36*
X150504D02*
X150391D01*
Y34924D01*
X150278D01*
Y34811D01*
X149939D01*
Y34698D01*
X150052D01*
Y34586D01*
X149714D01*
Y34473D01*
X149601D01*
Y34360D01*
X149488D01*
Y34247D01*
X149375D01*
Y34134D01*
X149262D01*
Y34021D01*
X149149D01*
Y33908D01*
X149037D01*
Y33795D01*
X148924D01*
Y33908D01*
X148811D01*
Y33795D01*
X148924D01*
Y33683D01*
X148811D01*
Y33570D01*
X148698D01*
Y33683D01*
X148585D01*
Y33570D01*
X148698D01*
Y33457D01*
X148359D01*
Y33344D01*
X148472D01*
Y33231D01*
X148359D01*
Y33344D01*
X148246D01*
Y33231D01*
X148134D01*
Y33118D01*
X148021D01*
Y33005D01*
X147908D01*
Y32893D01*
X148021D01*
Y32780D01*
X147908D01*
Y32893D01*
X147795D01*
Y32780D01*
X147682D01*
Y32667D01*
X147569D01*
Y32554D01*
X147456D01*
Y32441D01*
X147344D01*
Y32328D01*
X147231D01*
Y32215D01*
X147118D01*
Y32103D01*
X146779D01*
Y31990D01*
Y31877D01*
X146553D01*
Y31764D01*
X146440D01*
Y31651D01*
X146328D01*
Y31538D01*
X146215D01*
Y31425D01*
X146102D01*
Y31312D01*
X145989D01*
Y31199D01*
X145876D01*
Y31087D01*
X145763D01*
Y31199D01*
X145650D01*
Y31087D01*
X145763D01*
Y30974D01*
X145425D01*
Y30861D01*
X145538D01*
Y30748D01*
X145199D01*
Y30635D01*
X145312D01*
Y30522D01*
X145199D01*
Y30635D01*
X145086D01*
Y30522D01*
X144973D01*
Y30409D01*
X145086D01*
Y30297D01*
X145199D01*
Y30184D01*
X145312D01*
Y30071D01*
X145425D01*
Y29958D01*
X145538D01*
Y29845D01*
X145425D01*
Y29732D01*
X145538D01*
Y29619D01*
X145650D01*
Y29506D01*
X145763D01*
Y29394D01*
X145876D01*
Y29281D01*
X145989D01*
Y29168D01*
X145876D01*
Y29055D01*
X145989D01*
Y28942D01*
X146102D01*
Y28829D01*
X146215D01*
Y28716D01*
X146328D01*
Y28604D01*
X146440D01*
Y28491D01*
X146328D01*
Y28378D01*
X146440D01*
Y28265D01*
X146553D01*
Y28152D01*
X146666D01*
Y28039D01*
X146779D01*
Y27926D01*
X146892D01*
Y27814D01*
X146779D01*
Y27701D01*
X147005D01*
Y27588D01*
Y27475D01*
X147118D01*
Y27362D01*
X147231D01*
Y27249D01*
X147344D01*
Y27136D01*
Y27023D01*
X147569D01*
Y26911D01*
X147456D01*
Y26798D01*
X147569D01*
Y26685D01*
X147682D01*
Y26572D01*
X147795D01*
Y26459D01*
X147682D01*
Y26346D01*
X147908D01*
Y26233D01*
Y26120D01*
X148021D01*
Y26008D01*
X148134D01*
Y25895D01*
X148021D01*
Y25782D01*
X147908D01*
Y25895D01*
X147795D01*
Y25782D01*
X147682D01*
Y25895D01*
X147569D01*
Y25782D01*
X147456D01*
Y25895D01*
X147344D01*
Y25782D01*
X147231D01*
Y25895D01*
X147118D01*
Y25782D01*
X147005D01*
Y25895D01*
X146892D01*
Y25782D01*
X146779D01*
Y25895D01*
X146666D01*
Y25782D01*
X146553D01*
Y25895D01*
X146440D01*
Y25782D01*
X146328D01*
Y25895D01*
X146215D01*
Y25782D01*
X146102D01*
Y25895D01*
X145989D01*
Y25782D01*
X145876D01*
Y25895D01*
X145763D01*
Y25782D01*
X145650D01*
Y25895D01*
X145538D01*
Y25782D01*
X145425D01*
Y25895D01*
X145312D01*
Y25782D01*
X145199D01*
Y25895D01*
X145086D01*
Y26008D01*
X144973D01*
Y26120D01*
X144860D01*
Y26233D01*
X144747D01*
Y26346D01*
X144635D01*
Y26459D01*
X144522D01*
Y26572D01*
X144635D01*
Y26685D01*
X144522D01*
Y26798D01*
X144409D01*
Y26911D01*
X144296D01*
Y27023D01*
X144183D01*
Y27136D01*
X144070D01*
Y27249D01*
X144183D01*
Y27362D01*
X144070D01*
Y27475D01*
X143957D01*
Y27588D01*
X143845D01*
Y27701D01*
X143732D01*
Y27814D01*
X143619D01*
Y27926D01*
X143732D01*
Y28039D01*
X143619D01*
Y28152D01*
X143506D01*
Y28265D01*
X143393D01*
Y28378D01*
X143280D01*
Y28491D01*
X143167D01*
Y28604D01*
Y28716D01*
X142942D01*
Y28829D01*
X143054D01*
Y28942D01*
X142942D01*
Y29055D01*
X142829D01*
Y29168D01*
X142716D01*
Y29281D01*
X142829D01*
Y29394D01*
X142716D01*
Y29506D01*
X142603D01*
Y29394D01*
X142490D01*
Y29281D01*
X142603D01*
Y29168D01*
X142490D01*
Y29281D01*
X142377D01*
Y29168D01*
X142264D01*
Y29055D01*
X142377D01*
Y28942D01*
X142264D01*
Y28829D01*
X142377D01*
Y28716D01*
X142264D01*
Y28604D01*
X142377D01*
Y28491D01*
X142264D01*
Y28378D01*
X142151D01*
Y28265D01*
X142264D01*
Y28152D01*
X142151D01*
Y28039D01*
X142039D01*
Y27926D01*
X142151D01*
Y27814D01*
X142039D01*
Y27701D01*
X142151D01*
Y27588D01*
X142039D01*
Y27475D01*
X141926D01*
Y27362D01*
X142039D01*
Y27249D01*
X141926D01*
Y27362D01*
X141813D01*
Y27249D01*
X141926D01*
Y27136D01*
X141813D01*
Y27023D01*
X141926D01*
Y26911D01*
X141813D01*
Y26798D01*
X141926D01*
Y26685D01*
X141813D01*
Y26572D01*
Y26459D01*
Y26346D01*
X141700D01*
Y26233D01*
X141587D01*
Y26120D01*
X141700D01*
Y26008D01*
X141587D01*
Y25895D01*
X141474D01*
Y25782D01*
X141361D01*
Y25895D01*
X141249D01*
Y25782D01*
X141136D01*
Y25895D01*
X141023D01*
Y25782D01*
X140910D01*
Y25895D01*
X140797D01*
Y25782D01*
X140684D01*
Y25895D01*
X140571D01*
Y25782D01*
X140459D01*
Y25895D01*
X140346D01*
Y25782D01*
X140233D01*
Y25895D01*
X140120D01*
Y25782D01*
X140007D01*
Y25895D01*
X139894D01*
Y25782D01*
X139781D01*
Y25895D01*
X139669D01*
Y25782D01*
X139556D01*
Y25895D01*
X139443D01*
Y25782D01*
X139330D01*
Y25895D01*
X139217D01*
Y25782D01*
X139104D01*
Y25895D01*
X138991D01*
Y26008D01*
X139104D01*
Y26120D01*
Y26233D01*
Y26346D01*
X139217D01*
Y26459D01*
X139104D01*
Y26572D01*
X139217D01*
Y26685D01*
X139104D01*
Y26798D01*
X139217D01*
Y26911D01*
X139330D01*
Y27023D01*
X139443D01*
Y27136D01*
X139330D01*
Y27249D01*
X139443D01*
Y27362D01*
X139330D01*
Y27475D01*
X139443D01*
Y27588D01*
Y27701D01*
Y27814D01*
X139556D01*
Y27926D01*
Y28039D01*
Y28152D01*
X139669D01*
Y28265D01*
X139556D01*
Y28378D01*
X139669D01*
Y28491D01*
Y28604D01*
Y28716D01*
X139781D01*
Y28829D01*
Y28942D01*
Y29055D01*
X139894D01*
Y29168D01*
X139781D01*
Y29281D01*
X139894D01*
Y29394D01*
Y29506D01*
Y29619D01*
X140007D01*
Y29732D01*
Y29845D01*
Y29958D01*
X140120D01*
Y30071D01*
X140007D01*
Y30184D01*
X140120D01*
Y30297D01*
X140007D01*
Y30409D01*
X140120D01*
Y30522D01*
X140233D01*
Y30635D01*
X140346D01*
Y30748D01*
X140233D01*
Y30861D01*
X140346D01*
Y30974D01*
X140233D01*
Y31087D01*
X140346D01*
Y31199D01*
X140233D01*
Y31312D01*
X140346D01*
Y31425D01*
X140233D01*
Y31538D01*
X140346D01*
Y31425D01*
X140459D01*
Y31538D01*
Y31651D01*
Y31764D01*
X140571D01*
Y31877D01*
X140459D01*
Y31990D01*
X140571D01*
Y32103D01*
X140459D01*
Y32215D01*
X140571D01*
Y32328D01*
X140684D01*
Y32441D01*
X140571D01*
Y32554D01*
X140684D01*
Y32441D01*
X140797D01*
Y32554D01*
X140684D01*
Y32667D01*
X140797D01*
Y32780D01*
X140684D01*
Y32893D01*
X140797D01*
Y33005D01*
X140684D01*
Y33118D01*
X140797D01*
Y33231D01*
Y33344D01*
X140910D01*
Y33457D01*
Y33570D01*
X141023D01*
Y33683D01*
X140910D01*
Y33795D01*
X141023D01*
Y33908D01*
X140910D01*
Y34021D01*
X141023D01*
Y34134D01*
X141136D01*
Y34247D01*
X141023D01*
Y34360D01*
X141136D01*
Y34247D01*
X141249D01*
Y34360D01*
X141136D01*
Y34473D01*
Y34586D01*
Y34698D01*
X141249D01*
Y34811D01*
X141136D01*
Y34924D01*
X141249D01*
Y35037D01*
X141361D01*
Y35150D01*
X141926D01*
Y35037D01*
X142039D01*
Y35150D01*
X142829D01*
Y35037D01*
X142942D01*
Y35150D01*
X143732D01*
Y35037D01*
X143845D01*
Y34924D01*
Y34811D01*
Y34698D01*
X143732D01*
Y34586D01*
X143619D01*
Y34473D01*
X143732D01*
Y34360D01*
X143619D01*
Y34247D01*
X143732D01*
Y34134D01*
X143619D01*
Y34021D01*
Y33908D01*
Y33795D01*
X143506D01*
Y33683D01*
Y33570D01*
Y33457D01*
X143393D01*
Y33344D01*
X143506D01*
Y33231D01*
X143393D01*
Y33118D01*
Y33005D01*
Y32893D01*
X143280D01*
Y32780D01*
Y32667D01*
Y32554D01*
X143167D01*
Y32441D01*
X143280D01*
Y32328D01*
X143167D01*
Y32215D01*
Y32103D01*
Y31990D01*
X143054D01*
Y31877D01*
Y31764D01*
Y31651D01*
X142942D01*
Y31538D01*
X143280D01*
Y31651D01*
X143393D01*
Y31764D01*
X143506D01*
Y31877D01*
X143393D01*
Y31990D01*
X143506D01*
Y31877D01*
X143619D01*
Y31990D01*
X143732D01*
Y32103D01*
X143845D01*
Y32215D01*
X143957D01*
Y32328D01*
X144070D01*
Y32441D01*
X144409D01*
Y32554D01*
X144296D01*
Y32667D01*
X144635D01*
Y32780D01*
X144747D01*
Y32893D01*
X144860D01*
Y33005D01*
X144973D01*
Y33118D01*
X145086D01*
Y33231D01*
X145199D01*
Y33344D01*
X145312D01*
Y33457D01*
X145425D01*
Y33570D01*
X145538D01*
Y33683D01*
X145650D01*
Y33795D01*
X145989D01*
Y33908D01*
X145876D01*
Y34021D01*
X146215D01*
Y34134D01*
X146102D01*
Y34247D01*
X146215D01*
Y34134D01*
X146328D01*
Y34247D01*
X146440D01*
Y34360D01*
X146553D01*
Y34473D01*
X146666D01*
Y34586D01*
X146779D01*
Y34698D01*
X146892D01*
Y34811D01*
X147005D01*
Y34698D01*
X147118D01*
Y34811D01*
X147005D01*
Y34924D01*
X147118D01*
Y35037D01*
X147231D01*
Y34924D01*
X147344D01*
Y35037D01*
X147231D01*
Y35150D01*
X147344D01*
Y35037D01*
X147456D01*
Y35150D01*
X148246D01*
Y35037D01*
X148359D01*
Y35150D01*
X149149D01*
Y35037D01*
X149262D01*
Y35150D01*
X150052D01*
Y35037D01*
X150165D01*
Y35150D01*
X150504D01*
Y35037D01*
D02*
G37*
G36*
X106937D02*
X107050D01*
Y34924D01*
X107163D01*
Y35037D01*
X107275D01*
Y34924D01*
X107614D01*
Y34811D01*
X107727D01*
Y34698D01*
X108066D01*
Y34586D01*
X108178D01*
Y34473D01*
X108291D01*
Y34360D01*
X108404D01*
Y34247D01*
X108517D01*
Y34134D01*
X108630D01*
Y34021D01*
X108743D01*
Y33908D01*
Y33795D01*
X108856D01*
Y33683D01*
Y33570D01*
X108969D01*
Y33457D01*
X109081D01*
Y33344D01*
Y33231D01*
Y33118D01*
Y33005D01*
Y32893D01*
X109194D01*
Y32780D01*
X109081D01*
Y32667D01*
X109194D01*
Y32554D01*
X109081D01*
Y32441D01*
X109194D01*
Y32328D01*
X109081D01*
Y32215D01*
Y32103D01*
Y31990D01*
Y31877D01*
Y31764D01*
X108969D01*
Y31651D01*
Y31538D01*
Y31425D01*
X108856D01*
Y31312D01*
Y31199D01*
X108743D01*
Y31087D01*
Y30974D01*
X108630D01*
Y30861D01*
Y30748D01*
X108517D01*
Y30635D01*
Y30522D01*
X108404D01*
Y30409D01*
X108291D01*
Y30297D01*
X108178D01*
Y30184D01*
X108291D01*
Y30071D01*
X108178D01*
Y30184D01*
X108066D01*
Y30071D01*
X107953D01*
Y29958D01*
X107840D01*
Y29845D01*
X107727D01*
Y29732D01*
X107840D01*
Y29619D01*
X107727D01*
Y29732D01*
X107614D01*
Y29619D01*
X107501D01*
Y29506D01*
X107388D01*
Y29394D01*
X107050D01*
Y29281D01*
X106937D01*
Y29168D01*
X106598D01*
Y29055D01*
X106260D01*
Y28942D01*
X106147D01*
Y28829D01*
X106260D01*
Y28716D01*
X106147D01*
Y28604D01*
X106260D01*
Y28491D01*
X106373D01*
Y28378D01*
X106485D01*
Y28265D01*
X106373D01*
Y28152D01*
X106485D01*
Y28039D01*
X106373D01*
Y27926D01*
X106598D01*
Y27814D01*
Y27701D01*
X106711D01*
Y27588D01*
Y27475D01*
X106824D01*
Y27362D01*
Y27249D01*
X106937D01*
Y27136D01*
X106824D01*
Y27023D01*
X107050D01*
Y26911D01*
Y26798D01*
X107163D01*
Y26685D01*
Y26572D01*
Y26459D01*
X107275D01*
Y26346D01*
X107388D01*
Y26233D01*
X107275D01*
Y26120D01*
X107388D01*
Y26008D01*
X107501D01*
Y25895D01*
X107388D01*
Y25782D01*
X107275D01*
Y25895D01*
X107163D01*
Y25782D01*
X107050D01*
Y25895D01*
X106937D01*
Y25782D01*
X106824D01*
Y25895D01*
X106711D01*
Y25782D01*
X106598D01*
Y25895D01*
X106485D01*
Y25782D01*
X106373D01*
Y25895D01*
X106260D01*
Y25782D01*
X106147D01*
Y25895D01*
X106034D01*
Y25782D01*
X105921D01*
Y25895D01*
X105808D01*
Y25782D01*
X105695D01*
Y25895D01*
X105582D01*
Y25782D01*
X105470D01*
Y25895D01*
X105357D01*
Y25782D01*
X105244D01*
Y25895D01*
X105131D01*
Y25782D01*
X105018D01*
Y25895D01*
X104905D01*
Y26008D01*
X104792D01*
Y25895D01*
X104905D01*
Y25782D01*
X104792D01*
Y25895D01*
X104680D01*
Y26008D01*
X104567D01*
Y26120D01*
X104680D01*
Y26233D01*
X104567D01*
Y26346D01*
Y26459D01*
Y26572D01*
X104454D01*
Y26685D01*
X104341D01*
Y26798D01*
X104454D01*
Y26911D01*
X104341D01*
Y27023D01*
X104228D01*
Y27136D01*
X104115D01*
Y27249D01*
X104228D01*
Y27362D01*
X104115D01*
Y27475D01*
X104002D01*
Y27588D01*
X103890D01*
Y27701D01*
X104002D01*
Y27814D01*
X103890D01*
Y27926D01*
Y28039D01*
Y28152D01*
X103777D01*
Y28265D01*
X103664D01*
Y28378D01*
X103777D01*
Y28491D01*
X103438D01*
Y28378D01*
X103325D01*
Y28265D01*
Y28152D01*
Y28039D01*
X103212D01*
Y27926D01*
X103325D01*
Y27814D01*
X103212D01*
Y27701D01*
Y27588D01*
Y27475D01*
X103100D01*
Y27362D01*
Y27249D01*
Y27136D01*
X102987D01*
Y27023D01*
X103100D01*
Y26911D01*
X102987D01*
Y26798D01*
X103100D01*
Y26685D01*
X102987D01*
Y26572D01*
X102874D01*
Y26459D01*
X102987D01*
Y26346D01*
X102874D01*
Y26233D01*
X102761D01*
Y26120D01*
X102874D01*
Y26008D01*
X102761D01*
Y25895D01*
X102648D01*
Y25782D01*
X102535D01*
Y25895D01*
X102422D01*
Y25782D01*
X102309D01*
Y25895D01*
X102197D01*
Y25782D01*
X102084D01*
Y25895D01*
X101971D01*
Y25782D01*
X101858D01*
Y25895D01*
X101745D01*
Y25782D01*
X101632D01*
Y25895D01*
X101519D01*
Y25782D01*
X101406D01*
Y25895D01*
X101294D01*
Y25782D01*
X101181D01*
Y25895D01*
X101068D01*
Y25782D01*
X100955D01*
Y25895D01*
X100842D01*
Y25782D01*
X100729D01*
Y25895D01*
X100616D01*
Y25782D01*
X100504D01*
Y25895D01*
X100391D01*
Y25782D01*
X100278D01*
Y25895D01*
X100165D01*
Y26008D01*
X100278D01*
Y26120D01*
Y26233D01*
Y26346D01*
X100391D01*
Y26459D01*
X100278D01*
Y26572D01*
X100391D01*
Y26685D01*
X100278D01*
Y26798D01*
X100391D01*
Y26911D01*
X100504D01*
Y27023D01*
X100616D01*
Y27136D01*
X100504D01*
Y27249D01*
X100616D01*
Y27362D01*
X100504D01*
Y27475D01*
X100616D01*
Y27588D01*
Y27701D01*
Y27814D01*
X100504D01*
Y27926D01*
X100616D01*
Y27814D01*
X100729D01*
Y27926D01*
X100842D01*
Y28039D01*
X100729D01*
Y28152D01*
X100842D01*
Y28265D01*
X100729D01*
Y28378D01*
X100842D01*
Y28491D01*
X100729D01*
Y28604D01*
X100842D01*
Y28716D01*
X100955D01*
Y28829D01*
X101068D01*
Y28942D01*
X100955D01*
Y29055D01*
X101068D01*
Y29168D01*
X100955D01*
Y29281D01*
X101068D01*
Y29394D01*
Y29506D01*
Y29619D01*
Y29732D01*
X101181D01*
Y29845D01*
Y29958D01*
X101294D01*
Y30071D01*
X101181D01*
Y30184D01*
X101294D01*
Y30297D01*
X101181D01*
Y30409D01*
X101294D01*
Y30522D01*
X101406D01*
Y30635D01*
X101519D01*
Y30748D01*
X101406D01*
Y30861D01*
X101519D01*
Y30974D01*
X101406D01*
Y31087D01*
X101519D01*
Y31199D01*
Y31312D01*
Y31425D01*
Y31538D01*
X101632D01*
Y31651D01*
Y31764D01*
X101745D01*
Y31877D01*
X101632D01*
Y31990D01*
X101745D01*
Y32103D01*
X101632D01*
Y32215D01*
X101745D01*
Y32328D01*
X101858D01*
Y32441D01*
Y32554D01*
Y32667D01*
X101971D01*
Y32780D01*
X101858D01*
Y32893D01*
X101971D01*
Y33005D01*
Y33118D01*
Y33231D01*
X101858D01*
Y33344D01*
X101971D01*
Y33231D01*
X102084D01*
Y33344D01*
Y33457D01*
Y33570D01*
X102197D01*
Y33683D01*
X102084D01*
Y33795D01*
X102197D01*
Y33908D01*
X102084D01*
Y34021D01*
X102197D01*
Y34134D01*
X102309D01*
Y34247D01*
X102197D01*
Y34360D01*
X102309D01*
Y34247D01*
X102422D01*
Y34360D01*
X102309D01*
Y34473D01*
X102422D01*
Y34586D01*
X102309D01*
Y34698D01*
X102422D01*
Y34811D01*
X102309D01*
Y34924D01*
X102422D01*
Y35037D01*
X102309D01*
Y35150D01*
X102422D01*
Y35037D01*
X102535D01*
Y35150D01*
X103100D01*
Y35037D01*
X103212D01*
Y35150D01*
X104002D01*
Y35037D01*
X104115D01*
Y35150D01*
X104905D01*
Y35037D01*
X105018D01*
Y35150D01*
X105808D01*
Y35037D01*
X105921D01*
Y35150D01*
X106260D01*
Y35037D01*
X106373D01*
Y35150D01*
X106711D01*
Y35037D01*
X106824D01*
Y35150D01*
X106937D01*
Y35037D01*
D02*
G37*
G36*
X159533Y31425D02*
X159646D01*
Y31312D01*
X159533D01*
Y31425D01*
X159420D01*
Y31538D01*
X159533D01*
Y31425D01*
D02*
G37*
G36*
X85718Y30522D02*
X85831D01*
Y30409D01*
X85718D01*
Y30522D01*
X85605D01*
Y30635D01*
X85718D01*
Y30522D01*
D02*
G37*
G36*
X85492D02*
X85605D01*
Y30409D01*
X85492D01*
Y30522D01*
X85379D01*
Y30635D01*
X85492D01*
Y30522D01*
D02*
G37*
G36*
X85266D02*
X85379D01*
Y30409D01*
X85266D01*
Y30522D01*
X85154D01*
Y30635D01*
X85266D01*
Y30522D01*
D02*
G37*
G36*
X84815D02*
X84928D01*
Y30409D01*
X84589D01*
Y30522D01*
X84702D01*
Y30635D01*
X84815D01*
Y30522D01*
D02*
G37*
G36*
X84364D02*
X84476D01*
Y30409D01*
X84589D01*
Y30297D01*
X84476D01*
Y30409D01*
X84364D01*
Y30522D01*
X84251D01*
Y30635D01*
X84364D01*
Y30522D01*
D02*
G37*
G36*
X90458Y30071D02*
X90345D01*
Y29958D01*
X90233D01*
Y30071D01*
X90120D01*
Y30184D01*
X90458D01*
Y30071D01*
D02*
G37*
G36*
X83460Y29845D02*
X83573D01*
Y29732D01*
X83686D01*
Y29619D01*
X83573D01*
Y29732D01*
X83460D01*
Y29845D01*
X83348D01*
Y29958D01*
X83460D01*
Y29845D01*
D02*
G37*
G36*
X83235D02*
X83348D01*
Y29732D01*
X83460D01*
Y29619D01*
X83348D01*
Y29732D01*
X83235D01*
Y29845D01*
X83122D01*
Y29958D01*
X83235D01*
Y29845D01*
D02*
G37*
G36*
X87637Y26572D02*
X87749D01*
Y26459D01*
X87411D01*
Y26346D01*
X87298D01*
Y26459D01*
X87185D01*
Y26572D01*
X87524D01*
Y26685D01*
X87637D01*
Y26572D01*
D02*
G37*
G36*
X87185Y26346D02*
X87298D01*
Y26233D01*
X86959D01*
Y26346D01*
X87072D01*
Y26459D01*
X87185D01*
Y26346D01*
D02*
G37*
G36*
X86959Y26120D02*
X87072D01*
Y26008D01*
X86959D01*
Y26120D01*
X86847D01*
Y26233D01*
X86959D01*
Y26120D01*
D02*
G37*
G36*
X86847Y26008D02*
X86734D01*
Y25895D01*
X86621D01*
Y26008D01*
X86508D01*
Y26120D01*
X86847D01*
Y26008D01*
D02*
G37*
G36*
X90120Y25443D02*
X90233D01*
Y25330D01*
X90120D01*
Y25443D01*
X90007D01*
Y25556D01*
X90120D01*
Y25443D01*
D02*
G37*
G36*
X94973Y23750D02*
X95086D01*
Y23637D01*
X95199D01*
Y23525D01*
X95086D01*
Y23637D01*
X94973D01*
Y23750D01*
X94860D01*
Y23863D01*
X94973D01*
Y23750D01*
D02*
G37*
G36*
X95199Y24879D02*
X95312D01*
Y24766D01*
X95424D01*
Y24653D01*
X95312D01*
Y24540D01*
X95424D01*
Y24428D01*
X95537D01*
Y24315D01*
X95650D01*
Y24202D01*
X95537D01*
Y24089D01*
X95650D01*
Y23976D01*
X95763D01*
Y23863D01*
X95876D01*
Y23750D01*
X95763D01*
Y23637D01*
X95876D01*
Y23525D01*
X95989D01*
Y23412D01*
X96102D01*
Y23299D01*
Y23186D01*
Y23073D01*
X96214D01*
Y22960D01*
X96327D01*
Y22847D01*
X96214D01*
Y22735D01*
X96327D01*
Y22622D01*
X96440D01*
Y22509D01*
X96553D01*
Y22396D01*
Y22283D01*
Y22170D01*
X96666D01*
Y22057D01*
X96779D01*
Y21944D01*
X96666D01*
Y21832D01*
X96892D01*
Y21719D01*
Y21606D01*
X97005D01*
Y21493D01*
X97118D01*
Y21380D01*
X97230D01*
Y21267D01*
X97118D01*
Y21380D01*
X97005D01*
Y21267D01*
X97118D01*
Y21154D01*
X97230D01*
Y21042D01*
X97118D01*
Y20929D01*
X97343D01*
Y20816D01*
Y20703D01*
X97456D01*
Y20590D01*
X97569D01*
Y20477D01*
X97682D01*
Y20364D01*
X97569D01*
Y20477D01*
X97456D01*
Y20364D01*
X97569D01*
Y20251D01*
X97682D01*
Y20139D01*
Y20026D01*
X97795D01*
Y19913D01*
Y19800D01*
X97908D01*
Y19687D01*
X98020D01*
Y19574D01*
X98133D01*
Y19461D01*
X98020D01*
Y19349D01*
X98133D01*
Y19236D01*
X98246D01*
Y19123D01*
X98359D01*
Y19010D01*
X98246D01*
Y18897D01*
X98359D01*
Y18784D01*
X98472D01*
Y18671D01*
X98585D01*
Y18558D01*
X98472D01*
Y18446D01*
X98585D01*
Y18333D01*
X98698D01*
Y18220D01*
X98810D01*
Y18107D01*
X98698D01*
Y18220D01*
X98585D01*
Y18333D01*
X98472D01*
Y18446D01*
X98359D01*
Y18558D01*
X98246D01*
Y18671D01*
Y18784D01*
X98133D01*
Y18897D01*
Y19010D01*
X98020D01*
Y19123D01*
X97908D01*
Y19236D01*
X97795D01*
Y19349D01*
X97908D01*
Y19461D01*
X97682D01*
Y19574D01*
Y19687D01*
X97569D01*
Y19800D01*
X97456D01*
Y19913D01*
X97343D01*
Y20026D01*
Y20139D01*
Y20251D01*
X97230D01*
Y20364D01*
X97118D01*
Y20477D01*
X97005D01*
Y20590D01*
X96892D01*
Y20703D01*
X97005D01*
Y20816D01*
X96666D01*
Y20929D01*
X96779D01*
Y21042D01*
X96666D01*
Y21154D01*
X96553D01*
Y21267D01*
X96440D01*
Y21380D01*
Y21493D01*
Y21606D01*
X96327D01*
Y21719D01*
X96214D01*
Y21832D01*
X96102D01*
Y21944D01*
X95989D01*
Y22057D01*
X96102D01*
Y22170D01*
X95876D01*
Y22283D01*
Y22396D01*
X95763D01*
Y22509D01*
X95650D01*
Y22622D01*
X95537D01*
Y22735D01*
X95650D01*
Y22847D01*
X95537D01*
Y22960D01*
X95424D01*
Y23073D01*
X95312D01*
Y23186D01*
X95199D01*
Y23299D01*
X95086D01*
Y23412D01*
X95424D01*
Y23299D01*
X95312D01*
Y23186D01*
X95424D01*
Y23073D01*
X95537D01*
Y22960D01*
X95650D01*
Y22847D01*
X95763D01*
Y22735D01*
X95876D01*
Y22622D01*
X95989D01*
Y22509D01*
X96102D01*
Y22396D01*
X95989D01*
Y22283D01*
X96102D01*
Y22170D01*
X96214D01*
Y22057D01*
X96327D01*
Y21944D01*
X96440D01*
Y21832D01*
X96553D01*
Y21719D01*
X96666D01*
Y21606D01*
X96779D01*
Y21719D01*
X96666D01*
Y21832D01*
X96553D01*
Y21944D01*
X96440D01*
Y22057D01*
X96553D01*
Y22170D01*
X96440D01*
Y22283D01*
X96327D01*
Y22396D01*
X96214D01*
Y22509D01*
X96327D01*
Y22622D01*
X96214D01*
Y22735D01*
X96102D01*
Y22847D01*
X95989D01*
Y22960D01*
X96102D01*
Y23073D01*
X95989D01*
Y23186D01*
X95876D01*
Y23299D01*
X95763D01*
Y23412D01*
X95876D01*
Y23525D01*
X95763D01*
Y23637D01*
X95650D01*
Y23750D01*
X95537D01*
Y23863D01*
X95650D01*
Y23976D01*
X95537D01*
Y24089D01*
X95424D01*
Y24202D01*
X95312D01*
Y24315D01*
X95424D01*
Y24428D01*
X95312D01*
Y24540D01*
X95199D01*
Y24653D01*
X95086D01*
Y24766D01*
X95199D01*
Y24879D01*
X95086D01*
Y24992D01*
X95199D01*
Y24879D01*
D02*
G37*
G36*
X98810Y17881D02*
X98923D01*
Y17768D01*
X99036D01*
Y17655D01*
X98923D01*
Y17768D01*
X98810D01*
Y17881D01*
X98698D01*
Y17994D01*
X98810D01*
Y17881D01*
D02*
G37*
G36*
X363772Y77999D02*
X363809D01*
X363853Y77996D01*
X363901Y77992D01*
X363953Y77984D01*
X364008Y77977D01*
X364067Y77970D01*
X364193Y77944D01*
X364318Y77911D01*
X364443Y77866D01*
X364447D01*
X364458Y77859D01*
X364473Y77852D01*
X364495Y77841D01*
X364525Y77826D01*
X364554Y77811D01*
X364624Y77767D01*
X364705Y77708D01*
X364787Y77641D01*
X364868Y77560D01*
X364938Y77468D01*
X364942Y77464D01*
X364945Y77457D01*
X364953Y77442D01*
X364964Y77424D01*
X364979Y77398D01*
X364993Y77368D01*
X365008Y77335D01*
X365026Y77294D01*
X365045Y77254D01*
X365060Y77210D01*
X365089Y77106D01*
X365115Y76996D01*
X365122Y76937D01*
X365126Y76874D01*
X364646Y76837D01*
Y76841D01*
X364643Y76852D01*
Y76870D01*
X364635Y76896D01*
X364632Y76925D01*
X364620Y76959D01*
X364610Y76996D01*
X364598Y77036D01*
X364565Y77125D01*
X364517Y77213D01*
X364488Y77258D01*
X364458Y77298D01*
X364421Y77339D01*
X364381Y77376D01*
X364377Y77379D01*
X364370Y77383D01*
X364358Y77394D01*
X364340Y77405D01*
X364318Y77420D01*
X364288Y77435D01*
X364255Y77449D01*
X364215Y77468D01*
X364170Y77486D01*
X364122Y77501D01*
X364071Y77516D01*
X364012Y77531D01*
X363945Y77542D01*
X363879Y77553D01*
X363801Y77556D01*
X363724Y77560D01*
X363680D01*
X363650Y77556D01*
X363613D01*
X363569Y77553D01*
X363521Y77545D01*
X363473Y77538D01*
X363362Y77520D01*
X363255Y77490D01*
X363200Y77468D01*
X363152Y77446D01*
X363104Y77420D01*
X363063Y77390D01*
X363060D01*
X363056Y77383D01*
X363030Y77361D01*
X362997Y77324D01*
X362960Y77280D01*
X362923Y77221D01*
X362890Y77150D01*
X362864Y77077D01*
X362860Y77036D01*
X362857Y76992D01*
Y76988D01*
Y76985D01*
Y76973D01*
X362860Y76959D01*
X362864Y76918D01*
X362875Y76874D01*
X362894Y76818D01*
X362916Y76763D01*
X362953Y76708D01*
X363001Y76656D01*
X363004D01*
X363008Y76649D01*
X363019Y76641D01*
X363034Y76634D01*
X363052Y76623D01*
X363078Y76608D01*
X363111Y76590D01*
X363148Y76571D01*
X363196Y76553D01*
X363248Y76531D01*
X363311Y76508D01*
X363381Y76486D01*
X363458Y76460D01*
X363547Y76435D01*
X363646Y76409D01*
X363753Y76383D01*
X363761D01*
X363779Y76376D01*
X363812Y76368D01*
X363853Y76361D01*
X363901Y76350D01*
X363960Y76335D01*
X364023Y76320D01*
X364089Y76302D01*
X364229Y76265D01*
X364366Y76224D01*
X364432Y76202D01*
X364491Y76184D01*
X364547Y76162D01*
X364595Y76143D01*
X364598D01*
X364610Y76136D01*
X364628Y76128D01*
X364650Y76117D01*
X364676Y76103D01*
X364705Y76084D01*
X364779Y76040D01*
X364857Y75985D01*
X364938Y75918D01*
X365015Y75844D01*
X365049Y75804D01*
X365082Y75759D01*
X365086Y75756D01*
X365089Y75748D01*
X365096Y75737D01*
X365108Y75719D01*
X365119Y75697D01*
X365133Y75671D01*
X365148Y75638D01*
X365163Y75604D01*
X365189Y75527D01*
X365215Y75435D01*
X365233Y75331D01*
X365240Y75276D01*
Y75221D01*
Y75217D01*
Y75206D01*
Y75191D01*
X365237Y75169D01*
Y75143D01*
X365233Y75110D01*
X365226Y75077D01*
X365218Y75036D01*
X365200Y74948D01*
X365167Y74852D01*
X365126Y74752D01*
X365096Y74704D01*
X365067Y74652D01*
X365063Y74649D01*
X365060Y74641D01*
X365049Y74627D01*
X365034Y74608D01*
X365015Y74586D01*
X364997Y74560D01*
X364971Y74531D01*
X364942Y74501D01*
X364905Y74468D01*
X364868Y74435D01*
X364827Y74401D01*
X364783Y74365D01*
X364683Y74298D01*
X364569Y74239D01*
X364565D01*
X364554Y74232D01*
X364536Y74224D01*
X364513Y74217D01*
X364480Y74206D01*
X364447Y74191D01*
X364403Y74180D01*
X364358Y74165D01*
X364307Y74151D01*
X364251Y74139D01*
X364189Y74125D01*
X364126Y74114D01*
X363989Y74099D01*
X363842Y74092D01*
X363794D01*
X363757Y74095D01*
X363713D01*
X363661Y74099D01*
X363606Y74103D01*
X363543Y74110D01*
X363477Y74117D01*
X363406Y74128D01*
X363263Y74154D01*
X363119Y74191D01*
X363049Y74213D01*
X362982Y74239D01*
X362979Y74243D01*
X362967Y74247D01*
X362949Y74254D01*
X362927Y74269D01*
X362897Y74283D01*
X362860Y74302D01*
X362824Y74324D01*
X362783Y74353D01*
X362698Y74416D01*
X362606Y74494D01*
X362517Y74586D01*
X362436Y74689D01*
X362432Y74693D01*
X362429Y74704D01*
X362418Y74719D01*
X362406Y74741D01*
X362392Y74770D01*
X362373Y74804D01*
X362355Y74844D01*
X362336Y74889D01*
X362318Y74936D01*
X362299Y74988D01*
X362285Y75044D01*
X362266Y75106D01*
X362244Y75235D01*
X362237Y75302D01*
X362233Y75372D01*
X362705Y75413D01*
Y75409D01*
Y75402D01*
X362709Y75387D01*
X362713Y75365D01*
X362717Y75339D01*
X362724Y75313D01*
X362739Y75247D01*
X362757Y75173D01*
X362787Y75095D01*
X362820Y75018D01*
X362860Y74944D01*
Y74940D01*
X362868Y74936D01*
X362882Y74914D01*
X362912Y74881D01*
X362953Y74841D01*
X363004Y74793D01*
X363071Y74745D01*
X363148Y74693D01*
X363237Y74649D01*
X363241D01*
X363248Y74645D01*
X363263Y74638D01*
X363281Y74630D01*
X363307Y74623D01*
X363336Y74616D01*
X363370Y74604D01*
X363406Y74593D01*
X363447Y74582D01*
X363491Y74575D01*
X363591Y74556D01*
X363702Y74542D01*
X363820Y74538D01*
X363868D01*
X363894Y74542D01*
X363923D01*
X363989Y74549D01*
X364067Y74560D01*
X364152Y74575D01*
X364237Y74593D01*
X364322Y74623D01*
X364325D01*
X364333Y74627D01*
X364344Y74630D01*
X364358Y74638D01*
X364399Y74656D01*
X364447Y74686D01*
X364499Y74719D01*
X364554Y74756D01*
X364606Y74804D01*
X364650Y74855D01*
X364654Y74863D01*
X364668Y74881D01*
X364683Y74911D01*
X364705Y74951D01*
X364724Y74999D01*
X364742Y75055D01*
X364753Y75114D01*
X364757Y75180D01*
Y75184D01*
Y75187D01*
Y75210D01*
X364753Y75243D01*
X364746Y75287D01*
X364731Y75335D01*
X364713Y75387D01*
X364687Y75438D01*
X364654Y75490D01*
X364650Y75497D01*
X364635Y75512D01*
X364610Y75538D01*
X364573Y75568D01*
X364525Y75604D01*
X364465Y75641D01*
X364395Y75678D01*
X364311Y75712D01*
X364303Y75715D01*
X364292Y75719D01*
X364277Y75722D01*
X364259Y75730D01*
X364237Y75737D01*
X364207Y75748D01*
X364170Y75759D01*
X364130Y75770D01*
X364082Y75785D01*
X364026Y75800D01*
X363964Y75815D01*
X363894Y75833D01*
X363816Y75852D01*
X363731Y75874D01*
X363639Y75896D01*
X363632D01*
X363617Y75903D01*
X363591Y75907D01*
X363554Y75918D01*
X363513Y75929D01*
X363462Y75940D01*
X363410Y75955D01*
X363351Y75973D01*
X363233Y76010D01*
X363111Y76047D01*
X363052Y76069D01*
X363001Y76091D01*
X362953Y76110D01*
X362908Y76132D01*
X362905D01*
X362897Y76139D01*
X362882Y76147D01*
X362864Y76158D01*
X362842Y76173D01*
X362816Y76187D01*
X362757Y76232D01*
X362691Y76283D01*
X362624Y76342D01*
X362561Y76412D01*
X362506Y76486D01*
Y76490D01*
X362499Y76497D01*
X362495Y76508D01*
X362484Y76523D01*
X362477Y76542D01*
X362466Y76568D01*
X362440Y76623D01*
X362414Y76693D01*
X362395Y76774D01*
X362381Y76863D01*
X362373Y76959D01*
Y76962D01*
Y76970D01*
Y76988D01*
X362377Y77007D01*
Y77033D01*
X362381Y77062D01*
X362388Y77095D01*
X362395Y77132D01*
X362414Y77213D01*
X362443Y77306D01*
X362484Y77398D01*
X362506Y77446D01*
X362536Y77494D01*
X362539Y77497D01*
X362543Y77505D01*
X362554Y77520D01*
X362565Y77534D01*
X362584Y77556D01*
X362602Y77579D01*
X362657Y77634D01*
X362724Y77697D01*
X362805Y77759D01*
X362897Y77822D01*
X363008Y77874D01*
X363012D01*
X363023Y77881D01*
X363041Y77885D01*
X363063Y77896D01*
X363093Y77903D01*
X363126Y77914D01*
X363167Y77925D01*
X363211Y77940D01*
X363263Y77951D01*
X363314Y77962D01*
X363373Y77973D01*
X363432Y77984D01*
X363562Y77999D01*
X363702Y78003D01*
X363742D01*
X363772Y77999D01*
D02*
G37*
G36*
X353015Y75291D02*
X351587D01*
Y75759D01*
X353015D01*
Y75291D01*
D02*
G37*
G36*
X348097Y77446D02*
X346580D01*
X346377Y76424D01*
X346381Y76427D01*
X346392Y76435D01*
X346410Y76446D01*
X346436Y76460D01*
X346466Y76479D01*
X346506Y76501D01*
X346547Y76520D01*
X346595Y76545D01*
X346646Y76568D01*
X346702Y76586D01*
X346824Y76627D01*
X346886Y76641D01*
X346953Y76652D01*
X347023Y76660D01*
X347093Y76664D01*
X347115D01*
X347141Y76660D01*
X347178D01*
X347218Y76652D01*
X347270Y76645D01*
X347325Y76634D01*
X347385Y76619D01*
X347447Y76601D01*
X347517Y76579D01*
X347587Y76553D01*
X347658Y76520D01*
X347728Y76479D01*
X347798Y76435D01*
X347864Y76379D01*
X347931Y76320D01*
X347934Y76317D01*
X347945Y76306D01*
X347964Y76283D01*
X347986Y76258D01*
X348012Y76224D01*
X348038Y76184D01*
X348071Y76136D01*
X348104Y76080D01*
X348134Y76021D01*
X348167Y75955D01*
X348193Y75881D01*
X348222Y75804D01*
X348241Y75719D01*
X348259Y75630D01*
X348270Y75534D01*
X348274Y75435D01*
Y75427D01*
Y75413D01*
X348270Y75387D01*
Y75350D01*
X348266Y75306D01*
X348259Y75254D01*
X348248Y75195D01*
X348237Y75132D01*
X348218Y75066D01*
X348200Y74992D01*
X348174Y74918D01*
X348145Y74844D01*
X348112Y74770D01*
X348071Y74693D01*
X348023Y74619D01*
X347971Y74549D01*
X347968Y74545D01*
X347953Y74531D01*
X347934Y74509D01*
X347905Y74479D01*
X347868Y74442D01*
X347824Y74405D01*
X347772Y74365D01*
X347713Y74320D01*
X347643Y74276D01*
X347569Y74235D01*
X347488Y74199D01*
X347399Y74162D01*
X347303Y74132D01*
X347204Y74110D01*
X347093Y74095D01*
X346979Y74092D01*
X346956D01*
X346931Y74095D01*
X346894D01*
X346849Y74099D01*
X346798Y74106D01*
X346743Y74117D01*
X346680Y74128D01*
X346613Y74143D01*
X346547Y74162D01*
X346477Y74184D01*
X346403Y74213D01*
X346333Y74247D01*
X346263Y74283D01*
X346196Y74328D01*
X346134Y74379D01*
X346130Y74383D01*
X346119Y74394D01*
X346104Y74409D01*
X346082Y74431D01*
X346056Y74461D01*
X346030Y74497D01*
X345997Y74538D01*
X345968Y74582D01*
X345934Y74634D01*
X345901Y74693D01*
X345872Y74756D01*
X345842Y74826D01*
X345816Y74900D01*
X345794Y74977D01*
X345776Y75058D01*
X345765Y75147D01*
X346252Y75187D01*
Y75184D01*
X346255Y75173D01*
X346259Y75154D01*
X346263Y75128D01*
X346270Y75099D01*
X346277Y75066D01*
X346303Y74985D01*
X346337Y74900D01*
X346377Y74811D01*
X346432Y74722D01*
X346466Y74686D01*
X346499Y74649D01*
X346503Y74645D01*
X346510Y74641D01*
X346521Y74634D01*
X346536Y74623D01*
X346554Y74608D01*
X346576Y74593D01*
X346636Y74560D01*
X346706Y74527D01*
X346787Y74501D01*
X346879Y74479D01*
X346927Y74475D01*
X346979Y74472D01*
X347012D01*
X347034Y74475D01*
X347063Y74479D01*
X347097Y74486D01*
X347134Y74494D01*
X347174Y74505D01*
X347266Y74534D01*
X347311Y74553D01*
X347359Y74579D01*
X347407Y74608D01*
X347455Y74641D01*
X347503Y74678D01*
X347547Y74722D01*
X347551Y74726D01*
X347558Y74734D01*
X347569Y74748D01*
X347584Y74770D01*
X347602Y74793D01*
X347621Y74826D01*
X347643Y74863D01*
X347665Y74903D01*
X347683Y74948D01*
X347706Y74999D01*
X347724Y75055D01*
X347743Y75114D01*
X347757Y75176D01*
X347768Y75247D01*
X347776Y75317D01*
X347779Y75394D01*
Y75398D01*
Y75413D01*
Y75431D01*
X347776Y75460D01*
X347772Y75494D01*
X347768Y75531D01*
X347761Y75575D01*
X347750Y75623D01*
X347724Y75722D01*
X347706Y75774D01*
X347683Y75826D01*
X347658Y75877D01*
X347628Y75929D01*
X347595Y75977D01*
X347554Y76021D01*
X347551Y76025D01*
X347543Y76033D01*
X347532Y76044D01*
X347514Y76058D01*
X347492Y76077D01*
X347466Y76095D01*
X347432Y76117D01*
X347399Y76139D01*
X347359Y76158D01*
X347314Y76180D01*
X347266Y76199D01*
X347215Y76217D01*
X347156Y76232D01*
X347097Y76243D01*
X347034Y76250D01*
X346968Y76254D01*
X346931D01*
X346908Y76250D01*
X346886D01*
X346831Y76243D01*
X346768Y76228D01*
X346702Y76210D01*
X346632Y76184D01*
X346562Y76151D01*
X346558D01*
X346554Y76147D01*
X346532Y76132D01*
X346499Y76110D01*
X346462Y76080D01*
X346414Y76040D01*
X346370Y75996D01*
X346322Y75944D01*
X346281Y75889D01*
X345846Y75944D01*
X346211Y77889D01*
X348097D01*
Y77446D01*
D02*
G37*
G36*
X355148Y74154D02*
X354683D01*
Y77110D01*
X354680D01*
X354676Y77103D01*
X354665Y77095D01*
X354654Y77084D01*
X354617Y77051D01*
X354565Y77010D01*
X354503Y76962D01*
X354425Y76907D01*
X354337Y76848D01*
X354240Y76789D01*
X354237D01*
X354229Y76782D01*
X354215Y76774D01*
X354196Y76763D01*
X354170Y76748D01*
X354145Y76734D01*
X354078Y76700D01*
X354004Y76664D01*
X353923Y76623D01*
X353838Y76586D01*
X353757Y76553D01*
Y76999D01*
X353761Y77003D01*
X353776Y77007D01*
X353794Y77018D01*
X353824Y77033D01*
X353857Y77051D01*
X353894Y77073D01*
X353938Y77095D01*
X353986Y77125D01*
X354093Y77188D01*
X354207Y77265D01*
X354322Y77350D01*
X354436Y77442D01*
X354440Y77446D01*
X354447Y77453D01*
X354466Y77468D01*
X354484Y77486D01*
X354506Y77512D01*
X354536Y77538D01*
X354565Y77571D01*
X354598Y77604D01*
X354665Y77682D01*
X354731Y77767D01*
X354794Y77859D01*
X354824Y77903D01*
X354846Y77951D01*
X355148D01*
Y74154D01*
D02*
G37*
G36*
X344023Y77933D02*
X344067D01*
X344160Y77929D01*
X344255Y77922D01*
X344348Y77911D01*
X344392Y77907D01*
X344429Y77900D01*
X344432D01*
X344440Y77896D01*
X344455D01*
X344477Y77889D01*
X344499Y77885D01*
X344529Y77877D01*
X344591Y77859D01*
X344665Y77837D01*
X344746Y77804D01*
X344824Y77767D01*
X344898Y77723D01*
X344901D01*
X344905Y77715D01*
X344927Y77700D01*
X344964Y77671D01*
X345005Y77630D01*
X345052Y77575D01*
X345104Y77516D01*
X345156Y77442D01*
X345200Y77357D01*
Y77354D01*
X345204Y77346D01*
X345211Y77335D01*
X345218Y77317D01*
X345226Y77294D01*
X345237Y77269D01*
X345248Y77239D01*
X345259Y77206D01*
X345281Y77128D01*
X345300Y77040D01*
X345314Y76944D01*
X345318Y76841D01*
Y76837D01*
Y76818D01*
X345314Y76793D01*
Y76759D01*
X345307Y76719D01*
X345303Y76671D01*
X345292Y76619D01*
X345281Y76560D01*
X345263Y76497D01*
X345244Y76431D01*
X345218Y76365D01*
X345189Y76294D01*
X345152Y76224D01*
X345111Y76158D01*
X345063Y76091D01*
X345008Y76025D01*
X345005Y76021D01*
X344993Y76010D01*
X344975Y75996D01*
X344949Y75973D01*
X344912Y75948D01*
X344868Y75922D01*
X344816Y75889D01*
X344754Y75859D01*
X344683Y75829D01*
X344602Y75800D01*
X344514Y75770D01*
X344410Y75745D01*
X344300Y75722D01*
X344178Y75708D01*
X344045Y75697D01*
X343901Y75693D01*
X342931D01*
Y74154D01*
X342429D01*
Y77937D01*
X343982D01*
X344023Y77933D01*
D02*
G37*
G36*
X360584Y77948D02*
X360613Y77944D01*
X360650Y77940D01*
X360687Y77937D01*
X360768Y77922D01*
X360857Y77900D01*
X360949Y77866D01*
X361037Y77826D01*
X361041D01*
X361049Y77818D01*
X361060Y77815D01*
X361078Y77804D01*
X361119Y77774D01*
X361174Y77737D01*
X361233Y77686D01*
X361296Y77627D01*
X361359Y77553D01*
X361418Y77472D01*
Y77468D01*
X361425Y77460D01*
X361432Y77449D01*
X361443Y77431D01*
X361455Y77409D01*
X361469Y77383D01*
X361484Y77350D01*
X361503Y77317D01*
X361521Y77276D01*
X361539Y77235D01*
X361576Y77140D01*
X361617Y77029D01*
X361650Y76911D01*
Y76907D01*
X361654Y76896D01*
X361658Y76877D01*
X361665Y76852D01*
X361672Y76818D01*
X361680Y76778D01*
X361687Y76730D01*
X361694Y76674D01*
X361702Y76616D01*
X361709Y76545D01*
X361717Y76475D01*
X361724Y76394D01*
X361731Y76309D01*
X361735Y76217D01*
X361739Y76121D01*
Y76018D01*
Y76010D01*
Y75988D01*
Y75955D01*
X361735Y75907D01*
Y75852D01*
X361731Y75785D01*
X361728Y75715D01*
X361720Y75634D01*
X361713Y75549D01*
X361705Y75464D01*
X361680Y75283D01*
X361646Y75106D01*
X361624Y75025D01*
X361598Y74944D01*
Y74940D01*
X361591Y74926D01*
X361584Y74903D01*
X361573Y74878D01*
X361558Y74841D01*
X361539Y74804D01*
X361521Y74759D01*
X361495Y74712D01*
X361440Y74612D01*
X361370Y74505D01*
X361285Y74405D01*
X361237Y74357D01*
X361189Y74313D01*
X361185Y74309D01*
X361178Y74302D01*
X361163Y74291D01*
X361141Y74280D01*
X361115Y74261D01*
X361082Y74243D01*
X361045Y74224D01*
X361004Y74202D01*
X360956Y74180D01*
X360905Y74162D01*
X360849Y74143D01*
X360787Y74125D01*
X360724Y74114D01*
X360654Y74103D01*
X360584Y74095D01*
X360506Y74092D01*
X360480D01*
X360455Y74095D01*
X360414Y74099D01*
X360370Y74103D01*
X360314Y74114D01*
X360255Y74125D01*
X360192Y74139D01*
X360126Y74162D01*
X360056Y74187D01*
X359982Y74217D01*
X359912Y74254D01*
X359842Y74298D01*
X359772Y74350D01*
X359705Y74413D01*
X359646Y74479D01*
X359643Y74486D01*
X359632Y74501D01*
X359613Y74531D01*
X359587Y74571D01*
X359561Y74623D01*
X359528Y74686D01*
X359495Y74763D01*
X359462Y74852D01*
X359425Y74951D01*
X359392Y75066D01*
X359359Y75191D01*
X359333Y75328D01*
X359307Y75483D01*
X359289Y75645D01*
X359277Y75826D01*
X359274Y76018D01*
Y76021D01*
Y76025D01*
Y76047D01*
Y76084D01*
X359277Y76128D01*
Y76187D01*
X359281Y76250D01*
X359285Y76324D01*
X359292Y76405D01*
X359299Y76490D01*
X359307Y76579D01*
X359333Y76756D01*
X359366Y76937D01*
X359388Y77018D01*
X359410Y77099D01*
Y77103D01*
X359418Y77117D01*
X359425Y77140D01*
X359436Y77165D01*
X359451Y77202D01*
X359469Y77239D01*
X359488Y77283D01*
X359514Y77331D01*
X359569Y77435D01*
X359639Y77538D01*
X359724Y77638D01*
X359772Y77686D01*
X359820Y77730D01*
X359823Y77734D01*
X359831Y77741D01*
X359849Y77752D01*
X359868Y77763D01*
X359897Y77781D01*
X359927Y77800D01*
X359967Y77818D01*
X360008Y77841D01*
X360056Y77863D01*
X360108Y77881D01*
X360163Y77900D01*
X360226Y77918D01*
X360289Y77929D01*
X360359Y77940D01*
X360429Y77948D01*
X360506Y77951D01*
X360558D01*
X360584Y77948D01*
D02*
G37*
G36*
X357646D02*
X357676Y77944D01*
X357713Y77940D01*
X357750Y77937D01*
X357831Y77922D01*
X357920Y77900D01*
X358012Y77866D01*
X358100Y77826D01*
X358104D01*
X358111Y77818D01*
X358122Y77815D01*
X358141Y77804D01*
X358182Y77774D01*
X358237Y77737D01*
X358296Y77686D01*
X358359Y77627D01*
X358421Y77553D01*
X358480Y77472D01*
Y77468D01*
X358488Y77460D01*
X358495Y77449D01*
X358506Y77431D01*
X358517Y77409D01*
X358532Y77383D01*
X358547Y77350D01*
X358565Y77317D01*
X358584Y77276D01*
X358602Y77235D01*
X358639Y77140D01*
X358680Y77029D01*
X358713Y76911D01*
Y76907D01*
X358717Y76896D01*
X358720Y76877D01*
X358728Y76852D01*
X358735Y76818D01*
X358742Y76778D01*
X358750Y76730D01*
X358757Y76674D01*
X358765Y76616D01*
X358772Y76545D01*
X358779Y76475D01*
X358787Y76394D01*
X358794Y76309D01*
X358798Y76217D01*
X358801Y76121D01*
Y76018D01*
Y76010D01*
Y75988D01*
Y75955D01*
X358798Y75907D01*
Y75852D01*
X358794Y75785D01*
X358790Y75715D01*
X358783Y75634D01*
X358776Y75549D01*
X358768Y75464D01*
X358742Y75283D01*
X358709Y75106D01*
X358687Y75025D01*
X358661Y74944D01*
Y74940D01*
X358654Y74926D01*
X358646Y74903D01*
X358635Y74878D01*
X358621Y74841D01*
X358602Y74804D01*
X358584Y74759D01*
X358558Y74712D01*
X358503Y74612D01*
X358432Y74505D01*
X358348Y74405D01*
X358299Y74357D01*
X358252Y74313D01*
X358248Y74309D01*
X358241Y74302D01*
X358226Y74291D01*
X358204Y74280D01*
X358178Y74261D01*
X358145Y74243D01*
X358108Y74224D01*
X358067Y74202D01*
X358019Y74180D01*
X357967Y74162D01*
X357912Y74143D01*
X357849Y74125D01*
X357787Y74114D01*
X357716Y74103D01*
X357646Y74095D01*
X357569Y74092D01*
X357543D01*
X357517Y74095D01*
X357477Y74099D01*
X357432Y74103D01*
X357377Y74114D01*
X357318Y74125D01*
X357255Y74139D01*
X357189Y74162D01*
X357119Y74187D01*
X357045Y74217D01*
X356975Y74254D01*
X356905Y74298D01*
X356835Y74350D01*
X356768Y74413D01*
X356709Y74479D01*
X356705Y74486D01*
X356694Y74501D01*
X356676Y74531D01*
X356650Y74571D01*
X356624Y74623D01*
X356591Y74686D01*
X356558Y74763D01*
X356525Y74852D01*
X356488Y74951D01*
X356455Y75066D01*
X356421Y75191D01*
X356396Y75328D01*
X356370Y75483D01*
X356351Y75645D01*
X356340Y75826D01*
X356336Y76018D01*
Y76021D01*
Y76025D01*
Y76047D01*
Y76084D01*
X356340Y76128D01*
Y76187D01*
X356344Y76250D01*
X356347Y76324D01*
X356355Y76405D01*
X356362Y76490D01*
X356370Y76579D01*
X356396Y76756D01*
X356429Y76937D01*
X356451Y77018D01*
X356473Y77099D01*
Y77103D01*
X356480Y77117D01*
X356488Y77140D01*
X356499Y77165D01*
X356514Y77202D01*
X356532Y77239D01*
X356551Y77283D01*
X356576Y77331D01*
X356632Y77435D01*
X356702Y77538D01*
X356787Y77638D01*
X356835Y77686D01*
X356883Y77730D01*
X356886Y77734D01*
X356894Y77741D01*
X356912Y77752D01*
X356931Y77763D01*
X356960Y77781D01*
X356990Y77800D01*
X357030Y77818D01*
X357071Y77841D01*
X357119Y77863D01*
X357170Y77881D01*
X357226Y77900D01*
X357289Y77918D01*
X357351Y77929D01*
X357421Y77940D01*
X357491Y77948D01*
X357569Y77951D01*
X357621D01*
X357646Y77948D01*
D02*
G37*
G36*
X350012D02*
X350041Y77944D01*
X350078Y77940D01*
X350115Y77937D01*
X350196Y77922D01*
X350285Y77900D01*
X350377Y77866D01*
X350466Y77826D01*
X350469D01*
X350477Y77818D01*
X350488Y77815D01*
X350506Y77804D01*
X350547Y77774D01*
X350602Y77737D01*
X350661Y77686D01*
X350724Y77627D01*
X350787Y77553D01*
X350846Y77472D01*
Y77468D01*
X350853Y77460D01*
X350861Y77449D01*
X350872Y77431D01*
X350883Y77409D01*
X350897Y77383D01*
X350912Y77350D01*
X350931Y77317D01*
X350949Y77276D01*
X350968Y77235D01*
X351004Y77140D01*
X351045Y77029D01*
X351078Y76911D01*
Y76907D01*
X351082Y76896D01*
X351086Y76877D01*
X351093Y76852D01*
X351100Y76818D01*
X351108Y76778D01*
X351115Y76730D01*
X351122Y76674D01*
X351130Y76616D01*
X351137Y76545D01*
X351145Y76475D01*
X351152Y76394D01*
X351159Y76309D01*
X351163Y76217D01*
X351167Y76121D01*
Y76018D01*
Y76010D01*
Y75988D01*
Y75955D01*
X351163Y75907D01*
Y75852D01*
X351159Y75785D01*
X351156Y75715D01*
X351148Y75634D01*
X351141Y75549D01*
X351134Y75464D01*
X351108Y75283D01*
X351075Y75106D01*
X351052Y75025D01*
X351027Y74944D01*
Y74940D01*
X351019Y74926D01*
X351012Y74903D01*
X351001Y74878D01*
X350986Y74841D01*
X350968Y74804D01*
X350949Y74759D01*
X350923Y74712D01*
X350868Y74612D01*
X350798Y74505D01*
X350713Y74405D01*
X350665Y74357D01*
X350617Y74313D01*
X350613Y74309D01*
X350606Y74302D01*
X350591Y74291D01*
X350569Y74280D01*
X350543Y74261D01*
X350510Y74243D01*
X350473Y74224D01*
X350432Y74202D01*
X350384Y74180D01*
X350333Y74162D01*
X350277Y74143D01*
X350215Y74125D01*
X350152Y74114D01*
X350082Y74103D01*
X350012Y74095D01*
X349934Y74092D01*
X349908D01*
X349883Y74095D01*
X349842Y74099D01*
X349798Y74103D01*
X349742Y74114D01*
X349683Y74125D01*
X349621Y74139D01*
X349554Y74162D01*
X349484Y74187D01*
X349410Y74217D01*
X349340Y74254D01*
X349270Y74298D01*
X349200Y74350D01*
X349134Y74413D01*
X349075Y74479D01*
X349071Y74486D01*
X349060Y74501D01*
X349041Y74531D01*
X349015Y74571D01*
X348990Y74623D01*
X348956Y74686D01*
X348923Y74763D01*
X348890Y74852D01*
X348853Y74951D01*
X348820Y75066D01*
X348787Y75191D01*
X348761Y75328D01*
X348735Y75483D01*
X348717Y75645D01*
X348706Y75826D01*
X348702Y76018D01*
Y76021D01*
Y76025D01*
Y76047D01*
Y76084D01*
X348706Y76128D01*
Y76187D01*
X348709Y76250D01*
X348713Y76324D01*
X348720Y76405D01*
X348728Y76490D01*
X348735Y76579D01*
X348761Y76756D01*
X348794Y76937D01*
X348816Y77018D01*
X348838Y77099D01*
Y77103D01*
X348846Y77117D01*
X348853Y77140D01*
X348864Y77165D01*
X348879Y77202D01*
X348897Y77239D01*
X348916Y77283D01*
X348942Y77331D01*
X348997Y77435D01*
X349067Y77538D01*
X349152Y77638D01*
X349200Y77686D01*
X349248Y77730D01*
X349252Y77734D01*
X349259Y77741D01*
X349277Y77752D01*
X349296Y77763D01*
X349325Y77781D01*
X349355Y77800D01*
X349396Y77818D01*
X349436Y77841D01*
X349484Y77863D01*
X349536Y77881D01*
X349591Y77900D01*
X349654Y77918D01*
X349717Y77929D01*
X349787Y77940D01*
X349857Y77948D01*
X349934Y77951D01*
X349986D01*
X350012Y77948D01*
D02*
G37*
%LPC*%
G36*
X87524Y40229D02*
X87411D01*
Y40116D01*
X87524D01*
Y40229D01*
D02*
G37*
G36*
X88427Y34811D02*
X88314D01*
Y34698D01*
X88427D01*
Y34811D01*
D02*
G37*
G36*
X85266D02*
X85154D01*
Y34698D01*
X85266D01*
Y34811D01*
D02*
G37*
G36*
X74995Y40342D02*
X74883D01*
Y40229D01*
X74544D01*
Y40342D01*
X74431D01*
Y40229D01*
X73867D01*
Y40116D01*
X73980D01*
Y40003D01*
X73867D01*
Y39890D01*
X73980D01*
Y39777D01*
X73867D01*
Y39665D01*
X73980D01*
Y39552D01*
X73867D01*
Y39439D01*
X73754D01*
Y39326D01*
X73641D01*
Y39213D01*
X73754D01*
Y39100D01*
X73641D01*
Y38987D01*
X73754D01*
Y38875D01*
X73641D01*
Y38762D01*
X73754D01*
Y38649D01*
X73867D01*
Y38536D01*
X73980D01*
Y38649D01*
X74093D01*
Y38536D01*
X74431D01*
Y38649D01*
X74544D01*
Y38536D01*
X74657D01*
Y38649D01*
X74770D01*
Y38536D01*
X74883D01*
Y38649D01*
X74770D01*
Y38762D01*
X74883D01*
Y38649D01*
X74995D01*
Y38762D01*
X75108D01*
Y38875D01*
X75221D01*
Y38762D01*
X75334D01*
Y38875D01*
X75221D01*
Y38987D01*
X75334D01*
Y39100D01*
X75447D01*
Y39213D01*
X75560D01*
Y39326D01*
X75447D01*
Y39439D01*
X75560D01*
Y39552D01*
X75447D01*
Y39665D01*
X75560D01*
Y39777D01*
X75447D01*
Y39890D01*
X75560D01*
Y40003D01*
X75447D01*
Y40116D01*
X75334D01*
Y40229D01*
X74995D01*
Y40342D01*
D02*
G37*
G36*
X73754Y38649D02*
X73641D01*
Y38536D01*
X73754D01*
Y38649D01*
D02*
G37*
G36*
X76688Y37520D02*
X76576D01*
Y37407D01*
X76688D01*
Y37520D01*
D02*
G37*
G36*
X74431Y37069D02*
X74318D01*
Y36956D01*
X74431D01*
Y36843D01*
X74318D01*
Y36956D01*
X74205D01*
Y37069D01*
X74093D01*
Y36956D01*
X74205D01*
Y36843D01*
X74093D01*
Y36956D01*
X73980D01*
Y37069D01*
X73867D01*
Y36956D01*
X73980D01*
Y36843D01*
X73867D01*
Y36956D01*
X73754D01*
Y37069D01*
X73641D01*
Y36956D01*
X73754D01*
Y36843D01*
X73641D01*
Y36956D01*
X73528D01*
Y37069D01*
X73415D01*
Y36956D01*
X73528D01*
Y36843D01*
X73415D01*
Y36956D01*
X73303D01*
Y36843D01*
X73190D01*
Y36730D01*
X73077D01*
Y36617D01*
X72964D01*
Y36504D01*
X73077D01*
Y36391D01*
X72964D01*
Y36279D01*
X73077D01*
Y36166D01*
X72964D01*
Y36053D01*
X73077D01*
Y35940D01*
X72964D01*
Y35827D01*
Y35714D01*
Y35601D01*
X72851D01*
Y35489D01*
X72738D01*
Y35376D01*
X72851D01*
Y35263D01*
X72738D01*
Y35150D01*
Y35037D01*
Y34924D01*
X72851D01*
Y34811D01*
X72964D01*
Y34698D01*
X73077D01*
Y34811D01*
X72964D01*
Y34924D01*
X73077D01*
Y34811D01*
X73190D01*
Y34924D01*
X73303D01*
Y34811D01*
X73415D01*
Y34698D01*
X73528D01*
Y34811D01*
X73415D01*
Y34924D01*
X73528D01*
Y34811D01*
X73641D01*
Y34924D01*
X73754D01*
Y34811D01*
X73867D01*
Y34698D01*
X73980D01*
Y34811D01*
X73867D01*
Y34924D01*
X73980D01*
Y34811D01*
X74093D01*
Y34924D01*
X74205D01*
Y35037D01*
X74318D01*
Y35150D01*
X74544D01*
Y35263D01*
Y35376D01*
X74657D01*
Y35489D01*
X74770D01*
Y35601D01*
X74883D01*
Y35714D01*
X74770D01*
Y35827D01*
X74883D01*
Y35940D01*
X74770D01*
Y36053D01*
X74883D01*
Y36166D01*
Y36279D01*
Y36391D01*
X74770D01*
Y36504D01*
X74883D01*
Y36617D01*
X74770D01*
Y36730D01*
X74657D01*
Y36843D01*
X74544D01*
Y36956D01*
X74431D01*
Y37069D01*
D02*
G37*
G36*
X81880Y30297D02*
X81767D01*
Y30184D01*
X81655D01*
Y30297D01*
X81542D01*
Y30184D01*
X81655D01*
Y30071D01*
X81767D01*
Y29958D01*
X81880D01*
Y30071D01*
X81993D01*
Y29958D01*
X82106D01*
Y30071D01*
X81993D01*
Y30184D01*
X81880D01*
Y30297D01*
D02*
G37*
G36*
X91361Y30071D02*
X91248D01*
Y29958D01*
X91361D01*
Y30071D01*
D02*
G37*
G36*
X90684Y28265D02*
X90571D01*
Y28152D01*
X90684D01*
Y28265D01*
D02*
G37*
G36*
X91361Y28716D02*
X91023D01*
Y28604D01*
X90910D01*
Y28491D01*
X90571D01*
Y28378D01*
X90684D01*
Y28265D01*
X90797D01*
Y28152D01*
X90910D01*
Y28039D01*
X91023D01*
Y28152D01*
X91136D01*
Y28265D01*
X91023D01*
Y28378D01*
X91136D01*
Y28491D01*
X91248D01*
Y28604D01*
X91361D01*
Y28716D01*
D02*
G37*
G36*
X92039Y27588D02*
X91926D01*
Y27475D01*
X92039D01*
Y27588D01*
D02*
G37*
G36*
X94747Y26233D02*
X94634D01*
Y26120D01*
X94747D01*
Y26233D01*
D02*
G37*
G36*
X96553Y24879D02*
X96440D01*
Y24766D01*
X96553D01*
Y24879D01*
D02*
G37*
G36*
X98133Y24202D02*
X98020D01*
Y24089D01*
X98133D01*
Y24202D01*
D02*
G37*
G36*
X98359Y23976D02*
X98246D01*
Y23863D01*
X98359D01*
Y23976D01*
D02*
G37*
G36*
X97908D02*
X97795D01*
Y23863D01*
X97908D01*
Y23976D01*
D02*
G37*
G36*
X99262Y23073D02*
X99149D01*
Y22960D01*
X99262D01*
Y23073D01*
D02*
G37*
G36*
X99939Y22847D02*
X99826D01*
Y22735D01*
X99939D01*
Y22847D01*
D02*
G37*
G36*
X100165Y22622D02*
X100052D01*
Y22509D01*
X100165D01*
Y22622D01*
D02*
G37*
G36*
X101294Y21493D02*
X101181D01*
Y21380D01*
X101294D01*
Y21493D01*
D02*
G37*
G36*
X132896Y33231D02*
X132784D01*
Y33118D01*
X132896D01*
Y33231D01*
D02*
G37*
G36*
X129962Y28039D02*
X129849D01*
Y27926D01*
X129962D01*
Y28039D01*
D02*
G37*
G36*
X121384Y34811D02*
X121271D01*
Y34698D01*
X121384D01*
Y34811D01*
D02*
G37*
G36*
X118675Y33457D02*
X118562D01*
Y33344D01*
X118675D01*
Y33231D01*
X118562D01*
Y33344D01*
X118449D01*
Y33231D01*
X118336D01*
Y33344D01*
X118224D01*
Y33231D01*
X117885D01*
Y33118D01*
X117772D01*
Y33005D01*
X117659D01*
Y33118D01*
X117546D01*
Y33005D01*
X117434D01*
Y32893D01*
X117321D01*
Y33005D01*
X117208D01*
Y32893D01*
X117321D01*
Y32780D01*
X116982D01*
Y32667D01*
X117095D01*
Y32554D01*
X116756D01*
Y32441D01*
X116869D01*
Y32328D01*
X116756D01*
Y32215D01*
X116644D01*
Y32103D01*
X116531D01*
Y31990D01*
X116644D01*
Y31877D01*
X116531D01*
Y31764D01*
X116418D01*
Y31651D01*
X116305D01*
Y31538D01*
X116418D01*
Y31425D01*
X116305D01*
Y31312D01*
X116192D01*
Y31199D01*
X116079D01*
Y31087D01*
X116192D01*
Y30974D01*
X116079D01*
Y30861D01*
Y30748D01*
Y30635D01*
X115966D01*
Y30522D01*
Y30409D01*
Y30297D01*
X115854D01*
Y30184D01*
X115966D01*
Y30071D01*
X115854D01*
Y29958D01*
Y29845D01*
Y29732D01*
X115966D01*
Y29619D01*
X115854D01*
Y29732D01*
X115741D01*
Y29619D01*
X115854D01*
Y29506D01*
X115741D01*
Y29394D01*
X115854D01*
Y29281D01*
X115741D01*
Y29168D01*
X115854D01*
Y29055D01*
X115741D01*
Y28942D01*
X115854D01*
Y28829D01*
X115966D01*
Y28716D01*
X115854D01*
Y28604D01*
X115966D01*
Y28491D01*
X115854D01*
Y28378D01*
X115966D01*
Y28265D01*
X116079D01*
Y28152D01*
X116192D01*
Y28039D01*
X116305D01*
Y27926D01*
X116418D01*
Y27814D01*
X116531D01*
Y27701D01*
X116644D01*
Y27814D01*
X116756D01*
Y27701D01*
X117772D01*
Y27814D01*
X117885D01*
Y27701D01*
X117998D01*
Y27814D01*
X118111D01*
Y27926D01*
X118449D01*
Y28039D01*
X118562D01*
Y27926D01*
X118675D01*
Y28039D01*
X118562D01*
Y28152D01*
X118675D01*
Y28265D01*
X118788D01*
Y28152D01*
X118901D01*
Y28265D01*
X118788D01*
Y28378D01*
X118901D01*
Y28491D01*
X119014D01*
Y28378D01*
X119127D01*
Y28491D01*
X119014D01*
Y28604D01*
X119127D01*
Y28716D01*
X119239D01*
Y28829D01*
X119352D01*
Y28942D01*
Y29055D01*
X119465D01*
Y29168D01*
Y29281D01*
X119578D01*
Y29394D01*
X119691D01*
Y29506D01*
Y29619D01*
Y29732D01*
X119804D01*
Y29845D01*
Y29958D01*
Y30071D01*
X119917D01*
Y30184D01*
X120030D01*
Y30297D01*
X119917D01*
Y30409D01*
X120030D01*
Y30522D01*
X119917D01*
Y30635D01*
X120030D01*
Y30748D01*
Y30861D01*
Y30974D01*
X119917D01*
Y31087D01*
X120030D01*
Y30974D01*
X120142D01*
Y31087D01*
Y31199D01*
Y31312D01*
X120255D01*
Y31425D01*
X120142D01*
Y31538D01*
X120255D01*
Y31651D01*
X120142D01*
Y31764D01*
X120255D01*
Y31877D01*
X120142D01*
Y31990D01*
Y32103D01*
Y32215D01*
X120030D01*
Y32328D01*
X119917D01*
Y32441D01*
X120030D01*
Y32554D01*
X119917D01*
Y32667D01*
Y32780D01*
Y32893D01*
X119804D01*
Y33005D01*
X119691D01*
Y33118D01*
X119352D01*
Y33231D01*
X119014D01*
Y33344D01*
X118901D01*
Y33231D01*
X118788D01*
Y33344D01*
X118675D01*
Y33457D01*
D02*
G37*
G36*
X113935Y26911D02*
X113822D01*
Y26798D01*
X113935D01*
Y26911D01*
D02*
G37*
G36*
X114386Y26459D02*
X114273D01*
Y26346D01*
X114386D01*
Y26459D01*
D02*
G37*
G36*
X167547Y33118D02*
X167434D01*
Y33005D01*
X167547D01*
Y33118D01*
D02*
G37*
G36*
X145763Y29394D02*
X145650D01*
Y29281D01*
X145763D01*
Y29394D01*
D02*
G37*
G36*
X144409Y27136D02*
X144296D01*
Y27023D01*
X144409D01*
Y27136D01*
D02*
G37*
G36*
X106034Y33231D02*
X105244D01*
Y33118D01*
X105131D01*
Y33231D01*
X104792D01*
Y33118D01*
X104680D01*
Y33231D01*
X104567D01*
Y33118D01*
Y33005D01*
Y32893D01*
X104680D01*
Y32780D01*
X104567D01*
Y32893D01*
X104454D01*
Y32780D01*
X104341D01*
Y32667D01*
X104454D01*
Y32554D01*
X104341D01*
Y32441D01*
X104454D01*
Y32328D01*
X104341D01*
Y32215D01*
X104454D01*
Y32103D01*
X104341D01*
Y31990D01*
X104228D01*
Y31877D01*
X104341D01*
Y31764D01*
X104228D01*
Y31651D01*
X104115D01*
Y31538D01*
X104228D01*
Y31425D01*
X104115D01*
Y31312D01*
X104228D01*
Y31199D01*
X104115D01*
Y31087D01*
X104002D01*
Y30974D01*
X103890D01*
Y30861D01*
X104002D01*
Y30748D01*
X103890D01*
Y30635D01*
X104002D01*
Y30522D01*
X104115D01*
Y30635D01*
X104228D01*
Y30522D01*
X104341D01*
Y30635D01*
X104454D01*
Y30522D01*
X104567D01*
Y30635D01*
X104680D01*
Y30522D01*
X105018D01*
Y30635D01*
X105131D01*
Y30522D01*
X105244D01*
Y30635D01*
X105357D01*
Y30522D01*
X105470D01*
Y30635D01*
X105808D01*
Y30748D01*
X105921D01*
Y30861D01*
X106034D01*
Y30974D01*
X106147D01*
Y31087D01*
X106260D01*
Y31199D01*
X106147D01*
Y31312D01*
X106373D01*
Y31425D01*
Y31538D01*
X106485D01*
Y31651D01*
X106373D01*
Y31764D01*
X106485D01*
Y31877D01*
Y31990D01*
Y32103D01*
X106598D01*
Y32215D01*
X106485D01*
Y32328D01*
X106598D01*
Y32215D01*
X106711D01*
Y32328D01*
X106598D01*
Y32441D01*
Y32554D01*
Y32667D01*
X106485D01*
Y32780D01*
X106373D01*
Y32893D01*
X106485D01*
Y33005D01*
X106147D01*
Y33118D01*
X106034D01*
Y33231D01*
D02*
G37*
G36*
Y28942D02*
X105921D01*
Y28829D01*
X106034D01*
Y28942D01*
D02*
G37*
G36*
X103551Y28716D02*
X103438D01*
Y28604D01*
X103551D01*
Y28716D01*
D02*
G37*
G36*
X96553Y21719D02*
X96440D01*
Y21606D01*
X96553D01*
Y21719D01*
D02*
G37*
G36*
X96779Y21493D02*
X96666D01*
Y21380D01*
X96779D01*
Y21493D01*
D02*
G37*
G36*
X344016Y77490D02*
X342931D01*
Y76139D01*
X343953D01*
X343986Y76143D01*
X344027D01*
X344071Y76151D01*
X344123Y76154D01*
X344174Y76162D01*
X344289Y76184D01*
X344403Y76213D01*
X344455Y76235D01*
X344506Y76258D01*
X344554Y76287D01*
X344595Y76317D01*
X344599Y76320D01*
X344602Y76324D01*
X344613Y76335D01*
X344628Y76350D01*
X344643Y76368D01*
X344661Y76390D01*
X344680Y76416D01*
X344698Y76450D01*
X344717Y76483D01*
X344735Y76520D01*
X344754Y76564D01*
X344768Y76608D01*
X344794Y76711D01*
X344798Y76767D01*
X344801Y76826D01*
Y76829D01*
Y76837D01*
Y76848D01*
Y76866D01*
X344798Y76885D01*
X344794Y76911D01*
X344787Y76966D01*
X344772Y77029D01*
X344750Y77095D01*
X344720Y77165D01*
X344680Y77232D01*
Y77235D01*
X344676Y77239D01*
X344658Y77258D01*
X344632Y77287D01*
X344595Y77324D01*
X344551Y77361D01*
X344495Y77398D01*
X344432Y77427D01*
X344362Y77453D01*
X344355D01*
X344337Y77460D01*
X344322D01*
X344303Y77464D01*
X344281Y77468D01*
X344259Y77472D01*
X344226Y77475D01*
X344193Y77479D01*
X344156Y77483D01*
X344115D01*
X344067Y77486D01*
X344016Y77490D01*
D02*
G37*
G36*
X360499Y77567D02*
X360469D01*
X360447Y77564D01*
X360418Y77560D01*
X360388Y77553D01*
X360314Y77534D01*
X360274Y77520D01*
X360233Y77501D01*
X360189Y77479D01*
X360148Y77453D01*
X360104Y77420D01*
X360063Y77383D01*
X360023Y77342D01*
X359986Y77294D01*
X359982Y77291D01*
X359975Y77280D01*
X359964Y77258D01*
X359949Y77224D01*
X359930Y77188D01*
X359912Y77136D01*
X359890Y77077D01*
X359868Y77007D01*
X359846Y76922D01*
X359823Y76829D01*
X359805Y76726D01*
X359787Y76608D01*
X359772Y76483D01*
X359761Y76339D01*
X359753Y76184D01*
X359750Y76018D01*
Y76014D01*
Y76007D01*
Y75996D01*
Y75977D01*
Y75955D01*
Y75929D01*
X359753Y75900D01*
Y75866D01*
X359757Y75793D01*
X359761Y75708D01*
X359768Y75612D01*
X359776Y75512D01*
X359801Y75306D01*
X359820Y75202D01*
X359842Y75103D01*
X359868Y75007D01*
X359897Y74918D01*
X359930Y74841D01*
X359967Y74778D01*
X359971Y74774D01*
X359979Y74763D01*
X359990Y74748D01*
X360008Y74730D01*
X360027Y74708D01*
X360052Y74682D01*
X360082Y74652D01*
X360115Y74627D01*
X360156Y74597D01*
X360196Y74568D01*
X360289Y74520D01*
X360336Y74501D01*
X360392Y74486D01*
X360447Y74475D01*
X360506Y74472D01*
X360521D01*
X360536Y74475D01*
X360558D01*
X360587Y74483D01*
X360617Y74486D01*
X360654Y74497D01*
X360691Y74509D01*
X360735Y74527D01*
X360775Y74545D01*
X360820Y74571D01*
X360864Y74601D01*
X360912Y74638D01*
X360956Y74678D01*
X361001Y74722D01*
X361041Y74778D01*
X361045Y74782D01*
X361052Y74793D01*
X361063Y74811D01*
X361074Y74841D01*
X361093Y74878D01*
X361111Y74926D01*
X361130Y74981D01*
X361152Y75051D01*
X361174Y75128D01*
X361192Y75217D01*
X361211Y75317D01*
X361229Y75431D01*
X361241Y75556D01*
X361251Y75697D01*
X361259Y75852D01*
X361263Y76018D01*
Y76021D01*
Y76029D01*
Y76040D01*
Y76058D01*
Y76080D01*
Y76106D01*
X361259Y76136D01*
Y76169D01*
X361255Y76243D01*
X361251Y76328D01*
X361244Y76424D01*
X361237Y76523D01*
X361211Y76730D01*
X361192Y76833D01*
X361170Y76937D01*
X361144Y77029D01*
X361119Y77117D01*
X361082Y77195D01*
X361045Y77258D01*
X361041Y77261D01*
X361034Y77272D01*
X361023Y77287D01*
X361004Y77306D01*
X360986Y77331D01*
X360960Y77357D01*
X360930Y77383D01*
X360894Y77412D01*
X360857Y77442D01*
X360816Y77468D01*
X360724Y77520D01*
X360672Y77538D01*
X360617Y77553D01*
X360558Y77564D01*
X360499Y77567D01*
D02*
G37*
G36*
X357561D02*
X357532D01*
X357510Y77564D01*
X357480Y77560D01*
X357451Y77553D01*
X357377Y77534D01*
X357336Y77520D01*
X357296Y77501D01*
X357252Y77479D01*
X357211Y77453D01*
X357167Y77420D01*
X357126Y77383D01*
X357085Y77342D01*
X357049Y77294D01*
X357045Y77291D01*
X357038Y77280D01*
X357027Y77258D01*
X357012Y77224D01*
X356993Y77188D01*
X356975Y77136D01*
X356953Y77077D01*
X356931Y77007D01*
X356908Y76922D01*
X356886Y76829D01*
X356868Y76726D01*
X356849Y76608D01*
X356835Y76483D01*
X356823Y76339D01*
X356816Y76184D01*
X356813Y76018D01*
Y76014D01*
Y76007D01*
Y75996D01*
Y75977D01*
Y75955D01*
Y75929D01*
X356816Y75900D01*
Y75866D01*
X356820Y75793D01*
X356823Y75708D01*
X356831Y75612D01*
X356838Y75512D01*
X356864Y75306D01*
X356883Y75202D01*
X356905Y75103D01*
X356931Y75007D01*
X356960Y74918D01*
X356993Y74841D01*
X357030Y74778D01*
X357034Y74774D01*
X357041Y74763D01*
X357052Y74748D01*
X357071Y74730D01*
X357089Y74708D01*
X357115Y74682D01*
X357145Y74652D01*
X357178Y74627D01*
X357218Y74597D01*
X357259Y74568D01*
X357351Y74520D01*
X357399Y74501D01*
X357454Y74486D01*
X357510Y74475D01*
X357569Y74472D01*
X357584D01*
X357598Y74475D01*
X357621D01*
X357650Y74483D01*
X357680Y74486D01*
X357716Y74497D01*
X357753Y74509D01*
X357798Y74527D01*
X357838Y74545D01*
X357883Y74571D01*
X357927Y74601D01*
X357975Y74638D01*
X358019Y74678D01*
X358063Y74722D01*
X358104Y74778D01*
X358108Y74782D01*
X358115Y74793D01*
X358126Y74811D01*
X358137Y74841D01*
X358156Y74878D01*
X358174Y74926D01*
X358192Y74981D01*
X358215Y75051D01*
X358237Y75128D01*
X358255Y75217D01*
X358274Y75317D01*
X358292Y75431D01*
X358303Y75556D01*
X358314Y75697D01*
X358322Y75852D01*
X358325Y76018D01*
Y76021D01*
Y76029D01*
Y76040D01*
Y76058D01*
Y76080D01*
Y76106D01*
X358322Y76136D01*
Y76169D01*
X358318Y76243D01*
X358314Y76328D01*
X358307Y76424D01*
X358299Y76523D01*
X358274Y76730D01*
X358255Y76833D01*
X358233Y76937D01*
X358207Y77029D01*
X358182Y77117D01*
X358145Y77195D01*
X358108Y77258D01*
X358104Y77261D01*
X358097Y77272D01*
X358085Y77287D01*
X358067Y77306D01*
X358049Y77331D01*
X358023Y77357D01*
X357993Y77383D01*
X357956Y77412D01*
X357920Y77442D01*
X357879Y77468D01*
X357787Y77520D01*
X357735Y77538D01*
X357680Y77553D01*
X357621Y77564D01*
X357561Y77567D01*
D02*
G37*
G36*
X349927D02*
X349897D01*
X349875Y77564D01*
X349846Y77560D01*
X349816Y77553D01*
X349742Y77534D01*
X349702Y77520D01*
X349661Y77501D01*
X349617Y77479D01*
X349576Y77453D01*
X349532Y77420D01*
X349492Y77383D01*
X349451Y77342D01*
X349414Y77294D01*
X349410Y77291D01*
X349403Y77280D01*
X349392Y77258D01*
X349377Y77224D01*
X349359Y77188D01*
X349340Y77136D01*
X349318Y77077D01*
X349296Y77007D01*
X349274Y76922D01*
X349252Y76829D01*
X349233Y76726D01*
X349215Y76608D01*
X349200Y76483D01*
X349189Y76339D01*
X349182Y76184D01*
X349178Y76018D01*
Y76014D01*
Y76007D01*
Y75996D01*
Y75977D01*
Y75955D01*
Y75929D01*
X349182Y75900D01*
Y75866D01*
X349185Y75793D01*
X349189Y75708D01*
X349196Y75612D01*
X349204Y75512D01*
X349230Y75306D01*
X349248Y75202D01*
X349270Y75103D01*
X349296Y75007D01*
X349325Y74918D01*
X349359Y74841D01*
X349396Y74778D01*
X349399Y74774D01*
X349407Y74763D01*
X349418Y74748D01*
X349436Y74730D01*
X349455Y74708D01*
X349481Y74682D01*
X349510Y74652D01*
X349543Y74627D01*
X349584Y74597D01*
X349624Y74568D01*
X349717Y74520D01*
X349765Y74501D01*
X349820Y74486D01*
X349875Y74475D01*
X349934Y74472D01*
X349949D01*
X349964Y74475D01*
X349986D01*
X350015Y74483D01*
X350045Y74486D01*
X350082Y74497D01*
X350119Y74509D01*
X350163Y74527D01*
X350204Y74545D01*
X350248Y74571D01*
X350292Y74601D01*
X350340Y74638D01*
X350384Y74678D01*
X350429Y74722D01*
X350469Y74778D01*
X350473Y74782D01*
X350480Y74793D01*
X350491Y74811D01*
X350503Y74841D01*
X350521Y74878D01*
X350539Y74926D01*
X350558Y74981D01*
X350580Y75051D01*
X350602Y75128D01*
X350621Y75217D01*
X350639Y75317D01*
X350658Y75431D01*
X350669Y75556D01*
X350680Y75697D01*
X350687Y75852D01*
X350691Y76018D01*
Y76021D01*
Y76029D01*
Y76040D01*
Y76058D01*
Y76080D01*
Y76106D01*
X350687Y76136D01*
Y76169D01*
X350683Y76243D01*
X350680Y76328D01*
X350672Y76424D01*
X350665Y76523D01*
X350639Y76730D01*
X350621Y76833D01*
X350599Y76937D01*
X350573Y77029D01*
X350547Y77117D01*
X350510Y77195D01*
X350473Y77258D01*
X350469Y77261D01*
X350462Y77272D01*
X350451Y77287D01*
X350432Y77306D01*
X350414Y77331D01*
X350388Y77357D01*
X350359Y77383D01*
X350322Y77412D01*
X350285Y77442D01*
X350244Y77468D01*
X350152Y77520D01*
X350100Y77538D01*
X350045Y77553D01*
X349986Y77564D01*
X349927Y77567D01*
D02*
G37*
%LPD*%
D10*
X68020Y80697D02*
G03*
X68020Y80697I-1414J0D01*
G01*
D11*
X105691Y50604D02*
X255691D01*
X39373Y80604D02*
X339313D01*
X39358Y72888D02*
X39373Y80604D01*
X39313Y50604D02*
X39328Y58321D01*
X39328Y58321D01*
X339313Y50604D02*
Y80604D01*
X39328Y58321D02*
X39358Y72888D01*
X39313Y50604D02*
X105691D01*
X255691D02*
X339313D01*
X205538Y38346D02*
Y44249D01*
X202587Y41298D01*
X206522D01*
X212426Y44249D02*
X208490D01*
Y41298D01*
X210458Y42281D01*
X211442D01*
X212426Y41298D01*
Y39330D01*
X211442Y38346D01*
X209474D01*
X208490Y39330D01*
X214394Y43266D02*
X215378Y44249D01*
X217346D01*
X218330Y43266D01*
Y39330D01*
X217346Y38346D01*
X215378D01*
X214394Y39330D01*
Y43266D01*
X220297Y44249D02*
X224233D01*
Y43266D01*
X220297Y39330D01*
Y38346D01*
X226201Y41298D02*
X230137D01*
X232105Y44249D02*
Y38346D01*
X234072Y40314D01*
X236040Y38346D01*
Y44249D01*
X238008D02*
Y38346D01*
X240960D01*
X241944Y39330D01*
Y40314D01*
X240960Y41298D01*
X238008D01*
X240960D01*
X241944Y42281D01*
Y43266D01*
X240960Y44249D01*
X238008D01*
X243912Y41298D02*
X247848D01*
X249815Y38346D02*
Y42281D01*
X251783Y44249D01*
X253751Y42281D01*
Y38346D01*
Y41298D01*
X249815D01*
X255719Y44249D02*
Y40314D01*
X257687Y38346D01*
X259655Y40314D01*
Y44249D01*
X261623Y41298D02*
X265558D01*
X267526Y44249D02*
Y38346D01*
X270478D01*
X271462Y39330D01*
Y43266D01*
X270478Y44249D01*
X267526D01*
X273430Y38346D02*
Y42281D01*
X275398Y44249D01*
X277365Y42281D01*
Y38346D01*
Y41298D01*
X273430D01*
X283269Y39330D02*
Y43266D01*
X282285Y44249D01*
X280317D01*
X279333Y43266D01*
Y39330D01*
X280317Y38346D01*
X282285D01*
X281301Y40314D02*
X283269Y38346D01*
X282285D02*
X283269Y39330D01*
X285237Y44249D02*
Y38346D01*
X288189D01*
X289173Y39330D01*
Y40314D01*
X288189Y41298D01*
X285237D01*
X288189D01*
X289173Y42281D01*
Y43266D01*
X288189Y44249D01*
X285237D01*
X291141Y38346D02*
Y44249D01*
X294092D01*
X295076Y43266D01*
Y41298D01*
X294092Y40314D01*
X291141D01*
X293109D02*
X295076Y38346D01*
X297044D02*
X299012D01*
X298028D01*
Y44249D01*
X297044Y43266D01*
X202587Y28427D02*
Y34330D01*
X205538D01*
X206522Y33347D01*
Y31379D01*
X205538Y30395D01*
X202587D01*
X204555D02*
X206522Y28427D01*
X211442D02*
X209474D01*
X208490Y29411D01*
Y31379D01*
X209474Y32363D01*
X211442D01*
X212426Y31379D01*
Y30395D01*
X208490D01*
X214394Y32363D02*
X216362Y28427D01*
X218330Y32363D01*
X220297Y28427D02*
Y29411D01*
X221281D01*
Y28427D01*
X220297D01*
X231121D02*
Y32363D01*
X233088Y34330D01*
X235056Y32363D01*
Y28427D01*
Y31379D01*
X231121D01*
X206522Y24411D02*
X204555D01*
X205538D01*
Y19492D01*
X204555Y18508D01*
X203571D01*
X202587Y19492D01*
X208490Y22444D02*
Y19492D01*
X209474Y18508D01*
X212426D01*
Y22444D01*
X214394Y18508D02*
Y22444D01*
X217346D01*
X218330Y21460D01*
Y18508D01*
X223249D02*
X221281D01*
X220297Y19492D01*
Y21460D01*
X221281Y22444D01*
X223249D01*
X224233Y21460D01*
Y20476D01*
X220297D01*
X236040Y18508D02*
X232105D01*
X236040Y22444D01*
Y23427D01*
X235056Y24411D01*
X233088D01*
X232105Y23427D01*
X238008D02*
X238992Y24411D01*
X240960D01*
X241944Y23427D01*
Y19492D01*
X240960Y18508D01*
X238992D01*
X238008Y19492D01*
Y23427D01*
X247848Y18508D02*
X243912D01*
X247848Y22444D01*
Y23427D01*
X246864Y24411D01*
X244896D01*
X243912Y23427D01*
X249815D02*
X250799Y24411D01*
X252767D01*
X253751Y23427D01*
Y19492D01*
X252767Y18508D01*
X250799D01*
X249815Y19492D01*
Y23427D01*
D12*
X59601Y66892D02*
X61175D01*
X60388D01*
Y71615D01*
X59601Y70828D01*
M02*
