G04*
G04 #@! TF.GenerationSoftware,Altium Limited,Altium Designer,20.0.11 (256)*
G04*
G04 Layer_Physical_Order=2*
G04 Layer_Color=16711680*
%FSLAX25Y25*%
%MOIN*%
G70*
G01*
G75*
%ADD10C,0.01000*%
%ADD18C,0.06378*%
%ADD19C,0.05000*%
%ADD20C,0.10630*%
%ADD21C,0.19685*%
%ADD22C,0.01500*%
D10*
X209161Y-3382D02*
X214283Y1740D01*
Y7562D01*
X210938Y10907D02*
X214283Y7562D01*
X355362Y417D02*
X359161Y-3382D01*
X355362Y417D02*
Y2449D01*
X311813Y54616D02*
X353450Y12979D01*
Y4361D02*
Y12979D01*
Y4361D02*
X355362Y2449D01*
X311813Y54616D02*
Y61854D01*
X330938Y10907D02*
X333450Y8395D01*
X320938Y10907D02*
X323450Y8395D01*
X310938Y10907D02*
X313450Y8395D01*
X300938Y10907D02*
X303450Y8395D01*
X290938Y10907D02*
X293450Y8395D01*
X280938Y10907D02*
X283450Y8395D01*
X270938Y10907D02*
X273450Y8395D01*
X260938Y10907D02*
X263450Y8395D01*
X250938Y10907D02*
X253450Y8395D01*
X327135Y10907D02*
X330938D01*
X296814Y41229D02*
Y54354D01*
Y41229D02*
X327135Y10907D01*
X317135D02*
X320938D01*
X286813Y41229D02*
Y54354D01*
Y41229D02*
X317135Y10907D01*
X307135D02*
X310938D01*
X276814Y41229D02*
Y54354D01*
Y41229D02*
X307135Y10907D01*
X297135D02*
X300938D01*
X266813Y41229D02*
Y54354D01*
Y41229D02*
X297135Y10907D01*
X287135D02*
X290938D01*
X256814Y41229D02*
Y54354D01*
Y41229D02*
X287135Y10907D01*
X277135D02*
X280938D01*
X246814Y41229D02*
Y54354D01*
Y41229D02*
X277135Y10907D01*
X267135D02*
X270938D01*
X236813Y41229D02*
Y54354D01*
Y41229D02*
X267135Y10907D01*
X257135D02*
X260938D01*
X226814Y41229D02*
Y54354D01*
Y41229D02*
X257135Y10907D01*
X247135D02*
X250938D01*
X216813Y41229D02*
Y54354D01*
Y41229D02*
X247135Y10907D01*
X237135D02*
X240938D01*
X206814Y41229D02*
Y54354D01*
Y41229D02*
X237135Y10907D01*
X329161Y553D02*
X333450Y4842D01*
X329161Y-3382D02*
Y553D01*
X333450Y4842D02*
Y8395D01*
X319161Y553D02*
X323450Y4842D01*
X319161Y-3382D02*
Y553D01*
X323450Y4842D02*
Y8395D01*
X309161Y553D02*
X313450Y4842D01*
X309161Y-3382D02*
Y553D01*
X313450Y4842D02*
Y8395D01*
X299161Y553D02*
X303450Y4842D01*
X299161Y-3382D02*
Y553D01*
X303450Y4842D02*
Y8395D01*
X289161Y553D02*
X293450Y4842D01*
X289161Y-3382D02*
Y553D01*
X293450Y4842D02*
Y8395D01*
X279161Y-3382D02*
X283450Y907D01*
Y8395D01*
X269161Y-3382D02*
X273450Y907D01*
Y8395D01*
X259161Y-3382D02*
X263450Y907D01*
Y8395D01*
X249161Y-3382D02*
X253450Y907D01*
Y8395D01*
X239161Y-3382D02*
X243450Y907D01*
Y8395D01*
X240938Y10907D02*
X243450Y8395D01*
X229161Y553D02*
X233450Y4842D01*
X227135Y10907D02*
X230938D01*
X196813Y41229D02*
X227135Y10907D01*
X229161Y-3382D02*
Y553D01*
X233450Y4842D02*
Y8395D01*
X230938Y10907D02*
X233450Y8395D01*
X219161Y553D02*
X223450Y4842D01*
X217135Y10907D02*
X220938D01*
X186813Y41229D02*
X217135Y10907D01*
X219161Y-3382D02*
Y553D01*
X223450Y4842D02*
Y8395D01*
X220938Y10907D02*
X223450Y8395D01*
X207135Y10907D02*
X210938D01*
X176813Y41229D02*
X207135Y10907D01*
X199161Y553D02*
X203450Y4842D01*
X199161Y-3382D02*
Y553D01*
X166813Y43378D02*
X199285Y10907D01*
X203450Y4842D02*
Y8395D01*
X200938Y10907D02*
X203450Y8395D01*
X199285Y10907D02*
X200938D01*
X193450Y4842D02*
Y8990D01*
X156813Y45627D02*
X193450Y8990D01*
X189161Y553D02*
X193450Y4842D01*
X189161Y-3382D02*
Y553D01*
X161784Y30061D02*
X183450Y8395D01*
X161323Y30061D02*
X161784D01*
X179161Y553D02*
X183450Y4842D01*
X179161Y-3382D02*
Y553D01*
X183450Y4842D02*
Y8395D01*
X173450Y4842D02*
Y12517D01*
X136813Y49154D02*
X173450Y12517D01*
X169161Y553D02*
X173450Y4842D01*
X169161Y-3382D02*
Y553D01*
X146813Y44571D02*
X161323Y30061D01*
X136813Y49154D02*
Y54354D01*
X146813Y44571D02*
Y54354D01*
X156813Y45627D02*
Y54354D01*
X166813Y43378D02*
Y54354D01*
X176813Y41229D02*
Y54354D01*
X186813Y41229D02*
Y54354D01*
X196813Y41229D02*
Y54354D01*
X151813Y48364D02*
X189161Y11016D01*
X178517Y7262D02*
Y10605D01*
X141813Y47309D02*
X178517Y10605D01*
X169161Y6618D02*
Y14543D01*
X131813Y51891D02*
X169161Y14543D01*
X164028Y1484D02*
Y17140D01*
X126813Y54354D02*
X164028Y17140D01*
X159161Y-3382D02*
X164028Y1484D01*
X161813Y46116D02*
X198132Y9797D01*
X189161Y6618D02*
Y11016D01*
X182013Y43766D02*
Y61654D01*
Y43766D02*
X219161Y6618D01*
X191813Y43966D02*
Y61854D01*
Y43966D02*
X229161Y6618D01*
X171813Y43966D02*
Y61854D01*
Y43966D02*
X209161Y6618D01*
Y6618D02*
Y6618D01*
X161813Y46116D02*
Y61854D01*
X198132Y7647D02*
X199161Y6618D01*
X198132Y7647D02*
Y9797D01*
X151813Y48364D02*
Y61854D01*
X141813Y47309D02*
Y61854D01*
X178517Y7262D02*
X179161Y6618D01*
X131813Y51891D02*
Y61854D01*
X301814Y43966D02*
X339161Y6618D01*
X301814Y43966D02*
Y61854D01*
X291813Y43966D02*
X329161Y6618D01*
X291813Y43966D02*
Y61854D01*
X281814Y43966D02*
X319161Y6618D01*
X281814Y43966D02*
Y61854D01*
X271814Y43966D02*
X309161Y6618D01*
X271814Y43966D02*
Y61854D01*
X261813Y43966D02*
X299161Y6618D01*
X261813Y43966D02*
Y61854D01*
X251814Y43966D02*
X289161Y6618D01*
X251814Y43966D02*
Y61854D01*
X241813Y43966D02*
X279161Y6618D01*
X241813Y43966D02*
Y61854D01*
X231814Y43966D02*
X269161Y6618D01*
X231814Y43966D02*
Y61854D01*
X221814Y43966D02*
X259161Y6618D01*
X221814Y43966D02*
Y61854D01*
X181813D02*
X182013Y61654D01*
X201813Y43966D02*
X239161Y6618D01*
X201813Y43966D02*
Y61854D01*
X211813Y43966D02*
X249161Y6618D01*
X211813Y43966D02*
Y61854D01*
X121813Y53097D02*
X159161Y15749D01*
X121813Y53097D02*
Y61854D01*
X159161Y6618D02*
Y15749D01*
X149161Y-3382D02*
Y-2847D01*
X154283Y2276D01*
Y11290D01*
X116813Y48760D02*
X154283Y11290D01*
X116813Y48760D02*
Y54354D01*
X149161Y6618D02*
X149327Y6784D01*
Y13984D01*
X144075Y1531D02*
Y16973D01*
X106813Y54235D02*
Y54354D01*
Y54235D02*
X144075Y16973D01*
X111813Y51498D02*
Y61854D01*
Y51498D02*
X149327Y13984D01*
X101813Y53097D02*
X139161Y15749D01*
Y-3382D02*
X144075Y1531D01*
X101813Y53097D02*
Y61854D01*
X139161Y6618D02*
Y15749D01*
X129161Y-3382D02*
X134213Y1669D01*
X96813Y54354D02*
X96819Y54349D01*
Y50354D02*
Y54349D01*
Y50354D02*
X134213Y12960D01*
Y1669D02*
Y12960D01*
X91813Y53097D02*
Y61854D01*
Y53097D02*
X129161Y15749D01*
Y6618D02*
Y15749D01*
X119161Y-3382D02*
X123890Y1346D01*
Y11417D01*
X86813Y48493D02*
Y54354D01*
Y48493D02*
X123890Y11417D01*
X71813Y43966D02*
X109161Y6618D01*
X71813Y43966D02*
Y61854D01*
X119161Y6618D02*
X119484Y6941D01*
Y12358D01*
X81814Y50029D02*
X119484Y12358D01*
X76814Y54354D02*
X80213Y50954D01*
X113450Y907D02*
Y16129D01*
X80213Y49366D02*
Y50954D01*
Y49366D02*
X113450Y16129D01*
X81814Y50029D02*
Y61854D01*
X109161Y-3382D02*
X113450Y907D01*
X66813Y25032D02*
Y54354D01*
Y25032D02*
X83450Y8395D01*
Y6264D02*
Y8395D01*
Y6264D02*
X87759Y1955D01*
X93824D01*
X99161Y-3382D01*
D18*
X19161Y6618D02*
D03*
Y-3382D02*
D03*
X29161Y6618D02*
D03*
Y-3382D02*
D03*
X39161Y6618D02*
D03*
Y-3382D02*
D03*
X49161Y6618D02*
D03*
Y-3382D02*
D03*
X59161Y6618D02*
D03*
Y-3382D02*
D03*
X69161Y6618D02*
D03*
Y-3382D02*
D03*
X79161Y6618D02*
D03*
Y-3382D02*
D03*
X89161Y6618D02*
D03*
Y-3382D02*
D03*
X99161Y6618D02*
D03*
Y-3382D02*
D03*
X109161Y6618D02*
D03*
Y-3382D02*
D03*
X119161Y6618D02*
D03*
Y-3382D02*
D03*
X129161Y6618D02*
D03*
Y-3382D02*
D03*
X139161Y6618D02*
D03*
Y-3382D02*
D03*
X149161Y6618D02*
D03*
Y-3382D02*
D03*
X159161Y6618D02*
D03*
Y-3382D02*
D03*
X169161Y6618D02*
D03*
Y-3382D02*
D03*
X179161Y6618D02*
D03*
Y-3382D02*
D03*
X189161Y6618D02*
D03*
Y-3382D02*
D03*
X199161Y6618D02*
D03*
Y-3382D02*
D03*
X209161Y6618D02*
D03*
Y-3382D02*
D03*
X219161Y6618D02*
D03*
Y-3382D02*
D03*
X229161Y6618D02*
D03*
Y-3382D02*
D03*
X239161Y6618D02*
D03*
Y-3382D02*
D03*
X249161Y6618D02*
D03*
Y-3382D02*
D03*
X259161Y6618D02*
D03*
Y-3382D02*
D03*
X269161Y6618D02*
D03*
Y-3382D02*
D03*
X279161Y6618D02*
D03*
Y-3382D02*
D03*
X289161Y6618D02*
D03*
Y-3382D02*
D03*
X299161Y6618D02*
D03*
Y-3382D02*
D03*
X309161Y6618D02*
D03*
Y-3382D02*
D03*
X319161Y6618D02*
D03*
Y-3382D02*
D03*
X329161Y6618D02*
D03*
Y-3382D02*
D03*
X339161Y6618D02*
D03*
Y-3382D02*
D03*
X349161Y6618D02*
D03*
Y-3382D02*
D03*
X359161Y6618D02*
D03*
Y-3382D02*
D03*
D19*
X311813Y76854D02*
D03*
X301814D02*
D03*
X291813D02*
D03*
X281814D02*
D03*
X271814D02*
D03*
X261813D02*
D03*
X251814D02*
D03*
X241813D02*
D03*
X231814D02*
D03*
X221814D02*
D03*
X211813D02*
D03*
X201813D02*
D03*
X191813D02*
D03*
X181813D02*
D03*
X171813D02*
D03*
X161813D02*
D03*
X151813D02*
D03*
X141813D02*
D03*
X131813D02*
D03*
X121813D02*
D03*
X111813D02*
D03*
X101813D02*
D03*
X91813D02*
D03*
X81814D02*
D03*
X71813D02*
D03*
X306814Y69354D02*
D03*
X296814D02*
D03*
X286813D02*
D03*
X276814D02*
D03*
X266813D02*
D03*
X256814D02*
D03*
X246814D02*
D03*
X236813D02*
D03*
X226814D02*
D03*
X216813D02*
D03*
X206814D02*
D03*
X196813D02*
D03*
X186813D02*
D03*
X176813D02*
D03*
X166813D02*
D03*
X156813D02*
D03*
X146813D02*
D03*
X136813D02*
D03*
X126813D02*
D03*
X116813D02*
D03*
X106813D02*
D03*
X96813D02*
D03*
X86813D02*
D03*
X76814D02*
D03*
X66813D02*
D03*
X311813Y61854D02*
D03*
X301814D02*
D03*
X291813D02*
D03*
X281814D02*
D03*
X271814D02*
D03*
X261813D02*
D03*
X251814D02*
D03*
X241813D02*
D03*
X231814D02*
D03*
X221814D02*
D03*
X211813D02*
D03*
X201813D02*
D03*
X191813D02*
D03*
X181813D02*
D03*
X171813D02*
D03*
X161813D02*
D03*
X151813D02*
D03*
X141813D02*
D03*
X131813D02*
D03*
X121813D02*
D03*
X111813D02*
D03*
X101813D02*
D03*
X91813D02*
D03*
X81814D02*
D03*
X71813D02*
D03*
X306814Y54354D02*
D03*
X296814D02*
D03*
X286813D02*
D03*
X276814D02*
D03*
X266813D02*
D03*
X256814D02*
D03*
X246814D02*
D03*
X236813D02*
D03*
X226814D02*
D03*
X216813D02*
D03*
X206814D02*
D03*
X196813D02*
D03*
X186813D02*
D03*
X176813D02*
D03*
X166813D02*
D03*
X156813D02*
D03*
X146813D02*
D03*
X136813D02*
D03*
X126813D02*
D03*
X116813D02*
D03*
X106813D02*
D03*
X96813D02*
D03*
X86813D02*
D03*
X76814D02*
D03*
X66813D02*
D03*
D20*
X49313Y65604D02*
D03*
X329313D02*
D03*
D21*
X351319Y35228D02*
D03*
X26839D02*
D03*
D22*
X344035Y5283D02*
X348132Y1186D01*
X344035Y5283D02*
Y11708D01*
X306814Y48930D02*
X344035Y11708D01*
X348132Y-2353D02*
X349161Y-3382D01*
X348132Y-2353D02*
Y1186D01*
X306814Y48930D02*
Y54354D01*
M02*
