G04*
G04 #@! TF.GenerationSoftware,Altium Limited,Altium Designer,20.0.11 (256)*
G04*
G04 Layer_Physical_Order=1*
G04 Layer_Color=255*
%FSLAX25Y25*%
%MOIN*%
G70*
G01*
G75*
%ADD10C,0.01000*%
%ADD18C,0.06378*%
%ADD19C,0.05000*%
%ADD20C,0.10630*%
%ADD21C,0.19685*%
D10*
X36129Y9651D02*
G03*
X34894Y7046I3033J-3033D01*
G01*
X36129Y9651D02*
X73213Y46736D01*
Y55845D01*
X36129Y9651D02*
X36129D01*
X29161Y6618D02*
X30121Y7577D01*
Y10290D01*
X71613Y51783D01*
Y52200D01*
X71614Y56508D02*
X76613Y61508D01*
Y64008D02*
X76814Y64208D01*
Y69354D01*
X78214Y60846D02*
Y63345D01*
X73213Y55845D02*
X78214Y60846D01*
X76613Y61508D02*
Y64008D01*
X78214Y63345D02*
X81814Y66945D01*
X71614Y52200D02*
Y56508D01*
X34872Y7025D02*
X34894Y7046D01*
X34872Y6264D02*
Y7025D01*
X306465Y60098D02*
Y62240D01*
X311813Y67589D02*
Y76854D01*
X306465Y62240D02*
X311813Y67589D01*
X301535Y55169D02*
X306465Y60098D01*
X297800Y45972D02*
X301535Y49708D01*
Y55169D01*
X138516Y45972D02*
X297800D01*
X99161Y6618D02*
X138516Y45972D01*
X130413Y47870D02*
Y55363D01*
X94872Y10066D02*
X133213Y48407D01*
X94872Y6264D02*
Y10066D01*
X89161Y6618D02*
X130413Y47870D01*
X133213Y48407D02*
Y55900D01*
X138213Y63345D02*
X141813Y66945D01*
X130413Y55363D02*
X136613Y61563D01*
X138213Y60900D02*
Y63345D01*
X136613Y69154D02*
X136813Y69354D01*
X141813Y66945D02*
Y76854D01*
X136613Y61563D02*
Y69154D01*
X133213Y55900D02*
X138213Y60900D01*
X89916Y-2627D02*
Y1307D01*
X89161Y-3382D02*
X89916Y-2627D01*
Y1307D02*
X94872Y6264D01*
X123213Y55900D02*
X128213Y60900D01*
X84872Y9930D02*
X123213Y48271D01*
Y55900D01*
X126613Y61563D02*
Y69154D01*
X131813Y66945D02*
Y76854D01*
X126613Y69154D02*
X126813Y69354D01*
X120413Y55363D02*
X126613Y61563D01*
X128213Y63345D02*
X131813Y66945D01*
X128213Y60900D02*
Y63345D01*
X79161Y-3382D02*
X79916Y-2627D01*
X84872Y6264D02*
Y9930D01*
X79161Y6618D02*
X120413Y47870D01*
X79916Y-2627D02*
Y1307D01*
X120413Y47870D02*
Y55363D01*
X79916Y1307D02*
X84872Y6264D01*
X121813Y68967D02*
Y76854D01*
X117126Y64280D02*
X121813Y68967D01*
X113213Y55900D02*
X117126Y59813D01*
X111613Y56563D02*
X113542Y58492D01*
X116048Y68589D02*
X116813Y69354D01*
X115413Y64830D02*
X116048Y65464D01*
X117126Y59813D02*
Y64280D01*
X116048Y65464D02*
Y68589D01*
X113542Y58492D02*
X115413Y60363D01*
Y64830D01*
X111613Y49070D02*
Y56563D01*
X69161Y6618D02*
X111613Y49070D01*
X113213Y52863D02*
X113576Y52500D01*
X113213Y52863D02*
Y55900D01*
X113576Y47494D02*
Y52500D01*
X69161Y-3382D02*
X69916Y-2627D01*
Y1307D01*
X74872Y6264D01*
Y8790D01*
X113576Y47494D01*
X64122Y5513D02*
Y8772D01*
X103213Y47863D01*
Y55900D01*
X59161Y6618D02*
X101613Y49070D01*
Y56563D01*
X111813Y68309D02*
Y76854D01*
X108213Y64710D02*
X111813Y68309D01*
X103213Y55900D02*
X108213Y60900D01*
X101613Y56563D02*
X106613Y61563D01*
X108213Y60900D02*
Y64710D01*
X106613Y69154D02*
X106813Y69354D01*
X106613Y61563D02*
Y69154D01*
X59161Y-3382D02*
X59916Y-2627D01*
Y1307D01*
X64122Y5513D01*
X49161Y11329D02*
X91500Y53668D01*
Y56450D01*
X54872Y14778D02*
X93100Y53005D01*
Y55787D01*
X49161Y6618D02*
Y11329D01*
X54872Y8152D02*
Y14778D01*
X43450Y4842D02*
Y9403D01*
X39161Y7377D02*
X80414Y48629D01*
X82013Y47966D02*
Y54890D01*
X43450Y9403D02*
X82013Y47966D01*
X80414Y48629D02*
Y55552D01*
X39161Y6618D02*
Y7377D01*
X101813Y68821D02*
Y76854D01*
X98213Y65221D02*
X101813Y68821D01*
X98213Y60900D02*
Y65221D01*
X91500Y56450D02*
X96614Y61563D01*
X93100Y55787D02*
X98213Y60900D01*
X96614Y69154D02*
X96813Y69354D01*
X96614Y61563D02*
Y69154D01*
X54394Y7673D02*
X54872Y8152D01*
X49161Y-3382D02*
X50190Y-2353D01*
Y1286D01*
X54394Y5489D01*
Y7673D01*
X87053Y62482D02*
X91813Y67243D01*
Y76854D01*
X87053Y59740D02*
Y62482D01*
X85413Y60363D02*
Y63105D01*
X82013Y54890D02*
X83778Y56654D01*
X85413Y63105D02*
X86813Y64505D01*
X80414Y55552D02*
X83115Y58254D01*
X83967Y56654D02*
X87053Y59740D01*
X83778Y56654D02*
X83967D01*
X83115Y58254D02*
X83305D01*
X86813Y64505D02*
Y69354D01*
X83305Y58254D02*
X85413Y60363D01*
X39916Y1307D02*
X43450Y4842D01*
X39916Y-2627D02*
Y1307D01*
X39161Y-3382D02*
X39916Y-2627D01*
X81814Y66945D02*
Y76854D01*
X29916Y1307D02*
X34872Y6264D01*
X29916Y-2627D02*
Y1307D01*
X29161Y-3382D02*
X29916Y-2627D01*
X50567Y34232D02*
Y47962D01*
X71122Y68517D01*
Y76163D01*
X71813Y76854D01*
X24872Y8537D02*
X50567Y34232D01*
X24872Y6264D02*
Y8537D01*
X19916Y1307D02*
X24872Y6264D01*
X19916Y-2627D02*
Y1307D01*
X19161Y-3382D02*
X19916Y-2627D01*
X47153Y49694D02*
X66813Y69354D01*
X47153Y34610D02*
Y49694D01*
X19161Y6618D02*
X47153Y34610D01*
D18*
X19161Y6618D02*
D03*
Y-3382D02*
D03*
X29161Y6618D02*
D03*
Y-3382D02*
D03*
X39161Y6618D02*
D03*
Y-3382D02*
D03*
X49161Y6618D02*
D03*
Y-3382D02*
D03*
X59161Y6618D02*
D03*
Y-3382D02*
D03*
X69161Y6618D02*
D03*
Y-3382D02*
D03*
X79161Y6618D02*
D03*
Y-3382D02*
D03*
X89161Y6618D02*
D03*
Y-3382D02*
D03*
X99161Y6618D02*
D03*
Y-3382D02*
D03*
X109161Y6618D02*
D03*
Y-3382D02*
D03*
X119161Y6618D02*
D03*
Y-3382D02*
D03*
X129161Y6618D02*
D03*
Y-3382D02*
D03*
X139161Y6618D02*
D03*
Y-3382D02*
D03*
X149161Y6618D02*
D03*
Y-3382D02*
D03*
X159161Y6618D02*
D03*
Y-3382D02*
D03*
X169161Y6618D02*
D03*
Y-3382D02*
D03*
X179161Y6618D02*
D03*
Y-3382D02*
D03*
X189161Y6618D02*
D03*
Y-3382D02*
D03*
X199161Y6618D02*
D03*
Y-3382D02*
D03*
X209161Y6618D02*
D03*
Y-3382D02*
D03*
X219161Y6618D02*
D03*
Y-3382D02*
D03*
X229161Y6618D02*
D03*
Y-3382D02*
D03*
X239161Y6618D02*
D03*
Y-3382D02*
D03*
X249161Y6618D02*
D03*
Y-3382D02*
D03*
X259161Y6618D02*
D03*
Y-3382D02*
D03*
X269161Y6618D02*
D03*
Y-3382D02*
D03*
X279161Y6618D02*
D03*
Y-3382D02*
D03*
X289161Y6618D02*
D03*
Y-3382D02*
D03*
X299161Y6618D02*
D03*
Y-3382D02*
D03*
X309161Y6618D02*
D03*
Y-3382D02*
D03*
X319161Y6618D02*
D03*
Y-3382D02*
D03*
X329161Y6618D02*
D03*
Y-3382D02*
D03*
X339161Y6618D02*
D03*
Y-3382D02*
D03*
X349161Y6618D02*
D03*
Y-3382D02*
D03*
X359161Y6618D02*
D03*
Y-3382D02*
D03*
D19*
X311813Y76854D02*
D03*
X301814D02*
D03*
X291813D02*
D03*
X281814D02*
D03*
X271814D02*
D03*
X261813D02*
D03*
X251814D02*
D03*
X241813D02*
D03*
X231814D02*
D03*
X221814D02*
D03*
X211813D02*
D03*
X201813D02*
D03*
X191813D02*
D03*
X181813D02*
D03*
X171813D02*
D03*
X161813D02*
D03*
X151813D02*
D03*
X141813D02*
D03*
X131813D02*
D03*
X121813D02*
D03*
X111813D02*
D03*
X101813D02*
D03*
X91813D02*
D03*
X81814D02*
D03*
X71813D02*
D03*
X306814Y69354D02*
D03*
X296814D02*
D03*
X286813D02*
D03*
X276814D02*
D03*
X266813D02*
D03*
X256814D02*
D03*
X246814D02*
D03*
X236813D02*
D03*
X226814D02*
D03*
X216813D02*
D03*
X206814D02*
D03*
X196813D02*
D03*
X186813D02*
D03*
X176813D02*
D03*
X166813D02*
D03*
X156813D02*
D03*
X146813D02*
D03*
X136813D02*
D03*
X126813D02*
D03*
X116813D02*
D03*
X106813D02*
D03*
X96813D02*
D03*
X86813D02*
D03*
X76814D02*
D03*
X66813D02*
D03*
X311813Y61854D02*
D03*
X301814D02*
D03*
X291813D02*
D03*
X281814D02*
D03*
X271814D02*
D03*
X261813D02*
D03*
X251814D02*
D03*
X241813D02*
D03*
X231814D02*
D03*
X221814D02*
D03*
X211813D02*
D03*
X201813D02*
D03*
X191813D02*
D03*
X181813D02*
D03*
X171813D02*
D03*
X161813D02*
D03*
X151813D02*
D03*
X141813D02*
D03*
X131813D02*
D03*
X121813D02*
D03*
X111813D02*
D03*
X101813D02*
D03*
X91813D02*
D03*
X81814D02*
D03*
X71813D02*
D03*
X306814Y54354D02*
D03*
X296814D02*
D03*
X286813D02*
D03*
X276814D02*
D03*
X266813D02*
D03*
X256814D02*
D03*
X246814D02*
D03*
X236813D02*
D03*
X226814D02*
D03*
X216813D02*
D03*
X206814D02*
D03*
X196813D02*
D03*
X186813D02*
D03*
X176813D02*
D03*
X166813D02*
D03*
X156813D02*
D03*
X146813D02*
D03*
X136813D02*
D03*
X126813D02*
D03*
X116813D02*
D03*
X106813D02*
D03*
X96813D02*
D03*
X86813D02*
D03*
X76814D02*
D03*
X66813D02*
D03*
D20*
X49313Y65604D02*
D03*
X329313D02*
D03*
D21*
X351319Y35228D02*
D03*
X26839D02*
D03*
M02*
