G04*
G04 #@! TF.GenerationSoftware,Altium Limited,Altium Designer,20.0.11 (256)*
G04*
G04 Layer_Color=16711935*
%FSLAX25Y25*%
%MOIN*%
G70*
G01*
G75*
%ADD13C,0.00000*%
%ADD14C,0.07178*%
%ADD15C,0.05800*%
%ADD16C,0.11430*%
%ADD17C,0.20485*%
D13*
X22551Y6618D02*
G03*
X22551Y6618I-3390J0D01*
G01*
Y-3382D02*
G03*
X22551Y-3382I-3390J0D01*
G01*
X32551Y6618D02*
G03*
X32551Y6618I-3390J0D01*
G01*
Y-3382D02*
G03*
X32551Y-3382I-3390J0D01*
G01*
X42551Y6618D02*
G03*
X42551Y6618I-3390J0D01*
G01*
Y-3382D02*
G03*
X42551Y-3382I-3390J0D01*
G01*
X52551Y6618D02*
G03*
X52551Y6618I-3390J0D01*
G01*
Y-3382D02*
G03*
X52551Y-3382I-3390J0D01*
G01*
X62551Y6618D02*
G03*
X62551Y6618I-3390J0D01*
G01*
Y-3382D02*
G03*
X62551Y-3382I-3390J0D01*
G01*
X72551Y6618D02*
G03*
X72551Y6618I-3390J0D01*
G01*
Y-3382D02*
G03*
X72551Y-3382I-3390J0D01*
G01*
X82551Y6618D02*
G03*
X82551Y6618I-3390J0D01*
G01*
Y-3382D02*
G03*
X82551Y-3382I-3390J0D01*
G01*
X92551Y6618D02*
G03*
X92551Y6618I-3390J0D01*
G01*
Y-3382D02*
G03*
X92551Y-3382I-3390J0D01*
G01*
X102551Y6618D02*
G03*
X102551Y6618I-3390J0D01*
G01*
Y-3382D02*
G03*
X102551Y-3382I-3390J0D01*
G01*
X112551Y6618D02*
G03*
X112551Y6618I-3390J0D01*
G01*
Y-3382D02*
G03*
X112551Y-3382I-3390J0D01*
G01*
X122551Y6618D02*
G03*
X122551Y6618I-3390J0D01*
G01*
Y-3382D02*
G03*
X122551Y-3382I-3390J0D01*
G01*
X132551Y6618D02*
G03*
X132551Y6618I-3390J0D01*
G01*
Y-3382D02*
G03*
X132551Y-3382I-3390J0D01*
G01*
X142551Y6618D02*
G03*
X142551Y6618I-3390J0D01*
G01*
Y-3382D02*
G03*
X142551Y-3382I-3390J0D01*
G01*
X152551Y6618D02*
G03*
X152551Y6618I-3390J0D01*
G01*
Y-3382D02*
G03*
X152551Y-3382I-3390J0D01*
G01*
X162551Y6618D02*
G03*
X162551Y6618I-3390J0D01*
G01*
Y-3382D02*
G03*
X162551Y-3382I-3390J0D01*
G01*
X172551Y6618D02*
G03*
X172551Y6618I-3390J0D01*
G01*
Y-3382D02*
G03*
X172551Y-3382I-3390J0D01*
G01*
X182551Y6618D02*
G03*
X182551Y6618I-3390J0D01*
G01*
Y-3382D02*
G03*
X182551Y-3382I-3390J0D01*
G01*
X192551Y6618D02*
G03*
X192551Y6618I-3390J0D01*
G01*
Y-3382D02*
G03*
X192551Y-3382I-3390J0D01*
G01*
X202551Y6618D02*
G03*
X202551Y6618I-3390J0D01*
G01*
Y-3382D02*
G03*
X202551Y-3382I-3390J0D01*
G01*
X212551Y6618D02*
G03*
X212551Y6618I-3390J0D01*
G01*
Y-3382D02*
G03*
X212551Y-3382I-3390J0D01*
G01*
X222551Y6618D02*
G03*
X222551Y6618I-3390J0D01*
G01*
Y-3382D02*
G03*
X222551Y-3382I-3390J0D01*
G01*
X232551Y6618D02*
G03*
X232551Y6618I-3390J0D01*
G01*
Y-3382D02*
G03*
X232551Y-3382I-3390J0D01*
G01*
X242551Y6618D02*
G03*
X242551Y6618I-3390J0D01*
G01*
Y-3382D02*
G03*
X242551Y-3382I-3390J0D01*
G01*
X252551Y6618D02*
G03*
X252551Y6618I-3390J0D01*
G01*
Y-3382D02*
G03*
X252551Y-3382I-3390J0D01*
G01*
X262551Y6618D02*
G03*
X262551Y6618I-3390J0D01*
G01*
Y-3382D02*
G03*
X262551Y-3382I-3390J0D01*
G01*
X272551Y6618D02*
G03*
X272551Y6618I-3390J0D01*
G01*
Y-3382D02*
G03*
X272551Y-3382I-3390J0D01*
G01*
X282551Y6618D02*
G03*
X282551Y6618I-3390J0D01*
G01*
Y-3382D02*
G03*
X282551Y-3382I-3390J0D01*
G01*
X292551Y6618D02*
G03*
X292551Y6618I-3390J0D01*
G01*
Y-3382D02*
G03*
X292551Y-3382I-3390J0D01*
G01*
X302551Y6618D02*
G03*
X302551Y6618I-3390J0D01*
G01*
Y-3382D02*
G03*
X302551Y-3382I-3390J0D01*
G01*
X312551Y6618D02*
G03*
X312551Y6618I-3390J0D01*
G01*
Y-3382D02*
G03*
X312551Y-3382I-3390J0D01*
G01*
X322551Y6618D02*
G03*
X322551Y6618I-3390J0D01*
G01*
Y-3382D02*
G03*
X322551Y-3382I-3390J0D01*
G01*
X332551Y6618D02*
G03*
X332551Y6618I-3390J0D01*
G01*
Y-3382D02*
G03*
X332551Y-3382I-3390J0D01*
G01*
X342551Y6618D02*
G03*
X342551Y6618I-3390J0D01*
G01*
Y-3382D02*
G03*
X342551Y-3382I-3390J0D01*
G01*
X352551Y6618D02*
G03*
X352551Y6618I-3390J0D01*
G01*
Y-3382D02*
G03*
X352551Y-3382I-3390J0D01*
G01*
X362551Y6618D02*
G03*
X362551Y6618I-3390J0D01*
G01*
Y-3382D02*
G03*
X362551Y-3382I-3390J0D01*
G01*
D14*
X19161Y6618D02*
D03*
Y-3382D02*
D03*
X29161Y6618D02*
D03*
Y-3382D02*
D03*
X39161Y6618D02*
D03*
Y-3382D02*
D03*
X49161Y6618D02*
D03*
Y-3382D02*
D03*
X59161Y6618D02*
D03*
Y-3382D02*
D03*
X69161Y6618D02*
D03*
Y-3382D02*
D03*
X79161Y6618D02*
D03*
Y-3382D02*
D03*
X89161Y6618D02*
D03*
Y-3382D02*
D03*
X99161Y6618D02*
D03*
Y-3382D02*
D03*
X109161Y6618D02*
D03*
Y-3382D02*
D03*
X119161Y6618D02*
D03*
Y-3382D02*
D03*
X129161Y6618D02*
D03*
Y-3382D02*
D03*
X139161Y6618D02*
D03*
Y-3382D02*
D03*
X149161Y6618D02*
D03*
Y-3382D02*
D03*
X159161Y6618D02*
D03*
Y-3382D02*
D03*
X169161Y6618D02*
D03*
Y-3382D02*
D03*
X179161Y6618D02*
D03*
Y-3382D02*
D03*
X189161Y6618D02*
D03*
Y-3382D02*
D03*
X199161Y6618D02*
D03*
Y-3382D02*
D03*
X209161Y6618D02*
D03*
Y-3382D02*
D03*
X219161Y6618D02*
D03*
Y-3382D02*
D03*
X229161Y6618D02*
D03*
Y-3382D02*
D03*
X239161Y6618D02*
D03*
Y-3382D02*
D03*
X249161Y6618D02*
D03*
Y-3382D02*
D03*
X259161Y6618D02*
D03*
Y-3382D02*
D03*
X269161Y6618D02*
D03*
Y-3382D02*
D03*
X279161Y6618D02*
D03*
Y-3382D02*
D03*
X289161Y6618D02*
D03*
Y-3382D02*
D03*
X299161Y6618D02*
D03*
Y-3382D02*
D03*
X309161Y6618D02*
D03*
Y-3382D02*
D03*
X319161Y6618D02*
D03*
Y-3382D02*
D03*
X329161Y6618D02*
D03*
Y-3382D02*
D03*
X339161Y6618D02*
D03*
Y-3382D02*
D03*
X349161Y6618D02*
D03*
Y-3382D02*
D03*
X359161Y6618D02*
D03*
Y-3382D02*
D03*
D15*
X311813Y76854D02*
D03*
X301814D02*
D03*
X291813D02*
D03*
X281814D02*
D03*
X271814D02*
D03*
X261813D02*
D03*
X251814D02*
D03*
X241813D02*
D03*
X231814D02*
D03*
X221814D02*
D03*
X211813D02*
D03*
X201813D02*
D03*
X191813D02*
D03*
X181813D02*
D03*
X171813D02*
D03*
X161813D02*
D03*
X151813D02*
D03*
X141813D02*
D03*
X131813D02*
D03*
X121813D02*
D03*
X111813D02*
D03*
X101813D02*
D03*
X91813D02*
D03*
X81814D02*
D03*
X71813D02*
D03*
X306814Y69354D02*
D03*
X296814D02*
D03*
X286813D02*
D03*
X276814D02*
D03*
X266813D02*
D03*
X256814D02*
D03*
X246814D02*
D03*
X236813D02*
D03*
X226814D02*
D03*
X216813D02*
D03*
X206814D02*
D03*
X196813D02*
D03*
X186813D02*
D03*
X176813D02*
D03*
X166813D02*
D03*
X156813D02*
D03*
X146813D02*
D03*
X136813D02*
D03*
X126813D02*
D03*
X116813D02*
D03*
X106813D02*
D03*
X96813D02*
D03*
X86813D02*
D03*
X76814D02*
D03*
X66813D02*
D03*
X311813Y61854D02*
D03*
X301814D02*
D03*
X291813D02*
D03*
X281814D02*
D03*
X271814D02*
D03*
X261813D02*
D03*
X251814D02*
D03*
X241813D02*
D03*
X231814D02*
D03*
X221814D02*
D03*
X211813D02*
D03*
X201813D02*
D03*
X191813D02*
D03*
X181813D02*
D03*
X171813D02*
D03*
X161813D02*
D03*
X151813D02*
D03*
X141813D02*
D03*
X131813D02*
D03*
X121813D02*
D03*
X111813D02*
D03*
X101813D02*
D03*
X91813D02*
D03*
X81814D02*
D03*
X71813D02*
D03*
X306814Y54354D02*
D03*
X296814D02*
D03*
X286813D02*
D03*
X276814D02*
D03*
X266813D02*
D03*
X256814D02*
D03*
X246814D02*
D03*
X236813D02*
D03*
X226814D02*
D03*
X216813D02*
D03*
X206814D02*
D03*
X196813D02*
D03*
X186813D02*
D03*
X176813D02*
D03*
X166813D02*
D03*
X156813D02*
D03*
X146813D02*
D03*
X136813D02*
D03*
X126813D02*
D03*
X116813D02*
D03*
X106813D02*
D03*
X96813D02*
D03*
X86813D02*
D03*
X76814D02*
D03*
X66813D02*
D03*
D16*
X49313Y65604D02*
D03*
X329313D02*
D03*
D17*
X351319Y35228D02*
D03*
X26839D02*
D03*
M02*
