M48
;Layer_Color=9474304
;FILE_FORMAT=2:5
INCH,LZ
;TYPE=PLATED
T1F00S00C0.03150
T2F00S00C0.04016
T3F00S00C0.09055
T4F00S00C0.12598
%
T01
X0066813Y0054354
X0076814
X0086813
X0096813
X0106813
X0116813
X0126813
X0136813
X0146813
X0156813
X0166813
X0176813
X0186813
X0196813
X0206814
X0216813
X0211813Y0061854
X0201813
X0191813
X0181813
X0171813
X0161813
X0151813
X0141813
X0131813
X0121813
X0111813
X0101813
X0091813
X0081814
X0071813
X0076814Y0069354
X0086813
X0096813
X0106813
X0116813
X0126813
X0136813
X0146813
X0156813
X0166813
X0176813
X0186813
X0196813
X0206814
X0216813
X0211813Y0076854
X0201813
X0191813
X0181813
X0171813
X0161813
X0151813
X0141813
X0131813
X0121813
X0111813
X0101813
X0091813
X0081814
X0071813
X0066813Y0069354
X0226814
X0236813
X0246814
X0256814
X0266813
X0276814
X0286813
X0296814
X0306814
X0311813Y0076854
X0301814
X0291813
X0281814
X0271814
X0261813
X0251814
X0241813
X0231814
X0221814
Y0061854
X0231814
X0241813
X0251814
X0261813
X0271814
X0281814
X0291813
X0301814
X0311813
X0306814Y0054354
X0296814
X0286813
X0276814
X0266813
X0256814
X0246814
X0236813
X0226814
T02
X0019161Y-0003382
Y0006618
X0029161
Y-0003382
X0039161
Y0006618
X0049161
Y-0003382
X0059161
Y0006618
X0069161
Y-0003382
X0079161
Y0006618
X0089161
Y-0003382
X0099161
Y0006618
X0109161
Y-0003382
X0119161
Y0006618
X0129161
Y-0003382
X0139161
Y0006618
X0149161
Y-0003382
X0159161
Y0006618
X0169161
Y-0003382
X0179161
Y0006618
X0189161
Y-0003382
X0199161
Y0006618
X0209161
Y-0003382
X0219161
Y0006618
X0229161
Y-0003382
X0239161
Y0006618
X0249161
Y-0003382
X0259161
Y0006618
X0269161
Y-0003382
X0279161
Y0006618
X0289161
Y-0003382
X0299161
Y0006618
X0309161
Y-0003382
X0319161
Y0006618
X0329161
Y-0003382
X0339161
Y0006618
X0349161
Y-0003382
X0359161
Y0006618
T03
X0049313Y0065604
X0329313
T04
X0026839Y0035228
X0351319
M30
