G04*
G04 #@! TF.GenerationSoftware,Altium Limited,Altium Designer,20.0.11 (256)*
G04*
G04 Layer_Color=32896*
%FSLAX25Y25*%
%MOIN*%
G70*
G01*
G75*
%ADD13C,0.00000*%
G36*
X-12062Y1979D02*
X-12201D01*
Y2118D01*
X-12062D01*
Y1979D01*
D02*
G37*
G36*
X-10026Y2134D02*
X-10006Y2132D01*
X-9987Y2130D01*
X-9970Y2126D01*
X-9953Y2122D01*
X-9937Y2117D01*
X-9923Y2111D01*
X-9909Y2106D01*
X-9897Y2101D01*
X-9886Y2095D01*
X-9877Y2090D01*
X-9869Y2086D01*
X-9863Y2082D01*
X-9859Y2079D01*
X-9856Y2078D01*
X-9855Y2077D01*
X-9840Y2065D01*
X-9826Y2053D01*
X-9801Y2025D01*
X-9780Y1997D01*
X-9763Y1969D01*
X-9756Y1956D01*
X-9749Y1944D01*
X-9744Y1933D01*
X-9740Y1924D01*
X-9736Y1916D01*
X-9734Y1910D01*
X-9732Y1906D01*
Y1905D01*
X-9725Y1883D01*
X-9718Y1860D01*
X-9712Y1835D01*
X-9708Y1810D01*
X-9700Y1759D01*
X-9697Y1735D01*
X-9695Y1711D01*
X-9693Y1689D01*
X-9692Y1668D01*
X-9691Y1649D01*
Y1633D01*
X-9690Y1620D01*
Y1610D01*
Y1607D01*
Y1604D01*
Y1603D01*
Y1602D01*
Y1569D01*
X-9692Y1537D01*
X-9694Y1508D01*
X-9697Y1481D01*
X-9700Y1456D01*
X-9703Y1433D01*
X-9707Y1412D01*
X-9711Y1394D01*
X-9715Y1377D01*
X-9719Y1363D01*
X-9722Y1351D01*
X-9725Y1341D01*
X-9728Y1333D01*
X-9730Y1327D01*
X-9731Y1324D01*
X-9732Y1323D01*
X-9740Y1305D01*
X-9749Y1289D01*
X-9759Y1273D01*
X-9769Y1259D01*
X-9779Y1245D01*
X-9789Y1233D01*
X-9799Y1222D01*
X-9809Y1212D01*
X-9818Y1203D01*
X-9826Y1196D01*
X-9834Y1189D01*
X-9841Y1184D01*
X-9846Y1179D01*
X-9850Y1176D01*
X-9853Y1175D01*
X-9854Y1174D01*
X-9869Y1165D01*
X-9885Y1156D01*
X-9900Y1149D01*
X-9915Y1143D01*
X-9945Y1134D01*
X-9972Y1128D01*
X-9985Y1125D01*
X-9996Y1124D01*
X-10006Y1123D01*
X-10015Y1122D01*
X-10021Y1121D01*
X-10031D01*
X-10056Y1122D01*
X-10079Y1125D01*
X-10101Y1130D01*
X-10122Y1135D01*
X-10142Y1143D01*
X-10160Y1150D01*
X-10177Y1159D01*
X-10193Y1167D01*
X-10207Y1176D01*
X-10219Y1185D01*
X-10229Y1192D01*
X-10238Y1199D01*
X-10245Y1205D01*
X-10250Y1210D01*
X-10253Y1213D01*
X-10254Y1214D01*
X-10269Y1232D01*
X-10283Y1251D01*
X-10295Y1271D01*
X-10305Y1291D01*
X-10313Y1311D01*
X-10320Y1331D01*
X-10326Y1351D01*
X-10331Y1370D01*
X-10335Y1388D01*
X-10337Y1404D01*
X-10339Y1419D01*
X-10341Y1432D01*
Y1442D01*
X-10342Y1450D01*
Y1455D01*
Y1457D01*
X-10341Y1484D01*
X-10338Y1509D01*
X-10334Y1533D01*
X-10329Y1555D01*
X-10322Y1576D01*
X-10315Y1595D01*
X-10307Y1613D01*
X-10299Y1629D01*
X-10292Y1644D01*
X-10284Y1656D01*
X-10277Y1667D01*
X-10270Y1676D01*
X-10265Y1683D01*
X-10261Y1688D01*
X-10258Y1691D01*
X-10257Y1692D01*
X-10241Y1708D01*
X-10224Y1721D01*
X-10206Y1733D01*
X-10189Y1743D01*
X-10171Y1752D01*
X-10154Y1759D01*
X-10137Y1765D01*
X-10121Y1770D01*
X-10106Y1774D01*
X-10092Y1776D01*
X-10080Y1778D01*
X-10070Y1780D01*
X-10061D01*
X-10054Y1781D01*
X-10049D01*
X-10022Y1779D01*
X-9996Y1775D01*
X-9973Y1770D01*
X-9953Y1763D01*
X-9944Y1760D01*
X-9936Y1756D01*
X-9929Y1753D01*
X-9923Y1751D01*
X-9918Y1748D01*
X-9915Y1747D01*
X-9913Y1745D01*
X-9912D01*
X-9890Y1731D01*
X-9870Y1715D01*
X-9853Y1699D01*
X-9838Y1684D01*
X-9827Y1671D01*
X-9819Y1661D01*
X-9816Y1657D01*
X-9814Y1654D01*
X-9812Y1652D01*
Y1661D01*
Y1669D01*
Y1673D01*
Y1675D01*
X-9813Y1703D01*
X-9815Y1730D01*
X-9818Y1756D01*
X-9821Y1778D01*
X-9823Y1789D01*
X-9824Y1798D01*
X-9826Y1805D01*
X-9827Y1812D01*
X-9828Y1818D01*
X-9829Y1822D01*
X-9830Y1824D01*
Y1825D01*
X-9837Y1851D01*
X-9845Y1874D01*
X-9852Y1894D01*
X-9859Y1910D01*
X-9865Y1924D01*
X-9870Y1933D01*
X-9874Y1939D01*
X-9875Y1940D01*
Y1941D01*
X-9886Y1956D01*
X-9897Y1970D01*
X-9909Y1982D01*
X-9920Y1992D01*
X-9930Y1999D01*
X-9938Y2005D01*
X-9943Y2009D01*
X-9944Y2010D01*
X-9945D01*
X-9961Y2018D01*
X-9978Y2024D01*
X-9994Y2029D01*
X-10010Y2032D01*
X-10023Y2034D01*
X-10034Y2035D01*
X-10043D01*
X-10067Y2033D01*
X-10088Y2029D01*
X-10106Y2023D01*
X-10122Y2016D01*
X-10134Y2010D01*
X-10143Y2004D01*
X-10149Y2000D01*
X-10151Y1998D01*
X-10159Y1991D01*
X-10165Y1982D01*
X-10177Y1963D01*
X-10187Y1943D01*
X-10195Y1924D01*
X-10200Y1905D01*
X-10202Y1898D01*
X-10204Y1891D01*
X-10205Y1885D01*
X-10206Y1881D01*
X-10207Y1878D01*
Y1877D01*
X-10324Y1888D01*
X-10321Y1909D01*
X-10316Y1930D01*
X-10311Y1949D01*
X-10304Y1966D01*
X-10297Y1983D01*
X-10290Y1998D01*
X-10282Y2011D01*
X-10275Y2024D01*
X-10267Y2035D01*
X-10260Y2044D01*
X-10254Y2052D01*
X-10248Y2059D01*
X-10243Y2064D01*
X-10239Y2068D01*
X-10237Y2070D01*
X-10236Y2071D01*
X-10222Y2082D01*
X-10207Y2092D01*
X-10191Y2101D01*
X-10175Y2108D01*
X-10159Y2114D01*
X-10143Y2119D01*
X-10113Y2127D01*
X-10099Y2130D01*
X-10087Y2132D01*
X-10075Y2133D01*
X-10065Y2134D01*
X-10057Y2135D01*
X-10046D01*
X-10026Y2134D01*
D02*
G37*
G36*
X-12692D02*
X-12663Y2130D01*
X-12637Y2124D01*
X-12612Y2116D01*
X-12589Y2107D01*
X-12567Y2097D01*
X-12548Y2086D01*
X-12530Y2075D01*
X-12514Y2064D01*
X-12501Y2053D01*
X-12489Y2043D01*
X-12479Y2034D01*
X-12472Y2026D01*
X-12466Y2020D01*
X-12463Y2016D01*
X-12462Y2015D01*
X-12448Y1996D01*
X-12436Y1977D01*
X-12425Y1957D01*
X-12416Y1937D01*
X-12409Y1917D01*
X-12402Y1898D01*
X-12397Y1879D01*
X-12393Y1861D01*
X-12390Y1845D01*
X-12387Y1830D01*
X-12385Y1816D01*
X-12384Y1804D01*
X-12383Y1795D01*
Y1788D01*
Y1783D01*
Y1782D01*
X-12384Y1756D01*
X-12387Y1731D01*
X-12391Y1708D01*
X-12397Y1686D01*
X-12404Y1665D01*
X-12411Y1646D01*
X-12420Y1629D01*
X-12428Y1613D01*
X-12436Y1598D01*
X-12444Y1586D01*
X-12452Y1575D01*
X-12459Y1566D01*
X-12465Y1559D01*
X-12469Y1554D01*
X-12472Y1551D01*
X-12473Y1550D01*
X-12490Y1534D01*
X-12508Y1520D01*
X-12526Y1508D01*
X-12545Y1497D01*
X-12563Y1489D01*
X-12581Y1481D01*
X-12599Y1475D01*
X-12615Y1470D01*
X-12631Y1467D01*
X-12645Y1464D01*
X-12658Y1462D01*
X-12669Y1460D01*
X-12678D01*
X-12685Y1459D01*
X-12691D01*
X-12709Y1460D01*
X-12727Y1462D01*
X-12745Y1465D01*
X-12762Y1469D01*
X-12793Y1479D01*
X-12808Y1485D01*
X-12821Y1490D01*
X-12834Y1496D01*
X-12845Y1502D01*
X-12854Y1507D01*
X-12863Y1512D01*
X-12869Y1516D01*
X-12874Y1519D01*
X-12877Y1521D01*
X-12878Y1522D01*
X-12825Y1254D01*
X-12430D01*
Y1138D01*
X-12922D01*
X-13018Y1648D01*
X-12904Y1663D01*
X-12893Y1648D01*
X-12881Y1634D01*
X-12869Y1623D01*
X-12857Y1613D01*
X-12846Y1605D01*
X-12838Y1599D01*
X-12832Y1595D01*
X-12831Y1594D01*
X-12830D01*
X-12812Y1585D01*
X-12794Y1578D01*
X-12776Y1574D01*
X-12759Y1570D01*
X-12745Y1568D01*
X-12734Y1567D01*
X-12724D01*
X-12707Y1568D01*
X-12690Y1570D01*
X-12675Y1573D01*
X-12660Y1576D01*
X-12646Y1581D01*
X-12634Y1586D01*
X-12622Y1592D01*
X-12612Y1597D01*
X-12603Y1603D01*
X-12594Y1609D01*
X-12587Y1614D01*
X-12582Y1618D01*
X-12577Y1622D01*
X-12574Y1625D01*
X-12572Y1627D01*
X-12571Y1628D01*
X-12561Y1640D01*
X-12551Y1652D01*
X-12544Y1665D01*
X-12537Y1679D01*
X-12531Y1693D01*
X-12526Y1707D01*
X-12519Y1733D01*
X-12517Y1745D01*
X-12515Y1757D01*
X-12514Y1767D01*
X-12513Y1776D01*
X-12512Y1783D01*
Y1788D01*
Y1792D01*
Y1793D01*
X-12513Y1813D01*
X-12515Y1832D01*
X-12518Y1850D01*
X-12521Y1867D01*
X-12526Y1883D01*
X-12531Y1897D01*
X-12537Y1910D01*
X-12542Y1922D01*
X-12548Y1933D01*
X-12554Y1942D01*
X-12559Y1950D01*
X-12563Y1957D01*
X-12567Y1962D01*
X-12570Y1966D01*
X-12572Y1968D01*
X-12573Y1969D01*
X-12585Y1981D01*
X-12597Y1991D01*
X-12609Y2000D01*
X-12622Y2007D01*
X-12634Y2014D01*
X-12646Y2019D01*
X-12670Y2027D01*
X-12681Y2029D01*
X-12691Y2031D01*
X-12699Y2033D01*
X-12707Y2034D01*
X-12713Y2035D01*
X-12722D01*
X-12735Y2034D01*
X-12748Y2033D01*
X-12772Y2028D01*
X-12794Y2020D01*
X-12812Y2011D01*
X-12827Y2003D01*
X-12833Y1999D01*
X-12838Y1995D01*
X-12842Y1992D01*
X-12845Y1990D01*
X-12846Y1988D01*
X-12847D01*
X-12856Y1979D01*
X-12864Y1968D01*
X-12879Y1946D01*
X-12890Y1923D01*
X-12899Y1900D01*
X-12905Y1879D01*
X-12907Y1870D01*
X-12909Y1862D01*
X-12910Y1856D01*
X-12911Y1851D01*
X-12912Y1848D01*
Y1847D01*
X-13040Y1858D01*
X-13037Y1881D01*
X-13032Y1903D01*
X-13027Y1923D01*
X-13020Y1943D01*
X-13012Y1961D01*
X-13004Y1977D01*
X-12996Y1992D01*
X-12987Y2006D01*
X-12979Y2019D01*
X-12970Y2029D01*
X-12963Y2038D01*
X-12956Y2046D01*
X-12951Y2052D01*
X-12947Y2056D01*
X-12944Y2059D01*
X-12943Y2060D01*
X-12926Y2073D01*
X-12909Y2085D01*
X-12891Y2095D01*
X-12872Y2103D01*
X-12854Y2111D01*
X-12835Y2117D01*
X-12817Y2122D01*
X-12800Y2126D01*
X-12784Y2129D01*
X-12769Y2131D01*
X-12756Y2133D01*
X-12744Y2134D01*
X-12735D01*
X-12728Y2135D01*
X-12722D01*
X-12692Y2134D01*
D02*
G37*
G36*
X-10473Y2001D02*
X-10960D01*
X-10952Y1989D01*
X-10944Y1977D01*
X-10935Y1966D01*
X-10927Y1956D01*
X-10920Y1948D01*
X-10914Y1941D01*
X-10910Y1937D01*
X-10909Y1936D01*
X-10902Y1929D01*
X-10894Y1921D01*
X-10884Y1912D01*
X-10873Y1902D01*
X-10850Y1882D01*
X-10826Y1861D01*
X-10804Y1841D01*
X-10794Y1833D01*
X-10785Y1825D01*
X-10778Y1819D01*
X-10773Y1814D01*
X-10769Y1811D01*
X-10768Y1810D01*
X-10744Y1790D01*
X-10722Y1771D01*
X-10702Y1753D01*
X-10683Y1736D01*
X-10666Y1720D01*
X-10651Y1706D01*
X-10637Y1693D01*
X-10625Y1681D01*
X-10614Y1671D01*
X-10605Y1662D01*
X-10597Y1654D01*
X-10591Y1648D01*
X-10586Y1643D01*
X-10583Y1639D01*
X-10581Y1637D01*
X-10580Y1636D01*
X-10560Y1612D01*
X-10543Y1590D01*
X-10529Y1570D01*
X-10518Y1551D01*
X-10510Y1536D01*
X-10506Y1530D01*
X-10504Y1525D01*
X-10502Y1521D01*
X-10500Y1518D01*
X-10499Y1516D01*
Y1515D01*
X-10491Y1493D01*
X-10485Y1472D01*
X-10480Y1452D01*
X-10477Y1434D01*
X-10475Y1419D01*
Y1413D01*
X-10474Y1407D01*
Y1403D01*
Y1400D01*
Y1398D01*
Y1397D01*
X-10475Y1375D01*
X-10478Y1355D01*
X-10482Y1335D01*
X-10487Y1317D01*
X-10493Y1300D01*
X-10501Y1284D01*
X-10508Y1269D01*
X-10516Y1255D01*
X-10524Y1243D01*
X-10531Y1232D01*
X-10538Y1223D01*
X-10545Y1215D01*
X-10550Y1209D01*
X-10554Y1205D01*
X-10557Y1202D01*
X-10558Y1201D01*
X-10574Y1187D01*
X-10592Y1175D01*
X-10610Y1164D01*
X-10628Y1155D01*
X-10647Y1147D01*
X-10666Y1140D01*
X-10684Y1135D01*
X-10702Y1131D01*
X-10719Y1128D01*
X-10734Y1125D01*
X-10748Y1123D01*
X-10760Y1122D01*
X-10770Y1121D01*
X-10784D01*
X-10810Y1122D01*
X-10834Y1124D01*
X-10858Y1128D01*
X-10879Y1133D01*
X-10899Y1138D01*
X-10918Y1144D01*
X-10935Y1151D01*
X-10950Y1158D01*
X-10964Y1165D01*
X-10976Y1172D01*
X-10986Y1178D01*
X-10995Y1183D01*
X-11001Y1188D01*
X-11006Y1192D01*
X-11009Y1194D01*
X-11010Y1195D01*
X-11025Y1209D01*
X-11038Y1225D01*
X-11050Y1242D01*
X-11060Y1259D01*
X-11069Y1277D01*
X-11077Y1294D01*
X-11084Y1312D01*
X-11089Y1329D01*
X-11094Y1345D01*
X-11098Y1360D01*
X-11101Y1373D01*
X-11103Y1385D01*
X-11104Y1395D01*
X-11105Y1402D01*
X-11106Y1406D01*
Y1408D01*
X-10981Y1421D01*
X-10980Y1404D01*
X-10979Y1388D01*
X-10976Y1373D01*
X-10973Y1359D01*
X-10969Y1346D01*
X-10964Y1334D01*
X-10959Y1323D01*
X-10954Y1313D01*
X-10950Y1304D01*
X-10945Y1297D01*
X-10940Y1290D01*
X-10936Y1285D01*
X-10933Y1280D01*
X-10930Y1277D01*
X-10929Y1276D01*
X-10928Y1275D01*
X-10918Y1266D01*
X-10907Y1257D01*
X-10895Y1250D01*
X-10884Y1244D01*
X-10860Y1235D01*
X-10838Y1229D01*
X-10818Y1225D01*
X-10809Y1224D01*
X-10802Y1223D01*
X-10795Y1222D01*
X-10787D01*
X-10772Y1223D01*
X-10757Y1224D01*
X-10730Y1230D01*
X-10707Y1238D01*
X-10687Y1247D01*
X-10679Y1252D01*
X-10672Y1256D01*
X-10666Y1260D01*
X-10660Y1264D01*
X-10656Y1267D01*
X-10653Y1270D01*
X-10652Y1271D01*
X-10651Y1272D01*
X-10642Y1282D01*
X-10634Y1292D01*
X-10627Y1302D01*
X-10621Y1312D01*
X-10612Y1333D01*
X-10605Y1352D01*
X-10602Y1369D01*
X-10601Y1376D01*
X-10600Y1382D01*
X-10599Y1387D01*
Y1391D01*
Y1393D01*
Y1394D01*
X-10600Y1407D01*
X-10601Y1420D01*
X-10604Y1434D01*
X-10608Y1446D01*
X-10617Y1471D01*
X-10628Y1494D01*
X-10633Y1504D01*
X-10639Y1513D01*
X-10644Y1521D01*
X-10648Y1528D01*
X-10652Y1533D01*
X-10654Y1538D01*
X-10656Y1540D01*
X-10657Y1541D01*
X-10669Y1556D01*
X-10683Y1572D01*
X-10698Y1589D01*
X-10715Y1606D01*
X-10751Y1642D01*
X-10788Y1675D01*
X-10805Y1691D01*
X-10822Y1706D01*
X-10837Y1719D01*
X-10850Y1730D01*
X-10861Y1739D01*
X-10869Y1746D01*
X-10874Y1750D01*
X-10876Y1752D01*
X-10895Y1768D01*
X-10913Y1783D01*
X-10929Y1797D01*
X-10945Y1811D01*
X-10959Y1824D01*
X-10972Y1837D01*
X-10984Y1848D01*
X-10994Y1859D01*
X-11004Y1868D01*
X-11012Y1877D01*
X-11019Y1884D01*
X-11025Y1890D01*
X-11029Y1895D01*
X-11032Y1899D01*
X-11034Y1901D01*
X-11035Y1902D01*
X-11054Y1926D01*
X-11071Y1950D01*
X-11084Y1972D01*
X-11096Y1992D01*
X-11104Y2009D01*
X-11107Y2016D01*
X-11110Y2022D01*
X-11112Y2027D01*
X-11114Y2031D01*
X-11115Y2033D01*
Y2034D01*
X-11120Y2049D01*
X-11124Y2064D01*
X-11126Y2078D01*
X-11128Y2091D01*
X-11129Y2102D01*
Y2110D01*
Y2116D01*
Y2117D01*
Y2118D01*
X-10473D01*
Y2001D01*
D02*
G37*
G36*
X-11541Y2134D02*
X-11522Y2132D01*
X-11504Y2130D01*
X-11487Y2126D01*
X-11471Y2122D01*
X-11456Y2117D01*
X-11442Y2111D01*
X-11430Y2106D01*
X-11419Y2101D01*
X-11409Y2095D01*
X-11401Y2090D01*
X-11394Y2086D01*
X-11388Y2082D01*
X-11384Y2079D01*
X-11382Y2078D01*
X-11381Y2077D01*
X-11368Y2066D01*
X-11356Y2053D01*
X-11334Y2027D01*
X-11315Y1999D01*
X-11300Y1973D01*
X-11294Y1960D01*
X-11288Y1949D01*
X-11284Y1939D01*
X-11280Y1930D01*
X-11277Y1922D01*
X-11275Y1917D01*
X-11273Y1913D01*
Y1912D01*
X-11267Y1891D01*
X-11261Y1869D01*
X-11252Y1822D01*
X-11246Y1775D01*
X-11243Y1752D01*
X-11241Y1730D01*
X-11240Y1709D01*
X-11239Y1690D01*
X-11238Y1673D01*
Y1658D01*
X-11237Y1646D01*
Y1637D01*
Y1631D01*
Y1629D01*
Y1602D01*
X-11238Y1576D01*
X-11239Y1552D01*
X-11241Y1530D01*
X-11242Y1509D01*
X-11244Y1490D01*
X-11246Y1472D01*
X-11248Y1456D01*
X-11251Y1442D01*
X-11253Y1429D01*
X-11255Y1419D01*
X-11256Y1410D01*
X-11258Y1403D01*
X-11259Y1398D01*
X-11260Y1395D01*
Y1394D01*
X-11269Y1363D01*
X-11279Y1334D01*
X-11289Y1309D01*
X-11294Y1298D01*
X-11299Y1288D01*
X-11303Y1279D01*
X-11307Y1271D01*
X-11311Y1264D01*
X-11315Y1258D01*
X-11317Y1253D01*
X-11319Y1250D01*
X-11321Y1248D01*
Y1247D01*
X-11336Y1225D01*
X-11353Y1207D01*
X-11370Y1191D01*
X-11386Y1178D01*
X-11400Y1167D01*
X-11411Y1160D01*
X-11415Y1157D01*
X-11418Y1155D01*
X-11420Y1154D01*
X-11421D01*
X-11444Y1143D01*
X-11468Y1135D01*
X-11492Y1129D01*
X-11513Y1125D01*
X-11532Y1123D01*
X-11541Y1122D01*
X-11548Y1121D01*
X-11561D01*
X-11581Y1122D01*
X-11600Y1123D01*
X-11618Y1126D01*
X-11635Y1130D01*
X-11651Y1134D01*
X-11665Y1139D01*
X-11679Y1145D01*
X-11691Y1150D01*
X-11703Y1155D01*
X-11712Y1161D01*
X-11721Y1166D01*
X-11728Y1170D01*
X-11734Y1174D01*
X-11738Y1176D01*
X-11740Y1178D01*
X-11741Y1179D01*
X-11754Y1190D01*
X-11766Y1203D01*
X-11788Y1229D01*
X-11806Y1257D01*
X-11821Y1284D01*
X-11827Y1296D01*
X-11833Y1308D01*
X-11837Y1318D01*
X-11841Y1327D01*
X-11844Y1335D01*
X-11846Y1340D01*
X-11848Y1344D01*
Y1345D01*
X-11854Y1366D01*
X-11860Y1388D01*
X-11869Y1435D01*
X-11875Y1482D01*
X-11878Y1505D01*
X-11879Y1527D01*
X-11881Y1548D01*
X-11882Y1568D01*
X-11883Y1585D01*
Y1600D01*
X-11884Y1612D01*
Y1621D01*
Y1627D01*
Y1628D01*
Y1629D01*
X-11883Y1680D01*
X-11880Y1727D01*
X-11875Y1770D01*
X-11869Y1810D01*
X-11861Y1847D01*
X-11853Y1880D01*
X-11844Y1910D01*
X-11835Y1936D01*
X-11826Y1959D01*
X-11817Y1979D01*
X-11809Y1996D01*
X-11801Y2009D01*
X-11795Y2020D01*
X-11790Y2027D01*
X-11787Y2032D01*
X-11786Y2033D01*
X-11770Y2051D01*
X-11753Y2067D01*
X-11735Y2080D01*
X-11716Y2092D01*
X-11697Y2102D01*
X-11679Y2110D01*
X-11660Y2117D01*
X-11643Y2122D01*
X-11626Y2126D01*
X-11611Y2130D01*
X-11597Y2132D01*
X-11585Y2133D01*
X-11575Y2134D01*
X-11567Y2135D01*
X-11561D01*
X-11541Y2134D01*
D02*
G37*
G36*
X-4694Y1979D02*
X-4833D01*
Y2118D01*
X-4694D01*
Y1979D01*
D02*
G37*
G36*
X-4168Y2134D02*
X-4139Y2130D01*
X-4113Y2124D01*
X-4088Y2116D01*
X-4065Y2107D01*
X-4043Y2097D01*
X-4024Y2086D01*
X-4006Y2075D01*
X-3990Y2064D01*
X-3977Y2053D01*
X-3965Y2043D01*
X-3955Y2034D01*
X-3948Y2026D01*
X-3942Y2020D01*
X-3939Y2016D01*
X-3938Y2015D01*
X-3924Y1996D01*
X-3912Y1977D01*
X-3901Y1957D01*
X-3892Y1937D01*
X-3885Y1917D01*
X-3878Y1898D01*
X-3873Y1879D01*
X-3869Y1861D01*
X-3866Y1845D01*
X-3863Y1830D01*
X-3861Y1816D01*
X-3860Y1804D01*
X-3859Y1795D01*
Y1788D01*
Y1783D01*
Y1782D01*
X-3860Y1756D01*
X-3863Y1731D01*
X-3867Y1708D01*
X-3873Y1686D01*
X-3880Y1665D01*
X-3887Y1646D01*
X-3896Y1629D01*
X-3904Y1613D01*
X-3912Y1598D01*
X-3920Y1586D01*
X-3928Y1575D01*
X-3935Y1566D01*
X-3941Y1559D01*
X-3945Y1554D01*
X-3948Y1551D01*
X-3949Y1550D01*
X-3966Y1534D01*
X-3984Y1520D01*
X-4002Y1508D01*
X-4021Y1497D01*
X-4039Y1489D01*
X-4057Y1481D01*
X-4075Y1475D01*
X-4091Y1470D01*
X-4107Y1467D01*
X-4121Y1464D01*
X-4134Y1462D01*
X-4145Y1460D01*
X-4154D01*
X-4161Y1459D01*
X-4167D01*
X-4185Y1460D01*
X-4203Y1462D01*
X-4221Y1465D01*
X-4238Y1469D01*
X-4269Y1479D01*
X-4284Y1485D01*
X-4297Y1490D01*
X-4310Y1496D01*
X-4321Y1502D01*
X-4330Y1507D01*
X-4339Y1512D01*
X-4345Y1516D01*
X-4350Y1519D01*
X-4353Y1521D01*
X-4354Y1522D01*
X-4301Y1254D01*
X-3906D01*
Y1138D01*
X-4398D01*
X-4494Y1648D01*
X-4380Y1663D01*
X-4369Y1648D01*
X-4357Y1634D01*
X-4345Y1623D01*
X-4333Y1613D01*
X-4322Y1605D01*
X-4314Y1599D01*
X-4308Y1595D01*
X-4307Y1594D01*
X-4306D01*
X-4288Y1585D01*
X-4270Y1578D01*
X-4252Y1574D01*
X-4235Y1570D01*
X-4221Y1568D01*
X-4210Y1567D01*
X-4200D01*
X-4183Y1568D01*
X-4166Y1570D01*
X-4151Y1573D01*
X-4136Y1576D01*
X-4122Y1581D01*
X-4110Y1586D01*
X-4098Y1592D01*
X-4088Y1597D01*
X-4079Y1603D01*
X-4070Y1609D01*
X-4063Y1614D01*
X-4058Y1618D01*
X-4053Y1622D01*
X-4050Y1625D01*
X-4048Y1627D01*
X-4047Y1628D01*
X-4037Y1640D01*
X-4027Y1652D01*
X-4020Y1665D01*
X-4013Y1679D01*
X-4007Y1693D01*
X-4002Y1707D01*
X-3995Y1733D01*
X-3993Y1745D01*
X-3991Y1757D01*
X-3990Y1767D01*
X-3989Y1776D01*
X-3988Y1783D01*
Y1788D01*
Y1792D01*
Y1793D01*
X-3989Y1813D01*
X-3991Y1832D01*
X-3994Y1850D01*
X-3997Y1867D01*
X-4002Y1883D01*
X-4007Y1897D01*
X-4013Y1910D01*
X-4018Y1922D01*
X-4024Y1933D01*
X-4030Y1942D01*
X-4035Y1950D01*
X-4039Y1957D01*
X-4043Y1962D01*
X-4046Y1966D01*
X-4048Y1968D01*
X-4049Y1969D01*
X-4061Y1981D01*
X-4073Y1991D01*
X-4085Y2000D01*
X-4098Y2007D01*
X-4110Y2014D01*
X-4122Y2019D01*
X-4146Y2027D01*
X-4157Y2029D01*
X-4167Y2031D01*
X-4175Y2033D01*
X-4183Y2034D01*
X-4189Y2035D01*
X-4198D01*
X-4211Y2034D01*
X-4224Y2033D01*
X-4248Y2028D01*
X-4270Y2020D01*
X-4288Y2011D01*
X-4303Y2003D01*
X-4309Y1999D01*
X-4314Y1995D01*
X-4318Y1992D01*
X-4321Y1990D01*
X-4322Y1988D01*
X-4323D01*
X-4332Y1979D01*
X-4340Y1968D01*
X-4355Y1946D01*
X-4366Y1923D01*
X-4375Y1900D01*
X-4381Y1879D01*
X-4383Y1870D01*
X-4385Y1862D01*
X-4386Y1856D01*
X-4387Y1851D01*
X-4388Y1848D01*
Y1847D01*
X-4516Y1858D01*
X-4513Y1881D01*
X-4508Y1903D01*
X-4503Y1923D01*
X-4496Y1943D01*
X-4488Y1961D01*
X-4480Y1977D01*
X-4472Y1992D01*
X-4463Y2006D01*
X-4455Y2019D01*
X-4446Y2029D01*
X-4439Y2038D01*
X-4432Y2046D01*
X-4427Y2052D01*
X-4423Y2056D01*
X-4420Y2059D01*
X-4419Y2060D01*
X-4402Y2073D01*
X-4385Y2085D01*
X-4367Y2095D01*
X-4348Y2103D01*
X-4330Y2111D01*
X-4311Y2117D01*
X-4293Y2122D01*
X-4276Y2126D01*
X-4260Y2129D01*
X-4245Y2131D01*
X-4232Y2133D01*
X-4220Y2134D01*
X-4211D01*
X-4204Y2135D01*
X-4198D01*
X-4168Y2134D01*
D02*
G37*
G36*
X-5032Y2001D02*
X-5519D01*
X-5511Y1989D01*
X-5503Y1977D01*
X-5494Y1966D01*
X-5486Y1956D01*
X-5479Y1948D01*
X-5473Y1941D01*
X-5469Y1937D01*
X-5468Y1936D01*
X-5461Y1929D01*
X-5453Y1921D01*
X-5443Y1912D01*
X-5432Y1902D01*
X-5409Y1882D01*
X-5385Y1861D01*
X-5363Y1841D01*
X-5353Y1833D01*
X-5344Y1825D01*
X-5337Y1819D01*
X-5332Y1814D01*
X-5328Y1811D01*
X-5327Y1810D01*
X-5303Y1790D01*
X-5281Y1771D01*
X-5261Y1753D01*
X-5242Y1736D01*
X-5225Y1720D01*
X-5210Y1706D01*
X-5196Y1693D01*
X-5184Y1681D01*
X-5173Y1671D01*
X-5164Y1662D01*
X-5156Y1654D01*
X-5150Y1648D01*
X-5145Y1643D01*
X-5142Y1639D01*
X-5140Y1637D01*
X-5139Y1636D01*
X-5119Y1612D01*
X-5102Y1590D01*
X-5088Y1570D01*
X-5077Y1551D01*
X-5069Y1536D01*
X-5065Y1530D01*
X-5063Y1525D01*
X-5061Y1521D01*
X-5059Y1518D01*
X-5058Y1516D01*
Y1515D01*
X-5050Y1493D01*
X-5044Y1472D01*
X-5039Y1452D01*
X-5036Y1434D01*
X-5034Y1419D01*
Y1413D01*
X-5033Y1407D01*
Y1403D01*
Y1400D01*
Y1398D01*
Y1397D01*
X-5034Y1375D01*
X-5037Y1355D01*
X-5041Y1335D01*
X-5046Y1317D01*
X-5052Y1300D01*
X-5060Y1284D01*
X-5067Y1269D01*
X-5075Y1255D01*
X-5083Y1243D01*
X-5090Y1232D01*
X-5097Y1223D01*
X-5104Y1215D01*
X-5109Y1209D01*
X-5113Y1205D01*
X-5116Y1202D01*
X-5117Y1201D01*
X-5133Y1187D01*
X-5151Y1175D01*
X-5169Y1164D01*
X-5187Y1155D01*
X-5206Y1147D01*
X-5225Y1140D01*
X-5243Y1135D01*
X-5261Y1131D01*
X-5278Y1128D01*
X-5293Y1125D01*
X-5307Y1123D01*
X-5319Y1122D01*
X-5329Y1121D01*
X-5343D01*
X-5369Y1122D01*
X-5393Y1124D01*
X-5417Y1128D01*
X-5438Y1133D01*
X-5458Y1138D01*
X-5477Y1144D01*
X-5494Y1151D01*
X-5509Y1158D01*
X-5523Y1165D01*
X-5535Y1172D01*
X-5545Y1178D01*
X-5554Y1183D01*
X-5560Y1188D01*
X-5565Y1192D01*
X-5568Y1194D01*
X-5569Y1195D01*
X-5584Y1209D01*
X-5597Y1225D01*
X-5609Y1242D01*
X-5619Y1259D01*
X-5628Y1277D01*
X-5636Y1294D01*
X-5643Y1312D01*
X-5648Y1329D01*
X-5653Y1345D01*
X-5657Y1360D01*
X-5660Y1373D01*
X-5662Y1385D01*
X-5663Y1395D01*
X-5664Y1402D01*
X-5665Y1406D01*
Y1408D01*
X-5540Y1421D01*
X-5539Y1404D01*
X-5538Y1388D01*
X-5535Y1373D01*
X-5532Y1359D01*
X-5528Y1346D01*
X-5523Y1334D01*
X-5518Y1323D01*
X-5513Y1313D01*
X-5509Y1304D01*
X-5504Y1297D01*
X-5499Y1290D01*
X-5495Y1285D01*
X-5492Y1280D01*
X-5489Y1277D01*
X-5488Y1276D01*
X-5487Y1275D01*
X-5477Y1266D01*
X-5466Y1257D01*
X-5454Y1250D01*
X-5443Y1244D01*
X-5419Y1235D01*
X-5397Y1229D01*
X-5377Y1225D01*
X-5368Y1224D01*
X-5361Y1223D01*
X-5354Y1222D01*
X-5346D01*
X-5331Y1223D01*
X-5316Y1224D01*
X-5289Y1230D01*
X-5266Y1238D01*
X-5246Y1247D01*
X-5238Y1252D01*
X-5231Y1256D01*
X-5225Y1260D01*
X-5219Y1264D01*
X-5215Y1267D01*
X-5212Y1270D01*
X-5211Y1271D01*
X-5210Y1272D01*
X-5201Y1282D01*
X-5193Y1292D01*
X-5186Y1302D01*
X-5180Y1312D01*
X-5171Y1333D01*
X-5164Y1352D01*
X-5161Y1369D01*
X-5160Y1376D01*
X-5159Y1382D01*
X-5158Y1387D01*
Y1391D01*
Y1393D01*
Y1394D01*
X-5159Y1407D01*
X-5160Y1420D01*
X-5163Y1434D01*
X-5167Y1446D01*
X-5176Y1471D01*
X-5187Y1494D01*
X-5192Y1504D01*
X-5198Y1513D01*
X-5203Y1521D01*
X-5207Y1528D01*
X-5211Y1533D01*
X-5213Y1538D01*
X-5215Y1540D01*
X-5216Y1541D01*
X-5228Y1556D01*
X-5242Y1572D01*
X-5257Y1589D01*
X-5274Y1606D01*
X-5310Y1642D01*
X-5347Y1675D01*
X-5364Y1691D01*
X-5381Y1706D01*
X-5396Y1719D01*
X-5409Y1730D01*
X-5420Y1739D01*
X-5428Y1746D01*
X-5433Y1750D01*
X-5435Y1752D01*
X-5454Y1768D01*
X-5472Y1783D01*
X-5488Y1797D01*
X-5504Y1811D01*
X-5518Y1824D01*
X-5531Y1837D01*
X-5543Y1848D01*
X-5553Y1859D01*
X-5563Y1868D01*
X-5571Y1877D01*
X-5578Y1884D01*
X-5584Y1890D01*
X-5588Y1895D01*
X-5591Y1899D01*
X-5593Y1901D01*
X-5594Y1902D01*
X-5613Y1926D01*
X-5630Y1950D01*
X-5643Y1972D01*
X-5655Y1992D01*
X-5663Y2009D01*
X-5666Y2016D01*
X-5669Y2022D01*
X-5671Y2027D01*
X-5673Y2031D01*
X-5674Y2033D01*
Y2034D01*
X-5679Y2049D01*
X-5683Y2064D01*
X-5685Y2078D01*
X-5687Y2091D01*
X-5688Y2102D01*
Y2110D01*
Y2116D01*
Y2117D01*
Y2118D01*
X-5032D01*
Y2001D01*
D02*
G37*
G36*
X-3233Y1880D02*
X-3099D01*
Y1768D01*
X-3233D01*
Y1125D01*
X-3333D01*
X-3785Y1768D01*
Y1880D01*
X-3355D01*
Y2118D01*
X-3233D01*
Y1880D01*
D02*
G37*
G36*
X-2631Y2134D02*
X-2612Y2132D01*
X-2594Y2130D01*
X-2577Y2126D01*
X-2561Y2122D01*
X-2546Y2117D01*
X-2532Y2111D01*
X-2520Y2106D01*
X-2509Y2101D01*
X-2499Y2095D01*
X-2491Y2090D01*
X-2484Y2086D01*
X-2478Y2082D01*
X-2474Y2079D01*
X-2472Y2078D01*
X-2471Y2077D01*
X-2458Y2066D01*
X-2446Y2053D01*
X-2424Y2027D01*
X-2405Y1999D01*
X-2390Y1973D01*
X-2384Y1960D01*
X-2378Y1949D01*
X-2374Y1939D01*
X-2370Y1930D01*
X-2367Y1922D01*
X-2365Y1917D01*
X-2363Y1913D01*
Y1912D01*
X-2357Y1891D01*
X-2351Y1869D01*
X-2342Y1822D01*
X-2336Y1775D01*
X-2333Y1752D01*
X-2331Y1730D01*
X-2330Y1709D01*
X-2329Y1690D01*
X-2328Y1673D01*
Y1658D01*
X-2327Y1646D01*
Y1637D01*
Y1631D01*
Y1629D01*
Y1602D01*
X-2328Y1576D01*
X-2329Y1552D01*
X-2331Y1530D01*
X-2332Y1509D01*
X-2334Y1490D01*
X-2336Y1472D01*
X-2338Y1456D01*
X-2341Y1442D01*
X-2343Y1429D01*
X-2345Y1419D01*
X-2346Y1410D01*
X-2348Y1403D01*
X-2349Y1398D01*
X-2350Y1395D01*
Y1394D01*
X-2359Y1363D01*
X-2369Y1334D01*
X-2379Y1309D01*
X-2384Y1298D01*
X-2389Y1288D01*
X-2393Y1279D01*
X-2397Y1271D01*
X-2401Y1264D01*
X-2405Y1258D01*
X-2407Y1253D01*
X-2409Y1250D01*
X-2411Y1248D01*
Y1247D01*
X-2426Y1225D01*
X-2443Y1207D01*
X-2460Y1191D01*
X-2476Y1178D01*
X-2490Y1167D01*
X-2501Y1160D01*
X-2505Y1157D01*
X-2508Y1155D01*
X-2510Y1154D01*
X-2511D01*
X-2534Y1143D01*
X-2558Y1135D01*
X-2582Y1129D01*
X-2603Y1125D01*
X-2622Y1123D01*
X-2631Y1122D01*
X-2638Y1121D01*
X-2651D01*
X-2671Y1122D01*
X-2690Y1123D01*
X-2708Y1126D01*
X-2725Y1130D01*
X-2741Y1134D01*
X-2755Y1139D01*
X-2769Y1145D01*
X-2781Y1150D01*
X-2793Y1155D01*
X-2802Y1161D01*
X-2811Y1166D01*
X-2818Y1170D01*
X-2824Y1174D01*
X-2828Y1176D01*
X-2830Y1178D01*
X-2831Y1179D01*
X-2844Y1190D01*
X-2856Y1203D01*
X-2878Y1229D01*
X-2896Y1257D01*
X-2911Y1284D01*
X-2917Y1296D01*
X-2923Y1308D01*
X-2927Y1318D01*
X-2931Y1327D01*
X-2934Y1335D01*
X-2936Y1340D01*
X-2938Y1344D01*
Y1345D01*
X-2944Y1366D01*
X-2950Y1388D01*
X-2959Y1435D01*
X-2965Y1482D01*
X-2968Y1505D01*
X-2969Y1527D01*
X-2971Y1548D01*
X-2972Y1568D01*
X-2973Y1585D01*
Y1600D01*
X-2974Y1612D01*
Y1621D01*
Y1627D01*
Y1628D01*
Y1629D01*
X-2973Y1680D01*
X-2970Y1727D01*
X-2965Y1770D01*
X-2959Y1810D01*
X-2951Y1847D01*
X-2943Y1880D01*
X-2934Y1910D01*
X-2925Y1936D01*
X-2916Y1959D01*
X-2907Y1979D01*
X-2899Y1996D01*
X-2891Y2009D01*
X-2885Y2020D01*
X-2880Y2027D01*
X-2877Y2032D01*
X-2876Y2033D01*
X-2860Y2051D01*
X-2843Y2067D01*
X-2825Y2080D01*
X-2806Y2092D01*
X-2787Y2102D01*
X-2769Y2110D01*
X-2750Y2117D01*
X-2733Y2122D01*
X-2716Y2126D01*
X-2701Y2130D01*
X-2687Y2132D01*
X-2675Y2133D01*
X-2665Y2134D01*
X-2657Y2135D01*
X-2651D01*
X-2631Y2134D01*
D02*
G37*
G36*
X9806Y-14021D02*
X9667D01*
Y-13882D01*
X9806D01*
Y-14021D01*
D02*
G37*
G36*
X10332Y-13866D02*
X10361Y-13870D01*
X10387Y-13876D01*
X10412Y-13884D01*
X10435Y-13893D01*
X10457Y-13903D01*
X10476Y-13914D01*
X10494Y-13925D01*
X10510Y-13936D01*
X10523Y-13947D01*
X10535Y-13957D01*
X10545Y-13966D01*
X10552Y-13974D01*
X10558Y-13980D01*
X10561Y-13984D01*
X10562Y-13985D01*
X10576Y-14004D01*
X10588Y-14023D01*
X10599Y-14043D01*
X10608Y-14063D01*
X10615Y-14083D01*
X10622Y-14102D01*
X10627Y-14121D01*
X10631Y-14139D01*
X10634Y-14155D01*
X10637Y-14170D01*
X10639Y-14184D01*
X10640Y-14196D01*
X10641Y-14205D01*
Y-14212D01*
Y-14217D01*
Y-14218D01*
X10640Y-14244D01*
X10637Y-14269D01*
X10633Y-14292D01*
X10627Y-14314D01*
X10620Y-14335D01*
X10613Y-14354D01*
X10604Y-14371D01*
X10596Y-14387D01*
X10588Y-14402D01*
X10580Y-14414D01*
X10572Y-14425D01*
X10565Y-14434D01*
X10559Y-14441D01*
X10555Y-14446D01*
X10552Y-14449D01*
X10551Y-14450D01*
X10534Y-14466D01*
X10516Y-14480D01*
X10498Y-14492D01*
X10479Y-14503D01*
X10461Y-14511D01*
X10443Y-14519D01*
X10425Y-14525D01*
X10409Y-14530D01*
X10393Y-14533D01*
X10379Y-14536D01*
X10366Y-14538D01*
X10355Y-14540D01*
X10346D01*
X10339Y-14541D01*
X10333D01*
X10315Y-14540D01*
X10297Y-14538D01*
X10279Y-14535D01*
X10262Y-14531D01*
X10231Y-14521D01*
X10216Y-14515D01*
X10203Y-14510D01*
X10190Y-14504D01*
X10179Y-14498D01*
X10170Y-14493D01*
X10161Y-14488D01*
X10155Y-14484D01*
X10150Y-14481D01*
X10147Y-14479D01*
X10146Y-14478D01*
X10199Y-14746D01*
X10594D01*
Y-14862D01*
X10102D01*
X10006Y-14352D01*
X10120Y-14337D01*
X10131Y-14352D01*
X10143Y-14366D01*
X10155Y-14377D01*
X10167Y-14387D01*
X10178Y-14395D01*
X10186Y-14401D01*
X10192Y-14405D01*
X10193Y-14406D01*
X10194D01*
X10212Y-14415D01*
X10230Y-14422D01*
X10248Y-14426D01*
X10265Y-14430D01*
X10279Y-14432D01*
X10290Y-14433D01*
X10300D01*
X10317Y-14432D01*
X10334Y-14430D01*
X10349Y-14427D01*
X10364Y-14424D01*
X10378Y-14419D01*
X10390Y-14414D01*
X10402Y-14408D01*
X10412Y-14403D01*
X10421Y-14397D01*
X10430Y-14391D01*
X10437Y-14386D01*
X10442Y-14382D01*
X10447Y-14378D01*
X10450Y-14375D01*
X10452Y-14373D01*
X10453Y-14372D01*
X10463Y-14360D01*
X10473Y-14348D01*
X10480Y-14335D01*
X10487Y-14321D01*
X10493Y-14307D01*
X10498Y-14293D01*
X10505Y-14267D01*
X10507Y-14255D01*
X10509Y-14243D01*
X10510Y-14233D01*
X10511Y-14224D01*
X10512Y-14217D01*
Y-14212D01*
Y-14208D01*
Y-14207D01*
X10511Y-14187D01*
X10509Y-14168D01*
X10506Y-14150D01*
X10503Y-14133D01*
X10498Y-14117D01*
X10493Y-14103D01*
X10487Y-14090D01*
X10482Y-14078D01*
X10476Y-14067D01*
X10470Y-14058D01*
X10465Y-14050D01*
X10461Y-14043D01*
X10457Y-14038D01*
X10454Y-14034D01*
X10452Y-14032D01*
X10451Y-14031D01*
X10439Y-14019D01*
X10427Y-14009D01*
X10415Y-14000D01*
X10402Y-13993D01*
X10390Y-13986D01*
X10378Y-13981D01*
X10354Y-13973D01*
X10343Y-13971D01*
X10333Y-13969D01*
X10325Y-13967D01*
X10317Y-13966D01*
X10311Y-13965D01*
X10302D01*
X10289Y-13966D01*
X10276Y-13967D01*
X10252Y-13972D01*
X10230Y-13980D01*
X10212Y-13989D01*
X10197Y-13997D01*
X10191Y-14001D01*
X10186Y-14005D01*
X10182Y-14008D01*
X10179Y-14010D01*
X10178Y-14012D01*
X10177D01*
X10168Y-14021D01*
X10160Y-14032D01*
X10145Y-14054D01*
X10134Y-14077D01*
X10125Y-14100D01*
X10119Y-14121D01*
X10117Y-14130D01*
X10115Y-14138D01*
X10114Y-14144D01*
X10113Y-14149D01*
X10112Y-14152D01*
Y-14153D01*
X9984Y-14142D01*
X9987Y-14119D01*
X9992Y-14097D01*
X9997Y-14077D01*
X10004Y-14057D01*
X10012Y-14039D01*
X10020Y-14023D01*
X10028Y-14008D01*
X10037Y-13994D01*
X10045Y-13981D01*
X10054Y-13971D01*
X10061Y-13962D01*
X10068Y-13954D01*
X10073Y-13948D01*
X10077Y-13944D01*
X10080Y-13941D01*
X10081Y-13940D01*
X10098Y-13927D01*
X10115Y-13915D01*
X10133Y-13905D01*
X10152Y-13897D01*
X10170Y-13889D01*
X10189Y-13883D01*
X10207Y-13878D01*
X10224Y-13874D01*
X10240Y-13871D01*
X10255Y-13869D01*
X10268Y-13867D01*
X10280Y-13866D01*
X10289D01*
X10296Y-13865D01*
X10302D01*
X10332Y-13866D01*
D02*
G37*
G36*
X9468Y-13999D02*
X8981D01*
X8989Y-14011D01*
X8997Y-14023D01*
X9006Y-14034D01*
X9014Y-14044D01*
X9021Y-14052D01*
X9027Y-14059D01*
X9031Y-14063D01*
X9032Y-14064D01*
X9039Y-14071D01*
X9047Y-14079D01*
X9057Y-14088D01*
X9068Y-14098D01*
X9091Y-14118D01*
X9115Y-14139D01*
X9137Y-14159D01*
X9147Y-14167D01*
X9156Y-14175D01*
X9163Y-14181D01*
X9168Y-14186D01*
X9172Y-14189D01*
X9173Y-14190D01*
X9197Y-14210D01*
X9219Y-14229D01*
X9239Y-14247D01*
X9258Y-14264D01*
X9275Y-14280D01*
X9290Y-14294D01*
X9304Y-14307D01*
X9316Y-14319D01*
X9327Y-14329D01*
X9336Y-14338D01*
X9344Y-14346D01*
X9350Y-14352D01*
X9355Y-14357D01*
X9358Y-14361D01*
X9360Y-14363D01*
X9361Y-14364D01*
X9381Y-14388D01*
X9398Y-14410D01*
X9412Y-14430D01*
X9423Y-14449D01*
X9431Y-14464D01*
X9435Y-14470D01*
X9437Y-14475D01*
X9439Y-14479D01*
X9441Y-14482D01*
X9442Y-14484D01*
Y-14485D01*
X9450Y-14507D01*
X9456Y-14528D01*
X9461Y-14548D01*
X9464Y-14566D01*
X9466Y-14581D01*
Y-14587D01*
X9467Y-14593D01*
Y-14597D01*
Y-14600D01*
Y-14602D01*
Y-14603D01*
X9466Y-14625D01*
X9463Y-14645D01*
X9459Y-14665D01*
X9454Y-14683D01*
X9448Y-14700D01*
X9440Y-14716D01*
X9433Y-14731D01*
X9425Y-14745D01*
X9417Y-14757D01*
X9410Y-14768D01*
X9403Y-14777D01*
X9396Y-14785D01*
X9391Y-14791D01*
X9387Y-14795D01*
X9384Y-14798D01*
X9383Y-14799D01*
X9367Y-14813D01*
X9349Y-14825D01*
X9331Y-14836D01*
X9313Y-14845D01*
X9294Y-14853D01*
X9275Y-14860D01*
X9257Y-14865D01*
X9239Y-14869D01*
X9222Y-14872D01*
X9207Y-14875D01*
X9193Y-14877D01*
X9181Y-14878D01*
X9171Y-14879D01*
X9157D01*
X9131Y-14878D01*
X9107Y-14876D01*
X9083Y-14872D01*
X9062Y-14867D01*
X9042Y-14862D01*
X9023Y-14856D01*
X9006Y-14849D01*
X8991Y-14842D01*
X8977Y-14835D01*
X8965Y-14828D01*
X8955Y-14822D01*
X8946Y-14817D01*
X8940Y-14812D01*
X8935Y-14808D01*
X8932Y-14806D01*
X8931Y-14805D01*
X8916Y-14791D01*
X8903Y-14775D01*
X8891Y-14758D01*
X8881Y-14741D01*
X8872Y-14723D01*
X8864Y-14706D01*
X8857Y-14688D01*
X8852Y-14671D01*
X8847Y-14655D01*
X8843Y-14640D01*
X8840Y-14627D01*
X8838Y-14615D01*
X8837Y-14605D01*
X8836Y-14598D01*
X8835Y-14594D01*
Y-14592D01*
X8960Y-14579D01*
X8961Y-14596D01*
X8962Y-14612D01*
X8965Y-14627D01*
X8968Y-14641D01*
X8972Y-14654D01*
X8977Y-14666D01*
X8982Y-14677D01*
X8987Y-14687D01*
X8991Y-14696D01*
X8996Y-14703D01*
X9001Y-14710D01*
X9005Y-14715D01*
X9008Y-14720D01*
X9011Y-14723D01*
X9012Y-14724D01*
X9013Y-14725D01*
X9023Y-14734D01*
X9034Y-14743D01*
X9046Y-14750D01*
X9057Y-14756D01*
X9081Y-14765D01*
X9103Y-14771D01*
X9123Y-14775D01*
X9132Y-14776D01*
X9139Y-14777D01*
X9146Y-14778D01*
X9154D01*
X9169Y-14777D01*
X9184Y-14776D01*
X9211Y-14770D01*
X9234Y-14762D01*
X9254Y-14753D01*
X9262Y-14748D01*
X9269Y-14744D01*
X9275Y-14740D01*
X9281Y-14736D01*
X9285Y-14733D01*
X9288Y-14730D01*
X9289Y-14729D01*
X9290Y-14728D01*
X9299Y-14718D01*
X9307Y-14708D01*
X9314Y-14698D01*
X9320Y-14688D01*
X9329Y-14667D01*
X9336Y-14648D01*
X9339Y-14631D01*
X9340Y-14624D01*
X9341Y-14618D01*
X9342Y-14613D01*
Y-14609D01*
Y-14607D01*
Y-14606D01*
X9341Y-14593D01*
X9340Y-14580D01*
X9337Y-14566D01*
X9333Y-14554D01*
X9324Y-14529D01*
X9313Y-14506D01*
X9308Y-14496D01*
X9302Y-14487D01*
X9297Y-14479D01*
X9293Y-14472D01*
X9289Y-14467D01*
X9287Y-14462D01*
X9285Y-14460D01*
X9284Y-14459D01*
X9272Y-14444D01*
X9258Y-14428D01*
X9243Y-14411D01*
X9226Y-14394D01*
X9190Y-14358D01*
X9153Y-14325D01*
X9136Y-14309D01*
X9119Y-14294D01*
X9104Y-14281D01*
X9091Y-14270D01*
X9080Y-14261D01*
X9072Y-14254D01*
X9067Y-14250D01*
X9065Y-14248D01*
X9046Y-14232D01*
X9028Y-14217D01*
X9012Y-14203D01*
X8996Y-14189D01*
X8982Y-14176D01*
X8969Y-14163D01*
X8957Y-14152D01*
X8947Y-14141D01*
X8937Y-14132D01*
X8929Y-14123D01*
X8922Y-14116D01*
X8916Y-14110D01*
X8912Y-14105D01*
X8909Y-14101D01*
X8907Y-14099D01*
X8906Y-14098D01*
X8887Y-14074D01*
X8870Y-14050D01*
X8857Y-14028D01*
X8845Y-14008D01*
X8837Y-13991D01*
X8834Y-13984D01*
X8831Y-13978D01*
X8829Y-13973D01*
X8827Y-13969D01*
X8826Y-13967D01*
Y-13966D01*
X8821Y-13951D01*
X8817Y-13936D01*
X8815Y-13922D01*
X8813Y-13909D01*
X8812Y-13898D01*
Y-13890D01*
Y-13884D01*
Y-13883D01*
Y-13882D01*
X9468D01*
Y-13999D01*
D02*
G37*
G36*
X11267Y-14120D02*
X11401D01*
Y-14232D01*
X11267D01*
Y-14875D01*
X11167D01*
X10715Y-14232D01*
Y-14120D01*
X11145D01*
Y-13882D01*
X11267D01*
Y-14120D01*
D02*
G37*
G36*
X11869Y-13866D02*
X11888Y-13868D01*
X11906Y-13870D01*
X11923Y-13874D01*
X11939Y-13878D01*
X11954Y-13883D01*
X11968Y-13889D01*
X11980Y-13894D01*
X11991Y-13899D01*
X12001Y-13905D01*
X12009Y-13910D01*
X12016Y-13914D01*
X12022Y-13918D01*
X12026Y-13921D01*
X12028Y-13922D01*
X12029Y-13923D01*
X12042Y-13934D01*
X12054Y-13947D01*
X12076Y-13973D01*
X12095Y-14001D01*
X12110Y-14027D01*
X12116Y-14040D01*
X12122Y-14051D01*
X12126Y-14061D01*
X12130Y-14070D01*
X12133Y-14078D01*
X12135Y-14083D01*
X12137Y-14087D01*
Y-14088D01*
X12143Y-14109D01*
X12149Y-14131D01*
X12158Y-14178D01*
X12164Y-14225D01*
X12167Y-14248D01*
X12169Y-14270D01*
X12170Y-14291D01*
X12171Y-14310D01*
X12172Y-14327D01*
Y-14342D01*
X12173Y-14354D01*
Y-14363D01*
Y-14369D01*
Y-14371D01*
Y-14398D01*
X12172Y-14424D01*
X12171Y-14448D01*
X12169Y-14470D01*
X12168Y-14491D01*
X12166Y-14510D01*
X12164Y-14528D01*
X12162Y-14544D01*
X12159Y-14558D01*
X12157Y-14571D01*
X12155Y-14581D01*
X12154Y-14590D01*
X12152Y-14597D01*
X12151Y-14602D01*
X12150Y-14605D01*
Y-14606D01*
X12141Y-14637D01*
X12131Y-14666D01*
X12121Y-14691D01*
X12116Y-14702D01*
X12111Y-14712D01*
X12107Y-14721D01*
X12103Y-14729D01*
X12099Y-14736D01*
X12095Y-14742D01*
X12093Y-14747D01*
X12091Y-14750D01*
X12089Y-14752D01*
Y-14753D01*
X12074Y-14775D01*
X12057Y-14793D01*
X12040Y-14809D01*
X12024Y-14822D01*
X12010Y-14833D01*
X11999Y-14840D01*
X11995Y-14843D01*
X11992Y-14845D01*
X11990Y-14846D01*
X11989D01*
X11966Y-14857D01*
X11942Y-14865D01*
X11918Y-14871D01*
X11897Y-14875D01*
X11878Y-14877D01*
X11869Y-14878D01*
X11862Y-14879D01*
X11849D01*
X11829Y-14878D01*
X11810Y-14877D01*
X11792Y-14874D01*
X11775Y-14870D01*
X11759Y-14866D01*
X11745Y-14861D01*
X11731Y-14855D01*
X11719Y-14850D01*
X11707Y-14845D01*
X11698Y-14839D01*
X11689Y-14834D01*
X11682Y-14830D01*
X11676Y-14826D01*
X11672Y-14824D01*
X11670Y-14822D01*
X11669Y-14821D01*
X11656Y-14810D01*
X11644Y-14797D01*
X11622Y-14771D01*
X11604Y-14743D01*
X11589Y-14716D01*
X11583Y-14704D01*
X11577Y-14692D01*
X11573Y-14682D01*
X11569Y-14673D01*
X11566Y-14665D01*
X11564Y-14660D01*
X11562Y-14656D01*
Y-14655D01*
X11556Y-14634D01*
X11550Y-14612D01*
X11541Y-14565D01*
X11535Y-14518D01*
X11532Y-14495D01*
X11531Y-14473D01*
X11529Y-14452D01*
X11528Y-14432D01*
X11527Y-14415D01*
Y-14400D01*
X11526Y-14388D01*
Y-14379D01*
Y-14373D01*
Y-14372D01*
Y-14371D01*
X11527Y-14320D01*
X11530Y-14273D01*
X11535Y-14230D01*
X11541Y-14190D01*
X11549Y-14153D01*
X11557Y-14120D01*
X11566Y-14090D01*
X11575Y-14064D01*
X11584Y-14041D01*
X11593Y-14021D01*
X11601Y-14004D01*
X11609Y-13991D01*
X11615Y-13980D01*
X11620Y-13973D01*
X11623Y-13968D01*
X11624Y-13967D01*
X11640Y-13949D01*
X11657Y-13933D01*
X11675Y-13920D01*
X11694Y-13908D01*
X11713Y-13898D01*
X11731Y-13890D01*
X11750Y-13883D01*
X11767Y-13878D01*
X11784Y-13874D01*
X11799Y-13870D01*
X11813Y-13868D01*
X11825Y-13867D01*
X11835Y-13866D01*
X11843Y-13865D01*
X11849D01*
X11869Y-13866D01*
D02*
G37*
G36*
X187762Y18707D02*
X187623D01*
Y18846D01*
X187762D01*
Y18707D01*
D02*
G37*
G36*
X188256Y18862D02*
X188276Y18860D01*
X188295Y18858D01*
X188312Y18854D01*
X188329Y18850D01*
X188345Y18845D01*
X188359Y18839D01*
X188373Y18834D01*
X188385Y18829D01*
X188396Y18823D01*
X188405Y18818D01*
X188413Y18814D01*
X188419Y18810D01*
X188423Y18807D01*
X188426Y18806D01*
X188427Y18805D01*
X188442Y18793D01*
X188456Y18781D01*
X188481Y18753D01*
X188502Y18725D01*
X188519Y18697D01*
X188526Y18684D01*
X188533Y18672D01*
X188538Y18661D01*
X188542Y18652D01*
X188546Y18644D01*
X188548Y18638D01*
X188550Y18634D01*
Y18633D01*
X188557Y18611D01*
X188564Y18588D01*
X188570Y18563D01*
X188574Y18538D01*
X188582Y18487D01*
X188585Y18463D01*
X188587Y18439D01*
X188589Y18417D01*
X188590Y18396D01*
X188591Y18377D01*
Y18361D01*
X188592Y18348D01*
Y18338D01*
Y18335D01*
Y18332D01*
Y18331D01*
Y18330D01*
Y18297D01*
X188590Y18265D01*
X188588Y18236D01*
X188585Y18209D01*
X188582Y18184D01*
X188579Y18161D01*
X188575Y18140D01*
X188571Y18122D01*
X188567Y18105D01*
X188563Y18091D01*
X188560Y18079D01*
X188557Y18069D01*
X188554Y18061D01*
X188552Y18055D01*
X188551Y18052D01*
X188550Y18051D01*
X188542Y18033D01*
X188533Y18017D01*
X188523Y18001D01*
X188513Y17987D01*
X188503Y17973D01*
X188493Y17961D01*
X188483Y17950D01*
X188473Y17940D01*
X188464Y17931D01*
X188456Y17924D01*
X188448Y17917D01*
X188441Y17912D01*
X188436Y17907D01*
X188432Y17904D01*
X188429Y17903D01*
X188428Y17902D01*
X188413Y17893D01*
X188397Y17884D01*
X188382Y17877D01*
X188367Y17871D01*
X188337Y17862D01*
X188310Y17856D01*
X188297Y17853D01*
X188286Y17852D01*
X188276Y17851D01*
X188267Y17850D01*
X188261Y17849D01*
X188251D01*
X188226Y17850D01*
X188203Y17853D01*
X188181Y17858D01*
X188160Y17863D01*
X188140Y17871D01*
X188122Y17878D01*
X188105Y17887D01*
X188089Y17895D01*
X188075Y17904D01*
X188063Y17913D01*
X188053Y17920D01*
X188044Y17927D01*
X188037Y17933D01*
X188032Y17938D01*
X188029Y17941D01*
X188028Y17942D01*
X188013Y17960D01*
X187999Y17979D01*
X187987Y17999D01*
X187977Y18019D01*
X187969Y18039D01*
X187962Y18059D01*
X187956Y18079D01*
X187951Y18098D01*
X187947Y18116D01*
X187945Y18132D01*
X187943Y18147D01*
X187941Y18160D01*
Y18170D01*
X187940Y18178D01*
Y18183D01*
Y18185D01*
X187941Y18212D01*
X187944Y18237D01*
X187948Y18261D01*
X187953Y18283D01*
X187960Y18304D01*
X187967Y18323D01*
X187975Y18341D01*
X187983Y18357D01*
X187990Y18372D01*
X187998Y18384D01*
X188005Y18395D01*
X188012Y18404D01*
X188017Y18411D01*
X188021Y18416D01*
X188024Y18419D01*
X188025Y18420D01*
X188041Y18436D01*
X188058Y18449D01*
X188076Y18461D01*
X188093Y18471D01*
X188111Y18480D01*
X188128Y18487D01*
X188145Y18493D01*
X188161Y18498D01*
X188176Y18502D01*
X188190Y18504D01*
X188202Y18506D01*
X188212Y18508D01*
X188221D01*
X188228Y18509D01*
X188233D01*
X188260Y18507D01*
X188286Y18503D01*
X188309Y18498D01*
X188329Y18491D01*
X188338Y18488D01*
X188346Y18484D01*
X188353Y18481D01*
X188359Y18479D01*
X188364Y18476D01*
X188367Y18475D01*
X188369Y18473D01*
X188370D01*
X188392Y18459D01*
X188412Y18443D01*
X188429Y18427D01*
X188444Y18412D01*
X188455Y18399D01*
X188463Y18389D01*
X188466Y18385D01*
X188468Y18382D01*
X188470Y18380D01*
Y18389D01*
Y18397D01*
Y18401D01*
Y18403D01*
X188469Y18431D01*
X188467Y18458D01*
X188464Y18484D01*
X188461Y18506D01*
X188459Y18517D01*
X188458Y18526D01*
X188456Y18533D01*
X188455Y18540D01*
X188454Y18546D01*
X188453Y18550D01*
X188452Y18552D01*
Y18553D01*
X188445Y18579D01*
X188437Y18602D01*
X188430Y18622D01*
X188423Y18638D01*
X188417Y18652D01*
X188412Y18661D01*
X188408Y18667D01*
X188407Y18668D01*
Y18669D01*
X188396Y18684D01*
X188385Y18698D01*
X188373Y18710D01*
X188362Y18720D01*
X188352Y18727D01*
X188344Y18733D01*
X188339Y18737D01*
X188338Y18738D01*
X188337D01*
X188321Y18746D01*
X188304Y18752D01*
X188288Y18757D01*
X188272Y18760D01*
X188259Y18762D01*
X188248Y18763D01*
X188239D01*
X188215Y18761D01*
X188194Y18757D01*
X188176Y18751D01*
X188160Y18744D01*
X188148Y18738D01*
X188139Y18732D01*
X188133Y18728D01*
X188131Y18726D01*
X188123Y18719D01*
X188117Y18710D01*
X188105Y18691D01*
X188095Y18671D01*
X188087Y18652D01*
X188082Y18633D01*
X188080Y18626D01*
X188078Y18619D01*
X188077Y18613D01*
X188076Y18609D01*
X188075Y18606D01*
Y18605D01*
X187958Y18616D01*
X187961Y18637D01*
X187966Y18658D01*
X187971Y18677D01*
X187978Y18694D01*
X187985Y18711D01*
X187992Y18726D01*
X188000Y18739D01*
X188007Y18752D01*
X188015Y18763D01*
X188022Y18772D01*
X188028Y18780D01*
X188034Y18787D01*
X188039Y18792D01*
X188043Y18796D01*
X188045Y18798D01*
X188046Y18799D01*
X188060Y18810D01*
X188075Y18820D01*
X188091Y18829D01*
X188107Y18836D01*
X188123Y18842D01*
X188139Y18847D01*
X188169Y18855D01*
X188183Y18858D01*
X188195Y18860D01*
X188207Y18861D01*
X188217Y18862D01*
X188225Y18863D01*
X188236D01*
X188256Y18862D01*
D02*
G37*
G36*
X189825D02*
X189844Y18860D01*
X189862Y18858D01*
X189879Y18854D01*
X189895Y18850D01*
X189910Y18845D01*
X189924Y18839D01*
X189936Y18834D01*
X189947Y18829D01*
X189957Y18823D01*
X189965Y18818D01*
X189972Y18814D01*
X189978Y18810D01*
X189982Y18807D01*
X189984Y18806D01*
X189985Y18805D01*
X189998Y18794D01*
X190010Y18781D01*
X190032Y18755D01*
X190051Y18727D01*
X190066Y18701D01*
X190072Y18688D01*
X190078Y18677D01*
X190082Y18667D01*
X190086Y18658D01*
X190089Y18650D01*
X190091Y18645D01*
X190093Y18641D01*
Y18640D01*
X190099Y18619D01*
X190105Y18597D01*
X190114Y18550D01*
X190120Y18503D01*
X190123Y18480D01*
X190125Y18458D01*
X190126Y18437D01*
X190127Y18418D01*
X190128Y18401D01*
Y18386D01*
X190129Y18374D01*
Y18365D01*
Y18359D01*
Y18357D01*
Y18330D01*
X190128Y18304D01*
X190127Y18280D01*
X190125Y18258D01*
X190124Y18237D01*
X190122Y18218D01*
X190120Y18200D01*
X190118Y18184D01*
X190115Y18170D01*
X190113Y18157D01*
X190111Y18147D01*
X190110Y18138D01*
X190108Y18131D01*
X190107Y18126D01*
X190106Y18123D01*
Y18122D01*
X190097Y18091D01*
X190087Y18062D01*
X190077Y18037D01*
X190072Y18026D01*
X190067Y18016D01*
X190063Y18007D01*
X190059Y17999D01*
X190055Y17992D01*
X190051Y17986D01*
X190049Y17981D01*
X190047Y17978D01*
X190045Y17976D01*
Y17975D01*
X190030Y17953D01*
X190013Y17935D01*
X189996Y17919D01*
X189980Y17906D01*
X189966Y17895D01*
X189955Y17888D01*
X189951Y17885D01*
X189948Y17883D01*
X189946Y17882D01*
X189945D01*
X189922Y17871D01*
X189898Y17863D01*
X189874Y17857D01*
X189853Y17853D01*
X189834Y17851D01*
X189825Y17850D01*
X189818Y17849D01*
X189805D01*
X189785Y17850D01*
X189766Y17851D01*
X189748Y17854D01*
X189731Y17858D01*
X189715Y17862D01*
X189701Y17867D01*
X189687Y17873D01*
X189675Y17878D01*
X189663Y17883D01*
X189654Y17889D01*
X189645Y17894D01*
X189638Y17898D01*
X189632Y17902D01*
X189628Y17904D01*
X189626Y17906D01*
X189625Y17907D01*
X189612Y17918D01*
X189600Y17931D01*
X189578Y17957D01*
X189560Y17985D01*
X189545Y18012D01*
X189539Y18024D01*
X189533Y18036D01*
X189529Y18046D01*
X189525Y18055D01*
X189522Y18063D01*
X189520Y18068D01*
X189518Y18072D01*
Y18073D01*
X189512Y18094D01*
X189506Y18116D01*
X189497Y18163D01*
X189491Y18210D01*
X189488Y18233D01*
X189487Y18255D01*
X189485Y18276D01*
X189484Y18296D01*
X189483Y18313D01*
Y18328D01*
X189482Y18340D01*
Y18349D01*
Y18355D01*
Y18356D01*
Y18357D01*
X189483Y18408D01*
X189486Y18455D01*
X189491Y18498D01*
X189497Y18538D01*
X189505Y18575D01*
X189513Y18608D01*
X189522Y18638D01*
X189531Y18664D01*
X189540Y18687D01*
X189549Y18707D01*
X189557Y18724D01*
X189565Y18737D01*
X189571Y18748D01*
X189576Y18755D01*
X189579Y18760D01*
X189580Y18761D01*
X189596Y18779D01*
X189613Y18795D01*
X189631Y18808D01*
X189650Y18820D01*
X189669Y18830D01*
X189687Y18838D01*
X189706Y18845D01*
X189723Y18850D01*
X189740Y18854D01*
X189755Y18858D01*
X189769Y18860D01*
X189781Y18861D01*
X189791Y18862D01*
X189799Y18863D01*
X189805D01*
X189825Y18862D01*
D02*
G37*
G36*
X189054D02*
X189073Y18860D01*
X189091Y18858D01*
X189108Y18854D01*
X189124Y18850D01*
X189139Y18845D01*
X189153Y18839D01*
X189165Y18834D01*
X189176Y18829D01*
X189186Y18823D01*
X189194Y18818D01*
X189201Y18814D01*
X189207Y18810D01*
X189211Y18807D01*
X189213Y18806D01*
X189214Y18805D01*
X189227Y18794D01*
X189239Y18781D01*
X189261Y18755D01*
X189280Y18727D01*
X189295Y18701D01*
X189301Y18688D01*
X189307Y18677D01*
X189311Y18667D01*
X189315Y18658D01*
X189318Y18650D01*
X189320Y18645D01*
X189322Y18641D01*
Y18640D01*
X189328Y18619D01*
X189334Y18597D01*
X189343Y18550D01*
X189349Y18503D01*
X189352Y18480D01*
X189354Y18458D01*
X189355Y18437D01*
X189356Y18418D01*
X189357Y18401D01*
Y18386D01*
X189358Y18374D01*
Y18365D01*
Y18359D01*
Y18357D01*
Y18330D01*
X189357Y18304D01*
X189356Y18280D01*
X189354Y18258D01*
X189353Y18237D01*
X189351Y18218D01*
X189349Y18200D01*
X189347Y18184D01*
X189344Y18170D01*
X189342Y18157D01*
X189340Y18147D01*
X189339Y18138D01*
X189337Y18131D01*
X189336Y18126D01*
X189335Y18123D01*
Y18122D01*
X189326Y18091D01*
X189316Y18062D01*
X189306Y18037D01*
X189301Y18026D01*
X189296Y18016D01*
X189292Y18007D01*
X189288Y17999D01*
X189284Y17992D01*
X189280Y17986D01*
X189278Y17981D01*
X189276Y17978D01*
X189274Y17976D01*
Y17975D01*
X189259Y17953D01*
X189242Y17935D01*
X189225Y17919D01*
X189209Y17906D01*
X189195Y17895D01*
X189184Y17888D01*
X189180Y17885D01*
X189177Y17883D01*
X189175Y17882D01*
X189174D01*
X189151Y17871D01*
X189127Y17863D01*
X189103Y17857D01*
X189082Y17853D01*
X189063Y17851D01*
X189054Y17850D01*
X189047Y17849D01*
X189034D01*
X189014Y17850D01*
X188995Y17851D01*
X188977Y17854D01*
X188960Y17858D01*
X188944Y17862D01*
X188930Y17867D01*
X188916Y17873D01*
X188904Y17878D01*
X188892Y17883D01*
X188883Y17889D01*
X188874Y17894D01*
X188867Y17898D01*
X188861Y17902D01*
X188857Y17904D01*
X188855Y17906D01*
X188854Y17907D01*
X188841Y17918D01*
X188829Y17931D01*
X188807Y17957D01*
X188789Y17985D01*
X188774Y18012D01*
X188768Y18024D01*
X188762Y18036D01*
X188758Y18046D01*
X188754Y18055D01*
X188751Y18063D01*
X188749Y18068D01*
X188747Y18072D01*
Y18073D01*
X188741Y18094D01*
X188735Y18116D01*
X188726Y18163D01*
X188720Y18210D01*
X188717Y18233D01*
X188716Y18255D01*
X188714Y18276D01*
X188713Y18296D01*
X188712Y18313D01*
Y18328D01*
X188711Y18340D01*
Y18349D01*
Y18355D01*
Y18356D01*
Y18357D01*
X188712Y18408D01*
X188715Y18455D01*
X188720Y18498D01*
X188726Y18538D01*
X188734Y18575D01*
X188742Y18608D01*
X188751Y18638D01*
X188760Y18664D01*
X188769Y18687D01*
X188778Y18707D01*
X188786Y18724D01*
X188794Y18737D01*
X188800Y18748D01*
X188805Y18755D01*
X188808Y18760D01*
X188809Y18761D01*
X188825Y18779D01*
X188842Y18795D01*
X188860Y18808D01*
X188879Y18820D01*
X188898Y18830D01*
X188916Y18838D01*
X188935Y18845D01*
X188952Y18850D01*
X188969Y18854D01*
X188984Y18858D01*
X188998Y18860D01*
X189010Y18861D01*
X189020Y18862D01*
X189028Y18863D01*
X189034D01*
X189054Y18862D01*
D02*
G37*
G36*
X187136D02*
X187161Y18859D01*
X187185Y18855D01*
X187208Y18850D01*
X187228Y18843D01*
X187248Y18836D01*
X187266Y18828D01*
X187282Y18820D01*
X187296Y18812D01*
X187309Y18804D01*
X187320Y18797D01*
X187329Y18790D01*
X187336Y18785D01*
X187341Y18781D01*
X187344Y18778D01*
X187345Y18777D01*
X187361Y18760D01*
X187375Y18743D01*
X187387Y18725D01*
X187398Y18707D01*
X187406Y18689D01*
X187414Y18671D01*
X187420Y18653D01*
X187425Y18637D01*
X187428Y18621D01*
X187431Y18607D01*
X187433Y18594D01*
X187435Y18583D01*
Y18574D01*
X187436Y18568D01*
Y18563D01*
Y18562D01*
X187435Y18545D01*
X187434Y18529D01*
X187429Y18498D01*
X187421Y18472D01*
X187417Y18459D01*
X187412Y18448D01*
X187408Y18439D01*
X187403Y18430D01*
X187399Y18422D01*
X187396Y18416D01*
X187392Y18411D01*
X187390Y18407D01*
X187389Y18405D01*
X187388Y18404D01*
X187379Y18392D01*
X187368Y18381D01*
X187346Y18361D01*
X187323Y18344D01*
X187301Y18330D01*
X187280Y18320D01*
X187272Y18316D01*
X187264Y18313D01*
X187258Y18310D01*
X187253Y18308D01*
X187250Y18307D01*
X187249D01*
X187275Y18296D01*
X187297Y18283D01*
X187316Y18270D01*
X187331Y18258D01*
X187343Y18247D01*
X187351Y18237D01*
X187356Y18231D01*
X187358Y18230D01*
Y18229D01*
X187370Y18209D01*
X187379Y18189D01*
X187386Y18169D01*
X187390Y18150D01*
X187393Y18133D01*
X187394Y18127D01*
Y18121D01*
X187395Y18116D01*
Y18112D01*
Y18110D01*
Y18109D01*
X187394Y18089D01*
X187392Y18070D01*
X187388Y18052D01*
X187383Y18034D01*
X187376Y18018D01*
X187370Y18003D01*
X187362Y17989D01*
X187355Y17976D01*
X187348Y17965D01*
X187340Y17954D01*
X187334Y17946D01*
X187328Y17938D01*
X187322Y17933D01*
X187318Y17928D01*
X187316Y17926D01*
X187315Y17925D01*
X187300Y17912D01*
X187283Y17900D01*
X187266Y17890D01*
X187249Y17881D01*
X187232Y17874D01*
X187214Y17868D01*
X187197Y17862D01*
X187181Y17858D01*
X187166Y17855D01*
X187151Y17853D01*
X187139Y17851D01*
X187128Y17850D01*
X187119Y17849D01*
X187106D01*
X187082Y17850D01*
X187060Y17852D01*
X187039Y17856D01*
X187019Y17861D01*
X187001Y17866D01*
X186984Y17872D01*
X186968Y17879D01*
X186954Y17886D01*
X186942Y17893D01*
X186931Y17900D01*
X186921Y17906D01*
X186913Y17911D01*
X186907Y17916D01*
X186903Y17920D01*
X186900Y17922D01*
X186899Y17923D01*
X186885Y17937D01*
X186874Y17952D01*
X186863Y17967D01*
X186855Y17983D01*
X186847Y17998D01*
X186841Y18013D01*
X186836Y18028D01*
X186832Y18042D01*
X186828Y18055D01*
X186826Y18067D01*
X186824Y18078D01*
X186823Y18087D01*
Y18095D01*
X186822Y18100D01*
Y18104D01*
Y18105D01*
X186824Y18131D01*
X186828Y18155D01*
X186833Y18176D01*
X186840Y18194D01*
X186847Y18209D01*
X186850Y18215D01*
X186852Y18220D01*
X186855Y18224D01*
X186856Y18227D01*
X186858Y18228D01*
Y18229D01*
X186874Y18247D01*
X186891Y18263D01*
X186910Y18276D01*
X186928Y18287D01*
X186945Y18296D01*
X186952Y18299D01*
X186959Y18302D01*
X186964Y18304D01*
X186968Y18306D01*
X186970Y18307D01*
X186971D01*
X186954Y18312D01*
X186939Y18318D01*
X186924Y18324D01*
X186911Y18331D01*
X186898Y18338D01*
X186887Y18346D01*
X186876Y18354D01*
X186867Y18361D01*
X186859Y18368D01*
X186851Y18375D01*
X186845Y18381D01*
X186840Y18386D01*
X186836Y18391D01*
X186833Y18394D01*
X186832Y18396D01*
X186831Y18397D01*
X186822Y18409D01*
X186815Y18423D01*
X186808Y18436D01*
X186803Y18450D01*
X186794Y18477D01*
X186788Y18502D01*
X186786Y18514D01*
X186785Y18525D01*
X186784Y18534D01*
X186783Y18543D01*
X186782Y18550D01*
Y18555D01*
Y18558D01*
Y18559D01*
X186783Y18583D01*
X186786Y18606D01*
X186790Y18627D01*
X186796Y18648D01*
X186803Y18667D01*
X186811Y18685D01*
X186819Y18701D01*
X186827Y18716D01*
X186835Y18730D01*
X186844Y18742D01*
X186851Y18752D01*
X186858Y18760D01*
X186864Y18767D01*
X186868Y18772D01*
X186871Y18775D01*
X186872Y18776D01*
X186890Y18791D01*
X186908Y18805D01*
X186927Y18816D01*
X186947Y18826D01*
X186967Y18835D01*
X186987Y18842D01*
X187006Y18847D01*
X187024Y18852D01*
X187042Y18856D01*
X187058Y18858D01*
X187072Y18860D01*
X187085Y18862D01*
X187095D01*
X187103Y18863D01*
X187109D01*
X187136Y18862D01*
D02*
G37*
G36*
X186365D02*
X186390Y18859D01*
X186414Y18855D01*
X186437Y18850D01*
X186457Y18843D01*
X186477Y18836D01*
X186495Y18828D01*
X186511Y18820D01*
X186525Y18812D01*
X186538Y18804D01*
X186549Y18797D01*
X186558Y18790D01*
X186565Y18785D01*
X186570Y18781D01*
X186573Y18778D01*
X186574Y18777D01*
X186590Y18760D01*
X186604Y18743D01*
X186616Y18725D01*
X186627Y18707D01*
X186635Y18689D01*
X186643Y18671D01*
X186649Y18653D01*
X186654Y18637D01*
X186657Y18621D01*
X186660Y18607D01*
X186662Y18594D01*
X186664Y18583D01*
Y18574D01*
X186665Y18568D01*
Y18563D01*
Y18562D01*
X186664Y18545D01*
X186663Y18529D01*
X186658Y18498D01*
X186650Y18472D01*
X186646Y18459D01*
X186641Y18448D01*
X186637Y18439D01*
X186632Y18430D01*
X186628Y18422D01*
X186625Y18416D01*
X186621Y18411D01*
X186619Y18407D01*
X186618Y18405D01*
X186617Y18404D01*
X186608Y18392D01*
X186597Y18381D01*
X186575Y18361D01*
X186552Y18344D01*
X186530Y18330D01*
X186509Y18320D01*
X186501Y18316D01*
X186493Y18313D01*
X186487Y18310D01*
X186482Y18308D01*
X186479Y18307D01*
X186478D01*
X186504Y18296D01*
X186526Y18283D01*
X186545Y18270D01*
X186560Y18258D01*
X186572Y18247D01*
X186580Y18237D01*
X186585Y18231D01*
X186587Y18230D01*
Y18229D01*
X186599Y18209D01*
X186608Y18189D01*
X186615Y18169D01*
X186619Y18150D01*
X186622Y18133D01*
X186623Y18127D01*
Y18121D01*
X186624Y18116D01*
Y18112D01*
Y18110D01*
Y18109D01*
X186623Y18089D01*
X186621Y18070D01*
X186617Y18052D01*
X186612Y18034D01*
X186605Y18018D01*
X186599Y18003D01*
X186591Y17989D01*
X186584Y17976D01*
X186577Y17965D01*
X186569Y17954D01*
X186563Y17946D01*
X186557Y17938D01*
X186551Y17933D01*
X186547Y17928D01*
X186545Y17926D01*
X186544Y17925D01*
X186529Y17912D01*
X186512Y17900D01*
X186495Y17890D01*
X186478Y17881D01*
X186461Y17874D01*
X186443Y17868D01*
X186426Y17862D01*
X186410Y17858D01*
X186395Y17855D01*
X186380Y17853D01*
X186368Y17851D01*
X186357Y17850D01*
X186348Y17849D01*
X186335D01*
X186311Y17850D01*
X186289Y17852D01*
X186268Y17856D01*
X186248Y17861D01*
X186230Y17866D01*
X186213Y17872D01*
X186197Y17879D01*
X186183Y17886D01*
X186171Y17893D01*
X186160Y17900D01*
X186150Y17906D01*
X186142Y17911D01*
X186136Y17916D01*
X186132Y17920D01*
X186129Y17922D01*
X186128Y17923D01*
X186114Y17937D01*
X186103Y17952D01*
X186092Y17967D01*
X186084Y17983D01*
X186076Y17998D01*
X186070Y18013D01*
X186065Y18028D01*
X186061Y18042D01*
X186057Y18055D01*
X186055Y18067D01*
X186053Y18078D01*
X186052Y18087D01*
Y18095D01*
X186051Y18100D01*
Y18104D01*
Y18105D01*
X186053Y18131D01*
X186057Y18155D01*
X186062Y18176D01*
X186069Y18194D01*
X186076Y18209D01*
X186079Y18215D01*
X186081Y18220D01*
X186084Y18224D01*
X186085Y18227D01*
X186087Y18228D01*
Y18229D01*
X186103Y18247D01*
X186120Y18263D01*
X186139Y18276D01*
X186157Y18287D01*
X186174Y18296D01*
X186181Y18299D01*
X186188Y18302D01*
X186193Y18304D01*
X186197Y18306D01*
X186199Y18307D01*
X186200D01*
X186183Y18312D01*
X186168Y18318D01*
X186153Y18324D01*
X186140Y18331D01*
X186127Y18338D01*
X186116Y18346D01*
X186105Y18354D01*
X186096Y18361D01*
X186088Y18368D01*
X186080Y18375D01*
X186074Y18381D01*
X186069Y18386D01*
X186065Y18391D01*
X186062Y18394D01*
X186061Y18396D01*
X186060Y18397D01*
X186051Y18409D01*
X186044Y18423D01*
X186037Y18436D01*
X186032Y18450D01*
X186023Y18477D01*
X186017Y18502D01*
X186015Y18514D01*
X186014Y18525D01*
X186013Y18534D01*
X186012Y18543D01*
X186011Y18550D01*
Y18555D01*
Y18558D01*
Y18559D01*
X186012Y18583D01*
X186015Y18606D01*
X186019Y18627D01*
X186025Y18648D01*
X186032Y18667D01*
X186040Y18685D01*
X186048Y18701D01*
X186056Y18716D01*
X186064Y18730D01*
X186073Y18742D01*
X186080Y18752D01*
X186087Y18760D01*
X186093Y18767D01*
X186097Y18772D01*
X186100Y18775D01*
X186101Y18776D01*
X186119Y18791D01*
X186137Y18805D01*
X186156Y18816D01*
X186176Y18826D01*
X186196Y18835D01*
X186216Y18842D01*
X186235Y18847D01*
X186253Y18852D01*
X186271Y18856D01*
X186287Y18858D01*
X186301Y18860D01*
X186314Y18862D01*
X186324D01*
X186332Y18863D01*
X186338D01*
X186365Y18862D01*
D02*
G37*
G36*
X187762Y-18021D02*
X187623D01*
Y-17882D01*
X187762D01*
Y-18021D01*
D02*
G37*
G36*
X188282Y-17866D02*
X188307Y-17869D01*
X188331Y-17873D01*
X188354Y-17879D01*
X188375Y-17886D01*
X188395Y-17894D01*
X188413Y-17902D01*
X188429Y-17910D01*
X188444Y-17918D01*
X188457Y-17927D01*
X188469Y-17934D01*
X188478Y-17941D01*
X188485Y-17947D01*
X188491Y-17951D01*
X188494Y-17954D01*
X188495Y-17955D01*
X188512Y-17972D01*
X188526Y-17990D01*
X188539Y-18009D01*
X188550Y-18028D01*
X188559Y-18046D01*
X188567Y-18065D01*
X188573Y-18082D01*
X188578Y-18099D01*
X188582Y-18115D01*
X188585Y-18130D01*
X188587Y-18143D01*
X188589Y-18154D01*
Y-18163D01*
X188590Y-18170D01*
Y-18175D01*
Y-18176D01*
X188589Y-18194D01*
X188588Y-18210D01*
X188582Y-18242D01*
X188579Y-18256D01*
X188575Y-18269D01*
X188570Y-18281D01*
X188566Y-18292D01*
X188561Y-18302D01*
X188557Y-18311D01*
X188552Y-18318D01*
X188549Y-18325D01*
X188546Y-18329D01*
X188543Y-18333D01*
X188542Y-18335D01*
X188541Y-18336D01*
X188531Y-18348D01*
X188521Y-18358D01*
X188499Y-18376D01*
X188476Y-18391D01*
X188454Y-18402D01*
X188434Y-18410D01*
X188426Y-18413D01*
X188419Y-18416D01*
X188412Y-18418D01*
X188408Y-18419D01*
X188405Y-18420D01*
X188404D01*
X188428Y-18433D01*
X188448Y-18446D01*
X188466Y-18460D01*
X188480Y-18474D01*
X188491Y-18486D01*
X188500Y-18495D01*
X188502Y-18499D01*
X188504Y-18502D01*
X188506Y-18503D01*
Y-18504D01*
X188518Y-18524D01*
X188526Y-18545D01*
X188532Y-18564D01*
X188537Y-18582D01*
X188539Y-18598D01*
X188540Y-18605D01*
Y-18610D01*
X188541Y-18615D01*
Y-18618D01*
Y-18620D01*
Y-18621D01*
X188539Y-18646D01*
X188535Y-18670D01*
X188529Y-18691D01*
X188523Y-18711D01*
X188516Y-18726D01*
X188513Y-18733D01*
X188510Y-18739D01*
X188507Y-18743D01*
X188506Y-18746D01*
X188504Y-18748D01*
Y-18749D01*
X188489Y-18770D01*
X188472Y-18789D01*
X188455Y-18805D01*
X188438Y-18819D01*
X188423Y-18830D01*
X188416Y-18834D01*
X188410Y-18838D01*
X188406Y-18840D01*
X188402Y-18842D01*
X188400Y-18844D01*
X188399D01*
X188373Y-18856D01*
X188347Y-18864D01*
X188322Y-18870D01*
X188299Y-18875D01*
X188289Y-18876D01*
X188279Y-18877D01*
X188271Y-18878D01*
X188264D01*
X188258Y-18879D01*
X188250D01*
X188228Y-18878D01*
X188208Y-18876D01*
X188188Y-18873D01*
X188169Y-18868D01*
X188152Y-18863D01*
X188136Y-18858D01*
X188121Y-18851D01*
X188107Y-18845D01*
X188095Y-18839D01*
X188084Y-18833D01*
X188075Y-18827D01*
X188067Y-18822D01*
X188061Y-18817D01*
X188057Y-18814D01*
X188054Y-18812D01*
X188053Y-18811D01*
X188039Y-18798D01*
X188026Y-18784D01*
X188014Y-18769D01*
X188004Y-18753D01*
X187995Y-18738D01*
X187986Y-18722D01*
X187979Y-18706D01*
X187973Y-18691D01*
X187968Y-18677D01*
X187963Y-18664D01*
X187960Y-18652D01*
X187957Y-18642D01*
X187955Y-18634D01*
X187953Y-18627D01*
X187952Y-18623D01*
Y-18622D01*
X188074Y-18600D01*
X188077Y-18616D01*
X188080Y-18631D01*
X188084Y-18645D01*
X188089Y-18659D01*
X188094Y-18671D01*
X188099Y-18682D01*
X188104Y-18691D01*
X188109Y-18700D01*
X188114Y-18708D01*
X188118Y-18715D01*
X188123Y-18721D01*
X188126Y-18726D01*
X188130Y-18729D01*
X188132Y-18732D01*
X188134Y-18734D01*
X188143Y-18742D01*
X188153Y-18749D01*
X188173Y-18760D01*
X188193Y-18768D01*
X188212Y-18773D01*
X188228Y-18777D01*
X188235Y-18778D01*
X188241D01*
X188246Y-18779D01*
X188266D01*
X188279Y-18777D01*
X188302Y-18772D01*
X188322Y-18765D01*
X188339Y-18757D01*
X188352Y-18749D01*
X188362Y-18742D01*
X188365Y-18739D01*
X188368Y-18737D01*
X188370Y-18736D01*
Y-18735D01*
X188378Y-18727D01*
X188385Y-18718D01*
X188397Y-18699D01*
X188405Y-18681D01*
X188410Y-18663D01*
X188414Y-18648D01*
X188415Y-18641D01*
Y-18635D01*
X188416Y-18631D01*
Y-18627D01*
Y-18625D01*
Y-18624D01*
X188415Y-18609D01*
X188413Y-18594D01*
X188410Y-18581D01*
X188406Y-18568D01*
X188401Y-18557D01*
X188396Y-18547D01*
X188390Y-18537D01*
X188385Y-18529D01*
X188373Y-18515D01*
X188363Y-18506D01*
X188359Y-18502D01*
X188356Y-18500D01*
X188354Y-18499D01*
X188353Y-18498D01*
X188329Y-18485D01*
X188305Y-18475D01*
X188281Y-18468D01*
X188260Y-18463D01*
X188250Y-18461D01*
X188241Y-18460D01*
X188233Y-18459D01*
X188226D01*
X188221Y-18458D01*
X188207D01*
X188201Y-18459D01*
X188196Y-18460D01*
X188194D01*
X188180Y-18353D01*
X188199Y-18357D01*
X188215Y-18361D01*
X188230Y-18363D01*
X188243Y-18364D01*
X188253Y-18365D01*
X188260Y-18366D01*
X188266D01*
X188282Y-18365D01*
X188296Y-18364D01*
X188324Y-18357D01*
X188348Y-18349D01*
X188368Y-18339D01*
X188377Y-18333D01*
X188384Y-18328D01*
X188391Y-18324D01*
X188396Y-18320D01*
X188400Y-18316D01*
X188404Y-18313D01*
X188405Y-18312D01*
X188406Y-18311D01*
X188416Y-18301D01*
X188424Y-18290D01*
X188432Y-18278D01*
X188438Y-18267D01*
X188448Y-18244D01*
X188454Y-18222D01*
X188458Y-18202D01*
X188459Y-18194D01*
X188460Y-18187D01*
X188461Y-18181D01*
Y-18177D01*
Y-18174D01*
Y-18173D01*
X188460Y-18157D01*
X188458Y-18141D01*
X188455Y-18127D01*
X188452Y-18113D01*
X188442Y-18088D01*
X188437Y-18076D01*
X188431Y-18066D01*
X188425Y-18057D01*
X188420Y-18049D01*
X188415Y-18042D01*
X188410Y-18036D01*
X188407Y-18031D01*
X188404Y-18028D01*
X188402Y-18026D01*
X188401Y-18025D01*
X188390Y-18015D01*
X188378Y-18006D01*
X188366Y-17998D01*
X188353Y-17991D01*
X188341Y-17985D01*
X188329Y-17980D01*
X188306Y-17973D01*
X188296Y-17971D01*
X188286Y-17969D01*
X188278Y-17968D01*
X188270Y-17967D01*
X188264Y-17966D01*
X188256D01*
X188243Y-17967D01*
X188230Y-17968D01*
X188206Y-17973D01*
X188185Y-17980D01*
X188167Y-17989D01*
X188153Y-17997D01*
X188147Y-18001D01*
X188142Y-18004D01*
X188138Y-18007D01*
X188135Y-18009D01*
X188134Y-18011D01*
X188133D01*
X188124Y-18020D01*
X188116Y-18031D01*
X188101Y-18054D01*
X188089Y-18079D01*
X188079Y-18103D01*
X188075Y-18115D01*
X188071Y-18126D01*
X188068Y-18136D01*
X188066Y-18144D01*
X188064Y-18151D01*
X188063Y-18156D01*
X188062Y-18160D01*
Y-18161D01*
X187940Y-18145D01*
X187943Y-18122D01*
X187948Y-18100D01*
X187954Y-18080D01*
X187960Y-18061D01*
X187968Y-18043D01*
X187976Y-18026D01*
X187985Y-18011D01*
X187994Y-17997D01*
X188002Y-17984D01*
X188010Y-17973D01*
X188018Y-17964D01*
X188024Y-17956D01*
X188030Y-17950D01*
X188034Y-17946D01*
X188037Y-17943D01*
X188038Y-17942D01*
X188055Y-17928D01*
X188072Y-17917D01*
X188090Y-17906D01*
X188108Y-17898D01*
X188126Y-17890D01*
X188144Y-17884D01*
X188162Y-17879D01*
X188179Y-17875D01*
X188195Y-17871D01*
X188209Y-17869D01*
X188222Y-17867D01*
X188233Y-17866D01*
X188242D01*
X188249Y-17865D01*
X188255D01*
X188282Y-17866D01*
D02*
G37*
G36*
X189082Y-17867D02*
X189112Y-17872D01*
X189139Y-17878D01*
X189151Y-17882D01*
X189163Y-17886D01*
X189173Y-17890D01*
X189182Y-17894D01*
X189190Y-17897D01*
X189197Y-17900D01*
X189202Y-17903D01*
X189206Y-17905D01*
X189208Y-17907D01*
X189209D01*
X189234Y-17925D01*
X189256Y-17944D01*
X189275Y-17965D01*
X189291Y-17985D01*
X189304Y-18002D01*
X189309Y-18010D01*
X189313Y-18017D01*
X189316Y-18022D01*
X189318Y-18027D01*
X189320Y-18029D01*
Y-18030D01*
X189334Y-18060D01*
X189344Y-18091D01*
X189351Y-18120D01*
X189356Y-18147D01*
X189358Y-18159D01*
X189359Y-18170D01*
X189360Y-18180D01*
Y-18188D01*
X189361Y-18195D01*
Y-18200D01*
Y-18203D01*
Y-18204D01*
X189360Y-18230D01*
X189357Y-18255D01*
X189353Y-18278D01*
X189348Y-18300D01*
X189341Y-18321D01*
X189334Y-18340D01*
X189326Y-18357D01*
X189318Y-18373D01*
X189310Y-18388D01*
X189302Y-18400D01*
X189295Y-18411D01*
X189288Y-18420D01*
X189283Y-18427D01*
X189279Y-18432D01*
X189276Y-18435D01*
X189275Y-18436D01*
X189259Y-18452D01*
X189241Y-18466D01*
X189224Y-18478D01*
X189206Y-18488D01*
X189189Y-18497D01*
X189171Y-18504D01*
X189155Y-18510D01*
X189139Y-18515D01*
X189124Y-18518D01*
X189110Y-18521D01*
X189098Y-18523D01*
X189087Y-18525D01*
X189079D01*
X189072Y-18526D01*
X189067D01*
X189041Y-18525D01*
X189017Y-18521D01*
X188994Y-18516D01*
X188974Y-18510D01*
X188957Y-18503D01*
X188950Y-18501D01*
X188944Y-18498D01*
X188939Y-18496D01*
X188936Y-18494D01*
X188934Y-18493D01*
X188933D01*
X188910Y-18479D01*
X188890Y-18463D01*
X188871Y-18447D01*
X188856Y-18431D01*
X188843Y-18416D01*
X188834Y-18404D01*
X188831Y-18399D01*
X188828Y-18396D01*
X188827Y-18394D01*
X188826Y-18393D01*
X188827Y-18420D01*
X188828Y-18446D01*
X188830Y-18470D01*
X188832Y-18492D01*
X188834Y-18512D01*
X188837Y-18531D01*
X188840Y-18548D01*
X188843Y-18564D01*
X188847Y-18578D01*
X188850Y-18590D01*
X188852Y-18600D01*
X188855Y-18608D01*
X188857Y-18615D01*
X188859Y-18619D01*
X188860Y-18622D01*
Y-18623D01*
X188873Y-18652D01*
X188888Y-18676D01*
X188903Y-18698D01*
X188917Y-18715D01*
X188930Y-18728D01*
X188941Y-18738D01*
X188945Y-18742D01*
X188948Y-18744D01*
X188949Y-18746D01*
X188950D01*
X188967Y-18757D01*
X188985Y-18765D01*
X189002Y-18771D01*
X189018Y-18775D01*
X189032Y-18777D01*
X189043Y-18779D01*
X189053D01*
X189066Y-18778D01*
X189079Y-18777D01*
X189103Y-18771D01*
X189124Y-18763D01*
X189141Y-18753D01*
X189156Y-18743D01*
X189161Y-18739D01*
X189166Y-18735D01*
X189170Y-18732D01*
X189173Y-18729D01*
X189174Y-18728D01*
X189175Y-18727D01*
X189186Y-18713D01*
X189195Y-18697D01*
X189203Y-18680D01*
X189210Y-18663D01*
X189215Y-18647D01*
X189217Y-18641D01*
X189219Y-18635D01*
X189220Y-18630D01*
X189221Y-18626D01*
X189222Y-18624D01*
Y-18623D01*
X189343Y-18632D01*
X189340Y-18653D01*
X189335Y-18673D01*
X189329Y-18691D01*
X189323Y-18709D01*
X189316Y-18725D01*
X189308Y-18740D01*
X189300Y-18753D01*
X189292Y-18766D01*
X189285Y-18777D01*
X189278Y-18786D01*
X189271Y-18794D01*
X189265Y-18801D01*
X189260Y-18806D01*
X189256Y-18810D01*
X189254Y-18812D01*
X189253Y-18813D01*
X189239Y-18825D01*
X189223Y-18835D01*
X189207Y-18844D01*
X189191Y-18851D01*
X189175Y-18858D01*
X189159Y-18863D01*
X189129Y-18871D01*
X189115Y-18874D01*
X189102Y-18876D01*
X189090Y-18877D01*
X189080Y-18878D01*
X189072Y-18879D01*
X189061D01*
X189032Y-18878D01*
X189005Y-18874D01*
X188980Y-18869D01*
X188956Y-18861D01*
X188933Y-18853D01*
X188913Y-18843D01*
X188894Y-18833D01*
X188877Y-18822D01*
X188862Y-18811D01*
X188849Y-18801D01*
X188837Y-18791D01*
X188828Y-18783D01*
X188821Y-18776D01*
X188815Y-18770D01*
X188812Y-18766D01*
X188811Y-18765D01*
X188792Y-18739D01*
X188776Y-18709D01*
X188762Y-18678D01*
X188750Y-18644D01*
X188739Y-18610D01*
X188731Y-18575D01*
X188724Y-18540D01*
X188718Y-18506D01*
X188714Y-18474D01*
X188711Y-18444D01*
X188708Y-18417D01*
X188707Y-18404D01*
Y-18393D01*
X188706Y-18383D01*
Y-18373D01*
X188705Y-18365D01*
Y-18359D01*
Y-18353D01*
Y-18349D01*
Y-18347D01*
Y-18346D01*
X188706Y-18300D01*
X188709Y-18256D01*
X188714Y-18217D01*
X188720Y-18180D01*
X188727Y-18147D01*
X188735Y-18116D01*
X188744Y-18089D01*
X188753Y-18065D01*
X188762Y-18044D01*
X188771Y-18026D01*
X188779Y-18011D01*
X188786Y-17999D01*
X188792Y-17989D01*
X188797Y-17982D01*
X188800Y-17978D01*
X188801Y-17977D01*
X188820Y-17957D01*
X188839Y-17940D01*
X188860Y-17925D01*
X188880Y-17912D01*
X188901Y-17901D01*
X188922Y-17892D01*
X188942Y-17885D01*
X188961Y-17879D01*
X188979Y-17874D01*
X188996Y-17871D01*
X189011Y-17868D01*
X189024Y-17867D01*
X189034Y-17866D01*
X189042Y-17865D01*
X189049D01*
X189082Y-17867D01*
D02*
G37*
G36*
X187155D02*
X187185Y-17872D01*
X187212Y-17878D01*
X187224Y-17882D01*
X187236Y-17886D01*
X187246Y-17890D01*
X187255Y-17894D01*
X187263Y-17897D01*
X187270Y-17900D01*
X187275Y-17903D01*
X187279Y-17905D01*
X187281Y-17907D01*
X187282D01*
X187307Y-17925D01*
X187329Y-17944D01*
X187348Y-17965D01*
X187364Y-17985D01*
X187377Y-18002D01*
X187382Y-18010D01*
X187386Y-18017D01*
X187389Y-18022D01*
X187391Y-18027D01*
X187393Y-18029D01*
Y-18030D01*
X187407Y-18060D01*
X187417Y-18091D01*
X187424Y-18120D01*
X187429Y-18147D01*
X187431Y-18159D01*
X187432Y-18170D01*
X187433Y-18180D01*
Y-18188D01*
X187434Y-18195D01*
Y-18200D01*
Y-18203D01*
Y-18204D01*
X187433Y-18230D01*
X187430Y-18255D01*
X187426Y-18278D01*
X187421Y-18300D01*
X187414Y-18321D01*
X187407Y-18340D01*
X187399Y-18357D01*
X187391Y-18373D01*
X187383Y-18388D01*
X187375Y-18400D01*
X187368Y-18411D01*
X187361Y-18420D01*
X187356Y-18427D01*
X187352Y-18432D01*
X187349Y-18435D01*
X187348Y-18436D01*
X187332Y-18452D01*
X187314Y-18466D01*
X187297Y-18478D01*
X187279Y-18488D01*
X187262Y-18497D01*
X187244Y-18504D01*
X187228Y-18510D01*
X187212Y-18515D01*
X187197Y-18518D01*
X187183Y-18521D01*
X187171Y-18523D01*
X187160Y-18525D01*
X187152D01*
X187145Y-18526D01*
X187140D01*
X187114Y-18525D01*
X187090Y-18521D01*
X187067Y-18516D01*
X187047Y-18510D01*
X187030Y-18503D01*
X187023Y-18501D01*
X187017Y-18498D01*
X187012Y-18496D01*
X187009Y-18494D01*
X187007Y-18493D01*
X187006D01*
X186983Y-18479D01*
X186963Y-18463D01*
X186944Y-18447D01*
X186929Y-18431D01*
X186916Y-18416D01*
X186907Y-18404D01*
X186904Y-18399D01*
X186901Y-18396D01*
X186900Y-18394D01*
X186899Y-18393D01*
X186900Y-18420D01*
X186901Y-18446D01*
X186903Y-18470D01*
X186905Y-18492D01*
X186907Y-18512D01*
X186910Y-18531D01*
X186913Y-18548D01*
X186916Y-18564D01*
X186920Y-18578D01*
X186923Y-18590D01*
X186925Y-18600D01*
X186928Y-18608D01*
X186930Y-18615D01*
X186932Y-18619D01*
X186933Y-18622D01*
Y-18623D01*
X186946Y-18652D01*
X186961Y-18676D01*
X186976Y-18698D01*
X186990Y-18715D01*
X187003Y-18728D01*
X187014Y-18738D01*
X187018Y-18742D01*
X187021Y-18744D01*
X187022Y-18746D01*
X187023D01*
X187040Y-18757D01*
X187058Y-18765D01*
X187075Y-18771D01*
X187091Y-18775D01*
X187105Y-18777D01*
X187116Y-18779D01*
X187126D01*
X187139Y-18778D01*
X187152Y-18777D01*
X187176Y-18771D01*
X187197Y-18763D01*
X187214Y-18753D01*
X187229Y-18743D01*
X187234Y-18739D01*
X187239Y-18735D01*
X187243Y-18732D01*
X187246Y-18729D01*
X187247Y-18728D01*
X187248Y-18727D01*
X187259Y-18713D01*
X187268Y-18697D01*
X187276Y-18680D01*
X187283Y-18663D01*
X187288Y-18647D01*
X187290Y-18641D01*
X187292Y-18635D01*
X187293Y-18630D01*
X187294Y-18626D01*
X187295Y-18624D01*
Y-18623D01*
X187416Y-18632D01*
X187413Y-18653D01*
X187408Y-18673D01*
X187402Y-18691D01*
X187396Y-18709D01*
X187389Y-18725D01*
X187381Y-18740D01*
X187373Y-18753D01*
X187365Y-18766D01*
X187358Y-18777D01*
X187351Y-18786D01*
X187344Y-18794D01*
X187338Y-18801D01*
X187333Y-18806D01*
X187329Y-18810D01*
X187327Y-18812D01*
X187326Y-18813D01*
X187312Y-18825D01*
X187296Y-18835D01*
X187280Y-18844D01*
X187264Y-18851D01*
X187248Y-18858D01*
X187232Y-18863D01*
X187202Y-18871D01*
X187188Y-18874D01*
X187175Y-18876D01*
X187163Y-18877D01*
X187153Y-18878D01*
X187145Y-18879D01*
X187134D01*
X187105Y-18878D01*
X187078Y-18874D01*
X187053Y-18869D01*
X187029Y-18861D01*
X187006Y-18853D01*
X186986Y-18843D01*
X186967Y-18833D01*
X186950Y-18822D01*
X186935Y-18811D01*
X186922Y-18801D01*
X186910Y-18791D01*
X186901Y-18783D01*
X186894Y-18776D01*
X186888Y-18770D01*
X186885Y-18766D01*
X186884Y-18765D01*
X186865Y-18739D01*
X186849Y-18709D01*
X186835Y-18678D01*
X186823Y-18644D01*
X186812Y-18610D01*
X186804Y-18575D01*
X186797Y-18540D01*
X186791Y-18506D01*
X186787Y-18474D01*
X186784Y-18444D01*
X186781Y-18417D01*
X186780Y-18404D01*
Y-18393D01*
X186779Y-18383D01*
Y-18373D01*
X186778Y-18365D01*
Y-18359D01*
Y-18353D01*
Y-18349D01*
Y-18347D01*
Y-18346D01*
X186779Y-18300D01*
X186782Y-18256D01*
X186787Y-18217D01*
X186793Y-18180D01*
X186800Y-18147D01*
X186808Y-18116D01*
X186817Y-18089D01*
X186826Y-18065D01*
X186835Y-18044D01*
X186844Y-18026D01*
X186852Y-18011D01*
X186859Y-17999D01*
X186865Y-17989D01*
X186870Y-17982D01*
X186873Y-17978D01*
X186874Y-17977D01*
X186893Y-17957D01*
X186912Y-17940D01*
X186933Y-17925D01*
X186953Y-17912D01*
X186974Y-17901D01*
X186995Y-17892D01*
X187015Y-17885D01*
X187034Y-17879D01*
X187052Y-17874D01*
X187069Y-17871D01*
X187084Y-17868D01*
X187097Y-17867D01*
X187107Y-17866D01*
X187115Y-17865D01*
X187122D01*
X187155Y-17867D01*
D02*
G37*
G36*
X189825Y-17866D02*
X189844Y-17868D01*
X189862Y-17870D01*
X189879Y-17874D01*
X189895Y-17878D01*
X189910Y-17883D01*
X189924Y-17889D01*
X189936Y-17894D01*
X189947Y-17899D01*
X189957Y-17905D01*
X189965Y-17910D01*
X189972Y-17914D01*
X189978Y-17918D01*
X189982Y-17921D01*
X189984Y-17922D01*
X189985Y-17923D01*
X189998Y-17934D01*
X190010Y-17947D01*
X190032Y-17973D01*
X190051Y-18001D01*
X190066Y-18027D01*
X190072Y-18040D01*
X190078Y-18051D01*
X190082Y-18061D01*
X190086Y-18070D01*
X190089Y-18078D01*
X190091Y-18083D01*
X190093Y-18087D01*
Y-18088D01*
X190099Y-18109D01*
X190105Y-18131D01*
X190114Y-18178D01*
X190120Y-18225D01*
X190123Y-18248D01*
X190125Y-18270D01*
X190126Y-18291D01*
X190127Y-18310D01*
X190128Y-18327D01*
Y-18342D01*
X190129Y-18354D01*
Y-18363D01*
Y-18369D01*
Y-18371D01*
Y-18398D01*
X190128Y-18424D01*
X190127Y-18448D01*
X190125Y-18470D01*
X190124Y-18491D01*
X190122Y-18510D01*
X190120Y-18528D01*
X190118Y-18544D01*
X190115Y-18558D01*
X190113Y-18571D01*
X190111Y-18581D01*
X190110Y-18590D01*
X190108Y-18597D01*
X190107Y-18602D01*
X190106Y-18605D01*
Y-18606D01*
X190097Y-18637D01*
X190087Y-18666D01*
X190077Y-18691D01*
X190072Y-18702D01*
X190067Y-18712D01*
X190063Y-18721D01*
X190059Y-18729D01*
X190055Y-18736D01*
X190051Y-18742D01*
X190049Y-18747D01*
X190047Y-18750D01*
X190045Y-18752D01*
Y-18753D01*
X190030Y-18775D01*
X190013Y-18793D01*
X189996Y-18809D01*
X189980Y-18822D01*
X189966Y-18833D01*
X189955Y-18840D01*
X189951Y-18843D01*
X189948Y-18845D01*
X189946Y-18846D01*
X189945D01*
X189922Y-18857D01*
X189898Y-18865D01*
X189874Y-18871D01*
X189853Y-18875D01*
X189834Y-18877D01*
X189825Y-18878D01*
X189818Y-18879D01*
X189805D01*
X189785Y-18878D01*
X189766Y-18877D01*
X189748Y-18874D01*
X189731Y-18870D01*
X189715Y-18866D01*
X189701Y-18861D01*
X189687Y-18855D01*
X189675Y-18850D01*
X189663Y-18845D01*
X189654Y-18839D01*
X189645Y-18834D01*
X189638Y-18830D01*
X189632Y-18826D01*
X189628Y-18824D01*
X189626Y-18822D01*
X189625Y-18821D01*
X189612Y-18810D01*
X189600Y-18797D01*
X189578Y-18771D01*
X189560Y-18743D01*
X189545Y-18716D01*
X189539Y-18704D01*
X189533Y-18692D01*
X189529Y-18682D01*
X189525Y-18673D01*
X189522Y-18665D01*
X189520Y-18660D01*
X189518Y-18656D01*
Y-18655D01*
X189512Y-18634D01*
X189506Y-18612D01*
X189497Y-18565D01*
X189491Y-18518D01*
X189488Y-18495D01*
X189487Y-18473D01*
X189485Y-18452D01*
X189484Y-18432D01*
X189483Y-18415D01*
Y-18400D01*
X189482Y-18388D01*
Y-18379D01*
Y-18373D01*
Y-18372D01*
Y-18371D01*
X189483Y-18320D01*
X189486Y-18273D01*
X189491Y-18230D01*
X189497Y-18190D01*
X189505Y-18153D01*
X189513Y-18120D01*
X189522Y-18090D01*
X189531Y-18064D01*
X189540Y-18041D01*
X189549Y-18021D01*
X189557Y-18004D01*
X189565Y-17991D01*
X189571Y-17980D01*
X189576Y-17973D01*
X189579Y-17968D01*
X189580Y-17967D01*
X189596Y-17949D01*
X189613Y-17933D01*
X189631Y-17920D01*
X189650Y-17908D01*
X189669Y-17898D01*
X189687Y-17890D01*
X189706Y-17883D01*
X189723Y-17878D01*
X189740Y-17874D01*
X189755Y-17870D01*
X189769Y-17868D01*
X189781Y-17867D01*
X189791Y-17866D01*
X189799Y-17865D01*
X189805D01*
X189825Y-17866D01*
D02*
G37*
G36*
X186365D02*
X186390Y-17869D01*
X186414Y-17873D01*
X186437Y-17878D01*
X186457Y-17885D01*
X186477Y-17892D01*
X186495Y-17900D01*
X186511Y-17908D01*
X186525Y-17916D01*
X186538Y-17924D01*
X186549Y-17931D01*
X186558Y-17938D01*
X186565Y-17943D01*
X186570Y-17947D01*
X186573Y-17950D01*
X186574Y-17951D01*
X186590Y-17968D01*
X186604Y-17985D01*
X186616Y-18003D01*
X186627Y-18021D01*
X186635Y-18039D01*
X186643Y-18057D01*
X186649Y-18075D01*
X186654Y-18091D01*
X186657Y-18107D01*
X186660Y-18121D01*
X186662Y-18134D01*
X186664Y-18145D01*
Y-18154D01*
X186665Y-18160D01*
Y-18165D01*
Y-18166D01*
X186664Y-18183D01*
X186663Y-18199D01*
X186658Y-18230D01*
X186650Y-18256D01*
X186646Y-18269D01*
X186641Y-18280D01*
X186637Y-18289D01*
X186632Y-18298D01*
X186628Y-18306D01*
X186625Y-18312D01*
X186621Y-18317D01*
X186619Y-18321D01*
X186618Y-18323D01*
X186617Y-18324D01*
X186608Y-18336D01*
X186597Y-18347D01*
X186575Y-18367D01*
X186552Y-18384D01*
X186530Y-18398D01*
X186509Y-18408D01*
X186501Y-18412D01*
X186493Y-18415D01*
X186487Y-18418D01*
X186482Y-18420D01*
X186479Y-18421D01*
X186478D01*
X186504Y-18432D01*
X186526Y-18445D01*
X186545Y-18458D01*
X186560Y-18470D01*
X186572Y-18481D01*
X186580Y-18491D01*
X186585Y-18497D01*
X186587Y-18498D01*
Y-18499D01*
X186599Y-18519D01*
X186608Y-18539D01*
X186615Y-18559D01*
X186619Y-18578D01*
X186622Y-18595D01*
X186623Y-18601D01*
Y-18607D01*
X186624Y-18612D01*
Y-18616D01*
Y-18618D01*
Y-18619D01*
X186623Y-18639D01*
X186621Y-18658D01*
X186617Y-18676D01*
X186612Y-18694D01*
X186605Y-18710D01*
X186599Y-18725D01*
X186591Y-18739D01*
X186584Y-18752D01*
X186577Y-18763D01*
X186569Y-18774D01*
X186563Y-18782D01*
X186557Y-18790D01*
X186551Y-18795D01*
X186547Y-18800D01*
X186545Y-18802D01*
X186544Y-18803D01*
X186529Y-18816D01*
X186512Y-18828D01*
X186495Y-18838D01*
X186478Y-18847D01*
X186461Y-18854D01*
X186443Y-18860D01*
X186426Y-18866D01*
X186410Y-18870D01*
X186395Y-18873D01*
X186380Y-18875D01*
X186368Y-18877D01*
X186357Y-18878D01*
X186348Y-18879D01*
X186335D01*
X186311Y-18878D01*
X186289Y-18876D01*
X186268Y-18872D01*
X186248Y-18867D01*
X186230Y-18862D01*
X186213Y-18856D01*
X186197Y-18849D01*
X186183Y-18842D01*
X186171Y-18835D01*
X186160Y-18828D01*
X186150Y-18822D01*
X186142Y-18817D01*
X186136Y-18812D01*
X186132Y-18808D01*
X186129Y-18806D01*
X186128Y-18805D01*
X186114Y-18791D01*
X186103Y-18776D01*
X186092Y-18761D01*
X186084Y-18745D01*
X186076Y-18730D01*
X186070Y-18715D01*
X186065Y-18700D01*
X186061Y-18686D01*
X186057Y-18673D01*
X186055Y-18661D01*
X186053Y-18650D01*
X186052Y-18641D01*
Y-18633D01*
X186051Y-18628D01*
Y-18624D01*
Y-18623D01*
X186053Y-18597D01*
X186057Y-18573D01*
X186062Y-18552D01*
X186069Y-18534D01*
X186076Y-18519D01*
X186079Y-18513D01*
X186081Y-18508D01*
X186084Y-18504D01*
X186085Y-18501D01*
X186087Y-18500D01*
Y-18499D01*
X186103Y-18481D01*
X186120Y-18465D01*
X186139Y-18452D01*
X186157Y-18441D01*
X186174Y-18432D01*
X186181Y-18429D01*
X186188Y-18426D01*
X186193Y-18424D01*
X186197Y-18422D01*
X186199Y-18421D01*
X186200D01*
X186183Y-18416D01*
X186168Y-18410D01*
X186153Y-18404D01*
X186140Y-18397D01*
X186127Y-18390D01*
X186116Y-18382D01*
X186105Y-18374D01*
X186096Y-18367D01*
X186088Y-18360D01*
X186080Y-18353D01*
X186074Y-18347D01*
X186069Y-18342D01*
X186065Y-18337D01*
X186062Y-18334D01*
X186061Y-18332D01*
X186060Y-18331D01*
X186051Y-18319D01*
X186044Y-18305D01*
X186037Y-18292D01*
X186032Y-18278D01*
X186023Y-18251D01*
X186017Y-18226D01*
X186015Y-18214D01*
X186014Y-18203D01*
X186013Y-18194D01*
X186012Y-18185D01*
X186011Y-18178D01*
Y-18173D01*
Y-18170D01*
Y-18169D01*
X186012Y-18145D01*
X186015Y-18122D01*
X186019Y-18101D01*
X186025Y-18080D01*
X186032Y-18061D01*
X186040Y-18043D01*
X186048Y-18027D01*
X186056Y-18012D01*
X186064Y-17998D01*
X186073Y-17986D01*
X186080Y-17976D01*
X186087Y-17968D01*
X186093Y-17961D01*
X186097Y-17956D01*
X186100Y-17953D01*
X186101Y-17952D01*
X186119Y-17937D01*
X186137Y-17923D01*
X186156Y-17912D01*
X186176Y-17902D01*
X186196Y-17893D01*
X186216Y-17886D01*
X186235Y-17881D01*
X186253Y-17876D01*
X186271Y-17872D01*
X186287Y-17870D01*
X186301Y-17868D01*
X186314Y-17866D01*
X186324D01*
X186332Y-17865D01*
X186338D01*
X186365Y-17866D01*
D02*
G37*
%LPC*%
G36*
X-10011Y1673D02*
X-10019D01*
X-10035Y1672D01*
X-10049Y1670D01*
X-10064Y1668D01*
X-10077Y1664D01*
X-10101Y1654D01*
X-10122Y1643D01*
X-10131Y1638D01*
X-10138Y1633D01*
X-10145Y1628D01*
X-10151Y1623D01*
X-10155Y1619D01*
X-10158Y1617D01*
X-10160Y1615D01*
X-10161Y1614D01*
X-10171Y1603D01*
X-10179Y1590D01*
X-10187Y1578D01*
X-10193Y1565D01*
X-10203Y1540D01*
X-10210Y1515D01*
X-10212Y1504D01*
X-10214Y1494D01*
X-10215Y1485D01*
X-10216Y1477D01*
X-10217Y1470D01*
Y1465D01*
Y1462D01*
Y1461D01*
X-10216Y1442D01*
X-10214Y1423D01*
X-10211Y1406D01*
X-10208Y1389D01*
X-10203Y1374D01*
X-10198Y1360D01*
X-10193Y1347D01*
X-10187Y1335D01*
X-10181Y1325D01*
X-10176Y1315D01*
X-10171Y1308D01*
X-10166Y1301D01*
X-10163Y1296D01*
X-10160Y1292D01*
X-10158Y1290D01*
X-10157Y1289D01*
X-10145Y1277D01*
X-10134Y1267D01*
X-10122Y1258D01*
X-10110Y1250D01*
X-10098Y1244D01*
X-10086Y1238D01*
X-10064Y1230D01*
X-10054Y1228D01*
X-10045Y1226D01*
X-10037Y1224D01*
X-10030Y1223D01*
X-10024Y1222D01*
X-10016D01*
X-10001Y1223D01*
X-9987Y1225D01*
X-9974Y1228D01*
X-9962Y1232D01*
X-9939Y1242D01*
X-9919Y1253D01*
X-9910Y1259D01*
X-9903Y1264D01*
X-9896Y1270D01*
X-9891Y1274D01*
X-9887Y1278D01*
X-9884Y1281D01*
X-9882Y1283D01*
X-9881Y1284D01*
X-9871Y1296D01*
X-9862Y1309D01*
X-9855Y1322D01*
X-9849Y1336D01*
X-9839Y1364D01*
X-9832Y1390D01*
X-9830Y1402D01*
X-9828Y1414D01*
X-9827Y1424D01*
X-9826Y1433D01*
X-9825Y1440D01*
Y1445D01*
Y1449D01*
Y1450D01*
X-9826Y1469D01*
X-9827Y1487D01*
X-9830Y1504D01*
X-9834Y1520D01*
X-9838Y1535D01*
X-9842Y1548D01*
X-9847Y1560D01*
X-9852Y1571D01*
X-9858Y1581D01*
X-9863Y1590D01*
X-9867Y1597D01*
X-9871Y1603D01*
X-9875Y1608D01*
X-9878Y1611D01*
X-9879Y1613D01*
X-9880Y1614D01*
X-9890Y1624D01*
X-9901Y1633D01*
X-9913Y1641D01*
X-9924Y1648D01*
X-9936Y1654D01*
X-9948Y1659D01*
X-9970Y1666D01*
X-9989Y1670D01*
X-9998Y1671D01*
X-10005Y1672D01*
X-10011Y1673D01*
D02*
G37*
G36*
X-11557Y2035D02*
X-11561D01*
X-11576Y2034D01*
X-11591Y2032D01*
X-11605Y2028D01*
X-11618Y2022D01*
X-11642Y2010D01*
X-11663Y1995D01*
X-11672Y1988D01*
X-11680Y1980D01*
X-11686Y1974D01*
X-11692Y1967D01*
X-11696Y1962D01*
X-11699Y1958D01*
X-11701Y1956D01*
X-11702Y1955D01*
X-11712Y1938D01*
X-11721Y1918D01*
X-11728Y1895D01*
X-11735Y1870D01*
X-11740Y1843D01*
X-11745Y1816D01*
X-11752Y1762D01*
X-11754Y1735D01*
X-11756Y1711D01*
X-11757Y1688D01*
X-11758Y1669D01*
X-11759Y1652D01*
Y1645D01*
Y1640D01*
Y1635D01*
Y1632D01*
Y1630D01*
Y1629D01*
X-11758Y1585D01*
X-11756Y1544D01*
X-11753Y1507D01*
X-11749Y1473D01*
X-11745Y1443D01*
X-11739Y1415D01*
X-11734Y1391D01*
X-11728Y1370D01*
X-11722Y1351D01*
X-11717Y1335D01*
X-11711Y1322D01*
X-11707Y1312D01*
X-11703Y1304D01*
X-11700Y1298D01*
X-11698Y1295D01*
X-11697Y1294D01*
X-11687Y1281D01*
X-11677Y1270D01*
X-11666Y1261D01*
X-11654Y1252D01*
X-11643Y1245D01*
X-11632Y1240D01*
X-11621Y1235D01*
X-11610Y1231D01*
X-11591Y1226D01*
X-11583Y1224D01*
X-11576Y1223D01*
X-11570Y1222D01*
X-11562D01*
X-11546Y1223D01*
X-11531Y1225D01*
X-11517Y1229D01*
X-11504Y1235D01*
X-11480Y1248D01*
X-11459Y1262D01*
X-11450Y1270D01*
X-11442Y1277D01*
X-11436Y1284D01*
X-11430Y1290D01*
X-11426Y1295D01*
X-11423Y1299D01*
X-11421Y1302D01*
X-11420Y1303D01*
X-11410Y1320D01*
X-11401Y1340D01*
X-11393Y1363D01*
X-11386Y1388D01*
X-11381Y1414D01*
X-11376Y1442D01*
X-11369Y1496D01*
X-11367Y1523D01*
X-11365Y1547D01*
X-11364Y1570D01*
X-11363Y1589D01*
X-11362Y1606D01*
Y1613D01*
Y1618D01*
Y1623D01*
Y1626D01*
Y1628D01*
Y1629D01*
X-11363Y1673D01*
X-11364Y1713D01*
X-11367Y1750D01*
X-11371Y1783D01*
X-11375Y1812D01*
X-11380Y1839D01*
X-11386Y1862D01*
X-11391Y1883D01*
X-11396Y1901D01*
X-11402Y1915D01*
X-11407Y1928D01*
X-11411Y1937D01*
X-11415Y1945D01*
X-11417Y1950D01*
X-11419Y1953D01*
X-11420Y1954D01*
X-11431Y1968D01*
X-11442Y1981D01*
X-11454Y1992D01*
X-11466Y2001D01*
X-11478Y2009D01*
X-11490Y2015D01*
X-11501Y2021D01*
X-11512Y2025D01*
X-11531Y2031D01*
X-11540Y2032D01*
X-11547Y2034D01*
X-11553D01*
X-11557Y2035D01*
D02*
G37*
G36*
X-3355Y1768D02*
X-3666D01*
X-3355Y1320D01*
Y1768D01*
D02*
G37*
G36*
X-2647Y2035D02*
X-2651D01*
X-2666Y2034D01*
X-2681Y2032D01*
X-2695Y2028D01*
X-2708Y2022D01*
X-2732Y2010D01*
X-2753Y1995D01*
X-2762Y1988D01*
X-2770Y1980D01*
X-2776Y1974D01*
X-2782Y1967D01*
X-2786Y1962D01*
X-2789Y1958D01*
X-2791Y1956D01*
X-2792Y1955D01*
X-2802Y1938D01*
X-2811Y1918D01*
X-2818Y1895D01*
X-2825Y1870D01*
X-2830Y1843D01*
X-2835Y1816D01*
X-2842Y1762D01*
X-2844Y1735D01*
X-2846Y1711D01*
X-2847Y1688D01*
X-2848Y1669D01*
X-2849Y1652D01*
Y1645D01*
Y1640D01*
Y1635D01*
Y1632D01*
Y1630D01*
Y1629D01*
X-2848Y1585D01*
X-2846Y1544D01*
X-2843Y1507D01*
X-2839Y1473D01*
X-2835Y1443D01*
X-2829Y1415D01*
X-2824Y1391D01*
X-2818Y1370D01*
X-2812Y1351D01*
X-2807Y1335D01*
X-2801Y1322D01*
X-2797Y1312D01*
X-2793Y1304D01*
X-2790Y1298D01*
X-2788Y1295D01*
X-2787Y1294D01*
X-2777Y1281D01*
X-2767Y1270D01*
X-2756Y1261D01*
X-2744Y1252D01*
X-2733Y1245D01*
X-2722Y1240D01*
X-2711Y1235D01*
X-2700Y1231D01*
X-2681Y1226D01*
X-2673Y1224D01*
X-2666Y1223D01*
X-2660Y1222D01*
X-2652D01*
X-2636Y1223D01*
X-2621Y1225D01*
X-2607Y1229D01*
X-2594Y1235D01*
X-2570Y1248D01*
X-2549Y1262D01*
X-2540Y1270D01*
X-2532Y1277D01*
X-2526Y1284D01*
X-2520Y1290D01*
X-2516Y1295D01*
X-2513Y1299D01*
X-2511Y1302D01*
X-2510Y1303D01*
X-2500Y1320D01*
X-2491Y1340D01*
X-2483Y1363D01*
X-2476Y1388D01*
X-2471Y1414D01*
X-2466Y1442D01*
X-2459Y1496D01*
X-2457Y1523D01*
X-2455Y1547D01*
X-2454Y1570D01*
X-2453Y1589D01*
X-2452Y1606D01*
Y1613D01*
Y1618D01*
Y1623D01*
Y1626D01*
Y1628D01*
Y1629D01*
X-2453Y1673D01*
X-2454Y1713D01*
X-2457Y1750D01*
X-2461Y1783D01*
X-2465Y1812D01*
X-2470Y1839D01*
X-2476Y1862D01*
X-2481Y1883D01*
X-2486Y1901D01*
X-2492Y1915D01*
X-2497Y1928D01*
X-2501Y1937D01*
X-2505Y1945D01*
X-2507Y1950D01*
X-2509Y1953D01*
X-2510Y1954D01*
X-2521Y1968D01*
X-2532Y1981D01*
X-2544Y1992D01*
X-2556Y2001D01*
X-2568Y2009D01*
X-2580Y2015D01*
X-2591Y2021D01*
X-2602Y2025D01*
X-2621Y2031D01*
X-2630Y2032D01*
X-2637Y2034D01*
X-2643D01*
X-2647Y2035D01*
D02*
G37*
G36*
X11145Y-14232D02*
X10834D01*
X11145Y-14680D01*
Y-14232D01*
D02*
G37*
G36*
X11853Y-13965D02*
X11849D01*
X11834Y-13966D01*
X11819Y-13968D01*
X11805Y-13972D01*
X11792Y-13978D01*
X11768Y-13990D01*
X11747Y-14005D01*
X11738Y-14012D01*
X11730Y-14020D01*
X11724Y-14026D01*
X11718Y-14033D01*
X11714Y-14038D01*
X11711Y-14042D01*
X11709Y-14044D01*
X11708Y-14045D01*
X11698Y-14062D01*
X11689Y-14082D01*
X11682Y-14105D01*
X11675Y-14130D01*
X11670Y-14157D01*
X11665Y-14184D01*
X11658Y-14238D01*
X11656Y-14265D01*
X11654Y-14289D01*
X11653Y-14312D01*
X11652Y-14331D01*
X11651Y-14348D01*
Y-14355D01*
Y-14360D01*
Y-14365D01*
Y-14368D01*
Y-14370D01*
Y-14371D01*
X11652Y-14415D01*
X11654Y-14456D01*
X11657Y-14493D01*
X11661Y-14527D01*
X11665Y-14557D01*
X11671Y-14585D01*
X11676Y-14609D01*
X11682Y-14630D01*
X11688Y-14649D01*
X11693Y-14665D01*
X11699Y-14678D01*
X11703Y-14688D01*
X11707Y-14696D01*
X11710Y-14702D01*
X11712Y-14705D01*
X11713Y-14706D01*
X11723Y-14719D01*
X11733Y-14730D01*
X11744Y-14739D01*
X11756Y-14748D01*
X11767Y-14755D01*
X11778Y-14760D01*
X11789Y-14765D01*
X11800Y-14769D01*
X11819Y-14774D01*
X11827Y-14776D01*
X11834Y-14777D01*
X11840Y-14778D01*
X11848D01*
X11864Y-14777D01*
X11879Y-14775D01*
X11893Y-14771D01*
X11906Y-14765D01*
X11930Y-14752D01*
X11951Y-14738D01*
X11960Y-14730D01*
X11968Y-14723D01*
X11974Y-14716D01*
X11980Y-14710D01*
X11984Y-14705D01*
X11987Y-14701D01*
X11989Y-14698D01*
X11990Y-14697D01*
X12000Y-14680D01*
X12009Y-14660D01*
X12017Y-14637D01*
X12024Y-14612D01*
X12029Y-14586D01*
X12034Y-14558D01*
X12041Y-14504D01*
X12043Y-14477D01*
X12045Y-14453D01*
X12046Y-14430D01*
X12047Y-14411D01*
X12048Y-14394D01*
Y-14387D01*
Y-14382D01*
Y-14377D01*
Y-14374D01*
Y-14372D01*
Y-14371D01*
X12047Y-14327D01*
X12046Y-14287D01*
X12043Y-14250D01*
X12039Y-14217D01*
X12035Y-14188D01*
X12030Y-14161D01*
X12024Y-14138D01*
X12019Y-14117D01*
X12014Y-14099D01*
X12008Y-14085D01*
X12003Y-14072D01*
X11999Y-14063D01*
X11995Y-14055D01*
X11993Y-14050D01*
X11991Y-14047D01*
X11990Y-14046D01*
X11979Y-14032D01*
X11968Y-14019D01*
X11956Y-14008D01*
X11944Y-13999D01*
X11932Y-13991D01*
X11920Y-13985D01*
X11909Y-13979D01*
X11898Y-13975D01*
X11879Y-13969D01*
X11870Y-13968D01*
X11863Y-13966D01*
X11857D01*
X11853Y-13965D01*
D02*
G37*
G36*
X188271Y18401D02*
X188263D01*
X188247Y18400D01*
X188233Y18398D01*
X188218Y18396D01*
X188205Y18392D01*
X188181Y18382D01*
X188160Y18371D01*
X188151Y18366D01*
X188144Y18361D01*
X188137Y18356D01*
X188131Y18351D01*
X188127Y18347D01*
X188124Y18345D01*
X188122Y18343D01*
X188121Y18342D01*
X188111Y18331D01*
X188103Y18318D01*
X188095Y18306D01*
X188089Y18293D01*
X188079Y18268D01*
X188072Y18243D01*
X188070Y18232D01*
X188068Y18222D01*
X188067Y18213D01*
X188066Y18205D01*
X188065Y18198D01*
Y18193D01*
Y18190D01*
Y18189D01*
X188066Y18170D01*
X188068Y18151D01*
X188071Y18134D01*
X188074Y18117D01*
X188079Y18102D01*
X188084Y18088D01*
X188089Y18075D01*
X188095Y18063D01*
X188101Y18053D01*
X188106Y18043D01*
X188111Y18036D01*
X188116Y18029D01*
X188119Y18024D01*
X188122Y18020D01*
X188124Y18018D01*
X188125Y18017D01*
X188137Y18005D01*
X188148Y17995D01*
X188160Y17986D01*
X188172Y17978D01*
X188184Y17972D01*
X188196Y17966D01*
X188218Y17958D01*
X188228Y17956D01*
X188237Y17954D01*
X188245Y17952D01*
X188252Y17951D01*
X188258Y17950D01*
X188266D01*
X188281Y17951D01*
X188295Y17953D01*
X188308Y17956D01*
X188320Y17960D01*
X188343Y17970D01*
X188363Y17981D01*
X188372Y17987D01*
X188379Y17992D01*
X188386Y17998D01*
X188391Y18002D01*
X188395Y18006D01*
X188398Y18009D01*
X188400Y18011D01*
X188401Y18012D01*
X188411Y18024D01*
X188420Y18037D01*
X188427Y18050D01*
X188433Y18064D01*
X188443Y18092D01*
X188450Y18118D01*
X188452Y18130D01*
X188454Y18142D01*
X188455Y18152D01*
X188456Y18161D01*
X188457Y18168D01*
Y18173D01*
Y18177D01*
Y18178D01*
X188456Y18197D01*
X188455Y18215D01*
X188452Y18232D01*
X188448Y18248D01*
X188444Y18263D01*
X188440Y18276D01*
X188435Y18288D01*
X188430Y18299D01*
X188424Y18309D01*
X188419Y18318D01*
X188415Y18325D01*
X188411Y18331D01*
X188407Y18336D01*
X188404Y18339D01*
X188403Y18341D01*
X188402Y18342D01*
X188392Y18352D01*
X188381Y18361D01*
X188369Y18369D01*
X188358Y18376D01*
X188346Y18382D01*
X188334Y18387D01*
X188312Y18394D01*
X188293Y18398D01*
X188284Y18399D01*
X188277Y18400D01*
X188271Y18401D01*
D02*
G37*
G36*
X189809Y18763D02*
X189805D01*
X189790Y18762D01*
X189775Y18760D01*
X189761Y18756D01*
X189748Y18750D01*
X189724Y18738D01*
X189703Y18723D01*
X189694Y18716D01*
X189686Y18708D01*
X189680Y18702D01*
X189674Y18695D01*
X189670Y18690D01*
X189667Y18686D01*
X189665Y18684D01*
X189664Y18683D01*
X189654Y18666D01*
X189645Y18646D01*
X189638Y18623D01*
X189631Y18598D01*
X189626Y18571D01*
X189621Y18544D01*
X189614Y18490D01*
X189612Y18463D01*
X189610Y18439D01*
X189609Y18416D01*
X189608Y18397D01*
X189607Y18380D01*
Y18373D01*
Y18368D01*
Y18363D01*
Y18360D01*
Y18358D01*
Y18357D01*
X189608Y18313D01*
X189610Y18272D01*
X189613Y18235D01*
X189617Y18201D01*
X189621Y18171D01*
X189627Y18143D01*
X189632Y18119D01*
X189638Y18098D01*
X189644Y18079D01*
X189649Y18063D01*
X189655Y18050D01*
X189659Y18040D01*
X189663Y18032D01*
X189666Y18026D01*
X189668Y18023D01*
X189669Y18022D01*
X189679Y18009D01*
X189689Y17998D01*
X189700Y17989D01*
X189712Y17980D01*
X189723Y17973D01*
X189734Y17968D01*
X189745Y17963D01*
X189756Y17959D01*
X189775Y17954D01*
X189783Y17952D01*
X189790Y17951D01*
X189796Y17950D01*
X189804D01*
X189820Y17951D01*
X189835Y17953D01*
X189849Y17957D01*
X189862Y17963D01*
X189886Y17976D01*
X189907Y17990D01*
X189916Y17998D01*
X189924Y18005D01*
X189930Y18012D01*
X189936Y18018D01*
X189940Y18023D01*
X189943Y18027D01*
X189945Y18030D01*
X189946Y18031D01*
X189956Y18048D01*
X189965Y18068D01*
X189973Y18091D01*
X189980Y18116D01*
X189985Y18142D01*
X189990Y18170D01*
X189997Y18224D01*
X189999Y18251D01*
X190001Y18275D01*
X190002Y18298D01*
X190003Y18317D01*
X190004Y18334D01*
Y18341D01*
Y18346D01*
Y18351D01*
Y18354D01*
Y18356D01*
Y18357D01*
X190003Y18401D01*
X190002Y18441D01*
X189999Y18478D01*
X189995Y18511D01*
X189991Y18540D01*
X189986Y18567D01*
X189980Y18590D01*
X189975Y18611D01*
X189970Y18629D01*
X189964Y18643D01*
X189959Y18656D01*
X189955Y18665D01*
X189951Y18673D01*
X189949Y18678D01*
X189947Y18681D01*
X189946Y18682D01*
X189935Y18696D01*
X189924Y18709D01*
X189912Y18720D01*
X189900Y18729D01*
X189888Y18737D01*
X189876Y18743D01*
X189865Y18749D01*
X189854Y18753D01*
X189835Y18759D01*
X189826Y18760D01*
X189819Y18762D01*
X189813D01*
X189809Y18763D01*
D02*
G37*
G36*
X189038D02*
X189034D01*
X189019Y18762D01*
X189004Y18760D01*
X188990Y18756D01*
X188977Y18750D01*
X188953Y18738D01*
X188932Y18723D01*
X188923Y18716D01*
X188915Y18708D01*
X188909Y18702D01*
X188903Y18695D01*
X188899Y18690D01*
X188896Y18686D01*
X188894Y18684D01*
X188893Y18683D01*
X188883Y18666D01*
X188874Y18646D01*
X188867Y18623D01*
X188860Y18598D01*
X188855Y18571D01*
X188850Y18544D01*
X188843Y18490D01*
X188841Y18463D01*
X188839Y18439D01*
X188838Y18416D01*
X188837Y18397D01*
X188836Y18380D01*
Y18373D01*
Y18368D01*
Y18363D01*
Y18360D01*
Y18358D01*
Y18357D01*
X188837Y18313D01*
X188839Y18272D01*
X188842Y18235D01*
X188846Y18201D01*
X188850Y18171D01*
X188856Y18143D01*
X188861Y18119D01*
X188867Y18098D01*
X188873Y18079D01*
X188878Y18063D01*
X188884Y18050D01*
X188888Y18040D01*
X188892Y18032D01*
X188895Y18026D01*
X188897Y18023D01*
X188898Y18022D01*
X188908Y18009D01*
X188918Y17998D01*
X188929Y17989D01*
X188941Y17980D01*
X188952Y17973D01*
X188963Y17968D01*
X188974Y17963D01*
X188985Y17959D01*
X189004Y17954D01*
X189012Y17952D01*
X189019Y17951D01*
X189025Y17950D01*
X189033D01*
X189049Y17951D01*
X189064Y17953D01*
X189078Y17957D01*
X189091Y17963D01*
X189115Y17976D01*
X189136Y17990D01*
X189145Y17998D01*
X189153Y18005D01*
X189159Y18012D01*
X189165Y18018D01*
X189169Y18023D01*
X189172Y18027D01*
X189174Y18030D01*
X189175Y18031D01*
X189185Y18048D01*
X189194Y18068D01*
X189202Y18091D01*
X189209Y18116D01*
X189214Y18142D01*
X189219Y18170D01*
X189226Y18224D01*
X189228Y18251D01*
X189230Y18275D01*
X189231Y18298D01*
X189232Y18317D01*
X189233Y18334D01*
Y18341D01*
Y18346D01*
Y18351D01*
Y18354D01*
Y18356D01*
Y18357D01*
X189232Y18401D01*
X189231Y18441D01*
X189228Y18478D01*
X189224Y18511D01*
X189220Y18540D01*
X189215Y18567D01*
X189209Y18590D01*
X189204Y18611D01*
X189199Y18629D01*
X189193Y18643D01*
X189188Y18656D01*
X189184Y18665D01*
X189180Y18673D01*
X189178Y18678D01*
X189176Y18681D01*
X189175Y18682D01*
X189164Y18696D01*
X189153Y18709D01*
X189141Y18720D01*
X189129Y18729D01*
X189117Y18737D01*
X189105Y18743D01*
X189094Y18749D01*
X189083Y18753D01*
X189064Y18759D01*
X189055Y18760D01*
X189048Y18762D01*
X189042D01*
X189038Y18763D01*
D02*
G37*
G36*
X187118D02*
X187110D01*
X187089Y18762D01*
X187069Y18759D01*
X187051Y18755D01*
X187036Y18750D01*
X187023Y18745D01*
X187013Y18741D01*
X187009Y18739D01*
X187006Y18738D01*
X187005Y18737D01*
X187004D01*
X186987Y18726D01*
X186972Y18714D01*
X186959Y18701D01*
X186949Y18689D01*
X186941Y18678D01*
X186936Y18669D01*
X186932Y18663D01*
X186931Y18662D01*
Y18661D01*
X186923Y18643D01*
X186917Y18625D01*
X186913Y18607D01*
X186910Y18592D01*
X186908Y18579D01*
X186907Y18569D01*
Y18565D01*
Y18562D01*
Y18561D01*
Y18560D01*
X186908Y18544D01*
X186909Y18529D01*
X186916Y18501D01*
X186925Y18477D01*
X186930Y18466D01*
X186935Y18456D01*
X186940Y18447D01*
X186945Y18440D01*
X186950Y18433D01*
X186954Y18427D01*
X186958Y18423D01*
X186961Y18420D01*
X186962Y18418D01*
X186963Y18417D01*
X186974Y18407D01*
X186985Y18398D01*
X186997Y18391D01*
X187009Y18384D01*
X187021Y18378D01*
X187033Y18374D01*
X187055Y18367D01*
X187075Y18363D01*
X187083Y18362D01*
X187091Y18361D01*
X187097Y18360D01*
X187105D01*
X187121Y18361D01*
X187137Y18362D01*
X187152Y18365D01*
X187166Y18369D01*
X187191Y18378D01*
X187202Y18384D01*
X187212Y18389D01*
X187221Y18394D01*
X187229Y18400D01*
X187236Y18405D01*
X187242Y18409D01*
X187246Y18413D01*
X187249Y18415D01*
X187251Y18417D01*
X187252Y18418D01*
X187262Y18429D01*
X187272Y18441D01*
X187279Y18453D01*
X187286Y18465D01*
X187292Y18478D01*
X187297Y18490D01*
X187304Y18513D01*
X187306Y18523D01*
X187308Y18533D01*
X187309Y18542D01*
X187310Y18549D01*
X187311Y18555D01*
Y18560D01*
Y18563D01*
Y18564D01*
X187310Y18580D01*
X187309Y18595D01*
X187306Y18609D01*
X187302Y18623D01*
X187293Y18647D01*
X187288Y18658D01*
X187283Y18668D01*
X187277Y18677D01*
X187272Y18685D01*
X187267Y18691D01*
X187263Y18697D01*
X187259Y18701D01*
X187256Y18704D01*
X187255Y18706D01*
X187254Y18707D01*
X187243Y18717D01*
X187231Y18725D01*
X187220Y18733D01*
X187207Y18739D01*
X187183Y18749D01*
X187161Y18756D01*
X187150Y18758D01*
X187141Y18760D01*
X187132Y18761D01*
X187125Y18762D01*
X187118Y18763D01*
D02*
G37*
G36*
X187116Y18260D02*
X187109D01*
X187096Y18259D01*
X187083Y18258D01*
X187060Y18253D01*
X187040Y18246D01*
X187024Y18238D01*
X187010Y18230D01*
X187000Y18223D01*
X186997Y18220D01*
X186994Y18218D01*
X186993Y18216D01*
X186992D01*
X186984Y18207D01*
X186977Y18198D01*
X186966Y18179D01*
X186958Y18160D01*
X186953Y18142D01*
X186949Y18125D01*
X186948Y18119D01*
Y18113D01*
X186947Y18108D01*
Y18104D01*
Y18102D01*
Y18101D01*
X186948Y18090D01*
X186949Y18079D01*
X186954Y18058D01*
X186961Y18040D01*
X186970Y18024D01*
X186978Y18011D01*
X186985Y18002D01*
X186990Y17996D01*
X186992Y17994D01*
X187001Y17986D01*
X187010Y17979D01*
X187030Y17968D01*
X187049Y17960D01*
X187067Y17955D01*
X187083Y17951D01*
X187090Y17950D01*
X187096D01*
X187101Y17949D01*
X187121D01*
X187133Y17951D01*
X187155Y17956D01*
X187175Y17964D01*
X187191Y17972D01*
X187205Y17980D01*
X187215Y17988D01*
X187218Y17991D01*
X187221Y17993D01*
X187222Y17994D01*
X187223Y17995D01*
X187231Y18004D01*
X187239Y18013D01*
X187250Y18032D01*
X187259Y18051D01*
X187264Y18069D01*
X187268Y18084D01*
X187269Y18091D01*
Y18097D01*
X187270Y18101D01*
Y18105D01*
Y18107D01*
Y18108D01*
Y18120D01*
X187268Y18131D01*
X187263Y18152D01*
X187256Y18170D01*
X187248Y18186D01*
X187239Y18199D01*
X187232Y18208D01*
X187227Y18214D01*
X187226Y18215D01*
X187225Y18216D01*
X187216Y18224D01*
X187207Y18230D01*
X187188Y18241D01*
X187169Y18249D01*
X187150Y18254D01*
X187134Y18258D01*
X187127Y18259D01*
X187121D01*
X187116Y18260D01*
D02*
G37*
G36*
X186347Y18763D02*
X186339D01*
X186318Y18762D01*
X186298Y18759D01*
X186280Y18755D01*
X186265Y18750D01*
X186252Y18745D01*
X186242Y18741D01*
X186238Y18739D01*
X186235Y18738D01*
X186234Y18737D01*
X186233D01*
X186216Y18726D01*
X186201Y18714D01*
X186188Y18701D01*
X186178Y18689D01*
X186170Y18678D01*
X186165Y18669D01*
X186161Y18663D01*
X186160Y18662D01*
Y18661D01*
X186152Y18643D01*
X186146Y18625D01*
X186142Y18607D01*
X186139Y18592D01*
X186137Y18579D01*
X186136Y18569D01*
Y18565D01*
Y18562D01*
Y18561D01*
Y18560D01*
X186137Y18544D01*
X186138Y18529D01*
X186145Y18501D01*
X186154Y18477D01*
X186159Y18466D01*
X186164Y18456D01*
X186169Y18447D01*
X186174Y18440D01*
X186179Y18433D01*
X186183Y18427D01*
X186187Y18423D01*
X186190Y18420D01*
X186191Y18418D01*
X186192Y18417D01*
X186203Y18407D01*
X186214Y18398D01*
X186226Y18391D01*
X186238Y18384D01*
X186250Y18378D01*
X186262Y18374D01*
X186284Y18367D01*
X186304Y18363D01*
X186312Y18362D01*
X186320Y18361D01*
X186326Y18360D01*
X186334D01*
X186350Y18361D01*
X186366Y18362D01*
X186381Y18365D01*
X186395Y18369D01*
X186420Y18378D01*
X186431Y18384D01*
X186441Y18389D01*
X186450Y18394D01*
X186458Y18400D01*
X186465Y18405D01*
X186471Y18409D01*
X186475Y18413D01*
X186478Y18415D01*
X186480Y18417D01*
X186481Y18418D01*
X186491Y18429D01*
X186501Y18441D01*
X186508Y18453D01*
X186515Y18465D01*
X186521Y18478D01*
X186526Y18490D01*
X186533Y18513D01*
X186535Y18523D01*
X186537Y18533D01*
X186538Y18542D01*
X186539Y18549D01*
X186540Y18555D01*
Y18560D01*
Y18563D01*
Y18564D01*
X186539Y18580D01*
X186538Y18595D01*
X186535Y18609D01*
X186531Y18623D01*
X186522Y18647D01*
X186517Y18658D01*
X186512Y18668D01*
X186506Y18677D01*
X186501Y18685D01*
X186496Y18691D01*
X186492Y18697D01*
X186488Y18701D01*
X186485Y18704D01*
X186484Y18706D01*
X186483Y18707D01*
X186472Y18717D01*
X186460Y18725D01*
X186449Y18733D01*
X186436Y18739D01*
X186412Y18749D01*
X186390Y18756D01*
X186379Y18758D01*
X186370Y18760D01*
X186361Y18761D01*
X186354Y18762D01*
X186347Y18763D01*
D02*
G37*
G36*
X186345Y18260D02*
X186338D01*
X186325Y18259D01*
X186312Y18258D01*
X186289Y18253D01*
X186269Y18246D01*
X186253Y18238D01*
X186239Y18230D01*
X186229Y18223D01*
X186226Y18220D01*
X186223Y18218D01*
X186222Y18216D01*
X186221D01*
X186213Y18207D01*
X186206Y18198D01*
X186195Y18179D01*
X186187Y18160D01*
X186182Y18142D01*
X186178Y18125D01*
X186177Y18119D01*
Y18113D01*
X186176Y18108D01*
Y18104D01*
Y18102D01*
Y18101D01*
X186177Y18090D01*
X186178Y18079D01*
X186183Y18058D01*
X186190Y18040D01*
X186199Y18024D01*
X186207Y18011D01*
X186214Y18002D01*
X186219Y17996D01*
X186221Y17994D01*
X186230Y17986D01*
X186239Y17979D01*
X186259Y17968D01*
X186278Y17960D01*
X186296Y17955D01*
X186312Y17951D01*
X186319Y17950D01*
X186325D01*
X186330Y17949D01*
X186350D01*
X186362Y17951D01*
X186384Y17956D01*
X186404Y17964D01*
X186420Y17972D01*
X186434Y17980D01*
X186444Y17988D01*
X186447Y17991D01*
X186450Y17993D01*
X186451Y17994D01*
X186452Y17995D01*
X186460Y18004D01*
X186468Y18013D01*
X186479Y18032D01*
X186488Y18051D01*
X186493Y18069D01*
X186497Y18084D01*
X186498Y18091D01*
Y18097D01*
X186499Y18101D01*
Y18105D01*
Y18107D01*
Y18108D01*
Y18120D01*
X186497Y18131D01*
X186492Y18152D01*
X186485Y18170D01*
X186477Y18186D01*
X186468Y18199D01*
X186461Y18208D01*
X186456Y18214D01*
X186455Y18215D01*
X186454Y18216D01*
X186445Y18224D01*
X186436Y18230D01*
X186417Y18241D01*
X186398Y18249D01*
X186379Y18254D01*
X186363Y18258D01*
X186356Y18259D01*
X186350D01*
X186345Y18260D01*
D02*
G37*
G36*
X189055Y-17965D02*
X189047D01*
X189027Y-17966D01*
X189009Y-17970D01*
X188992Y-17975D01*
X188977Y-17980D01*
X188964Y-17986D01*
X188954Y-17990D01*
X188948Y-17994D01*
X188947Y-17995D01*
X188946D01*
X188929Y-18007D01*
X188914Y-18021D01*
X188901Y-18036D01*
X188891Y-18050D01*
X188882Y-18062D01*
X188876Y-18073D01*
X188874Y-18077D01*
X188872Y-18080D01*
X188871Y-18081D01*
Y-18082D01*
X188862Y-18104D01*
X188856Y-18125D01*
X188851Y-18146D01*
X188848Y-18164D01*
X188846Y-18180D01*
Y-18187D01*
X188845Y-18192D01*
Y-18197D01*
Y-18200D01*
Y-18202D01*
Y-18203D01*
X188846Y-18221D01*
X188847Y-18237D01*
X188850Y-18253D01*
X188854Y-18268D01*
X188858Y-18282D01*
X188863Y-18294D01*
X188868Y-18306D01*
X188874Y-18317D01*
X188879Y-18326D01*
X188884Y-18334D01*
X188889Y-18341D01*
X188893Y-18347D01*
X188897Y-18352D01*
X188900Y-18355D01*
X188901Y-18357D01*
X188902Y-18358D01*
X188913Y-18369D01*
X188925Y-18378D01*
X188936Y-18386D01*
X188948Y-18393D01*
X188960Y-18399D01*
X188972Y-18403D01*
X188994Y-18411D01*
X189013Y-18415D01*
X189021Y-18416D01*
X189028Y-18417D01*
X189034Y-18418D01*
X189042D01*
X189057Y-18417D01*
X189072Y-18415D01*
X189086Y-18412D01*
X189099Y-18409D01*
X189123Y-18399D01*
X189143Y-18388D01*
X189152Y-18382D01*
X189159Y-18377D01*
X189166Y-18372D01*
X189171Y-18367D01*
X189175Y-18364D01*
X189179Y-18361D01*
X189180Y-18359D01*
X189181Y-18358D01*
X189191Y-18346D01*
X189199Y-18334D01*
X189207Y-18321D01*
X189213Y-18308D01*
X189223Y-18281D01*
X189229Y-18255D01*
X189231Y-18243D01*
X189233Y-18232D01*
X189234Y-18222D01*
X189235Y-18213D01*
X189236Y-18206D01*
Y-18201D01*
Y-18197D01*
Y-18196D01*
X189235Y-18177D01*
X189234Y-18158D01*
X189231Y-18141D01*
X189227Y-18124D01*
X189223Y-18109D01*
X189218Y-18096D01*
X189213Y-18083D01*
X189208Y-18071D01*
X189203Y-18061D01*
X189198Y-18052D01*
X189193Y-18045D01*
X189189Y-18038D01*
X189185Y-18033D01*
X189182Y-18030D01*
X189181Y-18028D01*
X189180Y-18027D01*
X189169Y-18016D01*
X189159Y-18007D01*
X189147Y-17998D01*
X189136Y-17991D01*
X189125Y-17985D01*
X189114Y-17980D01*
X189093Y-17973D01*
X189075Y-17968D01*
X189067Y-17967D01*
X189060Y-17966D01*
X189055Y-17965D01*
D02*
G37*
G36*
X187128D02*
X187120D01*
X187100Y-17966D01*
X187082Y-17970D01*
X187065Y-17975D01*
X187050Y-17980D01*
X187037Y-17986D01*
X187027Y-17990D01*
X187021Y-17994D01*
X187020Y-17995D01*
X187019D01*
X187002Y-18007D01*
X186987Y-18021D01*
X186974Y-18036D01*
X186964Y-18050D01*
X186955Y-18062D01*
X186949Y-18073D01*
X186947Y-18077D01*
X186945Y-18080D01*
X186944Y-18081D01*
Y-18082D01*
X186935Y-18104D01*
X186929Y-18125D01*
X186924Y-18146D01*
X186921Y-18164D01*
X186919Y-18180D01*
Y-18187D01*
X186918Y-18192D01*
Y-18197D01*
Y-18200D01*
Y-18202D01*
Y-18203D01*
X186919Y-18221D01*
X186920Y-18237D01*
X186923Y-18253D01*
X186927Y-18268D01*
X186931Y-18282D01*
X186936Y-18294D01*
X186941Y-18306D01*
X186947Y-18317D01*
X186952Y-18326D01*
X186957Y-18334D01*
X186962Y-18341D01*
X186966Y-18347D01*
X186970Y-18352D01*
X186973Y-18355D01*
X186974Y-18357D01*
X186975Y-18358D01*
X186986Y-18369D01*
X186998Y-18378D01*
X187009Y-18386D01*
X187021Y-18393D01*
X187033Y-18399D01*
X187045Y-18403D01*
X187067Y-18411D01*
X187086Y-18415D01*
X187094Y-18416D01*
X187101Y-18417D01*
X187107Y-18418D01*
X187115D01*
X187130Y-18417D01*
X187145Y-18415D01*
X187159Y-18412D01*
X187172Y-18409D01*
X187196Y-18399D01*
X187216Y-18388D01*
X187225Y-18382D01*
X187232Y-18377D01*
X187239Y-18372D01*
X187244Y-18367D01*
X187248Y-18364D01*
X187252Y-18361D01*
X187253Y-18359D01*
X187254Y-18358D01*
X187264Y-18346D01*
X187272Y-18334D01*
X187280Y-18321D01*
X187286Y-18308D01*
X187296Y-18281D01*
X187302Y-18255D01*
X187304Y-18243D01*
X187306Y-18232D01*
X187307Y-18222D01*
X187308Y-18213D01*
X187309Y-18206D01*
Y-18201D01*
Y-18197D01*
Y-18196D01*
X187308Y-18177D01*
X187307Y-18158D01*
X187304Y-18141D01*
X187300Y-18124D01*
X187296Y-18109D01*
X187291Y-18096D01*
X187286Y-18083D01*
X187281Y-18071D01*
X187276Y-18061D01*
X187271Y-18052D01*
X187266Y-18045D01*
X187262Y-18038D01*
X187258Y-18033D01*
X187255Y-18030D01*
X187254Y-18028D01*
X187253Y-18027D01*
X187242Y-18016D01*
X187232Y-18007D01*
X187220Y-17998D01*
X187209Y-17991D01*
X187198Y-17985D01*
X187187Y-17980D01*
X187166Y-17973D01*
X187148Y-17968D01*
X187140Y-17967D01*
X187133Y-17966D01*
X187128Y-17965D01*
D02*
G37*
G36*
X189809D02*
X189805D01*
X189790Y-17966D01*
X189775Y-17968D01*
X189761Y-17972D01*
X189748Y-17978D01*
X189724Y-17990D01*
X189703Y-18005D01*
X189694Y-18012D01*
X189686Y-18020D01*
X189680Y-18026D01*
X189674Y-18033D01*
X189670Y-18038D01*
X189667Y-18042D01*
X189665Y-18044D01*
X189664Y-18045D01*
X189654Y-18062D01*
X189645Y-18082D01*
X189638Y-18105D01*
X189631Y-18130D01*
X189626Y-18157D01*
X189621Y-18184D01*
X189614Y-18238D01*
X189612Y-18265D01*
X189610Y-18289D01*
X189609Y-18312D01*
X189608Y-18331D01*
X189607Y-18348D01*
Y-18355D01*
Y-18360D01*
Y-18365D01*
Y-18368D01*
Y-18370D01*
Y-18371D01*
X189608Y-18415D01*
X189610Y-18456D01*
X189613Y-18493D01*
X189617Y-18527D01*
X189621Y-18557D01*
X189627Y-18585D01*
X189632Y-18609D01*
X189638Y-18630D01*
X189644Y-18649D01*
X189649Y-18665D01*
X189655Y-18678D01*
X189659Y-18688D01*
X189663Y-18696D01*
X189666Y-18702D01*
X189668Y-18705D01*
X189669Y-18706D01*
X189679Y-18719D01*
X189689Y-18730D01*
X189700Y-18739D01*
X189712Y-18748D01*
X189723Y-18755D01*
X189734Y-18760D01*
X189745Y-18765D01*
X189756Y-18769D01*
X189775Y-18774D01*
X189783Y-18776D01*
X189790Y-18777D01*
X189796Y-18778D01*
X189804D01*
X189820Y-18777D01*
X189835Y-18775D01*
X189849Y-18771D01*
X189862Y-18765D01*
X189886Y-18752D01*
X189907Y-18738D01*
X189916Y-18730D01*
X189924Y-18723D01*
X189930Y-18716D01*
X189936Y-18710D01*
X189940Y-18705D01*
X189943Y-18701D01*
X189945Y-18698D01*
X189946Y-18697D01*
X189956Y-18680D01*
X189965Y-18660D01*
X189973Y-18637D01*
X189980Y-18612D01*
X189985Y-18586D01*
X189990Y-18558D01*
X189997Y-18504D01*
X189999Y-18477D01*
X190001Y-18453D01*
X190002Y-18430D01*
X190003Y-18411D01*
X190004Y-18394D01*
Y-18387D01*
Y-18382D01*
Y-18377D01*
Y-18374D01*
Y-18372D01*
Y-18371D01*
X190003Y-18327D01*
X190002Y-18287D01*
X189999Y-18250D01*
X189995Y-18217D01*
X189991Y-18188D01*
X189986Y-18161D01*
X189980Y-18138D01*
X189975Y-18117D01*
X189970Y-18099D01*
X189964Y-18085D01*
X189959Y-18072D01*
X189955Y-18063D01*
X189951Y-18055D01*
X189949Y-18050D01*
X189947Y-18047D01*
X189946Y-18046D01*
X189935Y-18032D01*
X189924Y-18019D01*
X189912Y-18008D01*
X189900Y-17999D01*
X189888Y-17991D01*
X189876Y-17985D01*
X189865Y-17979D01*
X189854Y-17975D01*
X189835Y-17969D01*
X189826Y-17968D01*
X189819Y-17966D01*
X189813D01*
X189809Y-17965D01*
D02*
G37*
G36*
X186347D02*
X186339D01*
X186318Y-17966D01*
X186298Y-17969D01*
X186280Y-17973D01*
X186265Y-17978D01*
X186252Y-17983D01*
X186242Y-17987D01*
X186238Y-17989D01*
X186235Y-17990D01*
X186234Y-17991D01*
X186233D01*
X186216Y-18002D01*
X186201Y-18014D01*
X186188Y-18027D01*
X186178Y-18039D01*
X186170Y-18050D01*
X186165Y-18059D01*
X186161Y-18065D01*
X186160Y-18066D01*
Y-18067D01*
X186152Y-18085D01*
X186146Y-18103D01*
X186142Y-18121D01*
X186139Y-18136D01*
X186137Y-18149D01*
X186136Y-18159D01*
Y-18163D01*
Y-18166D01*
Y-18167D01*
Y-18168D01*
X186137Y-18184D01*
X186138Y-18199D01*
X186145Y-18227D01*
X186154Y-18251D01*
X186159Y-18262D01*
X186164Y-18272D01*
X186169Y-18281D01*
X186174Y-18288D01*
X186179Y-18295D01*
X186183Y-18301D01*
X186187Y-18305D01*
X186190Y-18308D01*
X186191Y-18310D01*
X186192Y-18311D01*
X186203Y-18321D01*
X186214Y-18330D01*
X186226Y-18337D01*
X186238Y-18344D01*
X186250Y-18350D01*
X186262Y-18354D01*
X186284Y-18361D01*
X186304Y-18365D01*
X186312Y-18366D01*
X186320Y-18367D01*
X186326Y-18368D01*
X186334D01*
X186350Y-18367D01*
X186366Y-18366D01*
X186381Y-18363D01*
X186395Y-18359D01*
X186420Y-18350D01*
X186431Y-18344D01*
X186441Y-18339D01*
X186450Y-18334D01*
X186458Y-18328D01*
X186465Y-18323D01*
X186471Y-18319D01*
X186475Y-18315D01*
X186478Y-18313D01*
X186480Y-18311D01*
X186481Y-18310D01*
X186491Y-18299D01*
X186501Y-18287D01*
X186508Y-18275D01*
X186515Y-18263D01*
X186521Y-18250D01*
X186526Y-18238D01*
X186533Y-18215D01*
X186535Y-18205D01*
X186537Y-18195D01*
X186538Y-18186D01*
X186539Y-18179D01*
X186540Y-18173D01*
Y-18168D01*
Y-18165D01*
Y-18164D01*
X186539Y-18148D01*
X186538Y-18133D01*
X186535Y-18119D01*
X186531Y-18105D01*
X186522Y-18081D01*
X186517Y-18070D01*
X186512Y-18060D01*
X186506Y-18051D01*
X186501Y-18043D01*
X186496Y-18037D01*
X186492Y-18031D01*
X186488Y-18027D01*
X186485Y-18024D01*
X186484Y-18022D01*
X186483Y-18021D01*
X186472Y-18011D01*
X186460Y-18003D01*
X186449Y-17995D01*
X186436Y-17989D01*
X186412Y-17979D01*
X186390Y-17972D01*
X186379Y-17970D01*
X186370Y-17968D01*
X186361Y-17967D01*
X186354Y-17966D01*
X186347Y-17965D01*
D02*
G37*
G36*
X186345Y-18468D02*
X186338D01*
X186325Y-18469D01*
X186312Y-18470D01*
X186289Y-18475D01*
X186269Y-18482D01*
X186253Y-18490D01*
X186239Y-18498D01*
X186229Y-18505D01*
X186226Y-18508D01*
X186223Y-18510D01*
X186222Y-18512D01*
X186221D01*
X186213Y-18521D01*
X186206Y-18530D01*
X186195Y-18549D01*
X186187Y-18568D01*
X186182Y-18586D01*
X186178Y-18603D01*
X186177Y-18609D01*
Y-18615D01*
X186176Y-18620D01*
Y-18624D01*
Y-18626D01*
Y-18627D01*
X186177Y-18638D01*
X186178Y-18649D01*
X186183Y-18670D01*
X186190Y-18688D01*
X186199Y-18704D01*
X186207Y-18717D01*
X186214Y-18726D01*
X186219Y-18732D01*
X186221Y-18734D01*
X186230Y-18742D01*
X186239Y-18749D01*
X186259Y-18760D01*
X186278Y-18768D01*
X186296Y-18773D01*
X186312Y-18777D01*
X186319Y-18778D01*
X186325D01*
X186330Y-18779D01*
X186350D01*
X186362Y-18777D01*
X186384Y-18772D01*
X186404Y-18764D01*
X186420Y-18756D01*
X186434Y-18748D01*
X186444Y-18740D01*
X186447Y-18737D01*
X186450Y-18735D01*
X186451Y-18734D01*
X186452Y-18733D01*
X186460Y-18724D01*
X186468Y-18715D01*
X186479Y-18696D01*
X186488Y-18677D01*
X186493Y-18659D01*
X186497Y-18644D01*
X186498Y-18637D01*
Y-18631D01*
X186499Y-18627D01*
Y-18623D01*
Y-18621D01*
Y-18620D01*
Y-18608D01*
X186497Y-18597D01*
X186492Y-18576D01*
X186485Y-18558D01*
X186477Y-18542D01*
X186468Y-18529D01*
X186461Y-18520D01*
X186456Y-18514D01*
X186455Y-18513D01*
X186454Y-18512D01*
X186445Y-18504D01*
X186436Y-18498D01*
X186417Y-18487D01*
X186398Y-18479D01*
X186379Y-18474D01*
X186363Y-18470D01*
X186356Y-18469D01*
X186350D01*
X186345Y-18468D01*
D02*
G37*
%LPD*%
D13*
X-13197Y11520D02*
X11401D01*
X-10437Y2870D02*
Y11520D01*
X-11063Y9020D02*
X-10437Y11520D01*
X-9815Y9020D01*
X-10437Y9520D02*
X-9815Y9020D01*
X-11063D02*
X-10437Y9520D01*
Y11520D02*
X-10126Y9268D01*
X-10437Y9520D02*
X-10126Y9268D01*
X-10437Y9520D02*
Y11520D01*
X-10752Y9268D02*
X-10437Y11520D01*
X-11063Y9020D02*
X-10752Y9268D01*
X-13197Y-8284D02*
X11401D01*
X-10437D02*
Y366D01*
Y-8284D02*
X-9815Y-5784D01*
X-11063D02*
X-10437Y-8284D01*
X-11063Y-5784D02*
X-10437Y-6284D01*
X-9815Y-5784D01*
X-10752Y-6032D02*
X-10437Y-8284D01*
X-10752Y-6032D02*
X-10437Y-6284D01*
Y-8284D02*
Y-6284D01*
Y-8284D02*
X-10126Y-6032D01*
X-9815Y-5784D01*
X-5851Y6618D02*
X16401D01*
X-3091Y2870D02*
Y6618D01*
X-3713Y4118D02*
X-3091Y6618D01*
X-2465Y4118D01*
X-3091Y4618D02*
X-2465Y4118D01*
X-3713D02*
X-3091Y4618D01*
Y6618D02*
X-2776Y4366D01*
X-3091Y4618D02*
X-2776Y4366D01*
X-3091Y4618D02*
Y6618D01*
X-3402Y4366D02*
X-3091Y6618D01*
X-3713Y4118D02*
X-3402Y4366D01*
X-5851Y-3382D02*
X16401D01*
X-3091D02*
Y366D01*
Y-3382D02*
X-2465Y-882D01*
X-3713D02*
X-3091Y-3382D01*
X-3713Y-882D02*
X-3091Y-1382D01*
X-2465Y-882D01*
X-3402Y-1130D02*
X-3091Y-3382D01*
X-3402Y-1130D02*
X-3091Y-1382D01*
Y-3382D02*
Y-1382D01*
Y-3382D02*
X-2776Y-1130D01*
X-2465Y-882D01*
X14161Y14279D02*
Y21106D01*
Y18346D02*
X185259D01*
X14161D02*
X16661Y17724D01*
X14161Y18346D02*
X16661Y18972D01*
X16161Y18346D02*
X16661Y18972D01*
X16161Y18346D02*
X16661Y17724D01*
X14161Y18346D02*
X16413Y18661D01*
X16161Y18346D02*
X16413Y18661D01*
X14161Y18346D02*
X16161D01*
X14161D02*
X16413Y18035D01*
X16661Y17724D01*
X14759Y-14382D02*
X19161D01*
Y-17142D02*
Y-6142D01*
X29161Y-17142D02*
Y-6142D01*
X19161Y-21142D02*
Y-6142D01*
Y-14382D02*
X21661Y-15008D01*
X19161Y-14382D02*
X21661Y-13756D01*
X21161Y-14382D02*
X21661Y-13756D01*
X21161Y-14382D02*
X21661Y-15008D01*
X19161Y-14382D02*
X21413Y-14071D01*
X21161Y-14382D02*
X21413Y-14071D01*
X19161Y-14382D02*
X21161D01*
X19161D02*
X21413Y-14693D01*
X21661Y-15008D01*
X19161Y-14382D02*
X29161D01*
X26661Y-13756D02*
X29161Y-14382D01*
X26661Y-15008D02*
X29161Y-14382D01*
X26661Y-15008D02*
X27161Y-14382D01*
X26661Y-13756D02*
X27161Y-14382D01*
X26909Y-14693D02*
X29161Y-14382D01*
X26909Y-14693D02*
X27161Y-14382D01*
X29161D01*
X26909Y-14071D02*
X29161Y-14382D01*
X26661Y-13756D02*
X26909Y-14071D01*
X19161Y-18382D02*
X185259D01*
X19161D02*
X21661Y-19008D01*
X19161Y-18382D02*
X21661Y-17756D01*
X21161Y-18382D02*
X21661Y-17756D01*
X21161Y-18382D02*
X21661Y-19008D01*
X19161Y-18382D02*
X21413Y-18071D01*
X21161Y-18382D02*
X21413Y-18071D01*
X19161Y-18382D02*
X21161D01*
X19161D02*
X21413Y-18693D01*
X21661Y-19008D01*
X193063Y18346D02*
X364161D01*
X193063Y-18382D02*
X359161D01*
X356661Y-17756D02*
X359161Y-18382D01*
X356661Y-19008D02*
X359161Y-18382D01*
X356661Y-19008D02*
X357161Y-18382D01*
X356661Y-17756D02*
X357161Y-18382D01*
X356909Y-18693D02*
X359161Y-18382D01*
X356909Y-18693D02*
X357161Y-18382D01*
X359161D01*
X356909Y-18071D02*
X359161Y-18382D01*
X356661Y-17756D02*
X356909Y-18071D01*
X364161Y14279D02*
Y21106D01*
X361661Y18972D02*
X364161Y18346D01*
X361661Y17724D02*
X364161Y18346D01*
X361661Y17724D02*
X362161Y18346D01*
X361661Y18972D02*
X362161Y18346D01*
X361909Y18035D02*
X364161Y18346D01*
X361909Y18035D02*
X362161Y18346D01*
X364161D01*
X361909Y18661D02*
X364161Y18346D01*
X361661Y18972D02*
X361909Y18661D01*
X359161Y-21142D02*
Y-6142D01*
M02*
