G04*
G04 #@! TF.GenerationSoftware,Altium Limited,Altium Designer,20.0.11 (256)*
G04*
G04 Layer_Color=0*
%FSLAX25Y25*%
%MOIN*%
G70*
G01*
G75*
%ADD24C,0.00394*%
D24*
X15149Y9819D02*
Y11520D01*
Y9819D02*
X16850D01*
Y11520D01*
X14161D02*
X23161D01*
X14161Y-8284D02*
Y11520D01*
X15149Y-8284D02*
Y-6583D01*
X16850D01*
Y-8284D02*
Y-6583D01*
X14161Y-8284D02*
X23161D01*
X23606Y8268D02*
X24161D01*
X21472Y9819D02*
X23161D01*
X21472D02*
Y11520D01*
X17909Y5366D02*
Y7870D01*
X20413D01*
Y5366D02*
Y7870D01*
X17909Y5366D02*
X20413D01*
X23161Y-8284D02*
Y11520D01*
X23700Y4618D02*
X24161D01*
X23161Y6618D02*
X23700Y4618D01*
X23161Y6618D02*
X23700Y8618D01*
X24161D01*
X23649Y10520D02*
X24161D01*
X23161Y11520D02*
X23649Y10520D01*
X24161Y-1382D02*
Y4618D01*
Y8618D02*
Y10520D01*
X25149Y9819D02*
Y11520D01*
X26850Y9819D02*
Y11520D01*
X25149Y9819D02*
X26850D01*
X25161Y-8284D02*
Y11520D01*
X24161Y8268D02*
X24716D01*
X25161Y11520D02*
X33161D01*
X24673Y10520D02*
X25161Y11520D01*
X24161Y10520D02*
X24673D01*
X24161Y8618D02*
X24622D01*
X25161Y6618D01*
X24622Y4618D02*
X25161Y6618D01*
X24161Y4618D02*
X24622D01*
X30413Y5366D02*
Y7870D01*
X27909D02*
X30413D01*
X27909Y5366D02*
Y7870D01*
Y5366D02*
X30413D01*
X24161Y-1382D02*
Y4618D01*
Y8618D02*
Y10520D01*
X23606Y-5032D02*
X24161D01*
X17909Y-4634D02*
Y-2130D01*
X20413D01*
Y-4634D02*
Y-2130D01*
X17909Y-4634D02*
X20413D01*
X21472Y-8284D02*
Y-6583D01*
X23161D01*
X23700Y-5382D02*
X24161D01*
X23161Y-3382D02*
X23700Y-5382D01*
X23161Y-3382D02*
X23700Y-1382D01*
X24161D01*
X23161Y-8284D02*
X23649Y-7284D01*
X24161D01*
Y-5382D01*
X26850Y-8284D02*
Y-6583D01*
X25149D02*
X26850D01*
X25149Y-8284D02*
Y-6583D01*
X24161Y-7284D02*
Y-5382D01*
Y-7284D02*
X24673D01*
X25161Y-8284D01*
X24161Y-5032D02*
X24716D01*
X24161Y-1382D02*
X24622D01*
X25161Y-3382D01*
X24622Y-5382D02*
X25161Y-3382D01*
X24161Y-5382D02*
X24622D01*
X25161Y-8284D02*
X33161D01*
X30413Y-4634D02*
Y-2130D01*
X27909D02*
X30413D01*
X27909Y-4634D02*
Y-2130D01*
Y-4634D02*
X30413D01*
X33161Y9819D02*
Y11520D01*
X31472Y9819D02*
X33161D01*
X31472D02*
Y11520D01*
X33161Y6618D02*
X33700Y4618D01*
X34161D01*
Y-1382D02*
Y4618D01*
X33161Y-8284D02*
Y11520D01*
Y6618D02*
X33700Y8618D01*
X34161D01*
X33606Y8268D02*
X34161D01*
X33649Y10520D02*
X34161D01*
X33161Y11520D02*
X33649Y10520D01*
X34161Y8618D02*
Y10520D01*
X35149Y9819D02*
Y11520D01*
X36850Y9819D02*
Y11520D01*
X35149Y9819D02*
X36850D01*
X43161D02*
Y11520D01*
X41472Y9819D02*
X43161D01*
X41472D02*
Y11520D01*
X43161Y6618D02*
X43700Y4618D01*
X44161D01*
Y-1382D02*
Y4618D01*
X43161Y-8284D02*
Y11520D01*
X35161Y-8284D02*
Y11520D01*
X34161Y8268D02*
X34716D01*
X43161Y6618D02*
X43700Y8618D01*
X43606Y8268D02*
X44161D01*
X43161Y11520D02*
X43649Y10520D01*
X35161Y11520D02*
X43161D01*
X34673Y10520D02*
X35161Y11520D01*
X34161Y10520D02*
X34673D01*
X34161Y8618D02*
X34622D01*
X35161Y6618D01*
X34622Y4618D02*
X35161Y6618D01*
X34161Y4618D02*
X34622D01*
X40413Y5366D02*
Y7870D01*
X37909D02*
X40413D01*
X37909Y5366D02*
Y7870D01*
Y5366D02*
X40413D01*
X34161Y-1382D02*
Y4618D01*
Y8618D02*
Y10520D01*
X33161Y-8284D02*
Y-6583D01*
X31472D02*
X33161D01*
X31472Y-8284D02*
Y-6583D01*
X33606Y-5032D02*
X34161D01*
X33700Y-5382D02*
X34161D01*
X33161Y-3382D02*
X33700Y-5382D01*
X33161Y-3382D02*
X33700Y-1382D01*
X34161D01*
X33161Y-8284D02*
X33649Y-7284D01*
X34161D01*
Y-5382D01*
X36850Y-8284D02*
Y-6583D01*
X35149D02*
X36850D01*
X35149Y-8284D02*
Y-6583D01*
X43161Y-8284D02*
Y-6583D01*
X41472D02*
X43161D01*
X41472Y-8284D02*
Y-6583D01*
X34161Y-7284D02*
Y-5382D01*
Y-7284D02*
X34673D01*
X35161Y-8284D01*
X34161Y-5032D02*
X34716D01*
X43606D02*
X44161D01*
X43161Y-3382D02*
X43700Y-5382D01*
X43161Y-3382D02*
X43700Y-1382D01*
X34161D02*
X34622D01*
X35161Y-3382D01*
X34622Y-5382D02*
X35161Y-3382D01*
X34161Y-5382D02*
X34622D01*
X35161Y-8284D02*
X43161D01*
X43649Y-7284D01*
X40413Y-4634D02*
Y-2130D01*
X37909D02*
X40413D01*
X37909Y-4634D02*
Y-2130D01*
Y-4634D02*
X40413D01*
X43700Y8618D02*
X44161D01*
X43649Y10520D02*
X44161D01*
Y8618D02*
Y10520D01*
X45149Y9819D02*
Y11520D01*
X46850Y9819D02*
Y11520D01*
X45149Y9819D02*
X46850D01*
X53161D02*
Y11520D01*
X51472Y9819D02*
X53161D01*
X51472D02*
Y11520D01*
X53161Y6618D02*
X53700Y4618D01*
X54161D01*
Y-1382D02*
Y4618D01*
X53161Y-8284D02*
Y11520D01*
X45161Y-8284D02*
Y11520D01*
X44161Y8268D02*
X44716D01*
X53161Y6618D02*
X53700Y8618D01*
X54161D01*
X53606Y8268D02*
X54161D01*
X53649Y10520D02*
X54161D01*
X53161Y11520D02*
X53649Y10520D01*
X45161Y11520D02*
X53161D01*
X44673Y10520D02*
X45161Y11520D01*
X44161Y10520D02*
X44673D01*
X44161Y8618D02*
X44622D01*
X45161Y6618D01*
X44622Y4618D02*
X45161Y6618D01*
X44161Y4618D02*
X44622D01*
X50413Y5366D02*
Y7870D01*
X47909D02*
X50413D01*
X47909Y5366D02*
Y7870D01*
Y5366D02*
X50413D01*
X44161Y-1382D02*
Y4618D01*
Y8618D02*
Y10520D01*
X54161Y8618D02*
Y10520D01*
X55149Y9819D02*
Y11520D01*
Y9819D02*
X56850D01*
X55161Y-8284D02*
Y11520D01*
X54161Y8268D02*
X54716D01*
X55161Y11520D02*
X63161D01*
X54673Y10520D02*
X55161Y11520D01*
X54161Y10520D02*
X54673D01*
X54161Y8618D02*
X54622D01*
X55161Y6618D01*
X54622Y4618D02*
X55161Y6618D01*
X54161Y4618D02*
X54622D01*
X54161Y-1382D02*
Y4618D01*
Y8618D02*
Y10520D01*
X43700Y-5382D02*
X44161D01*
X43700Y-1382D02*
X44161D01*
X43649Y-7284D02*
X44161D01*
Y-5382D01*
X46850Y-8284D02*
Y-6583D01*
X45149D02*
X46850D01*
X45149Y-8284D02*
Y-6583D01*
X53161Y-8284D02*
Y-6583D01*
X51472D02*
X53161D01*
X51472Y-8284D02*
Y-6583D01*
X44161Y-7284D02*
Y-5382D01*
Y-7284D02*
X44673D01*
X45161Y-8284D01*
X44161Y-5032D02*
X44716D01*
X53606D02*
X54161D01*
X53700Y-5382D02*
X54161D01*
X53161Y-3382D02*
X53700Y-5382D01*
X53161Y-3382D02*
X53700Y-1382D01*
X54161D01*
X44161D02*
X44622D01*
X45161Y-3382D01*
X44622Y-5382D02*
X45161Y-3382D01*
X44161Y-5382D02*
X44622D01*
X45161Y-8284D02*
X53161D01*
X53649Y-7284D01*
X54161D01*
X50413Y-4634D02*
Y-2130D01*
X47909D02*
X50413D01*
X47909Y-4634D02*
Y-2130D01*
Y-4634D02*
X50413D01*
X54161Y-7284D02*
Y-5382D01*
X55149Y-6583D02*
X56850D01*
X55149Y-8284D02*
Y-6583D01*
X54161Y-7284D02*
Y-5382D01*
Y-7284D02*
X54673D01*
X55161Y-8284D01*
X54161Y-5032D02*
X54716D01*
X54161Y-1382D02*
X54622D01*
X55161Y-3382D01*
X54622Y-5382D02*
X55161Y-3382D01*
X54161Y-5382D02*
X54622D01*
X55161Y-8284D02*
X63161D01*
X56850Y9819D02*
Y11520D01*
X63161Y9819D02*
Y11520D01*
X61472Y9819D02*
X63161D01*
X61472D02*
Y11520D01*
X63161Y6618D02*
X63700Y4618D01*
X64161D01*
Y-1382D02*
Y4618D01*
X63161Y-8284D02*
Y11520D01*
Y6618D02*
X63700Y8618D01*
X64161D01*
X63606Y8268D02*
X64161D01*
X63649Y10520D02*
X64161D01*
X63161Y11520D02*
X63649Y10520D01*
X60413Y5366D02*
Y7870D01*
X57909D02*
X60413D01*
X57909Y5366D02*
Y7870D01*
Y5366D02*
X60413D01*
X64161Y8618D02*
Y10520D01*
X65149Y9819D02*
Y11520D01*
X66850Y9819D02*
Y11520D01*
X65149Y9819D02*
X66850D01*
X65161Y-8284D02*
Y11520D01*
X64161Y8268D02*
X64716D01*
X65161Y11520D02*
X73161D01*
X64673Y10520D02*
X65161Y11520D01*
X64161Y10520D02*
X64673D01*
X64161Y8618D02*
X64622D01*
X65161Y6618D01*
X64622Y4618D02*
X65161Y6618D01*
X64161Y4618D02*
X64622D01*
X67909Y7870D02*
X70413D01*
X67909Y5366D02*
Y7870D01*
Y5366D02*
X70413D01*
X64161Y-1382D02*
Y4618D01*
Y8618D02*
Y10520D01*
X56850Y-8284D02*
Y-6583D01*
X63161Y-8284D02*
Y-6583D01*
X61472D02*
X63161D01*
X61472Y-8284D02*
Y-6583D01*
X63606Y-5032D02*
X64161D01*
X63700Y-5382D02*
X64161D01*
X63161Y-3382D02*
X63700Y-5382D01*
X63161Y-3382D02*
X63700Y-1382D01*
X64161D01*
X63161Y-8284D02*
X63649Y-7284D01*
X64161D01*
X60413Y-4634D02*
Y-2130D01*
X57909D02*
X60413D01*
X57909Y-4634D02*
Y-2130D01*
Y-4634D02*
X60413D01*
X64161Y-7284D02*
Y-5382D01*
X66850Y-8284D02*
Y-6583D01*
X65149D02*
X66850D01*
X65149Y-8284D02*
Y-6583D01*
X64161Y-7284D02*
Y-5382D01*
Y-7284D02*
X64673D01*
X65161Y-8284D01*
X64161Y-5032D02*
X64716D01*
X64161Y-1382D02*
X64622D01*
X65161Y-3382D01*
X64622Y-5382D02*
X65161Y-3382D01*
X64161Y-5382D02*
X64622D01*
X65161Y-8284D02*
X73161D01*
X67909Y-2130D02*
X70413D01*
X67909Y-4634D02*
Y-2130D01*
Y-4634D02*
X70413D01*
X73161Y9819D02*
Y11520D01*
X71472Y9819D02*
X73161D01*
X71472D02*
Y11520D01*
X73161Y6618D02*
X73700Y4618D01*
X74161D01*
Y-1382D02*
Y4618D01*
X73161Y-8284D02*
Y11520D01*
Y6618D02*
X73700Y8618D01*
X74161D01*
X73606Y8268D02*
X74161D01*
X73649Y10520D02*
X74161D01*
X73161Y11520D02*
X73649Y10520D01*
X70413Y5366D02*
Y7870D01*
X74161Y8618D02*
Y10520D01*
X75149Y9819D02*
Y11520D01*
X76850Y9819D02*
Y11520D01*
X75149Y9819D02*
X76850D01*
X83161D02*
Y11520D01*
X81472Y9819D02*
X83161D01*
X81472D02*
Y11520D01*
X75161Y-8284D02*
Y11520D01*
X74161Y8268D02*
X74716D01*
X75161Y11520D02*
X83161D01*
X74673Y10520D02*
X75161Y11520D01*
X74161Y10520D02*
X74673D01*
X74161Y8618D02*
X74622D01*
X75161Y6618D01*
X74622Y4618D02*
X75161Y6618D01*
X74161Y4618D02*
X74622D01*
X80413Y5366D02*
Y7870D01*
X77909D02*
X80413D01*
X77909Y5366D02*
Y7870D01*
Y5366D02*
X80413D01*
X74161Y-1382D02*
Y4618D01*
Y8618D02*
Y10520D01*
X73161Y-8284D02*
Y-6583D01*
X71472D02*
X73161D01*
X71472Y-8284D02*
Y-6583D01*
X73606Y-5032D02*
X74161D01*
X73700Y-5382D02*
X74161D01*
X73161Y-3382D02*
X73700Y-5382D01*
X73161Y-3382D02*
X73700Y-1382D01*
X74161D01*
X73161Y-8284D02*
X73649Y-7284D01*
X74161D01*
X70413Y-4634D02*
Y-2130D01*
X74161Y-7284D02*
Y-5382D01*
X76850Y-8284D02*
Y-6583D01*
X75149D02*
X76850D01*
X75149Y-8284D02*
Y-6583D01*
X83161Y-8284D02*
Y-6583D01*
X81472D02*
X83161D01*
X81472Y-8284D02*
Y-6583D01*
X74161Y-7284D02*
Y-5382D01*
Y-7284D02*
X74673D01*
X75161Y-8284D01*
X74161Y-5032D02*
X74716D01*
X74161Y-1382D02*
X74622D01*
X75161Y-3382D01*
X74622Y-5382D02*
X75161Y-3382D01*
X74161Y-5382D02*
X74622D01*
X75161Y-8284D02*
X83161D01*
X80413Y-4634D02*
Y-2130D01*
X77909D02*
X80413D01*
X77909Y-4634D02*
Y-2130D01*
Y-4634D02*
X80413D01*
X83161Y6618D02*
X83700Y4618D01*
X84161D01*
Y-1382D02*
Y4618D01*
X83161Y-8284D02*
Y11520D01*
Y6618D02*
X83700Y8618D01*
X84161D01*
X83606Y8268D02*
X84161D01*
X83649Y10520D02*
X84161D01*
X83161Y11520D02*
X83649Y10520D01*
X84161Y8618D02*
Y10520D01*
X85149Y9819D02*
Y11520D01*
X86850Y9819D02*
Y11520D01*
X85149Y9819D02*
X86850D01*
X93161D02*
Y11520D01*
X91472Y9819D02*
X93161D01*
X91472D02*
Y11520D01*
X93161Y6618D02*
X93700Y4618D01*
X94161D01*
Y-1382D02*
Y4618D01*
X93161Y-8284D02*
Y11520D01*
X85161Y-8284D02*
Y11520D01*
X84161Y8268D02*
X84716D01*
X93161Y6618D02*
X93700Y8618D01*
X94161D01*
X93606Y8268D02*
X94161D01*
X93649Y10520D02*
X94161D01*
X93161Y11520D02*
X93649Y10520D01*
X85161Y11520D02*
X93161D01*
X84673Y10520D02*
X85161Y11520D01*
X84161Y10520D02*
X84673D01*
X84161Y8618D02*
X84622D01*
X85161Y6618D01*
X84622Y4618D02*
X85161Y6618D01*
X84161Y4618D02*
X84622D01*
X90413Y5366D02*
Y7870D01*
X87909D02*
X90413D01*
X87909Y5366D02*
Y7870D01*
Y5366D02*
X90413D01*
X84161Y-1382D02*
Y4618D01*
Y8618D02*
Y10520D01*
X94161Y8618D02*
Y10520D01*
X95149Y9819D02*
Y11520D01*
Y9819D02*
X96850D01*
X95161Y-8284D02*
Y11520D01*
X94161Y8268D02*
X94716D01*
X95161Y11520D02*
X103161D01*
X94673Y10520D02*
X95161Y11520D01*
X94161Y10520D02*
X94673D01*
X94161Y8618D02*
X94622D01*
X95161Y6618D01*
X94622Y4618D02*
X95161Y6618D01*
X94161Y4618D02*
X94622D01*
X94161Y-1382D02*
Y4618D01*
Y8618D02*
Y10520D01*
X83606Y-5032D02*
X84161D01*
X83700Y-5382D02*
X84161D01*
X83161Y-3382D02*
X83700Y-5382D01*
X83161Y-3382D02*
X83700Y-1382D01*
X84161D01*
X83161Y-8284D02*
X83649Y-7284D01*
X84161D01*
Y-5382D01*
X86850Y-8284D02*
Y-6583D01*
X85149D02*
X86850D01*
X85149Y-8284D02*
Y-6583D01*
X93161Y-8284D02*
Y-6583D01*
X91472D02*
X93161D01*
X91472Y-8284D02*
Y-6583D01*
X84161Y-7284D02*
Y-5382D01*
Y-7284D02*
X84673D01*
X85161Y-8284D01*
X84161Y-5032D02*
X84716D01*
X93606D02*
X94161D01*
X93700Y-5382D02*
X94161D01*
X93161Y-3382D02*
X93700Y-5382D01*
X93161Y-3382D02*
X93700Y-1382D01*
X94161D01*
X84161D02*
X84622D01*
X85161Y-3382D01*
X84622Y-5382D02*
X85161Y-3382D01*
X84161Y-5382D02*
X84622D01*
X85161Y-8284D02*
X93161D01*
X93649Y-7284D01*
X94161D01*
X90413Y-4634D02*
Y-2130D01*
X87909D02*
X90413D01*
X87909Y-4634D02*
Y-2130D01*
Y-4634D02*
X90413D01*
X94161Y-7284D02*
Y-5382D01*
X95149Y-6583D02*
X96850D01*
X95149Y-8284D02*
Y-6583D01*
X94161Y-7284D02*
Y-5382D01*
Y-7284D02*
X94673D01*
X95161Y-8284D01*
X94161Y-5032D02*
X94716D01*
X94161Y-1382D02*
X94622D01*
X95161Y-3382D01*
X94622Y-5382D02*
X95161Y-3382D01*
X94161Y-5382D02*
X94622D01*
X95161Y-8284D02*
X103161D01*
X96850Y9819D02*
Y11520D01*
X103161Y9819D02*
Y11520D01*
X101472Y9819D02*
X103161D01*
X101472D02*
Y11520D01*
X103161Y6618D02*
X103700Y4618D01*
X104161D01*
Y-1382D02*
Y4618D01*
X103161Y-8284D02*
Y11520D01*
Y6618D02*
X103700Y8618D01*
X104161D01*
X103606Y8268D02*
X104161D01*
X103649Y10520D02*
X104161D01*
X103161Y11520D02*
X103649Y10520D01*
X100413Y5366D02*
Y7870D01*
X97909D02*
X100413D01*
X97909Y5366D02*
Y7870D01*
Y5366D02*
X100413D01*
X104161Y8618D02*
Y10520D01*
X105149Y9819D02*
Y11520D01*
X106850Y9819D02*
Y11520D01*
X105149Y9819D02*
X106850D01*
X105161Y-8284D02*
Y11520D01*
X104161Y8268D02*
X104716D01*
X105161Y11520D02*
X113161D01*
X104673Y10520D02*
X105161Y11520D01*
X104161Y10520D02*
X104673D01*
X104161Y8618D02*
X104622D01*
X105161Y6618D01*
X104622Y4618D02*
X105161Y6618D01*
X104161Y4618D02*
X104622D01*
X107909Y7870D02*
X110413D01*
X107909Y5366D02*
Y7870D01*
Y5366D02*
X110413D01*
X104161Y-1382D02*
Y4618D01*
Y8618D02*
Y10520D01*
X96850Y-8284D02*
Y-6583D01*
X103161Y-8284D02*
Y-6583D01*
X101472D02*
X103161D01*
X101472Y-8284D02*
Y-6583D01*
X103606Y-5032D02*
X104161D01*
X103700Y-5382D02*
X104161D01*
X103161Y-3382D02*
X103700Y-5382D01*
X103161Y-3382D02*
X103700Y-1382D01*
X104161D01*
X103161Y-8284D02*
X103649Y-7284D01*
X104161D01*
X100413Y-4634D02*
Y-2130D01*
X97909D02*
X100413D01*
X97909Y-4634D02*
Y-2130D01*
Y-4634D02*
X100413D01*
X104161Y-7284D02*
Y-5382D01*
X106850Y-8284D02*
Y-6583D01*
X105149D02*
X106850D01*
X105149Y-8284D02*
Y-6583D01*
X104161Y-7284D02*
Y-5382D01*
Y-7284D02*
X104673D01*
X105161Y-8284D01*
X104161Y-5032D02*
X104716D01*
X104161Y-1382D02*
X104622D01*
X105161Y-3382D01*
X104622Y-5382D02*
X105161Y-3382D01*
X104161Y-5382D02*
X104622D01*
X105161Y-8284D02*
X113161D01*
X107909Y-2130D02*
X110413D01*
X107909Y-4634D02*
Y-2130D01*
Y-4634D02*
X110413D01*
X113161Y9819D02*
Y11520D01*
X111472Y9819D02*
X113161D01*
X111472D02*
Y11520D01*
X113161Y6618D02*
X113700Y4618D01*
X114161D01*
Y-1382D02*
Y4618D01*
X113161Y-8284D02*
Y11520D01*
Y6618D02*
X113700Y8618D01*
X114161D01*
X113606Y8268D02*
X114161D01*
X113649Y10520D02*
X114161D01*
X113161Y11520D02*
X113649Y10520D01*
X110413Y5366D02*
Y7870D01*
X114161Y8618D02*
Y10520D01*
X115149Y9819D02*
Y11520D01*
X116850Y9819D02*
Y11520D01*
X115149Y9819D02*
X116850D01*
X123161D02*
Y11520D01*
X121472Y9819D02*
X123161D01*
X121472D02*
Y11520D01*
X115161Y-8284D02*
Y11520D01*
X114161Y8268D02*
X114716D01*
X115161Y11520D02*
X123161D01*
X114673Y10520D02*
X115161Y11520D01*
X114161Y10520D02*
X114673D01*
X114161Y8618D02*
X114622D01*
X115161Y6618D01*
X114622Y4618D02*
X115161Y6618D01*
X114161Y4618D02*
X114622D01*
X120413Y5366D02*
Y7870D01*
X117909D02*
X120413D01*
X117909Y5366D02*
Y7870D01*
Y5366D02*
X120413D01*
X114161Y-1382D02*
Y4618D01*
Y8618D02*
Y10520D01*
X113161Y-8284D02*
Y-6583D01*
X111472D02*
X113161D01*
X111472Y-8284D02*
Y-6583D01*
X113606Y-5032D02*
X114161D01*
X113700Y-5382D02*
X114161D01*
X113161Y-3382D02*
X113700Y-5382D01*
X113161Y-3382D02*
X113700Y-1382D01*
X114161D01*
X113161Y-8284D02*
X113649Y-7284D01*
X114161D01*
X110413Y-4634D02*
Y-2130D01*
X114161Y-7284D02*
Y-5382D01*
X116850Y-8284D02*
Y-6583D01*
X115149D02*
X116850D01*
X115149Y-8284D02*
Y-6583D01*
X123161Y-8284D02*
Y-6583D01*
X121472D02*
X123161D01*
X121472Y-8284D02*
Y-6583D01*
X114161Y-7284D02*
Y-5382D01*
Y-7284D02*
X114673D01*
X115161Y-8284D01*
X114161Y-5032D02*
X114716D01*
X114161Y-1382D02*
X114622D01*
X115161Y-3382D01*
X114622Y-5382D02*
X115161Y-3382D01*
X114161Y-5382D02*
X114622D01*
X115161Y-8284D02*
X123161D01*
X120413Y-4634D02*
Y-2130D01*
X117909D02*
X120413D01*
X117909Y-4634D02*
Y-2130D01*
Y-4634D02*
X120413D01*
X123161Y6618D02*
X123700Y4618D01*
X124161D01*
Y-1382D02*
Y4618D01*
X123161Y-8284D02*
Y11520D01*
Y6618D02*
X123700Y8618D01*
X124161D01*
X123606Y8268D02*
X124161D01*
X123649Y10520D02*
X124161D01*
X123161Y11520D02*
X123649Y10520D01*
X124161Y8618D02*
Y10520D01*
X125149Y9819D02*
Y11520D01*
X126850Y9819D02*
Y11520D01*
X125149Y9819D02*
X126850D01*
X133161D02*
Y11520D01*
X131472Y9819D02*
X133161D01*
X131472D02*
Y11520D01*
X133161Y6618D02*
X133700Y4618D01*
X134161D01*
Y-1382D02*
Y4618D01*
X133161Y-8284D02*
Y11520D01*
X125161Y-8284D02*
Y11520D01*
X124161Y8268D02*
X124716D01*
X133161Y6618D02*
X133700Y8618D01*
X134161D01*
X133606Y8268D02*
X134161D01*
X133649Y10520D02*
X134161D01*
X133161Y11520D02*
X133649Y10520D01*
X125161Y11520D02*
X133161D01*
X124673Y10520D02*
X125161Y11520D01*
X124161Y10520D02*
X124673D01*
X124161Y8618D02*
X124622D01*
X125161Y6618D01*
X124622Y4618D02*
X125161Y6618D01*
X124161Y4618D02*
X124622D01*
X130413Y5366D02*
Y7870D01*
X127909D02*
X130413D01*
X127909Y5366D02*
Y7870D01*
Y5366D02*
X130413D01*
X124161Y-1382D02*
Y4618D01*
Y8618D02*
Y10520D01*
X134161Y8618D02*
Y10520D01*
X135149Y9819D02*
Y11520D01*
Y9819D02*
X136850D01*
X135161Y-8284D02*
Y11520D01*
X134161Y8268D02*
X134716D01*
X135161Y11520D02*
X143161D01*
X134673Y10520D02*
X135161Y11520D01*
X134161Y10520D02*
X134673D01*
X134161Y8618D02*
X134622D01*
X135161Y6618D01*
X134622Y4618D02*
X135161Y6618D01*
X134161Y4618D02*
X134622D01*
X134161Y-1382D02*
Y4618D01*
Y8618D02*
Y10520D01*
X123606Y-5032D02*
X124161D01*
X123700Y-5382D02*
X124161D01*
X123161Y-3382D02*
X123700Y-5382D01*
X123161Y-3382D02*
X123700Y-1382D01*
X124161D01*
X123161Y-8284D02*
X123649Y-7284D01*
X124161D01*
Y-5382D01*
X126850Y-8284D02*
Y-6583D01*
X125149D02*
X126850D01*
X125149Y-8284D02*
Y-6583D01*
X133161Y-8284D02*
Y-6583D01*
X131472D02*
X133161D01*
X131472Y-8284D02*
Y-6583D01*
X124161Y-7284D02*
Y-5382D01*
Y-7284D02*
X124673D01*
X125161Y-8284D01*
X124161Y-5032D02*
X124716D01*
X133606D02*
X134161D01*
X133700Y-5382D02*
X134161D01*
X133161Y-3382D02*
X133700Y-5382D01*
X133161Y-3382D02*
X133700Y-1382D01*
X134161D01*
X124161D02*
X124622D01*
X125161Y-3382D01*
X124622Y-5382D02*
X125161Y-3382D01*
X124161Y-5382D02*
X124622D01*
X125161Y-8284D02*
X133161D01*
X133649Y-7284D01*
X134161D01*
X130413Y-4634D02*
Y-2130D01*
X127909D02*
X130413D01*
X127909Y-4634D02*
Y-2130D01*
Y-4634D02*
X130413D01*
X134161Y-7284D02*
Y-5382D01*
X135149Y-6583D02*
X136850D01*
X135149Y-8284D02*
Y-6583D01*
X134161Y-7284D02*
Y-5382D01*
Y-7284D02*
X134673D01*
X135161Y-8284D01*
X134161Y-5032D02*
X134716D01*
X134161Y-1382D02*
X134622D01*
X135161Y-3382D01*
X134622Y-5382D02*
X135161Y-3382D01*
X134161Y-5382D02*
X134622D01*
X135161Y-8284D02*
X143161D01*
X136850Y9819D02*
Y11520D01*
X143161Y9819D02*
Y11520D01*
X141472Y9819D02*
X143161D01*
X141472D02*
Y11520D01*
X143161Y6618D02*
X143700Y4618D01*
X144161D01*
Y-1382D02*
Y4618D01*
X143161Y-8284D02*
Y11520D01*
Y6618D02*
X143700Y8618D01*
X144161D01*
X143606Y8268D02*
X144161D01*
X143649Y10520D02*
X144161D01*
X143161Y11520D02*
X143649Y10520D01*
X140413Y5366D02*
Y7870D01*
X137909D02*
X140413D01*
X137909Y5366D02*
Y7870D01*
Y5366D02*
X140413D01*
X144161Y8618D02*
Y10520D01*
X145149Y9819D02*
Y11520D01*
X146850Y9819D02*
Y11520D01*
X145149Y9819D02*
X146850D01*
X145161Y-8284D02*
Y11520D01*
X144161Y8268D02*
X144716D01*
X145161Y11520D02*
X153161D01*
X144673Y10520D02*
X145161Y11520D01*
X144161Y10520D02*
X144673D01*
X144161Y8618D02*
X144622D01*
X145161Y6618D01*
X144622Y4618D02*
X145161Y6618D01*
X144161Y4618D02*
X144622D01*
X147909Y7870D02*
X150413D01*
X147909Y5366D02*
Y7870D01*
Y5366D02*
X150413D01*
X144161Y-1382D02*
Y4618D01*
Y8618D02*
Y10520D01*
X136850Y-8284D02*
Y-6583D01*
X143161Y-8284D02*
Y-6583D01*
X141472D02*
X143161D01*
X141472Y-8284D02*
Y-6583D01*
X143606Y-5032D02*
X144161D01*
X143700Y-5382D02*
X144161D01*
X143161Y-3382D02*
X143700Y-5382D01*
X143161Y-3382D02*
X143700Y-1382D01*
X144161D01*
X143161Y-8284D02*
X143649Y-7284D01*
X144161D01*
X140413Y-4634D02*
Y-2130D01*
X137909D02*
X140413D01*
X137909Y-4634D02*
Y-2130D01*
Y-4634D02*
X140413D01*
X144161Y-7284D02*
Y-5382D01*
X146850Y-8284D02*
Y-6583D01*
X145149D02*
X146850D01*
X145149Y-8284D02*
Y-6583D01*
X144161Y-7284D02*
Y-5382D01*
Y-7284D02*
X144673D01*
X145161Y-8284D01*
X144161Y-5032D02*
X144716D01*
X144161Y-1382D02*
X144622D01*
X145161Y-3382D01*
X144622Y-5382D02*
X145161Y-3382D01*
X144161Y-5382D02*
X144622D01*
X145161Y-8284D02*
X153161D01*
X147909Y-2130D02*
X150413D01*
X147909Y-4634D02*
Y-2130D01*
Y-4634D02*
X150413D01*
X153161Y9819D02*
Y11520D01*
X151472Y9819D02*
X153161D01*
X151472D02*
Y11520D01*
X153161Y6618D02*
X153700Y4618D01*
X154161D01*
Y-1382D02*
Y4618D01*
X153161Y-8284D02*
Y11520D01*
Y6618D02*
X153700Y8618D01*
X154161D01*
X153606Y8268D02*
X154161D01*
X153649Y10520D02*
X154161D01*
X153161Y11520D02*
X153649Y10520D01*
X150413Y5366D02*
Y7870D01*
X154161Y8618D02*
Y10520D01*
X155149Y9819D02*
Y11520D01*
X156850Y9819D02*
Y11520D01*
X155149Y9819D02*
X156850D01*
X163161D02*
Y11520D01*
X161472Y9819D02*
X163161D01*
X161472D02*
Y11520D01*
X155161Y-8284D02*
Y11520D01*
X154161Y8268D02*
X154716D01*
X155161Y11520D02*
X163161D01*
X154673Y10520D02*
X155161Y11520D01*
X154161Y10520D02*
X154673D01*
X154161Y8618D02*
X154622D01*
X155161Y6618D01*
X154622Y4618D02*
X155161Y6618D01*
X154161Y4618D02*
X154622D01*
X160413Y5366D02*
Y7870D01*
X157909D02*
X160413D01*
X157909Y5366D02*
Y7870D01*
Y5366D02*
X160413D01*
X154161Y-1382D02*
Y4618D01*
Y8618D02*
Y10520D01*
X153161Y-8284D02*
Y-6583D01*
X151472D02*
X153161D01*
X151472Y-8284D02*
Y-6583D01*
X153606Y-5032D02*
X154161D01*
X153700Y-5382D02*
X154161D01*
X153161Y-3382D02*
X153700Y-5382D01*
X153161Y-3382D02*
X153700Y-1382D01*
X154161D01*
X153161Y-8284D02*
X153649Y-7284D01*
X154161D01*
X150413Y-4634D02*
Y-2130D01*
X154161Y-7284D02*
Y-5382D01*
X156850Y-8284D02*
Y-6583D01*
X155149D02*
X156850D01*
X155149Y-8284D02*
Y-6583D01*
X163161Y-8284D02*
Y-6583D01*
X161472D02*
X163161D01*
X161472Y-8284D02*
Y-6583D01*
X154161Y-7284D02*
Y-5382D01*
Y-7284D02*
X154673D01*
X155161Y-8284D01*
X154161Y-5032D02*
X154716D01*
X154161Y-1382D02*
X154622D01*
X155161Y-3382D01*
X154622Y-5382D02*
X155161Y-3382D01*
X154161Y-5382D02*
X154622D01*
X155161Y-8284D02*
X163161D01*
X160413Y-4634D02*
Y-2130D01*
X157909D02*
X160413D01*
X157909Y-4634D02*
Y-2130D01*
Y-4634D02*
X160413D01*
X163161Y6618D02*
X163700Y4618D01*
X164161D01*
Y-1382D02*
Y4618D01*
X163161Y-8284D02*
Y11520D01*
Y6618D02*
X163700Y8618D01*
X164161D01*
X163606Y8268D02*
X164161D01*
X163649Y10520D02*
X164161D01*
X163161Y11520D02*
X163649Y10520D01*
X164161Y8618D02*
Y10520D01*
X165149Y9819D02*
Y11520D01*
X166850Y9819D02*
Y11520D01*
X165149Y9819D02*
X166850D01*
X173161D02*
Y11520D01*
X171472Y9819D02*
X173161D01*
X171472D02*
Y11520D01*
X173161Y6618D02*
X173700Y4618D01*
X174161D01*
Y-1382D02*
Y4618D01*
X173161Y-8284D02*
Y11520D01*
X165161Y-8284D02*
Y11520D01*
X164161Y8268D02*
X164716D01*
X173161Y6618D02*
X173700Y8618D01*
X174161D01*
X173606Y8268D02*
X174161D01*
X173649Y10520D02*
X174161D01*
X173161Y11520D02*
X173649Y10520D01*
X165161Y11520D02*
X173161D01*
X164673Y10520D02*
X165161Y11520D01*
X164161Y10520D02*
X164673D01*
X164161Y8618D02*
X164622D01*
X165161Y6618D01*
X164622Y4618D02*
X165161Y6618D01*
X164161Y4618D02*
X164622D01*
X170413Y5366D02*
Y7870D01*
X167909D02*
X170413D01*
X167909Y5366D02*
Y7870D01*
Y5366D02*
X170413D01*
X164161Y-1382D02*
Y4618D01*
Y8618D02*
Y10520D01*
X174161Y8618D02*
Y10520D01*
Y8268D02*
X174716D01*
X174673Y10520D02*
X175161Y11520D01*
X174161Y10520D02*
X174673D01*
X174161Y8618D02*
X174622D01*
X175161Y6618D01*
X174622Y4618D02*
X175161Y6618D01*
X174161Y4618D02*
X174622D01*
X174161Y-1382D02*
Y4618D01*
Y8618D02*
Y10520D01*
X163606Y-5032D02*
X164161D01*
X163700Y-5382D02*
X164161D01*
X163161Y-3382D02*
X163700Y-5382D01*
X163161Y-3382D02*
X163700Y-1382D01*
X164161D01*
X163161Y-8284D02*
X163649Y-7284D01*
X164161D01*
Y-5382D01*
X166850Y-8284D02*
Y-6583D01*
X165149D02*
X166850D01*
X165149Y-8284D02*
Y-6583D01*
X173161Y-8284D02*
Y-6583D01*
X171472D02*
X173161D01*
X171472Y-8284D02*
Y-6583D01*
X164161Y-7284D02*
Y-5382D01*
Y-7284D02*
X164673D01*
X165161Y-8284D01*
X164161Y-5032D02*
X164716D01*
X173606D02*
X174161D01*
X173700Y-5382D02*
X174161D01*
X173161Y-3382D02*
X173700Y-5382D01*
X173161Y-3382D02*
X173700Y-1382D01*
X174161D01*
X164161D02*
X164622D01*
X165161Y-3382D01*
X164622Y-5382D02*
X165161Y-3382D01*
X164161Y-5382D02*
X164622D01*
X165161Y-8284D02*
X173161D01*
X173649Y-7284D01*
X174161D01*
X170413Y-4634D02*
Y-2130D01*
X167909D02*
X170413D01*
X167909Y-4634D02*
Y-2130D01*
Y-4634D02*
X170413D01*
X174161Y-7284D02*
Y-5382D01*
Y-7284D02*
Y-5382D01*
Y-7284D02*
X174673D01*
X175161Y-8284D01*
X174161Y-5032D02*
X174716D01*
X174161Y-1382D02*
X174622D01*
X175161Y-3382D01*
X174622Y-5382D02*
X175161Y-3382D01*
X174161Y-5382D02*
X174622D01*
X175149Y9819D02*
Y11520D01*
X176850Y9819D02*
Y11520D01*
X175149Y9819D02*
X176850D01*
X183161D02*
Y11520D01*
X181472Y9819D02*
X183161D01*
X181472D02*
Y11520D01*
X183161Y6618D02*
X183700Y4618D01*
X184161D01*
Y-1382D02*
Y4618D01*
X183161Y-8284D02*
Y11520D01*
X175161Y-8284D02*
Y11520D01*
X183161Y6618D02*
X183700Y8618D01*
X184161D01*
X183606Y8268D02*
X184161D01*
X183649Y10520D02*
X184161D01*
X183161Y11520D02*
X183649Y10520D01*
X175161Y11520D02*
X183161D01*
X180413Y5366D02*
Y7870D01*
X177909D02*
X180413D01*
X177909Y5366D02*
Y7870D01*
Y5366D02*
X180413D01*
X184161Y8618D02*
Y10520D01*
X185149Y9819D02*
Y11520D01*
X186850Y9819D02*
Y11520D01*
X185149Y9819D02*
X186850D01*
X185161Y-8284D02*
Y11520D01*
X184161Y8268D02*
X184716D01*
X185161Y11520D02*
X193161D01*
X184673Y10520D02*
X185161Y11520D01*
X184161Y10520D02*
X184673D01*
X184161Y8618D02*
X184622D01*
X185161Y6618D01*
X184622Y4618D02*
X185161Y6618D01*
X184161Y4618D02*
X184622D01*
X187909Y7870D02*
X190413D01*
X187909Y5366D02*
Y7870D01*
Y5366D02*
X190413D01*
X184161Y-1382D02*
Y4618D01*
Y8618D02*
Y10520D01*
X176850Y-8284D02*
Y-6583D01*
X175149D02*
X176850D01*
X175149Y-8284D02*
Y-6583D01*
X183161Y-8284D02*
Y-6583D01*
X181472D02*
X183161D01*
X181472Y-8284D02*
Y-6583D01*
X183606Y-5032D02*
X184161D01*
X183700Y-5382D02*
X184161D01*
X183161Y-3382D02*
X183700Y-5382D01*
X183161Y-3382D02*
X183700Y-1382D01*
X184161D01*
X175161Y-8284D02*
X183161D01*
X183649Y-7284D01*
X184161D01*
X180413Y-4634D02*
Y-2130D01*
X177909D02*
X180413D01*
X177909Y-4634D02*
Y-2130D01*
Y-4634D02*
X180413D01*
X184161Y-7284D02*
Y-5382D01*
X186850Y-8284D02*
Y-6583D01*
X185149D02*
X186850D01*
X185149Y-8284D02*
Y-6583D01*
X184161Y-7284D02*
Y-5382D01*
Y-7284D02*
X184673D01*
X185161Y-8284D01*
X184161Y-5032D02*
X184716D01*
X184161Y-1382D02*
X184622D01*
X185161Y-3382D01*
X184622Y-5382D02*
X185161Y-3382D01*
X184161Y-5382D02*
X184622D01*
X185161Y-8284D02*
X193161D01*
X187909Y-2130D02*
X190413D01*
X187909Y-4634D02*
Y-2130D01*
Y-4634D02*
X190413D01*
X193161Y9819D02*
Y11520D01*
X191472Y9819D02*
X193161D01*
X191472D02*
Y11520D01*
X193161Y6618D02*
X193700Y4618D01*
X194161D01*
Y-1382D02*
Y4618D01*
X193161Y-8284D02*
Y11520D01*
Y6618D02*
X193700Y8618D01*
X194161D01*
X193606Y8268D02*
X194161D01*
X193649Y10520D02*
X194161D01*
X193161Y11520D02*
X193649Y10520D01*
X190413Y5366D02*
Y7870D01*
X194161Y8618D02*
Y10520D01*
X195149Y9819D02*
Y11520D01*
X196850Y9819D02*
Y11520D01*
X195149Y9819D02*
X196850D01*
X195161Y-8284D02*
Y11520D01*
X194161Y8268D02*
X194716D01*
X195161Y11520D02*
X203161D01*
X194673Y10520D02*
X195161Y11520D01*
X194161Y10520D02*
X194673D01*
X194161Y8618D02*
X194622D01*
X195161Y6618D01*
X194622Y4618D02*
X195161Y6618D01*
X194161Y4618D02*
X194622D01*
X200413Y5366D02*
Y7870D01*
X197909D02*
X200413D01*
X197909Y5366D02*
Y7870D01*
Y5366D02*
X200413D01*
X194161Y-1382D02*
Y4618D01*
Y8618D02*
Y10520D01*
X193161Y-8284D02*
Y-6583D01*
X191472D02*
X193161D01*
X191472Y-8284D02*
Y-6583D01*
X193606Y-5032D02*
X194161D01*
X193700Y-5382D02*
X194161D01*
X193161Y-3382D02*
X193700Y-5382D01*
X193161Y-3382D02*
X193700Y-1382D01*
X194161D01*
X193161Y-8284D02*
X193649Y-7284D01*
X194161D01*
X190413Y-4634D02*
Y-2130D01*
X194161Y-7284D02*
Y-5382D01*
X196850Y-8284D02*
Y-6583D01*
X195149D02*
X196850D01*
X195149Y-8284D02*
Y-6583D01*
X194161Y-7284D02*
Y-5382D01*
Y-7284D02*
X194673D01*
X195161Y-8284D01*
X194161Y-5032D02*
X194716D01*
X194161Y-1382D02*
X194622D01*
X195161Y-3382D01*
X194622Y-5382D02*
X195161Y-3382D01*
X194161Y-5382D02*
X194622D01*
X195161Y-8284D02*
X203161D01*
X200413Y-4634D02*
Y-2130D01*
X197909D02*
X200413D01*
X197909Y-4634D02*
Y-2130D01*
Y-4634D02*
X200413D01*
X203161Y9819D02*
Y11520D01*
X201472Y9819D02*
X203161D01*
X201472D02*
Y11520D01*
X203161Y6618D02*
X203700Y4618D01*
X204161D01*
Y-1382D02*
Y4618D01*
X203161Y-8284D02*
Y11520D01*
Y6618D02*
X203700Y8618D01*
X204161D01*
X203606Y8268D02*
X204161D01*
X203649Y10520D02*
X204161D01*
X203161Y11520D02*
X203649Y10520D01*
X204161Y8618D02*
Y10520D01*
X205149Y9819D02*
Y11520D01*
X206850Y9819D02*
Y11520D01*
X205149Y9819D02*
X206850D01*
X213161D02*
Y11520D01*
X211472Y9819D02*
X213161D01*
X211472D02*
Y11520D01*
X213161Y6618D02*
X213700Y4618D01*
X214161D01*
Y-1382D02*
Y4618D01*
X213161Y-8284D02*
Y11520D01*
X205161Y-8284D02*
Y11520D01*
X204161Y8268D02*
X204716D01*
X213161Y6618D02*
X213700Y8618D01*
X214161D01*
X213606Y8268D02*
X214161D01*
X213649Y10520D02*
X214161D01*
X213161Y11520D02*
X213649Y10520D01*
X205161Y11520D02*
X213161D01*
X204673Y10520D02*
X205161Y11520D01*
X204161Y10520D02*
X204673D01*
X204161Y8618D02*
X204622D01*
X205161Y6618D01*
X204622Y4618D02*
X205161Y6618D01*
X204161Y4618D02*
X204622D01*
X210413Y5366D02*
Y7870D01*
X207909D02*
X210413D01*
X207909Y5366D02*
Y7870D01*
Y5366D02*
X210413D01*
X204161Y-1382D02*
Y4618D01*
Y8618D02*
Y10520D01*
X214161Y8618D02*
Y10520D01*
Y8268D02*
X214716D01*
X214161Y10520D02*
X214673D01*
X214161Y8618D02*
X214622D01*
X214161Y4618D02*
X214622D01*
X214161Y-1382D02*
Y4618D01*
Y8618D02*
Y10520D01*
X203161Y-8284D02*
Y-6583D01*
X201472D02*
X203161D01*
X201472Y-8284D02*
Y-6583D01*
X203606Y-5032D02*
X204161D01*
X203700Y-5382D02*
X204161D01*
X203161Y-3382D02*
X203700Y-5382D01*
X203161Y-3382D02*
X203700Y-1382D01*
X204161D01*
X203161Y-8284D02*
X203649Y-7284D01*
X204161D01*
Y-5382D01*
X206850Y-8284D02*
Y-6583D01*
X205149D02*
X206850D01*
X205149Y-8284D02*
Y-6583D01*
X213161Y-8284D02*
Y-6583D01*
X211472D02*
X213161D01*
X211472Y-8284D02*
Y-6583D01*
X204161Y-7284D02*
Y-5382D01*
Y-7284D02*
X204673D01*
X205161Y-8284D01*
X204161Y-5032D02*
X204716D01*
X213606D02*
X214161D01*
X213700Y-5382D02*
X214161D01*
X213161Y-3382D02*
X213700Y-5382D01*
X213161Y-3382D02*
X213700Y-1382D01*
X214161D01*
X204161D02*
X204622D01*
X205161Y-3382D01*
X204622Y-5382D02*
X205161Y-3382D01*
X204161Y-5382D02*
X204622D01*
X205161Y-8284D02*
X213161D01*
X213649Y-7284D01*
X214161D01*
X210413Y-4634D02*
Y-2130D01*
X207909D02*
X210413D01*
X207909Y-4634D02*
Y-2130D01*
Y-4634D02*
X210413D01*
X214161Y-7284D02*
Y-5382D01*
Y-7284D02*
Y-5382D01*
Y-7284D02*
X214673D01*
X215161Y-8284D01*
X214161Y-5032D02*
X214716D01*
X214161Y-1382D02*
X214622D01*
X214161Y-5382D02*
X214622D01*
X215149Y9819D02*
Y11520D01*
X216850Y9819D02*
Y11520D01*
X215149Y9819D02*
X216850D01*
X223161D02*
Y11520D01*
X221472Y9819D02*
X223161D01*
X221472D02*
Y11520D01*
X223161Y6618D02*
X223700Y4618D01*
X224161D01*
Y-1382D02*
Y4618D01*
X223161Y-8284D02*
Y11520D01*
X215161Y-8284D02*
Y11520D01*
X223161Y6618D02*
X223700Y8618D01*
X224161D01*
X223606Y8268D02*
X224161D01*
X223649Y10520D02*
X224161D01*
X223161Y11520D02*
X223649Y10520D01*
X215161Y11520D02*
X223161D01*
X214673Y10520D02*
X215161Y11520D01*
X214622Y8618D02*
X215161Y6618D01*
X214622Y4618D02*
X215161Y6618D01*
X220413Y5366D02*
Y7870D01*
X217909D02*
X220413D01*
X217909Y5366D02*
Y7870D01*
Y5366D02*
X220413D01*
X224161Y8618D02*
Y10520D01*
X225149Y9819D02*
Y11520D01*
X226850Y9819D02*
Y11520D01*
X225149Y9819D02*
X226850D01*
X225161Y-8284D02*
Y11520D01*
X224161Y8268D02*
X224716D01*
X225161Y11520D02*
X233161D01*
X224673Y10520D02*
X225161Y11520D01*
X224161Y10520D02*
X224673D01*
X224161Y8618D02*
X224622D01*
X225161Y6618D01*
X224622Y4618D02*
X225161Y6618D01*
X224161Y4618D02*
X224622D01*
X224161Y-1382D02*
Y4618D01*
Y8618D02*
Y10520D01*
X216850Y-8284D02*
Y-6583D01*
X215149D02*
X216850D01*
X215149Y-8284D02*
Y-6583D01*
X223161Y-8284D02*
Y-6583D01*
X221472D02*
X223161D01*
X221472Y-8284D02*
Y-6583D01*
X223606Y-5032D02*
X224161D01*
X223700Y-5382D02*
X224161D01*
X223161Y-3382D02*
X223700Y-5382D01*
X223161Y-3382D02*
X223700Y-1382D01*
X224161D01*
X214622D02*
X215161Y-3382D01*
X214622Y-5382D02*
X215161Y-3382D01*
Y-8284D02*
X223161D01*
X223649Y-7284D01*
X224161D01*
X220413Y-4634D02*
Y-2130D01*
X217909D02*
X220413D01*
X217909Y-4634D02*
Y-2130D01*
Y-4634D02*
X220413D01*
X224161Y-7284D02*
Y-5382D01*
X226850Y-8284D02*
Y-6583D01*
X225149D02*
X226850D01*
X225149Y-8284D02*
Y-6583D01*
X224161Y-7284D02*
Y-5382D01*
Y-7284D02*
X224673D01*
X225161Y-8284D01*
X224161Y-5032D02*
X224716D01*
X224161Y-1382D02*
X224622D01*
X225161Y-3382D01*
X224622Y-5382D02*
X225161Y-3382D01*
X224161Y-5382D02*
X224622D01*
X225161Y-8284D02*
X233161D01*
Y9819D02*
Y11520D01*
X231472Y9819D02*
X233161D01*
X231472D02*
Y11520D01*
X233161Y6618D02*
X233700Y4618D01*
X234161D01*
Y-1382D02*
Y4618D01*
X233161Y-8284D02*
Y11520D01*
Y6618D02*
X233700Y8618D01*
X234161D01*
X233606Y8268D02*
X234161D01*
X233649Y10520D02*
X234161D01*
X233161Y11520D02*
X233649Y10520D01*
X230413Y5366D02*
Y7870D01*
X227909D02*
X230413D01*
X227909Y5366D02*
Y7870D01*
Y5366D02*
X230413D01*
X234161Y8618D02*
Y10520D01*
X235149Y9819D02*
Y11520D01*
X236850Y9819D02*
Y11520D01*
X235149Y9819D02*
X236850D01*
X235161Y-8284D02*
Y11520D01*
X234161Y8268D02*
X234716D01*
X235161Y11520D02*
X243161D01*
X234673Y10520D02*
X235161Y11520D01*
X234161Y10520D02*
X234673D01*
X234161Y8618D02*
X234622D01*
X235161Y6618D01*
X234622Y4618D02*
X235161Y6618D01*
X234161Y4618D02*
X234622D01*
X240413Y5366D02*
Y7870D01*
X237909D02*
X240413D01*
X237909Y5366D02*
Y7870D01*
Y5366D02*
X240413D01*
X234161Y-1382D02*
Y4618D01*
Y8618D02*
Y10520D01*
X233161Y-8284D02*
Y-6583D01*
X231472D02*
X233161D01*
X231472Y-8284D02*
Y-6583D01*
X233606Y-5032D02*
X234161D01*
X233700Y-5382D02*
X234161D01*
X233161Y-3382D02*
X233700Y-5382D01*
X233161Y-3382D02*
X233700Y-1382D01*
X234161D01*
X233161Y-8284D02*
X233649Y-7284D01*
X234161D01*
X230413Y-4634D02*
Y-2130D01*
X227909D02*
X230413D01*
X227909Y-4634D02*
Y-2130D01*
Y-4634D02*
X230413D01*
X234161Y-7284D02*
Y-5382D01*
X236850Y-8284D02*
Y-6583D01*
X235149D02*
X236850D01*
X235149Y-8284D02*
Y-6583D01*
X234161Y-7284D02*
Y-5382D01*
Y-7284D02*
X234673D01*
X235161Y-8284D01*
X234161Y-5032D02*
X234716D01*
X234161Y-1382D02*
X234622D01*
X235161Y-3382D01*
X234622Y-5382D02*
X235161Y-3382D01*
X234161Y-5382D02*
X234622D01*
X235161Y-8284D02*
X243161D01*
X240413Y-4634D02*
Y-2130D01*
X237909D02*
X240413D01*
X237909Y-4634D02*
Y-2130D01*
Y-4634D02*
X240413D01*
X243161Y9819D02*
Y11520D01*
X241472Y9819D02*
X243161D01*
X241472D02*
Y11520D01*
X243161Y6618D02*
X243700Y4618D01*
X244161D01*
Y-1382D02*
Y4618D01*
X243161Y-8284D02*
Y11520D01*
Y6618D02*
X243700Y8618D01*
X244161D01*
X243606Y8268D02*
X244161D01*
X243649Y10520D02*
X244161D01*
X243161Y11520D02*
X243649Y10520D01*
X244161Y8618D02*
Y10520D01*
X245149Y9819D02*
Y11520D01*
X246850Y9819D02*
Y11520D01*
X245149Y9819D02*
X246850D01*
X253161D02*
Y11520D01*
X251472Y9819D02*
X253161D01*
X251472D02*
Y11520D01*
X253161Y6618D02*
X253700Y4618D01*
X254161D01*
Y-1382D02*
Y4618D01*
X253161Y-8284D02*
Y11520D01*
X245161Y-8284D02*
Y11520D01*
X244161Y8268D02*
X244716D01*
X253161Y6618D02*
X253700Y8618D01*
X253161Y11520D02*
X253649Y10520D01*
X245161Y11520D02*
X253161D01*
X244673Y10520D02*
X245161Y11520D01*
X244161Y10520D02*
X244673D01*
X244161Y8618D02*
X244622D01*
X245161Y6618D01*
X244622Y4618D02*
X245161Y6618D01*
X244161Y4618D02*
X244622D01*
X250413Y5366D02*
Y7870D01*
X247909D02*
X250413D01*
X247909Y5366D02*
Y7870D01*
Y5366D02*
X250413D01*
X244161Y-1382D02*
Y4618D01*
Y8618D02*
Y10520D01*
X243161Y-8284D02*
Y-6583D01*
X241472D02*
X243161D01*
X241472Y-8284D02*
Y-6583D01*
X243606Y-5032D02*
X244161D01*
X243700Y-5382D02*
X244161D01*
X243161Y-3382D02*
X243700Y-5382D01*
X243161Y-3382D02*
X243700Y-1382D01*
X244161D01*
X243161Y-8284D02*
X243649Y-7284D01*
X244161D01*
Y-5382D01*
X246850Y-8284D02*
Y-6583D01*
X245149D02*
X246850D01*
X245149Y-8284D02*
Y-6583D01*
X253161Y-8284D02*
Y-6583D01*
X251472D02*
X253161D01*
X251472Y-8284D02*
Y-6583D01*
X244161Y-7284D02*
Y-5382D01*
Y-7284D02*
X244673D01*
X245161Y-8284D01*
X244161Y-5032D02*
X244716D01*
X253161Y-3382D02*
X253700Y-5382D01*
X253161Y-3382D02*
X253700Y-1382D01*
X244161D02*
X244622D01*
X245161Y-3382D01*
X244622Y-5382D02*
X245161Y-3382D01*
X244161Y-5382D02*
X244622D01*
X245161Y-8284D02*
X253161D01*
X253649Y-7284D01*
X250413Y-4634D02*
Y-2130D01*
X247909D02*
X250413D01*
X247909Y-4634D02*
Y-2130D01*
Y-4634D02*
X250413D01*
X253700Y8618D02*
X254161D01*
X253606Y8268D02*
X254161D01*
X253649Y10520D02*
X254161D01*
Y8618D02*
Y10520D01*
X255149Y9819D02*
Y11520D01*
X256850Y9819D02*
Y11520D01*
X255149Y9819D02*
X256850D01*
X263161D02*
Y11520D01*
X261472Y9819D02*
X263161D01*
X261472D02*
Y11520D01*
X263161Y6618D02*
X263700Y4618D01*
X264161D01*
Y-1382D02*
Y4618D01*
X263161Y-8284D02*
Y11520D01*
X255161Y-8284D02*
Y11520D01*
X254161Y8268D02*
X254716D01*
X263161Y6618D02*
X263700Y8618D01*
X264161D01*
X263606Y8268D02*
X264161D01*
X263649Y10520D02*
X264161D01*
X263161Y11520D02*
X263649Y10520D01*
X255161Y11520D02*
X263161D01*
X254673Y10520D02*
X255161Y11520D01*
X254161Y10520D02*
X254673D01*
X254161Y8618D02*
X254622D01*
X255161Y6618D01*
X254622Y4618D02*
X255161Y6618D01*
X254161Y4618D02*
X254622D01*
X260413Y5366D02*
Y7870D01*
X257909D02*
X260413D01*
X257909Y5366D02*
Y7870D01*
Y5366D02*
X260413D01*
X254161Y-1382D02*
Y4618D01*
Y8618D02*
Y10520D01*
X264161Y8618D02*
Y10520D01*
X265149Y9819D02*
Y11520D01*
Y9819D02*
X266850D01*
X265161Y-8284D02*
Y11520D01*
X264161Y8268D02*
X264716D01*
X265161Y11520D02*
X273161D01*
X264673Y10520D02*
X265161Y11520D01*
X264161Y10520D02*
X264673D01*
X264161Y8618D02*
X264622D01*
X265161Y6618D01*
X264622Y4618D02*
X265161Y6618D01*
X264161Y4618D02*
X264622D01*
X264161Y-1382D02*
Y4618D01*
Y8618D02*
Y10520D01*
X253606Y-5032D02*
X254161D01*
X253700Y-5382D02*
X254161D01*
X253700Y-1382D02*
X254161D01*
X253649Y-7284D02*
X254161D01*
Y-5382D01*
X256850Y-8284D02*
Y-6583D01*
X255149D02*
X256850D01*
X255149Y-8284D02*
Y-6583D01*
X263161Y-8284D02*
Y-6583D01*
X261472D02*
X263161D01*
X261472Y-8284D02*
Y-6583D01*
X254161Y-7284D02*
Y-5382D01*
Y-7284D02*
X254673D01*
X255161Y-8284D01*
X254161Y-5032D02*
X254716D01*
X263606D02*
X264161D01*
X263700Y-5382D02*
X264161D01*
X263161Y-3382D02*
X263700Y-5382D01*
X263161Y-3382D02*
X263700Y-1382D01*
X264161D01*
X254161D02*
X254622D01*
X255161Y-3382D01*
X254622Y-5382D02*
X255161Y-3382D01*
X254161Y-5382D02*
X254622D01*
X255161Y-8284D02*
X263161D01*
X263649Y-7284D01*
X264161D01*
X260413Y-4634D02*
Y-2130D01*
X257909D02*
X260413D01*
X257909Y-4634D02*
Y-2130D01*
Y-4634D02*
X260413D01*
X264161Y-7284D02*
Y-5382D01*
X265149Y-6583D02*
X266850D01*
X265149Y-8284D02*
Y-6583D01*
X264161Y-7284D02*
Y-5382D01*
Y-7284D02*
X264673D01*
X265161Y-8284D01*
X264161Y-5032D02*
X264716D01*
X264161Y-1382D02*
X264622D01*
X265161Y-3382D01*
X264622Y-5382D02*
X265161Y-3382D01*
X264161Y-5382D02*
X264622D01*
X265161Y-8284D02*
X273161D01*
X266850Y9819D02*
Y11520D01*
X273161Y9819D02*
Y11520D01*
X271472Y9819D02*
X273161D01*
X271472D02*
Y11520D01*
X273161Y6618D02*
X273700Y4618D01*
X274161D01*
Y-1382D02*
Y4618D01*
X273161Y-8284D02*
Y11520D01*
Y6618D02*
X273700Y8618D01*
X274161D01*
X273606Y8268D02*
X274161D01*
X273649Y10520D02*
X274161D01*
X273161Y11520D02*
X273649Y10520D01*
X270413Y5366D02*
Y7870D01*
X267909D02*
X270413D01*
X267909Y5366D02*
Y7870D01*
Y5366D02*
X270413D01*
X274161Y8618D02*
Y10520D01*
X275149Y9819D02*
Y11520D01*
X276850Y9819D02*
Y11520D01*
X275149Y9819D02*
X276850D01*
X275161Y-8284D02*
Y11520D01*
X274161Y8268D02*
X274716D01*
X275161Y11520D02*
X283161D01*
X274673Y10520D02*
X275161Y11520D01*
X274161Y10520D02*
X274673D01*
X274161Y8618D02*
X274622D01*
X275161Y6618D01*
X274622Y4618D02*
X275161Y6618D01*
X274161Y4618D02*
X274622D01*
X277909Y7870D02*
X280413D01*
X277909Y5366D02*
Y7870D01*
Y5366D02*
X280413D01*
X274161Y-1382D02*
Y4618D01*
Y8618D02*
Y10520D01*
X266850Y-8284D02*
Y-6583D01*
X273161Y-8284D02*
Y-6583D01*
X271472D02*
X273161D01*
X271472Y-8284D02*
Y-6583D01*
X273606Y-5032D02*
X274161D01*
X273700Y-5382D02*
X274161D01*
X273161Y-3382D02*
X273700Y-5382D01*
X273161Y-3382D02*
X273700Y-1382D01*
X274161D01*
X273161Y-8284D02*
X273649Y-7284D01*
X274161D01*
X270413Y-4634D02*
Y-2130D01*
X267909D02*
X270413D01*
X267909Y-4634D02*
Y-2130D01*
Y-4634D02*
X270413D01*
X274161Y-7284D02*
Y-5382D01*
X276850Y-8284D02*
Y-6583D01*
X275149D02*
X276850D01*
X275149Y-8284D02*
Y-6583D01*
X274161Y-7284D02*
Y-5382D01*
Y-7284D02*
X274673D01*
X275161Y-8284D01*
X274161Y-5032D02*
X274716D01*
X274161Y-1382D02*
X274622D01*
X275161Y-3382D01*
X274622Y-5382D02*
X275161Y-3382D01*
X274161Y-5382D02*
X274622D01*
X275161Y-8284D02*
X283161D01*
X277909Y-2130D02*
X280413D01*
X277909Y-4634D02*
Y-2130D01*
Y-4634D02*
X280413D01*
X283161Y9819D02*
Y11520D01*
X281472Y9819D02*
X283161D01*
X281472D02*
Y11520D01*
X283161Y6618D02*
X283700Y4618D01*
X284161D01*
Y-1382D02*
Y4618D01*
X283161Y-8284D02*
Y11520D01*
Y6618D02*
X283700Y8618D01*
X284161D01*
X283606Y8268D02*
X284161D01*
X283649Y10520D02*
X284161D01*
X283161Y11520D02*
X283649Y10520D01*
X280413Y5366D02*
Y7870D01*
X284161Y8618D02*
Y10520D01*
X285149Y9819D02*
Y11520D01*
X286850Y9819D02*
Y11520D01*
X285149Y9819D02*
X286850D01*
X293161D02*
Y11520D01*
X291472Y9819D02*
X293161D01*
X291472D02*
Y11520D01*
X285161Y-8284D02*
Y11520D01*
X284161Y8268D02*
X284716D01*
X285161Y11520D02*
X293161D01*
X284673Y10520D02*
X285161Y11520D01*
X284161Y10520D02*
X284673D01*
X284161Y8618D02*
X284622D01*
X285161Y6618D01*
X284622Y4618D02*
X285161Y6618D01*
X284161Y4618D02*
X284622D01*
X290413Y5366D02*
Y7870D01*
X287909D02*
X290413D01*
X287909Y5366D02*
Y7870D01*
Y5366D02*
X290413D01*
X284161Y-1382D02*
Y4618D01*
Y8618D02*
Y10520D01*
X283161Y-8284D02*
Y-6583D01*
X281472D02*
X283161D01*
X281472Y-8284D02*
Y-6583D01*
X283606Y-5032D02*
X284161D01*
X283700Y-5382D02*
X284161D01*
X283161Y-3382D02*
X283700Y-5382D01*
X283161Y-3382D02*
X283700Y-1382D01*
X284161D01*
X283161Y-8284D02*
X283649Y-7284D01*
X284161D01*
X280413Y-4634D02*
Y-2130D01*
X284161Y-7284D02*
Y-5382D01*
X286850Y-8284D02*
Y-6583D01*
X285149D02*
X286850D01*
X285149Y-8284D02*
Y-6583D01*
X293161Y-8284D02*
Y-6583D01*
X291472D02*
X293161D01*
X291472Y-8284D02*
Y-6583D01*
X284161Y-7284D02*
Y-5382D01*
Y-7284D02*
X284673D01*
X285161Y-8284D01*
X284161Y-5032D02*
X284716D01*
X284161Y-1382D02*
X284622D01*
X285161Y-3382D01*
X284622Y-5382D02*
X285161Y-3382D01*
X284161Y-5382D02*
X284622D01*
X285161Y-8284D02*
X293161D01*
X290413Y-4634D02*
Y-2130D01*
X287909D02*
X290413D01*
X287909Y-4634D02*
Y-2130D01*
Y-4634D02*
X290413D01*
X293161Y6618D02*
X293700Y4618D01*
X294161D01*
Y-1382D02*
Y4618D01*
X293161Y-8284D02*
Y11520D01*
Y6618D02*
X293700Y8618D01*
X294161D01*
X293606Y8268D02*
X294161D01*
X293649Y10520D02*
X294161D01*
X293161Y11520D02*
X293649Y10520D01*
X294161Y8618D02*
Y10520D01*
X295149Y9819D02*
Y11520D01*
X296850Y9819D02*
Y11520D01*
X295149Y9819D02*
X296850D01*
X303161D02*
Y11520D01*
X301472Y9819D02*
X303161D01*
X301472D02*
Y11520D01*
X303161Y6618D02*
X303700Y4618D01*
X304161D01*
Y-1382D02*
Y4618D01*
X303161Y-8284D02*
Y11520D01*
X295161Y-8284D02*
Y11520D01*
X294161Y8268D02*
X294716D01*
X303161Y6618D02*
X303700Y8618D01*
X304161D01*
X303606Y8268D02*
X304161D01*
X303649Y10520D02*
X304161D01*
X303161Y11520D02*
X303649Y10520D01*
X295161Y11520D02*
X303161D01*
X294673Y10520D02*
X295161Y11520D01*
X294161Y10520D02*
X294673D01*
X294161Y8618D02*
X294622D01*
X295161Y6618D01*
X294622Y4618D02*
X295161Y6618D01*
X294161Y4618D02*
X294622D01*
X300413Y5366D02*
Y7870D01*
X297909D02*
X300413D01*
X297909Y5366D02*
Y7870D01*
Y5366D02*
X300413D01*
X294161Y-1382D02*
Y4618D01*
Y8618D02*
Y10520D01*
X304161Y8618D02*
Y10520D01*
X305149Y9819D02*
Y11520D01*
Y9819D02*
X306850D01*
X305161Y-8284D02*
Y11520D01*
X304161Y8268D02*
X304716D01*
X305161Y11520D02*
X313161D01*
X304673Y10520D02*
X305161Y11520D01*
X304161Y10520D02*
X304673D01*
X304161Y8618D02*
X304622D01*
X305161Y6618D01*
X304622Y4618D02*
X305161Y6618D01*
X304161Y4618D02*
X304622D01*
X304161Y-1382D02*
Y4618D01*
Y8618D02*
Y10520D01*
X293606Y-5032D02*
X294161D01*
X293700Y-5382D02*
X294161D01*
X293161Y-3382D02*
X293700Y-5382D01*
X293161Y-3382D02*
X293700Y-1382D01*
X294161D01*
X293161Y-8284D02*
X293649Y-7284D01*
X294161D01*
Y-5382D01*
X296850Y-8284D02*
Y-6583D01*
X295149D02*
X296850D01*
X295149Y-8284D02*
Y-6583D01*
X303161Y-8284D02*
Y-6583D01*
X301472D02*
X303161D01*
X301472Y-8284D02*
Y-6583D01*
X294161Y-7284D02*
Y-5382D01*
Y-7284D02*
X294673D01*
X295161Y-8284D01*
X294161Y-5032D02*
X294716D01*
X303606D02*
X304161D01*
X303700Y-5382D02*
X304161D01*
X303161Y-3382D02*
X303700Y-5382D01*
X303161Y-3382D02*
X303700Y-1382D01*
X304161D01*
X294161D02*
X294622D01*
X295161Y-3382D01*
X294622Y-5382D02*
X295161Y-3382D01*
X294161Y-5382D02*
X294622D01*
X295161Y-8284D02*
X303161D01*
X303649Y-7284D01*
X304161D01*
X300413Y-4634D02*
Y-2130D01*
X297909D02*
X300413D01*
X297909Y-4634D02*
Y-2130D01*
Y-4634D02*
X300413D01*
X304161Y-7284D02*
Y-5382D01*
X305149Y-6583D02*
X306850D01*
X305149Y-8284D02*
Y-6583D01*
X304161Y-7284D02*
Y-5382D01*
Y-7284D02*
X304673D01*
X305161Y-8284D01*
X304161Y-5032D02*
X304716D01*
X304161Y-1382D02*
X304622D01*
X305161Y-3382D01*
X304622Y-5382D02*
X305161Y-3382D01*
X304161Y-5382D02*
X304622D01*
X305161Y-8284D02*
X313161D01*
X306850Y9819D02*
Y11520D01*
X313161Y9819D02*
Y11520D01*
X311472Y9819D02*
X313161D01*
X311472D02*
Y11520D01*
X313161Y6618D02*
X313700Y4618D01*
X314161D01*
Y-1382D02*
Y4618D01*
X313161Y-8284D02*
Y11520D01*
Y6618D02*
X313700Y8618D01*
X314161D01*
X313606Y8268D02*
X314161D01*
X313649Y10520D02*
X314161D01*
X313161Y11520D02*
X313649Y10520D01*
X310413Y5366D02*
Y7870D01*
X307909D02*
X310413D01*
X307909Y5366D02*
Y7870D01*
Y5366D02*
X310413D01*
X314161Y8618D02*
Y10520D01*
X315149Y9819D02*
Y11520D01*
X316850Y9819D02*
Y11520D01*
X315149Y9819D02*
X316850D01*
X315161Y-8284D02*
Y11520D01*
X314161Y8268D02*
X314716D01*
X315161Y11520D02*
X323161D01*
X314673Y10520D02*
X315161Y11520D01*
X314161Y10520D02*
X314673D01*
X314161Y8618D02*
X314622D01*
X315161Y6618D01*
X314622Y4618D02*
X315161Y6618D01*
X314161Y4618D02*
X314622D01*
X317909Y7870D02*
X320413D01*
X317909Y5366D02*
Y7870D01*
Y5366D02*
X320413D01*
X314161Y-1382D02*
Y4618D01*
Y8618D02*
Y10520D01*
X306850Y-8284D02*
Y-6583D01*
X313161Y-8284D02*
Y-6583D01*
X311472D02*
X313161D01*
X311472Y-8284D02*
Y-6583D01*
X313606Y-5032D02*
X314161D01*
X313700Y-5382D02*
X314161D01*
X313161Y-3382D02*
X313700Y-5382D01*
X313161Y-3382D02*
X313700Y-1382D01*
X314161D01*
X313161Y-8284D02*
X313649Y-7284D01*
X314161D01*
X310413Y-4634D02*
Y-2130D01*
X307909D02*
X310413D01*
X307909Y-4634D02*
Y-2130D01*
Y-4634D02*
X310413D01*
X314161Y-7284D02*
Y-5382D01*
X316850Y-8284D02*
Y-6583D01*
X315149D02*
X316850D01*
X315149Y-8284D02*
Y-6583D01*
X314161Y-7284D02*
Y-5382D01*
Y-7284D02*
X314673D01*
X315161Y-8284D01*
X314161Y-5032D02*
X314716D01*
X314161Y-1382D02*
X314622D01*
X315161Y-3382D01*
X314622Y-5382D02*
X315161Y-3382D01*
X314161Y-5382D02*
X314622D01*
X315161Y-8284D02*
X323161D01*
X317909Y-2130D02*
X320413D01*
X317909Y-4634D02*
Y-2130D01*
Y-4634D02*
X320413D01*
X323161Y9819D02*
Y11520D01*
X321472Y9819D02*
X323161D01*
X321472D02*
Y11520D01*
X323161Y6618D02*
X323700Y4618D01*
X324161D01*
Y-1382D02*
Y4618D01*
X323161Y-8284D02*
Y11520D01*
Y6618D02*
X323700Y8618D01*
X324161D01*
X323606Y8268D02*
X324161D01*
X323649Y10520D02*
X324161D01*
X323161Y11520D02*
X323649Y10520D01*
X320413Y5366D02*
Y7870D01*
X324161Y8618D02*
Y10520D01*
X325149Y9819D02*
Y11520D01*
X326850Y9819D02*
Y11520D01*
X325149Y9819D02*
X326850D01*
X333161D02*
Y11520D01*
X331472Y9819D02*
X333161D01*
X331472D02*
Y11520D01*
X325161Y-8284D02*
Y11520D01*
X324161Y8268D02*
X324716D01*
X325161Y11520D02*
X333161D01*
X324673Y10520D02*
X325161Y11520D01*
X324161Y10520D02*
X324673D01*
X324161Y8618D02*
X324622D01*
X325161Y6618D01*
X324622Y4618D02*
X325161Y6618D01*
X324161Y4618D02*
X324622D01*
X330413Y5366D02*
Y7870D01*
X327909D02*
X330413D01*
X327909Y5366D02*
Y7870D01*
Y5366D02*
X330413D01*
X324161Y-1382D02*
Y4618D01*
Y8618D02*
Y10520D01*
X323161Y-8284D02*
Y-6583D01*
X321472D02*
X323161D01*
X321472Y-8284D02*
Y-6583D01*
X323606Y-5032D02*
X324161D01*
X323700Y-5382D02*
X324161D01*
X323161Y-3382D02*
X323700Y-5382D01*
X323161Y-3382D02*
X323700Y-1382D01*
X324161D01*
X323161Y-8284D02*
X323649Y-7284D01*
X324161D01*
X320413Y-4634D02*
Y-2130D01*
X324161Y-7284D02*
Y-5382D01*
X326850Y-8284D02*
Y-6583D01*
X325149D02*
X326850D01*
X325149Y-8284D02*
Y-6583D01*
X333161Y-8284D02*
Y-6583D01*
X331472D02*
X333161D01*
X331472Y-8284D02*
Y-6583D01*
X324161Y-7284D02*
Y-5382D01*
Y-7284D02*
X324673D01*
X325161Y-8284D01*
X324161Y-5032D02*
X324716D01*
X324161Y-1382D02*
X324622D01*
X325161Y-3382D01*
X324622Y-5382D02*
X325161Y-3382D01*
X324161Y-5382D02*
X324622D01*
X325161Y-8284D02*
X333161D01*
X330413Y-4634D02*
Y-2130D01*
X327909D02*
X330413D01*
X327909Y-4634D02*
Y-2130D01*
Y-4634D02*
X330413D01*
X333161Y6618D02*
X333700Y4618D01*
X334161D01*
Y-1382D02*
Y4618D01*
X333161Y-8284D02*
Y11520D01*
Y6618D02*
X333700Y8618D01*
X334161D01*
X333606Y8268D02*
X334161D01*
X333649Y10520D02*
X334161D01*
X333161Y11520D02*
X333649Y10520D01*
X334161Y8618D02*
Y10520D01*
X335149Y9819D02*
Y11520D01*
X336850Y9819D02*
Y11520D01*
X335149Y9819D02*
X336850D01*
X343161D02*
Y11520D01*
X341472Y9819D02*
X343161D01*
X341472D02*
Y11520D01*
X343161Y6618D02*
X343700Y4618D01*
X344161D01*
Y-1382D02*
Y4618D01*
X343161Y-8284D02*
Y11520D01*
X335161Y-8284D02*
Y11520D01*
X334161Y8268D02*
X334716D01*
X343161Y6618D02*
X343700Y8618D01*
X344161D01*
X343606Y8268D02*
X344161D01*
X343649Y10520D02*
X344161D01*
X343161Y11520D02*
X343649Y10520D01*
X335161Y11520D02*
X343161D01*
X334673Y10520D02*
X335161Y11520D01*
X334161Y10520D02*
X334673D01*
X334161Y8618D02*
X334622D01*
X335161Y6618D01*
X334622Y4618D02*
X335161Y6618D01*
X334161Y4618D02*
X334622D01*
X340413Y5366D02*
Y7870D01*
X337909D02*
X340413D01*
X337909Y5366D02*
Y7870D01*
Y5366D02*
X340413D01*
X334161Y-1382D02*
Y4618D01*
Y8618D02*
Y10520D01*
X344161Y8618D02*
Y10520D01*
X345149Y9819D02*
Y11520D01*
Y9819D02*
X346850D01*
X345161Y-8284D02*
Y11520D01*
X344161Y8268D02*
X344716D01*
X345161Y11520D02*
X353161D01*
X344673Y10520D02*
X345161Y11520D01*
X344161Y10520D02*
X344673D01*
X344161Y8618D02*
X344622D01*
X345161Y6618D01*
X344622Y4618D02*
X345161Y6618D01*
X344161Y4618D02*
X344622D01*
X344161Y-1382D02*
Y4618D01*
Y8618D02*
Y10520D01*
X333606Y-5032D02*
X334161D01*
X333700Y-5382D02*
X334161D01*
X333161Y-3382D02*
X333700Y-5382D01*
X333161Y-3382D02*
X333700Y-1382D01*
X334161D01*
X333161Y-8284D02*
X333649Y-7284D01*
X334161D01*
Y-5382D01*
X336850Y-8284D02*
Y-6583D01*
X335149D02*
X336850D01*
X335149Y-8284D02*
Y-6583D01*
X343161Y-8284D02*
Y-6583D01*
X341472D02*
X343161D01*
X341472Y-8284D02*
Y-6583D01*
X334161Y-7284D02*
Y-5382D01*
Y-7284D02*
X334673D01*
X335161Y-8284D01*
X334161Y-5032D02*
X334716D01*
X343606D02*
X344161D01*
X343700Y-5382D02*
X344161D01*
X343161Y-3382D02*
X343700Y-5382D01*
X343161Y-3382D02*
X343700Y-1382D01*
X344161D01*
X334161D02*
X334622D01*
X335161Y-3382D01*
X334622Y-5382D02*
X335161Y-3382D01*
X334161Y-5382D02*
X334622D01*
X335161Y-8284D02*
X343161D01*
X343649Y-7284D01*
X344161D01*
X340413Y-4634D02*
Y-2130D01*
X337909D02*
X340413D01*
X337909Y-4634D02*
Y-2130D01*
Y-4634D02*
X340413D01*
X344161Y-7284D02*
Y-5382D01*
X345149Y-6583D02*
X346850D01*
X345149Y-8284D02*
Y-6583D01*
X344161Y-7284D02*
Y-5382D01*
Y-7284D02*
X344673D01*
X345161Y-8284D01*
X344161Y-5032D02*
X344716D01*
X344161Y-1382D02*
X344622D01*
X345161Y-3382D01*
X344622Y-5382D02*
X345161Y-3382D01*
X344161Y-5382D02*
X344622D01*
X345161Y-8284D02*
X353161D01*
X346850Y9819D02*
Y11520D01*
X353161Y9819D02*
Y11520D01*
X351472Y9819D02*
X353161D01*
X351472D02*
Y11520D01*
X353161Y6618D02*
X353700Y4618D01*
X354161D01*
Y-1382D02*
Y4618D01*
X353161Y-8284D02*
Y11520D01*
Y6618D02*
X353700Y8618D01*
X354161D01*
X353606Y8268D02*
X354161D01*
X353649Y10520D02*
X354161D01*
X353161Y11520D02*
X353649Y10520D01*
X350413Y5366D02*
Y7870D01*
X347909D02*
X350413D01*
X347909Y5366D02*
Y7870D01*
Y5366D02*
X350413D01*
X354161Y8618D02*
Y10520D01*
Y8618D02*
Y10520D01*
Y-1382D02*
Y4618D01*
X355161Y11520D02*
X364161D01*
X354673Y10520D02*
X355161Y11520D01*
X354161Y10520D02*
X354673D01*
X354161Y8618D02*
X354622D01*
X355161Y6618D01*
X354622Y4618D02*
X355161Y6618D01*
X354161Y4618D02*
X354622D01*
X355161Y-8284D02*
Y11520D01*
X357909Y5366D02*
X360413D01*
X357909D02*
Y7870D01*
X360413D01*
X356850Y9819D02*
Y11520D01*
X355161Y9819D02*
X356850D01*
X354161Y8268D02*
X354716D01*
X346850Y-8284D02*
Y-6583D01*
X353161Y-8284D02*
Y-6583D01*
X351472D02*
X353161D01*
X351472Y-8284D02*
Y-6583D01*
X353606Y-5032D02*
X354161D01*
X353700Y-5382D02*
X354161D01*
X353161Y-3382D02*
X353700Y-5382D01*
X353161Y-3382D02*
X353700Y-1382D01*
X354161D01*
X353161Y-8284D02*
X353649Y-7284D01*
X354161D01*
X350413Y-4634D02*
Y-2130D01*
X347909D02*
X350413D01*
X347909Y-4634D02*
Y-2130D01*
Y-4634D02*
X350413D01*
X354161Y-7284D02*
Y-5382D01*
Y-7284D02*
Y-5382D01*
Y-7284D02*
X354673D01*
X355161Y-8284D01*
X364161D01*
X354161Y-1382D02*
X354622D01*
X355161Y-3382D01*
X354622Y-5382D02*
X355161Y-3382D01*
X354161Y-5382D02*
X354622D01*
X355161Y-6583D02*
X356850D01*
Y-8284D02*
Y-6583D01*
X357909Y-4634D02*
X360413D01*
X357909D02*
Y-2130D01*
X360413D01*
X354161Y-5032D02*
X354716D01*
X364161Y-8284D02*
Y11520D01*
X360413Y5366D02*
Y7870D01*
X361472Y9819D02*
Y11520D01*
Y9819D02*
X363173D01*
Y11520D01*
X361472Y-8284D02*
Y-6583D01*
X363173D01*
Y-8284D02*
Y-6583D01*
X360413Y-4634D02*
Y-2130D01*
M02*
